<svg xmlns="http://www.w3.org/2000/svg" xmlns:xlink="http://www.w3.org/1999/xlink" width="70.328" height="70.328" viewBox="0 0 70.328 70.328">
  <defs>
    <filter id="Ellipse_3991" x="0" y="0" width="70.328" height="70.328" filterUnits="userSpaceOnUse">
      <feOffset dy="3" input="SourceAlpha"/>
      <feGaussianBlur stdDeviation="3" result="blur"/>
      <feFlood flood-opacity="0.161"/>
      <feComposite operator="in" in2="blur"/>
      <feComposite in="SourceGraphic"/>
    </filter>
  </defs>
  <g id="Group_4668" data-name="Group 4668" transform="translate(9 4.554)">
    <g id="Group_4666" data-name="Group 4666" transform="translate(0 1.446)">
      <g id="Group_4664" data-name="Group 4664">
        <g id="Group_4661" data-name="Group 4661">
          <g transform="matrix(1, 0, 0, 1, -9, -6)" filter="url(#Ellipse_3991)">
            <circle id="Ellipse_3991-2" data-name="Ellipse 3991" cx="22.805" cy="22.805" r="22.805" transform="translate(9 51.02) rotate(-80.78)" fill="#ffd05d"/>
          </g>
        </g>
      </g>
      <path id="Path_5479" data-name="Path 5479" d="M367.913,1053.438a.753.753,0,0,0-1.224.821,11.431,11.431,0,0,0,21.14.21.752.752,0,0,0-1.215-.83C383.276,1056.875,376.191,1061.479,367.913,1053.438Z" transform="translate(-351.096 -1023.824)" fill="#5e4939"/>
      <g id="Group_4665" data-name="Group 4665" transform="translate(12.408 20.24)">
        <path id="Path_5480" data-name="Path 5480" d="M362.819,1021.66a4.225,4.225,0,0,0-7.814-.078.679.679,0,0,0,1.1.751c1.265-1.227,3.266-2.212,5.611.067a.68.68,0,0,0,1.1-.74Z" transform="translate(-354.95 -1019.004)" fill="#303030"/>
        <path id="Path_5481" data-name="Path 5481" d="M436.049,1021.66a4.225,4.225,0,0,0-7.814-.078.679.679,0,0,0,1.1.752c1.265-1.227,3.266-2.212,5.611.067a.68.68,0,0,0,1.1-.74Z" transform="translate(-408.587 -1019.004)" fill="#303030"/>
      </g>
    </g>
    <g id="Group_4667" data-name="Group 4667" transform="translate(10.621 0)">
      <path id="Path_5482" data-name="Path 5482" d="M378.366,941.825a4.94,4.94,0,0,0-1.612-1.584,12.967,12.967,0,0,0-3.813-1.548,28.062,28.062,0,0,0-7.9-.7.471.471,0,0,0-.039.938,33.423,33.423,0,0,1,7.229,1.6,10.2,10.2,0,0,1,2.884,1.479,4.043,4.043,0,0,1,.464.436,1.969,1.969,0,0,1,.275.4.72.72,0,0,1,.014.631,3.847,3.847,0,0,1-1.928,1.449,16.886,16.886,0,0,1-3.228,1,29.487,29.487,0,0,1-3.552.531c-1.145.113-2.337.167-3.647.167a36.15,36.15,0,0,1-3.65-.169,29.959,29.959,0,0,1-3.545-.534,16.818,16.818,0,0,1-3.223-1,3.748,3.748,0,0,1-1.911-1.457.721.721,0,0,1,.024-.616,2.726,2.726,0,0,1,.757-.853,10.412,10.412,0,0,1,2.9-1.474,33.538,33.538,0,0,1,7.233-1.592.471.471,0,0,0-.038-.938,28.19,28.19,0,0,0-7.9.7,13.219,13.219,0,0,0-3.812,1.536,5.022,5.022,0,0,0-1.621,1.572,3.144,3.144,0,0,0-.423,1.153,2.76,2.76,0,0,0,.105,1.268,4.275,4.275,0,0,0,1.35,1.915,9.087,9.087,0,0,0,1.806,1.174,18.346,18.346,0,0,0,3.891,1.386,36.339,36.339,0,0,0,16.127.01,18.516,18.516,0,0,0,3.891-1.377,9.338,9.338,0,0,0,1.815-1.17,5.178,5.178,0,0,0,.783-.82,3.473,3.473,0,0,0,.573-1.058A2.905,2.905,0,0,0,378.366,941.825Z" transform="translate(-348.272 -937.951)" fill="#7cc4e8"/>
      <path id="Path_5483" data-name="Path 5483" d="M413.845,958.462a5.18,5.18,0,0,0,.783-.82,3.473,3.473,0,0,0,.573-1.058,2.811,2.811,0,0,0,0-1.829c-1.4,5.7-13.334,6.875-17.022,7.1.617.03,1.245.049,1.892.052a34.383,34.383,0,0,0,8.064-.9,18.506,18.506,0,0,0,3.891-1.377A9.331,9.331,0,0,0,413.845,958.462Z" transform="translate(-384.83 -950.26)" fill="#6ebcdb"/>
    </g>
  </g>
</svg>
