<svg xmlns="http://www.w3.org/2000/svg" width="23.524" height="15.683" viewBox="0 0 23.524 15.683">
  <g id="Group_16" data-name="Group 16" transform="translate(26.524 -6) rotate(90)">
    <path id="Path_13" data-name="Path 13" d="M18.841,12.148a1.186,1.186,0,0,1-.915-.392L11.392,5.222a1.263,1.263,0,0,1,0-1.83,1.263,1.263,0,0,1,1.83,0l6.534,6.534a1.263,1.263,0,0,1,0,1.83,1.186,1.186,0,0,1-.915.392Z" transform="translate(1.534)" fill="#fff"/>
    <path id="Path_14" data-name="Path 14" d="M7.307,12.148a1.186,1.186,0,0,1-.915-.392,1.263,1.263,0,0,1,0-1.83l6.534-6.534a1.263,1.263,0,0,1,1.83,0,1.263,1.263,0,0,1,0,1.83L8.222,11.756a1.186,1.186,0,0,1-.915.392Z" transform="translate(0 0)" fill="#fff"/>
    <path id="Path_15" data-name="Path 15" d="M12.307,26.524A1.235,1.235,0,0,1,11,25.217V4.307A1.235,1.235,0,0,1,12.307,3a1.235,1.235,0,0,1,1.307,1.307v20.91A1.235,1.235,0,0,1,12.307,26.524Z" transform="translate(1.534 0)" fill="#fff"/>
  </g>
</svg>
