<svg xmlns="http://www.w3.org/2000/svg" width="25.878" height="17.252" viewBox="0 0 25.878 17.252">
  <g id="Group_3275" data-name="Group 3275" transform="translate(25.878) rotate(90)">
    <path id="Path_13" data-name="Path 13" d="M8.626,0A1.305,1.305,0,0,0,7.62.431L.431,7.62a1.39,1.39,0,0,0,0,2.013,1.39,1.39,0,0,0,2.013,0L9.632,2.444a1.39,1.39,0,0,0,0-2.013A1.305,1.305,0,0,0,8.626,0Z" transform="translate(7.188 15.814)" fill="#fff"/>
    <path id="Path_14" data-name="Path 14" d="M1.438,0A1.305,1.305,0,0,0,.431.431a1.39,1.39,0,0,0,0,2.013L7.62,9.632A1.423,1.423,0,0,0,9.632,7.62L2.444.431A1.305,1.305,0,0,0,1.438,0Z" transform="translate(0 15.814)" fill="#fff"/>
    <path id="Path_15" data-name="Path 15" d="M1.438,0A1.358,1.358,0,0,0,0,1.438v23a1.358,1.358,0,0,0,1.438,1.438,1.358,1.358,0,0,0,1.438-1.438v-23A1.358,1.358,0,0,0,1.438,0Z" transform="translate(7.188 0)" fill="#fff"/>
  </g>
</svg>
