<svg xmlns="http://www.w3.org/2000/svg" width="581.228" height="531.6" viewBox="0 0 581.228 531.6">
  <g id="Artwork_17" data-name="Artwork 17" transform="translate(306.763 280.6)">
    <g id="Group_4190" data-name="Group 4190" transform="translate(-306.763 -280.6)">
      <path id="Path_5044" data-name="Path 5044" d="M1234.48,761.009a5.82,5.82,0,0,0-.926.71,17.446,17.446,0,0,0-5.013,7.895c-6.509,19.925-9.681,29.979-5.608,34.463a11.975,11.975,0,0,0,5.991,3.485,12.86,12.86,0,0,0,8.222-1.045c3.705-2.064,2.8-5.6,7.073-16.9,3.139-8.3,5.43-11.16,6.576-12.319a3.441,3.441,0,0,0,.379-.365c2.361-2.759-.375-10.106-5.319-13.766C1243.089,761.12,1237.978,759,1234.48,761.009Z" transform="translate(-1221.117 -416.412)" fill="#c5e3e8"/>
      <path id="Path_5044-2" data-name="Path 5044" d="M753.74,1126.864a5.743,5.743,0,0,0,.74.894,18.033,18.033,0,0,0,8.155,4.776c20.485,6.054,30.82,9,35.346,4.949a11.607,11.607,0,0,0,3.473-5.908,12.056,12.056,0,0,0-1.2-8.018c-2.169-3.589-5.77-2.649-17.4-6.651-8.54-2.939-11.5-5.134-12.705-6.236a3.366,3.366,0,0,0-.379-.364c-2.859-2.264-10.334.522-14,5.41C753.721,1118.45,751.635,1123.476,753.74,1126.864Z" transform="translate(-554.081 -607.749)" fill="#c5e3e8"/>
      <path id="Path_5204" data-name="Path 5204" d="M531.778,317.932a7.278,7.278,0,0,1,1.241-2.582c1.288-1.924,2.327-2.15,4.473-4.05,2.954-2.615,3.739-4.624,4.849-4.319.727.2,1.033,1.237,1.1,1.469a3.121,3.121,0,0,1-.59,2.681A14.81,14.81,0,0,1,546.8,308.3c1.658-.814,3.122-1.576,5.049-1.357a4.728,4.728,0,0,1,4.669,4.955c.054,4.841-20.116,12.731-21.372,13.217C534.63,324.67,531.046,321.454,531.778,317.932Z" transform="translate(-206.57 -168.114)" fill="#f0ad8c"/>
      <path id="Path_5046" data-name="Path 5046" d="M860.508,358.1c-2.244,3.5-5.543,6.793-5.563,12.233-.024,6.431,4.557,8.878,4.352,13.518-.363,8.194-15.4,13.812-18.6,15.007-24.015,8.968-88.457,18.794-101.406-9.074-7.312-15.738,2.833-41.272,16.639-46.117,7.914-2.777,13.972,2.318,22.912-2.4,7.167-3.781,6.906-8.971,13.911-17.327,2.083-2.485,13.942-16.631,31.915-18.616,1.093-.121,23.108-2.237,34.248,12.409C867.884,329.533,867.159,347.715,860.508,358.1Z" transform="translate(-610.565 -167.155)" fill="#3e4e7e"/>
      <path id="Path_5047" data-name="Path 5047" d="M750.748,341.963c-.021.085-.041.169-.061.253a25.293,25.293,0,0,0,19.479,30.295c13.939,3.109,27.818-5.415,31-19.037h0a24.969,24.969,0,0,0-18.9-30.134l-.308-.072h0c-13.9-3.262-27.877,5.109-31.214,18.7h0" transform="translate(-552.971 -176.689)" fill="#f0ad8c"/>
      <path id="Path_5205" data-name="Path 5205" d="M786.842,382.172a.341.341,0,0,1-.191-.17.334.334,0,0,1,.161-.45c3.453-1.622,3.42-2.283,3.4-2.353-.029-.133-.319-.276-.627-.427a3.69,3.69,0,0,1-1.769-1.48,3.463,3.463,0,0,1-.4-1.681c-.108-2.971.075-9.014.083-9.269a.346.346,0,0,1,.691.02c-.008.255-.19,6.276-.084,9.243a2.822,2.822,0,0,0,.321,1.37,3.026,3.026,0,0,0,1.47,1.193c.461.227.9.44.993.892.121.559-.2,1.418-3.781,3.1A.351.351,0,0,1,786.842,382.172Z" transform="translate(-558.937 -200.49)" fill="#26386e"/>
      <path id="Path_5049" data-name="Path 5049" d="M794.078,419.339l-1.413,9.561a14.475,14.475,0,0,0,3.668,8.239c4.673,4.982,13.3,6.308,15.82,3.465,1.035-1.168.407-2.453.819-5.331a18.846,18.846,0,0,1,4.988-9.916" transform="translate(-588.781 -229.699)" fill="#f0ad8c"/>
      <path id="Path_5050" data-name="Path 5050" d="M800.241,433.944a18.216,18.216,0,0,1-4.127-.553,14.623,14.623,0,0,1-7.173-3.768,12.7,12.7,0,0,1-2.91-4.64,24.451,24.451,0,0,0,8.584,4.1,15.846,15.846,0,0,0,5.384.638c4.41-.329,7.172-2.746,7.416-2.426C807.592,427.521,806.3,428.941,800.241,433.944Z" transform="translate(-575.183 -232.791)" fill="#3e4e7e" opacity="0.19" style="mix-blend-mode: normal;isolation: isolate"/>
      <path id="Path_5051" data-name="Path 5051" d="M771.328,318.066c-11.912,3.476-22.555,13.321-20.322,17.718,3.147,6.2,31.413.593,48.4-5.643,7.1-2.6,8.4-3.909,8.349-5.1C807.58,320.53,787.9,313.227,771.328,318.066Z" transform="translate(-559.162 -173.353)" fill="#3e4e7e"/>
      <path id="Path_5052" data-name="Path 5052" d="M765.542,377.088a2.283,2.283,0,0,1,1.657,2.8,2.454,2.454,0,0,1-.271.665,2.258,2.258,0,0,0-1.725-2.088,2.319,2.319,0,0,0-2.506,1.095,2.418,2.418,0,0,1,.068-.713A2.341,2.341,0,0,1,765.542,377.088Z" transform="translate(-524.232 -206.528)" fill="#26386e"/>
      <path id="Path_5053" data-name="Path 5053" d="M807.347,367.052a2.283,2.283,0,0,1,1.657,2.8,2.434,2.434,0,0,1-.27.665,2.258,2.258,0,0,0-1.725-2.088,2.318,2.318,0,0,0-2.506,1.095,2.431,2.431,0,0,1,.067-.713A2.341,2.341,0,0,1,807.347,367.052Z" transform="translate(-585.381 -201.031)" fill="#26386e"/>
      <ellipse id="Ellipse_212" data-name="Ellipse 212" cx="4.767" cy="4.659" rx="4.767" ry="4.659" transform="translate(207.607 168.311)" fill="#f3bba0"/>
      <ellipse id="Ellipse_213" data-name="Ellipse 213" cx="4.767" cy="4.659" rx="4.767" ry="4.659" transform="translate(237.027 175.214)" fill="#f3bba0"/>
      <path id="Path_5206" data-name="Path 5206" d="M753.37,380.157h0a9.3,9.3,0,0,0,11.186-6.7,9.068,9.068,0,0,0-6.855-10.933,9.4,9.4,0,0,0-7.012,1.086,9.019,9.019,0,0,0-4.173,5.614,8.829,8.829,0,0,0,1.111,6.854,9.161,9.161,0,0,0,4.643,3.75A9.6,9.6,0,0,0,753.37,380.157Zm10.475-6.867a8.567,8.567,0,0,1-10.3,6.171h0a8.481,8.481,0,0,1-5.29-3.757,8.134,8.134,0,0,1-1.023-6.312,8.309,8.309,0,0,1,3.844-5.171,8.658,8.658,0,0,1,6.459-1,8.834,8.834,0,0,1,1,.3A8.328,8.328,0,0,1,763.844,373.29Z" transform="translate(-514.159 -198.44)" fill="#c5e3e8"/>
      <path id="Path_5207" data-name="Path 5207" d="M803.47,370.181a9.4,9.4,0,0,0,7.013-1.085,9.022,9.022,0,0,0,4.173-5.614,8.833,8.833,0,0,0-1.111-6.854,9.208,9.208,0,0,0-5.744-4.079,9.4,9.4,0,0,0-7.013,1.085,9.021,9.021,0,0,0-4.173,5.614,8.831,8.831,0,0,0,1.111,6.854,9.161,9.161,0,0,0,4.643,3.75A9.591,9.591,0,0,0,803.47,370.181ZM812.921,357a8.137,8.137,0,0,1,1.023,6.313,8.309,8.309,0,0,1-3.844,5.171,8.657,8.657,0,0,1-6.46,1h0a8.474,8.474,0,0,1-5.29-3.756,8.135,8.135,0,0,1-1.023-6.313,8.307,8.307,0,0,1,3.844-5.171,8.746,8.746,0,0,1,7.474-.7A8.439,8.439,0,0,1,812.921,357Z" transform="translate(-587.444 -192.975)" fill="#c5e3e8"/>
      <g id="Group_4187" data-name="Group 4187" transform="translate(217.914 179.468)">
        <path id="Path_5054" data-name="Path 5054" d="M798.2,406.964c-3.131-.34-5.03-3.44-5.211-5.987a6.442,6.442,0,0,1,.822-3.533,8.72,8.72,0,0,0,3.38,5.162,9.174,9.174,0,0,0,6.629,1.555A6.29,6.29,0,0,1,798.2,406.964Z" transform="translate(-792.706 -397.174)" fill="#f6fafa"/>
        <path id="Path_5208" data-name="Path 5208" d="M797.866,406.906a6.575,6.575,0,0,0,5.87-2.926.265.265,0,0,0,0-.293.278.278,0,0,0-.273-.119,8.838,8.838,0,0,1-6.421-1.5,8.45,8.45,0,0,1-3.276-5,.27.27,0,0,0-.23-.211.279.279,0,0,0-.282.137,6.7,6.7,0,0,0-.856,3.682,6.965,6.965,0,0,0,4.218,5.946A5.306,5.306,0,0,0,797.866,406.906Zm-1.153-4.408a9.377,9.377,0,0,0,6.2,1.676,6.029,6.029,0,0,1-5,2.194c-2.876-.311-4.782-3.162-4.965-5.733a6.151,6.151,0,0,1,.468-2.733A9.01,9.01,0,0,0,796.713,402.5Z" transform="translate(-792.385 -396.847)" fill="#26386e"/>
      </g>
      <g id="Group_4138" data-name="Group 4138" transform="translate(162.546 180.782)">
        <path id="Path_5056" data-name="Path 5056" d="M930.882,621.13c-.123,0-.248,0-.372,0l.365.1Z" transform="translate(-928.035 -521.015)" fill="#c5e3e8"/>
        <path id="Path_5057" data-name="Path 5057" d="M739.183,478.115q-.65,10.873-1.3,21.753h.019l-1.615,26.688,80.27,1.189a69.856,69.856,0,0,1-7.471-42.937,70.6,70.6,0,0,1,19.252-38.552A34.53,34.53,0,0,0,805,427.516c-2.135-.884-4.091-1.6-5.8-2.163l-2.558-.81a5.651,5.651,0,0,1-1.9,3.948c-3.565,2.854-11.714-.2-15.768-5.273a14.753,14.753,0,0,1-2.6-5.019,19.062,19.062,0,0,1-11.331,3.707c-3.065-.082-6.433-1.042-13.091-5.892a87.711,87.711,0,0,1-16.911-16.261Z" transform="translate(-735.036 -399.754)" fill="#c5e3e8"/>
      </g>
      <path id="Path_5058" data-name="Path 5058" d="M628.313,382.247a418.784,418.784,0,0,0,39.71-35.312,24.316,24.316,0,0,1,3.577,6.992c-1.724,8.51-9.223,40.2-39.568,62.619a106.247,106.247,0,0,1-52.015,19.893q-1.252-18.7-2.5-37.41a98.258,98.258,0,0,0,12.163,0h0C605.994,398.78,617.6,390.6,628.313,382.247Z" transform="translate(-342.862 -190.039)" fill="#c5e3e8"/>
      <path id="Path_5059" data-name="Path 5059" d="M973.967,243.721A10.053,10.053,0,0,0,985.5,242.49a49.313,49.313,0,0,1,.023-8.133c.456-5.327,1.622-8.773.685-9.217-1.258-.592-4.372,5.146-6.048,4.53-2.055-.757.305-10.234-3.653-16.832-.288-.478-.793-1.248-1.226-1.163-1.082.208.139,5.439-1.129,13.179-.29,1.781-.582,3.087-.9,5.046-.157.983-.249,1.675-.382,2.647-.509,3.73-.761,5.618-.63,6.684A10.441,10.441,0,0,0,973.967,243.721Z" transform="translate(-840.47 -115.945)" fill="#f0ad8c"/>
      <path id="Path_5060" data-name="Path 5060" d="M935.068,316.7c-2.888-7.5-4.544-16.495-5.379-22.013-1.068-7.06-1.68-12.963-2.042-17.123l-18.034-4.273c-8.685,24.83-6.159,41.7-1.934,52.732,5.316,13.887,13.9,20.056,26.7,43.922a236.621,236.621,0,0,1,12.638,27.714,94.138,94.138,0,0,1,10.841-52.272C943.083,334.244,937.4,322.762,935.068,316.7Z" transform="translate(-780.102 -149.7)" fill="#c5e3e8"/>
      <path id="Path_5209" data-name="Path 5209" d="M681.11,853.018a135.014,135.014,0,0,0,51.621,9.79,133.516,133.516,0,0,0,31.821-4.2c2.415-20.572,5.06-37.3,7.072-48.948,4.868-28.225,8.609-41.8,5.3-62.234-1.269-7.845-2.967-12.922-6.364-23.075-12.725-38.043-27.445-52.633-34.979-81.523-.117-.44-.23-.885-.34-1.336a158.811,158.811,0,0,1-49.362,4.542c10.954,44.228,15.527,60.1,17.028,62.821.254.46.44.813.827,1.51a62.284,62.284,0,0,1,5.657,11.887c6.308,18.873.407,36.285-2.828,46.151C699.12,791.134,691.027,819.024,681.11,853.018Z" transform="translate(-497.381 -351.39)" fill="#6e7a9e"/>
      <path id="Path_5210" data-name="Path 5210" d="M810.992,629.119" transform="translate(-590.294 -344.61)" fill="#c5e3e8"/>
      <path id="Path_5211" data-name="Path 5211" d="M989.786,630.482a82.749,82.749,0,0,1-26.825,4.542,85.226,85.226,0,0,1-45.792-13.636c-.277,44.532-10.644,57.9-20.058,61.884-10.882,4.6-21.457-2.74-54.45-10.489a311.948,311.948,0,0,0-43.136-6.992,56.528,56.528,0,0,0-23.335,30.767A55.58,55.58,0,0,0,777.6,732.22c4.975.475,12.64,1.311,21.921,2.8,36.072,5.769,43.069,12.73,67.886,16.083,18.351,2.479,42.574,5.751,61.522-7.692,10.735-7.615,15.186-17.338,20.507-28.67,3.954-8.42,7.085-14.614,8.012-16.894C962.529,685.353,971.725,665.018,989.786,630.482Z" transform="translate(-751.922 -340.375)" fill="#6e7a9e"/>
      <g id="Group_4189" data-name="Group 4189" transform="translate(385.994 118.449)">
        <path id="Path_5212" data-name="Path 5212" d="M210.713,491.269c.023,1.538.169,3.007.169,3.007.231,1.886.717,3.535,1.586,7.5,1.9,8.663,2.428,10.852,2.738,14.383.079.889.418,5.012.418,5.013h0a55.853,55.853,0,0,0,14.593,11.836c21.583,12.093,44.753,5.846,50.634,4.075,1.1-2.951,2.486-6.99,3.776-11.869.885-3.352,3.449-13.621,4.191-30.354.656-14.8.983-22.2-1.573-28.841-3.719-9.662-10.549-15.913-15.178-19.4a60.225,60.225,0,0,1-10.292,2.521,51.715,51.715,0,0,1-24.3-1.371,46.893,46.893,0,0,1-12.884-6.451C215.981,467.729,210.654,487.334,210.713,491.269Z" transform="translate(-176.806 -360.192)" fill="#c5e3e8"/>
        <path id="Path_5059-2" data-name="Path 5059" d="M397.9,284.008a10.059,10.059,0,0,0,11.6-.461,14.948,14.948,0,0,1,.229-4.1,15.326,15.326,0,0,1,2.6-5.972c.194-.332,2.409-4.254.52-7.447-1.28-2.163-3.7-2.671-6.6-3.379-2.639-.644-5.653-1.38-7.675.29-2.342,1.934-1.9,5.9-1.825,6.558.213,1.9.778,1.816.84,3.288.152,3.669-3.4,5.187-2.98,7.791C394.749,281.473,395.4,282.729,397.9,284.008Z" transform="translate(-386.205 -261.92)" fill="#f0ad8c"/>
        <path id="Path_5060-2" data-name="Path 5060" d="M353.032,342.415c-2.242-6.278-3.267-15.29-3.834-22.32-.574-7.115-.773-13.045-.845-17.218l-17.694-5.462c-10.394,24.2-9.048,41.19-5.6,52.481,4.337,14.208,12.472,20.934,23.576,45.6a235.741,235.741,0,0,1,10.68,28.49A57.18,57.18,0,0,1,383.27,368.97C360.064,359.572,354.43,346.328,353.032,342.415Z" transform="translate(-322.54 -281.363)" fill="#c5e3e8"/>
        <path id="Path_5213" data-name="Path 5213" d="M270.347,440.48c.048.1.1.206.143.312a25.688,25.688,0,0,1,1.887,5.923q.16.868.254,1.757l.861-.276-.86.293c.041.408.071.817.091,1.231a20.981,20.981,0,0,1-.019,2.228c-.169,2.761-.794,3.99.048,5.35,1.9,3.074,9.084,3.229,13.824.921,5.439-2.648,7.489-8.451,8.261-12.42a24.3,24.3,0,0,0,.465-4.067Z" transform="translate(-210.418 -359.729)" fill="#f0ad8c"/>
        <path id="Path_5214" data-name="Path 5214" d="M331.664,340.713c-2.449,2.343-3.813,5.354-4.694,9.97a48.344,48.344,0,0,0,.514,19.777c10.681-25.389,11.278-31.786,9.644-32.673C335.84,337.088,332.8,339.624,331.664,340.713Z" transform="translate(-278.772 -303.411)" fill="#3e4e7e"/>
        <path id="Path_5215" data-name="Path 5215" d="M238.246,359.11c-.011.15-.019.3-.025.447a25.417,25.417,0,0,0,1.243,9.322A26.1,26.1,0,0,0,261.7,386.661c14.827,1.48,27.845-9.336,28.85-23.75.986-14.122-9.928-26.351-24.379-27.314l-.32-.022C251.579,334.624,239.219,345.16,238.246,359.11Z" transform="translate(-190.849 -302.233)" fill="#f0ad8c"/>
        <path id="Path_5216" data-name="Path 5216" d="M318.452,389a.423.423,0,0,0,.335-.129.4.4,0,0,0-.02-.58c-2.843-2.6-2.562-3.177-2.548-3.2.052-.091.4-.147.688-.192a3.866,3.866,0,0,0,2.207-.924,3.6,3.6,0,0,0,.921-1.515c1.034-2.861,2.728-8.758,2.8-9.007a.409.409,0,0,0-.291-.506.421.421,0,0,0-.518.284c-.071.248-1.758,6.12-2.782,8.955a2.847,2.847,0,0,1-.711,1.2,3.063,3.063,0,0,1-1.761.706c-.533.085-1.036.165-1.285.6-.455.8.355,2.051,2.707,4.2A.422.422,0,0,0,318.452,389Z" transform="translate(-258.8 -322.726)" fill="#26386e"/>
        <path id="Path_5217" data-name="Path 5217" d="M448.461,472.518a.051.051,0,0,0,0,.017l.86-.292C449.045,472.331,448.757,472.423,448.461,472.518Z" transform="translate(-446.861 -377.127)" fill="#f0ad8c"/>
        <path id="Path_5218" data-name="Path 5218" d="M283.658,441.17a25.69,25.69,0,0,1,1.887,5.923c.025.094.05.188.073.28a19.015,19.015,0,0,0,4.339.7,15.1,15.1,0,0,0,8.1-1.517,13.112,13.112,0,0,0,4.251-3.624,27.889,27.889,0,0,1-9.568,1.419,15.4,15.4,0,0,1-5.4-.977A13.524,13.524,0,0,1,283.658,441.17Z" transform="translate(-223.587 -360.107)" fill="#3e4e7e" opacity="0.19"/>
        <path id="Path_5219" data-name="Path 5219" d="M272.654,352.908c.592-2.433,2.366-11.027-2.712-18.243-3.05-4.334-7.282-6.336-10.239-7.736-8-3.788-11.152-1.577-20.4-5.368-4.908-2.011-8.37-3.474-10.44-7.108-2.9-5.1-2.291-12.834,1.621-15.389,3.46-2.261,6.626,1.481,18.983,3.389,8.911,1.376,10.6.061,15.9,2.142a30.487,30.487,0,0,1,12.139,9.187C282.634,320.4,282.866,336.822,272.654,352.908Z" transform="translate(-176.045 -281.881)" fill="#3e4e7e"/>
        <path id="Path_5220" data-name="Path 5220" d="M262.866,296.219a2.95,2.95,0,0,1-1.189-2.18c.108-1.282,1.741-2.093,2.069-2.256,2.9-1.441,6.877.6,10.049,2.16,3.485,1.709,8.487,4.048,14.974,6.7C285.654,300.418,265.854,298.932,262.866,296.219Z" transform="translate(-199.872 -278.009)" fill="#3e4e7e"/>
        <ellipse id="Ellipse_247" data-name="Ellipse 247" cx="4.829" cy="4.719" rx="4.829" ry="4.719" transform="translate(74.597 59.44)" fill="#f3bba0"/>
        <path id="Path_5221" data-name="Path 5221" d="M227.284,325.769a7.35,7.35,0,0,1,3.579-1.443c.74-.074,1.369,0,1.738-.436a1.605,1.605,0,0,0-.222-2.1c-.6-.314-1.966.386-5.095,3.979" transform="translate(-128.08 -294.677)" fill="#3e4e7e"/>
        <path id="Path_5222" data-name="Path 5222" d="M226.474,329.4a7.391,7.391,0,0,1,3.758.907c.641.369,1.105.79,1.664.654.746-.182,1.356-1.283,1.094-1.822-.291-.6-1.819-.826-6.516.261" transform="translate(-127.869 -298.467)" fill="#3e4e7e"/>
        <g id="Group_4188" data-name="Group 4188" transform="translate(60.418 65.84)">
          <path id="Path_5054-2" data-name="Path 5054" d="M301.668,413.332a8.068,8.068,0,0,0,5.9-.975,7.687,7.687,0,0,0,3.277-4.325,5.644,5.644,0,0,1,.5,3.143c-.314,2.221-2.167,4.825-4.93,4.94A5.5,5.5,0,0,1,301.668,413.332Z" transform="translate(-301.426 -407.795)" fill="#f6fafa"/>
          <path id="Path_5223" data-name="Path 5223" d="M307.252,415.883a6.141,6.141,0,0,0,4.059-4.962,5.875,5.875,0,0,0-.525-3.275.243.243,0,0,0-.239-.137.238.238,0,0,0-.214.171,7.449,7.449,0,0,1-3.175,4.191,7.774,7.774,0,0,1-5.717.942.245.245,0,0,0-.247.089.232.232,0,0,0-.019.256,5.752,5.752,0,0,0,4.963,2.906A4.647,4.647,0,0,0,307.252,415.883Zm3.334-7.446a5.4,5.4,0,0,1,.243,2.422c-.317,2.242-2.161,4.628-4.7,4.733a5.275,5.275,0,0,1-4.248-2.214,8.252,8.252,0,0,0,5.535-1.106A7.951,7.951,0,0,0,310.586,408.437Z" transform="translate(-301.144 -407.508)" fill="#26386e"/>
        </g>
        <path id="Path_5052-2" data-name="Path 5052" d="M338.822,381.173a2.136,2.136,0,0,1-.12.618,1.988,1.988,0,0,0-3.816-.163,2.142,2.142,0,0,1-.063-.625,2,2,0,1,1,4,.171Z" transform="translate(-283.779 -326.069)" fill="#26386e"/>
        <path id="Path_5053-2" data-name="Path 5053" d="M301.11,382.823a2.135,2.135,0,0,1-.12.618,1.988,1.988,0,0,0-3.816-.163,2.113,2.113,0,0,1-.063-.626,2,2,0,1,1,4,.171Z" transform="translate(-228.617 -326.972)" fill="#26386e"/>
        <path id="Path_5224" data-name="Path 5224" d="M399.405,281.388c.029.6.706.977.912,1.076a2.746,2.746,0,0,0,2.252-.149c.525-.2.98-.365,1.293-.162.089.057.131.164.408.973l.189.542c.292.834.535,1.505.686,1.919a.275.275,0,0,0,.239.176.3.3,0,0,0,.111-.014.267.267,0,0,0,.166-.341c-.152-.411-.4-1.079-.687-1.913l-.187-.539c-.325-.941-.375-1.083-.627-1.246a1.961,1.961,0,0,0-1.787.108,2.288,2.288,0,0,1-1.814.173c-.222-.109-.6-.36-.612-.629v-.005a.648.648,0,0,1,.286-.456,7.1,7.1,0,0,1,1.311-.773c.088-.045.176-.087.258-.13l.492-.242a4.6,4.6,0,0,1,2.722-.7c.095.012.19.026.279.042a3.457,3.457,0,0,1,.532.14,4.891,4.891,0,0,1,2.162,1.531.277.277,0,0,0,.383.044.262.262,0,0,0,.045-.374,5.49,5.49,0,0,0-2.356-1.69,4.66,4.66,0,0,0-.531-.151c-.145-.031-.294-.054-.449-.072a5.022,5.022,0,0,0-2.933.7c-.161.077-.328.16-.5.247-.113.059-.229.116-.351.177a6.554,6.554,0,0,0-1.5.923,1.321,1.321,0,0,0-.321.441A.807.807,0,0,0,399.405,281.388Z" transform="translate(-383.316 -271.003)" fill="#eb9266"/>
        <path id="Path_5225" data-name="Path 5225" d="M401.978,275.892a3.45,3.45,0,0,1,.532.14l.234-.489,1.2-2.52a.263.263,0,0,0-.131-.353.275.275,0,0,0-.361.128l-1.236,2.595Z" transform="translate(-379.996 -267.794)" fill="#eb9266"/>
        <path id="Path_5226" data-name="Path 5226" d="M410.335,275.19a4,4,0,0,1-.158-.524c-.015-.057-.028-.114-.04-.171a5.689,5.689,0,0,1,1.466-4.674.279.279,0,0,1,.385-.028.264.264,0,0,1,.028.376,5.154,5.154,0,0,0-1.342,4.223c0,.008,0,.019.006.027a3.913,3.913,0,0,0,.146.528Z" transform="translate(-391.847 -266.198)" fill="#eb9266"/>
        <path id="Path_5227" data-name="Path 5227" d="M417.306,272.8a4.823,4.823,0,0,0,.752,1.752l.143.194a4.224,4.224,0,0,0,.354.417c.038.04.079.08.12.118a2.287,2.287,0,0,0,.474.341.648.648,0,0,1,.286-.456,1.816,1.816,0,0,1-.439-.326.977.977,0,0,1-.08-.077v0c-.074-.077-.142-.159-.208-.238-.073-.1-.143-.189-.205-.275a4.269,4.269,0,0,1-.66-1.548,5.156,5.156,0,0,1,1.342-4.223.263.263,0,0,0-.028-.376.279.279,0,0,0-.385.028A5.689,5.689,0,0,0,417.306,272.8Z" transform="translate(-402.516 -265.268)" fill="#eb9266"/>
        <path id="Path_5228" data-name="Path 5228" d="M418.717,272.928a4.939,4.939,0,0,0,1.105,1.564,2.917,2.917,0,0,0,1.722.9,2.064,2.064,0,0,0,.254,0,2.132,2.132,0,0,0,.934-.3,2.846,2.846,0,0,0,.261-.175.258.258,0,0,0,.1-.226v0c-.074-.077-.142-.159-.208-.238a.282.282,0,0,0-.233.049,1.947,1.947,0,0,1-.274.176,1.487,1.487,0,0,1-.614.178,2.21,2.21,0,0,1-1.571-.762,4.243,4.243,0,0,1-.973-1.379,5.12,5.12,0,0,1,.419-4.4.262.262,0,0,0-.106-.362.276.276,0,0,0-.371.1A5.669,5.669,0,0,0,418.717,272.928Z" transform="translate(-406.693 -265.208)" fill="#eb9266"/>
        <path id="Path_5059-3" data-name="Path 5059" d="M153.474,292.653c-.456-2.848-.676-4.59-.164-6.71.4-1.638.86-1.471,1.289-3.146.166-.647,1.155-4.513-.9-6.74-1.771-1.922-4.86-1.594-7.564-1.306-2.478.264-4.961.528-7.007,2.472-2.894,2.749-3.658,7.662-1.812,10.3,1.137,1.626,2.125,1.648,3.14,3.454,1.339,2.382.859,5.168.219,7.191q2.33-.142,4.722-.333,4.644-.371,9.033-.888A36.274,36.274,0,0,1,153.474,292.653Z" transform="translate(-8.079 -268.828)" fill="#f0ad8c"/>
        <path id="Path_5060-3" data-name="Path 5060" d="M124.884,382a56.857,56.857,0,0,1,16.094,57.68,237.427,237.427,0,0,1,14.538-26.809c14.427-22.96,23.421-28.544,29.691-42.045,4.983-10.73,8.677-27.388,1.741-52.738l-18.289,3.064c-.651,4.125-1.672,9.975-3.229,16.947-1.539,6.89-3.805,15.682-6.9,21.6C156.6,363.39,149.18,375.764,124.884,382Z" transform="translate(-38.574 -292.685)" fill="#c5e3e8"/>
        <path id="Path_5229" data-name="Path 5229" d="M158.717,292.983c-.112.591-.835.874-1.053.945a2.74,2.74,0,0,1-2.211-.447c-.493-.265-.92-.492-1.259-.332-.1.044-.152.145-.539.91l-.263.511c-.4.788-.739,1.421-.946,1.81a.276.276,0,0,1-.261.143.308.308,0,0,1-.107-.029.265.265,0,0,1-.117-.36c.207-.387.541-1.017.946-1.8l.26-.509c.453-.889.522-1.023.794-1.152a1.957,1.957,0,0,1,1.756.344,2.283,2.283,0,0,0,1.773.412c.235-.078.643-.278.694-.542v-.005a.643.643,0,0,0-.22-.49,7.042,7.042,0,0,0-1.192-.94c-.081-.056-.162-.109-.237-.163l-.454-.305a4.579,4.579,0,0,0-2.6-1.05c-.1,0-.192,0-.282.005a3.411,3.411,0,0,0-.546.068,4.939,4.939,0,0,0-2.355,1.23.276.276,0,0,1-.385-.007.262.262,0,0,1,.007-.376,5.543,5.543,0,0,1,2.569-1.363,4.771,4.771,0,0,1,.547-.078c.149-.012.3-.015.454-.013a5,5,0,0,1,2.809,1.08c.149.1.3.2.465.311.1.074.211.145.323.222a6.524,6.524,0,0,1,1.358,1.114,1.32,1.32,0,0,1,.256.479A.807.807,0,0,1,158.717,292.983Z" transform="translate(-18.084 -276.97)" fill="#eb9266"/>
        <path id="Path_5230" data-name="Path 5230" d="M163.356,286.412a3.4,3.4,0,0,0-.546.068l-.164-.516-.837-2.656a.265.265,0,0,1,.179-.333.274.274,0,0,1,.341.175l.864,2.735Z" transform="translate(-28.244 -273.447)" fill="#eb9266"/>
        <path id="Path_5231" data-name="Path 5231" d="M153.959,286.475a3.893,3.893,0,0,0,.218-.5c0-.008.006-.019.01-.026a5.131,5.131,0,0,0-.743-4.362.265.265,0,0,1,.081-.369.278.278,0,0,1,.377.079,5.664,5.664,0,0,1,.8,4.826c-.02.055-.041.109-.063.164a4.026,4.026,0,0,1-.229.5Z" transform="translate(-15.964 -272.465)" fill="#eb9266"/>
        <path id="Path_5232" data-name="Path 5232" d="M148.113,285.464a4.864,4.864,0,0,1-.989,1.636l-.168.173a4.361,4.361,0,0,1-.408.366c-.044.034-.09.069-.136.1a2.328,2.328,0,0,1-.517.275.643.643,0,0,0-.22-.49,1.829,1.829,0,0,0,.481-.265c.031-.019.06-.044.089-.066v0c.084-.066.163-.139.239-.208.085-.085.168-.168.242-.246a4.3,4.3,0,0,0,.869-1.446,5.133,5.133,0,0,0-.743-4.362.264.264,0,0,1,.081-.369.278.278,0,0,1,.377.079A5.664,5.664,0,0,1,148.113,285.464Z" transform="translate(-5.797 -272.107)" fill="#eb9266"/>
        <path id="Path_5233" data-name="Path 5233" d="M143.468,286.563a4.985,4.985,0,0,1-1.312,1.4,2.935,2.935,0,0,1-1.832.666,1.988,1.988,0,0,1-1.136-.449,2.806,2.806,0,0,1-.235-.208.256.256,0,0,1-.068-.237v0c.084-.066.163-.139.239-.208a.279.279,0,0,1,.224.079,1.933,1.933,0,0,0,.248.211,1.482,1.482,0,0,0,.584.258,2.225,2.225,0,0,0,1.662-.547A4.283,4.283,0,0,0,143,286.291a5.115,5.115,0,0,0,.2-4.417.263.263,0,0,1,.155-.345.275.275,0,0,1,.353.149A5.663,5.663,0,0,1,143.468,286.563Z" transform="translate(1.563 -272.651)" fill="#eb9266"/>
      </g>
      <path id="Path_5044-3" data-name="Path 5044" d="M38.731,874.6c-4.79,2.6-8.117,8.7-6.4,11.395a2.943,2.943,0,0,0,.285.365c.855,1.153,2.5,3.933,4.185,11.574,2.3,10.4,1.059,13.384,4.037,15.639a11.326,11.326,0,0,0,7.059,1.913,10.662,10.662,0,0,0,5.683-2.32c4.132-3.428,2.637-12.606-.523-30.824a15.292,15.292,0,0,0-3.38-7.514,5.146,5.146,0,0,0-.72-.734C46.149,871.915,41.41,873.145,38.731,874.6Z" transform="translate(525.127 -478.15)" fill="#c5e3e8"/>
      <path id="Path_5044-4" data-name="Path 5044" d="M490.914,1002.662c-3.857-3.8-10.761-5.285-12.956-2.942a2.954,2.954,0,0,0-.283.367c-.9,1.117-3.2,3.412-10.269,7.069-9.626,4.98-12.9,4.617-14.313,8.029a10.64,10.64,0,0,0,.025,7.158,10.35,10.35,0,0,0,3.823,4.719c4.495,2.961,13.132-.929,30.223-8.831a15.786,15.786,0,0,0,6.487-5.213,5.027,5.027,0,0,0,.528-.876C495.566,1008.915,493.072,1004.789,490.914,1002.662Z" transform="translate(-107.977 -546.996)" fill="#c5e3e8"/>
      <path id="Path_5234" data-name="Path 5234" d="M324.3,790.2a118.441,118.441,0,0,1-45.451-9.386,113.71,113.71,0,0,1-16.324-8.621c3.37-17.466,6.7-31.989,9.3-42.654,9.31-38.19,14.809-49.774,18.961-57.339a128.37,128.37,0,0,1,16.456-24.125c14.431-16.54,28.378-23.487,46.7-47.22.327-.423.59-.767.746-.973a138.265,138.265,0,0,0,38.569,20.289c-24.48,32.307-33.786,43.684-35.966,45.4-.369.289-.645.514-1.2.951a56.463,56.463,0,0,0-8.787,7.772c-11.775,13.237-13.1,29.389-13.941,38.5C331.423,733.788,328.193,759.2,324.3,790.2Z" transform="translate(81.236 -328.594)" fill="#eb9266"/>
      <path id="Path_5235" data-name="Path 5235" d="M327.575,628.449" transform="translate(116.819 -344.242)" fill="#c5e3e8"/>
      <path id="Path_5236" data-name="Path 5236" d="M59.726,653.24a115.023,115.023,0,0,0-2.593,16.327c-.843,9.291-1.919,21.151,1.12,30.837,6.2,19.767,29.422,29.107,41.669,34.772,20,9.255,28.623,7.418,58.142,20.207,7.6,3.289,13.676,6.3,17.589,8.3a49.7,49.7,0,0,0,18.7-25.693,48.106,48.106,0,0,0,.156-27.164,221.188,221.188,0,0,0-44.361-21.677c-21.731-7.761-36.033-9.052-38.6-18.15-2.235-7.909,6.988-12.818,12.488-31.5a82.439,82.439,0,0,0,3.317-23.731c-14.888-13.473-31.6-17.667-40.6-11.57a16.338,16.338,0,0,0-6.006,8.031C66.839,629.276,61.789,644.671,59.726,653.24Z" transform="translate(373.56 -329.46)" fill="#eb9266"/>
      <path id="Path_5237" data-name="Path 5237" d="M283.879,540.546q3.107,22.285,6.213,44.57c-1.574.511-3.981,1.25-6.952,1.99a111.211,111.211,0,0,1-55.874-.92,108.581,108.581,0,0,1-29.2-13.16,32.794,32.794,0,0,0,5.7-9.783c4.42-12.059.093-23.027-1.387-26.375" transform="translate(214.232 -294.077)" fill="#c5e3e8"/>
      <ellipse id="Ellipse_248" data-name="Ellipse 248" cx="4.364" cy="4.265" rx="4.364" ry="4.265" transform="translate(211.482 32.397)" fill="#f5ccb7"/>
      <ellipse id="Ellipse_249" data-name="Ellipse 249" cx="4.364" cy="4.265" rx="4.364" ry="4.265" transform="translate(451.04 61.322)" fill="#c5e3e8"/>
      <ellipse id="Ellipse_250" data-name="Ellipse 250" cx="4.364" cy="4.265" rx="4.364" ry="4.265" transform="translate(301.87 250.812)" fill="#3e4e7e"/>
      <ellipse id="Ellipse_251" data-name="Ellipse 251" cx="4.364" cy="4.265" rx="4.364" ry="4.265" transform="translate(552.717 170.77)" fill="#3e4e7e"/>
      <ellipse id="Ellipse_252" data-name="Ellipse 252" cx="4.364" cy="4.265" rx="4.364" ry="4.265" transform="translate(341.287 36.772)" fill="#3e4e7e"/>
      <ellipse id="Ellipse_253" data-name="Ellipse 253" cx="4.364" cy="4.265" rx="4.364" ry="4.265" transform="translate(501.026 77.383)" fill="#f8d086"/>
      <ellipse id="Ellipse_254" data-name="Ellipse 254" cx="4.364" cy="4.265" rx="4.364" ry="4.265" transform="translate(147.899 19.457)" fill="#f8d086"/>
      <ellipse id="Ellipse_255" data-name="Ellipse 255" cx="4.364" cy="4.265" rx="4.364" ry="4.265" transform="translate(106.924 215.357)" fill="#f8d086"/>
      <ellipse id="Ellipse_256" data-name="Ellipse 256" cx="4.364" cy="4.265" rx="4.364" ry="4.265" transform="translate(259.397)" fill="#3e4e7e"/>
      <ellipse id="Ellipse_257" data-name="Ellipse 257" cx="4.364" cy="4.265" rx="4.364" ry="4.265" transform="translate(192.596 85.303)" fill="#c5e3e8"/>
      <path id="Path_5238" data-name="Path 5238" d="M588.5,154.482a13.459,13.459,0,0,0,5.283-1.089,18.361,18.361,0,0,0,9.825-11.523,31.2,31.2,0,0,0-.059-17.467,13.731,13.731,0,0,1,3.976,1.038c6.371,2.771,9.939,10.795,8.123,18.266a1.223,1.223,0,0,0,.929,1.473,1.253,1.253,0,0,0,1.507-.908c2.085-8.579-2.106-17.833-9.541-21.067a16.55,16.55,0,0,0-5.776-1.314,32.6,32.6,0,0,0-6.744-11.669,21.324,21.324,0,0,0-15.923-7.089h-.013a25.318,25.318,0,0,0-5.741.682,46.374,46.374,0,0,0-10.49-14.441c-9.109-8.261-21.825-12.125-35.807-10.879a1.224,1.224,0,1,0,.228,2.437c13.264-1.181,25.294,2.453,33.875,10.236a43.867,43.867,0,0,1,9.776,13.324,35.669,35.669,0,0,0-14.767,9.653c-4.016,4.313-7.6,11.237-6.544,16.986a10.1,10.1,0,0,0,5.8,7.374,14.049,14.049,0,0,0,13.9-1.269A18.443,18.443,0,0,0,577.6,125.63a34.5,34.5,0,0,0-2.257-19.528,22.632,22.632,0,0,1,4.749-.521h.012a18.614,18.614,0,0,1,14.07,6.287,29.729,29.729,0,0,1,5.965,10.077,20.434,20.434,0,0,0-8.3,2.624,27.907,27.907,0,0,0-10.929,12.369c-2.9,6.014-2.692,11.566.55,14.853A9.708,9.708,0,0,0,588.5,154.482Zm12.43-30.146a29.06,29.06,0,0,1,.286,16.812,16.12,16.12,0,0,1-8.454,10.011c-2.844,1.242-7.032,1.438-9.5-1.066-2.934-2.974-1.969-8.207-.088-12.111,1.7-3.536,4.809-8.365,9.93-11.3A17.846,17.846,0,0,1,600.931,124.336Zm-28-17.592a32.218,32.218,0,0,1,2.211,18.415,15.987,15.987,0,0,1-6.258,10.078,11.44,11.44,0,0,1-11.308,1.1,7.763,7.763,0,0,1-4.488-5.632c-.9-4.9,2.446-11.164,5.931-14.907A33.065,33.065,0,0,1,572.928,106.744Z" transform="translate(-266.468 -42.873)" fill="#c5e3e8"/>
      <path id="Path_5239" data-name="Path 5239" d="M441.117,494.888a1.271,1.271,0,0,0,.538-.119c10.746-5,16.833-15.873,22.2-25.464,5.974-10.669,14.89-23.488,30.938-27.953a54.267,54.267,0,0,1,11.524-1.862,18.334,18.334,0,0,0-4.707,9.291c-.644,4.262,1.3,9.335,4.848,12.621a11.171,11.171,0,0,0,9.873,3.114c5.511-1.086,8.795-7.15,9.605-12.678a11.3,11.3,0,0,0-1.621-8.072c-2.824-4.109-7.38-5.928-12.169-6.538,1.132-.995,2.293-1.951,3.42-2.878.649-.535,1.285-1.058,1.9-1.573A173.917,173.917,0,0,1,536.4,418.9c2.075-1.315,4.253-2.585,6.359-3.815,7.5-4.376,15.255-8.9,20.385-16.493a47.8,47.8,0,0,0,7.269-17.9,1.226,1.226,0,0,0-1-1.428,1.25,1.25,0,0,0-1.461.978,45.4,45.4,0,0,1-6.9,17c-4.816,7.125-11.987,11.31-19.579,15.741-2.125,1.24-4.323,2.523-6.437,3.862a176.413,176.413,0,0,0-19.2,14.071c-.6.51-1.233,1.027-1.875,1.555-1.729,1.423-3.532,2.907-5.215,4.507A53.615,53.615,0,0,0,494.111,439c-16.941,4.713-26.24,18.045-32.449,29.132-5.189,9.266-11.07,19.768-21.084,24.429a1.212,1.212,0,0,0-.592,1.631A1.255,1.255,0,0,0,441.117,494.888Zm68.6-55.388c4.93.256,9.8,1.672,12.524,5.631a8.912,8.912,0,0,1,1.222,6.361c-.663,4.525-3.331,9.781-7.621,10.626a8.7,8.7,0,0,1-7.655-2.49c-2.933-2.72-4.616-7.033-4.094-10.488C504.647,445.453,506.915,442.309,509.715,439.5Z" transform="translate(-177.996 -207.738)" fill="#f8d086"/>
      <path id="Path_5240" data-name="Path 5240" d="M305.166,92.018a1.075,1.075,0,0,0,1-.661,48.113,48.113,0,0,1,6.02-10.673,61.143,61.143,0,0,1,17.569-15.507c-1.027,6.5-.574,14.3,4.9,18.2,4.933,3.511,12.034,2.747,17.035.862,5.508-2.077,9.29-5.633,10.116-9.513,1.24-5.824-3.81-12.214-9.2-14.794-6.53-3.125-14-1.27-19.821,1.356.251-.9.527-1.75.817-2.536,7.559-20.483,37.1-24.579,40.442-24.979a1.055,1.055,0,0,0,.935-1.169,1.069,1.069,0,0,0-1.2-.914c-3.478.416-34.206,4.687-42.2,26.35a36.715,36.715,0,0,0-1.312,4.475l-.108.057A62.02,62.02,0,0,0,310.45,79.446a50.239,50.239,0,0,0-6.281,11.135,1.041,1.041,0,0,0,.6,1.363A1.094,1.094,0,0,0,305.166,92.018Zm39.8-31.642a15.339,15.339,0,0,1,6.691,1.439c5.264,2.519,8.947,8.236,8.042,12.482-.666,3.132-4.034,6.191-8.787,7.983-5.621,2.119-11.508,1.884-15-.6-4.867-3.463-5.078-11.3-3.757-17.8A29.292,29.292,0,0,1,344.967,60.376Z" transform="translate(80.278 -17.355)" fill="#b8becf"/>
    </g>
  </g>
</svg>
