<svg xmlns="http://www.w3.org/2000/svg" xmlns:xlink="http://www.w3.org/1999/xlink" width="58.001" height="58.054" viewBox="0 0 58.001 58.054">
  <defs>
    <filter id="Union_16" x="0" y="0" width="58.001" height="58.054" filterUnits="userSpaceOnUse">
      <feOffset dy="3" input="SourceAlpha"/>
      <feGaussianBlur stdDeviation="3" result="blur"/>
      <feFlood flood-opacity="0.161"/>
      <feComposite operator="in" in2="blur"/>
    </filter>
  </defs>
  <g id="Group_4671" data-name="Group 4671" transform="translate(-157 -616)">
    <g id="_045---Prayer-Hands" data-name="045---Prayer-Hands" transform="translate(166 621.999)">
      <g transform="matrix(1, 0, 0, 1, -9, -6)" filter="url(#Union_16)">
        <path id="Union_16-2" data-name="Union 16" d="M-5687.105,4721.7l-12.414-.047a1.381,1.381,0,0,1-1.373-1.38v-.7c.109,0,.216,0,.322,0q-.16,0-.322,0a8.547,8.547,0,0,0-2.069-1.379c-1.378-.69-2.758-1.379-2.758-5.517v-29.235a1.8,1.8,0,0,1,1.8-1.8,1.792,1.792,0,0,1,1.8,1.641l.621,6.888h0l.5,5.456a4.978,4.978,0,0,0,.677,2.055,9.746,9.746,0,0,1,1.5,4.648c0,.506-.023,1.106-.022,1.769,0,2.946.472,7.14,5.539,9.956a6.506,6.506,0,0,1-1.937,3.577,6.511,6.511,0,0,0,1.939-3.577v-.4a.691.691,0,0,1,.293-.564.694.694,0,0,1,.631-.083,43.583,43.583,0,0,1,5.945,2.7,1.377,1.377,0,0,1,.717,1.206v3.4a1.381,1.381,0,0,1-.407.978,1.381,1.381,0,0,1-.975.4Zm-8.32-3.9h0Zm.032-.028.006-.005Zm.032-.029.009-.008Zm.031-.028.015-.014Zm.03-.027.021-.019Zm.029-.027.026-.024Zm-7.324-30.782Zm-.01-.027,0-.013Zm-.01-.027-.006-.015Zm-1.16-1a1.6,1.6,0,0,1,1.151.976,1.608,1.608,0,0,0-1.32-1.006A1.416,1.416,0,0,1-5703.774,4685.823Zm-21.539,35.475a1.379,1.379,0,0,1-.407-.978v-3.4a1.376,1.376,0,0,1,.718-1.206,43.583,43.583,0,0,1,5.945-2.7.691.691,0,0,1,.629.083.691.691,0,0,1,.294.564v.4c5.091-2.829,5.542-7.049,5.54-10,0-.646-.023-1.231-.023-1.727a9.753,9.753,0,0,1,1.5-4.648,4.955,4.955,0,0,0,.676-2.055l.5-5.456h0l.621-6.888a1.793,1.793,0,0,1,1.8-1.641,1.8,1.8,0,0,1,1.8,1.8v29.235c0,4.137-1.379,4.827-2.759,5.517a8.579,8.579,0,0,0-2.069,1.379v.7a1.381,1.381,0,0,1-1.372,1.38l-12.414.047h-.005A1.382,1.382,0,0,1-5725.313,4721.3Zm14.7-1.723-.235,0Zm-.236,0h0Zm-7.287-5.508h0Zm0,0h0ZM-5718.133,4714.058Zm9.3-27.205a1.6,1.6,0,0,1,1.169-1.03,1.6,1.6,0,0,1,.19-.033A1.6,1.6,0,0,0-5708.834,4686.853Z" transform="translate(5734.72 -4675.64)" fill="#fff"/>
      </g>
    </g>
    <g id="Page-1" transform="translate(166 622)">
      <g id="_045---Prayer-Hands-2" data-name="045---Prayer-Hands" transform="translate(0 0)">
        <path id="Path" d="M23.414,7.6V32.9c0,4.138-1.379,4.828-2.759,5.517a8.535,8.535,0,0,0-2.069,1.379c-.228,0-.455-.007-.669-.014-6.276-.352-6.917-5.5-6.917-5.5,6.207-3.448,5.517-8.966,5.517-11.724a9.744,9.744,0,0,1,1.5-4.648,4.959,4.959,0,0,0,.676-2.055l.5-5.455,1.1-3.3a1.6,1.6,0,0,1,1.179-1.055A1.43,1.43,0,0,1,21.814,6a1.6,1.6,0,0,1,1.6,1.6Z" transform="translate(-3.414 -1.862)" fill="#fdc453" fill-rule="evenodd"/>
        <path id="Path-2" data-name="Path" d="M22.724,7.619v25.3c0,4.138-1.379,4.828-2.759,5.517A8.628,8.628,0,0,0,17.917,39.8c-6.276-.352-6.917-5.5-6.917-5.5,6.207-3.448,5.517-8.966,5.517-11.724a9.744,9.744,0,0,1,1.5-4.648,4.959,4.959,0,0,0,.676-2.055l.5-5.455,1.1-3.3A1.6,1.6,0,0,1,21.469,6.06a1.592,1.592,0,0,1,1.255,1.559Z" transform="translate(-3.414 -1.881)" fill="#ffd05d" fill-rule="evenodd"/>
        <path id="Path-3" data-name="Path" d="M27.1,1.8V5.738a1.6,1.6,0,0,0-3.124-.5l-1.1,3.3.621-6.89a1.8,1.8,0,0,1,3.6.159Z" transform="translate(-7.101 0)" fill="#fdc453" fill-rule="evenodd"/>
        <path id="Path-4" data-name="Path" d="M15.172,52.027v.7A1.379,1.379,0,0,1,13.8,54.1l-12.414.048A1.379,1.379,0,0,1,0,52.772v-3.4a1.379,1.379,0,0,1,.717-1.207,43.7,43.7,0,0,1,5.945-2.7.69.69,0,0,1,.924.648v.4s.69,5.517,7.586,5.517Z" transform="translate(0 -14.096)" fill="#7cc4e8" fill-rule="evenodd"/>
        <path id="Path-5" data-name="Path" d="M33.221,8.531l-1.1-3.3a1.6,1.6,0,0,0-3.124.5V1.8a1.8,1.8,0,0,1,3.6-.159Z" transform="translate(-9 0)" fill="#fdc453" fill-rule="evenodd"/>
        <path id="Path-6" data-name="Path" d="M41.414,34.276s-.641,5.152-6.917,5.5c-.214.007-.441.014-.669.014a8.535,8.535,0,0,0-2.069-1.379C30.379,37.724,29,37.034,29,32.9V7.6A1.6,1.6,0,0,1,30.6,6a1.43,1.43,0,0,1,.345.041A1.6,1.6,0,0,1,32.124,7.1l1.1,3.3.5,5.455a4.959,4.959,0,0,0,.676,2.055,9.744,9.744,0,0,1,1.5,4.648C35.9,25.31,35.207,30.828,41.414,34.276Z" transform="translate(-9 -1.862)" fill="#fdc453" fill-rule="evenodd"/>
        <path id="Path-7" data-name="Path" d="M41.724,34.294s-.641,5.152-6.917,5.5a8.628,8.628,0,0,0-2.048-1.366C31.379,37.743,30,37.053,30,32.915V7.619A1.592,1.592,0,0,1,31.255,6.06a1.6,1.6,0,0,1,1.179,1.055l1.1,3.3.5,5.455a4.959,4.959,0,0,0,.676,2.055,9.744,9.744,0,0,1,1.5,4.648C36.207,25.329,35.517,30.846,41.724,34.294Z" transform="translate(-9.31 -1.881)" fill="#ffd05d" fill-rule="evenodd"/>
        <path id="Path-8" data-name="Path" d="M51.172,49.372v3.4a1.379,1.379,0,0,1-1.386,1.379L37.372,54.1A1.379,1.379,0,0,1,36,52.724v-.7c6.9,0,7.586-5.517,7.586-5.517v-.4a.69.69,0,0,1,.924-.648,43.706,43.706,0,0,1,5.945,2.7,1.379,1.379,0,0,1,.717,1.207Z" transform="translate(-11.172 -14.096)" fill="#7cc4e8" fill-rule="evenodd"/>
      </g>
    </g>
  </g>
</svg>
