<svg xmlns="http://www.w3.org/2000/svg" xmlns:xlink="http://www.w3.org/1999/xlink" width="72.021" height="72.021" viewBox="0 0 72.021 72.021">
  <defs>
    <filter id="Path_3306" x="0" y="0" width="72.021" height="72.021" filterUnits="userSpaceOnUse">
      <feOffset dy="3" input="SourceAlpha"/>
      <feGaussianBlur stdDeviation="3" result="blur"/>
      <feFlood flood-opacity="0.161"/>
      <feComposite operator="in" in2="blur"/>
      <feComposite in="SourceGraphic"/>
    </filter>
  </defs>
  <g id="Group_4672" data-name="Group 4672" transform="translate(9 6)">
    <g id="Group_2189" data-name="Group 2189" transform="translate(0 0)">
      <g id="Group_2187" data-name="Group 2187" transform="translate(0 0)">
        <g id="Group_2184" data-name="Group 2184" transform="translate(0)">
          <g transform="matrix(1, 0, 0, 1, -9, -6)" filter="url(#Path_3306)">
            <path id="Path_3306-2" data-name="Path 3306" d="M22.453,0A22.453,22.453,0,1,1,0,22.453,22.453,22.453,0,0,1,22.453,0Z" transform="matrix(0.23, -0.97, 0.97, 0.23, 9, 49.7)" fill="#ffd05d"/>
          </g>
        </g>
      </g>
      <path id="Path_2773" data-name="Path 2773" d="M118.419,133.013a.741.741,0,0,0-1.205.808,11.254,11.254,0,0,0,20.813.207.74.74,0,0,0-1.2-.817C133.544,136.4,126.568,140.931,118.419,133.013Z" transform="translate(-100.611 -102.606)" fill="#5e4939"/>
      <g id="Group_2188" data-name="Group 2188" transform="translate(13.468 21.178)">
        <path id="Path_2774" data-name="Path 2774" d="M120.311,121.962a4.16,4.16,0,0,0-7.693-.076.669.669,0,0,0,1.081.74c1.246-1.208,3.215-2.178,5.524.065a.669.669,0,0,0,1.087-.728Z" transform="translate(-112.564 -119.347)" fill="#303030"/>
        <path id="Path_2775" data-name="Path 2775" d="M149.1,121.962a4.16,4.16,0,0,0-7.693-.077.669.669,0,0,0,1.081.74c1.246-1.208,3.215-2.178,5.524.065a.669.669,0,0,0,1.088-.728Z" transform="translate(-122.062 -119.347)" fill="#303030"/>
      </g>
    </g>
    <g id="Group_2190" data-name="Group 2190" transform="translate(6.583 26.389)">
      <path id="Path_2776" data-name="Path 2776" d="M110.129,131.044a3.92,3.92,0,1,1-3.92-3.921A3.92,3.92,0,0,1,110.129,131.044Z" transform="translate(-102.289 -127.123)" fill="#f5a6ac"/>
      <ellipse id="Ellipse_99" data-name="Ellipse 99" cx="3.92" cy="3.92" rx="3.92" ry="3.92" transform="translate(33.015 0)" fill="#f5a6ac"/>
    </g>
  </g>
</svg>
