<svg id="Layer_1" data-name="Layer 1" xmlns="http://www.w3.org/2000/svg" viewBox="0 0 85 89"><defs><style>.cls-1{fill:#ffd05d;}.cls-2{fill:#5e4939;}.cls-3{fill:#2d292a;}.cls-4{fill:#414042;}</style></defs><title>Artboard 1 copy 5</title><g id="Group_2169" data-name="Group 2169"><g id="Group_2166" data-name="Group 2166"><g id="Group_2165" data-name="Group 2165"><g id="Group_2162" data-name="Group 2162"><circle id="Ellipse_96-2" data-name="Ellipse 96-2" class="cls-1" cx="42.5" cy="45.4" r="22.45"/></g></g><path id="Path_2756" data-name="Path 2756" class="cls-2" d="M33.3,50.11a.74.74,0,0,0-1.21.81,11.26,11.26,0,0,0,20.82.2.74.74,0,0,0-1.2-.81C48.42,53.49,41.45,58,33.3,50.11Z"/></g><g id="Group_2168" data-name="Group 2168"><path id="Path_2757" data-name="Path 2757" class="cls-3" d="M58.35,36.88l-9.12.75-.32,0c-.09,0-3,.36-6.29.55h-.24c-3.27-.19-6.21-.54-6.3-.55l-.32,0-9.11-.75c-1.8,0-2.79.85-2.69,2.41,0,.06.64,3.6.64,3.6a7.75,7.75,0,0,0,1.18,3.33,4.24,4.24,0,0,0,1.59,1.32,4.91,4.91,0,0,0,1,.37,5.5,5.5,0,0,0,.91.08c.27,0,.72,0,1,0h2.95a6,6,0,0,0,2.8-.63,5.68,5.68,0,0,0,2.7-3.16,7,7,0,0,1,2.73-3,1.94,1.94,0,0,1,2.12,0,9,9,0,0,1,1.67,1.42A9.59,9.59,0,0,1,46.17,44c.34.52.55,1.14.9,1.67A4.47,4.47,0,0,0,48.34,47a6.18,6.18,0,0,0,3,1h0a.22.22,0,0,1,.09,0c.08,0,3.32-.05,4.24-.05a3.38,3.38,0,0,0,.91-.08,4.51,4.51,0,0,0,2.57-1.68,7.62,7.62,0,0,0,1.18-3.32L61,39.29C61.13,37.72,60.14,36.84,58.35,36.88Z"/><g id="Group_2167" data-name="Group 2167"><path id="Path_2758" data-name="Path 2758" class="cls-4" d="M51.79,48h3c.27,0,.72,0,1,0a4.67,4.67,0,0,0,.91-.08,4.35,4.35,0,0,0,1-.36,4.24,4.24,0,0,0,1.58-1.33,7.58,7.58,0,0,0,1.18-3.32L61,39.26a3.16,3.16,0,0,0,0-.61c-4.2,6.5-9.29,8.08-12.56,8.38a6.28,6.28,0,0,0,2.95,1Z"/><path id="Path_2759" data-name="Path 2759" class="cls-4" d="M27.37,47.52a4.18,4.18,0,0,0,1,.36,4.6,4.6,0,0,0,.91.08c.27,0,.72,0,1,0H33.2A6.34,6.34,0,0,0,36,47.34a5.66,5.66,0,0,0,2.7-3.15,5.66,5.66,0,0,1,1.23-1.79c-6.07,4-11.13,4.66-13.22,4.73A7,7,0,0,0,27.37,47.52Z"/></g></g></g></svg>