<svg xmlns="http://www.w3.org/2000/svg" xmlns:xlink="http://www.w3.org/1999/xlink" width="73.198" height="73.198" viewBox="0 0 73.198 73.198">
  <defs>
    <filter id="Path_3307" x="0" y="0" width="73.198" height="73.198" filterUnits="userSpaceOnUse">
      <feOffset dy="3" input="SourceAlpha"/>
      <feGaussianBlur stdDeviation="3" result="blur"/>
      <feFlood flood-opacity="0.161"/>
      <feComposite operator="in" in2="blur"/>
      <feComposite in="SourceGraphic"/>
    </filter>
  </defs>
  <g id="Group_4674" data-name="Group 4674" transform="translate(9 6)">
    <g id="Group_2177" data-name="Group 2177" transform="translate(0 0)">
      <g id="Group_2173" data-name="Group 2173" transform="translate(0)">
        <g id="Group_2170" data-name="Group 2170">
          <g transform="matrix(1, 0, 0, 1, -9, -6)" filter="url(#Path_3307)">
            <path id="Path_3307-2" data-name="Path 3307" d="M21.123,0A21.123,21.123,0,1,1,0,21.123,21.123,21.123,0,0,1,21.123,0Z" transform="translate(9 22.17) rotate(-22.5)" fill="#ffd05d"/>
          </g>
        </g>
      </g>
      <g id="Group_2176" data-name="Group 2176" transform="translate(15.11 20.445)">
        <g id="Group_2174" data-name="Group 2174">
          <path id="Path_2762" data-name="Path 2762" d="M115.232,30.327a.9.9,0,0,1-.551-1.6l3.047-2.374L114.579,24.5a.9.9,0,1,1,.908-1.543l4.285,2.52a.9.9,0,0,1,.1,1.478l-4.086,3.183A.893.893,0,0,1,115.232,30.327Z" transform="translate(-114.137 -22.832)" fill="#303030"/>
        </g>
        <g id="Group_2175" data-name="Group 2175" transform="translate(18.902)">
          <path id="Path_2763" data-name="Path 2763" d="M147.327,30.327a.891.891,0,0,1-.549-.189l-4.086-3.183a.9.9,0,0,1,.1-1.478l4.285-2.52a.9.9,0,0,1,.908,1.543l-3.149,1.852,3.047,2.374a.9.9,0,0,1-.551,1.6Z" transform="translate(-142.346 -22.832)" fill="#303030"/>
        </g>
      </g>
    </g>
    <g id="Group_2180" data-name="Group 2180" transform="translate(2.77 26.85)">
      <g id="Group_2178" data-name="Group 2178" transform="translate(37.695 0.136)">
        <path id="Path_2764" data-name="Path 2764" d="M152.458,32.593c-1.563,9.377,1.185,12.5,1.185,12.5a5.563,5.563,0,1,0,9.465-5.847S161.543,35.393,152.458,32.593Z" transform="translate(-151.977 -32.593)" fill="#7cc4e8"/>
        <path id="Path_2765" data-name="Path 2765" d="M159.193,49.054a5.563,5.563,0,0,0,6.3-8.262s-.661-1.62-3.6-3.523C164.74,43.986,161.576,47.483,159.193,49.054Z" transform="translate(-154.358 -34.136)" fill="#62bbe8"/>
      </g>
      <g id="Group_2179" data-name="Group 2179">
        <path id="Path_2766" data-name="Path 2766" d="M106.974,32.39C97.958,35.4,96.484,39.3,96.484,39.3a5.563,5.563,0,1,0,9.6,5.621S108.759,41.727,106.974,32.39Z" transform="translate(-95.721 -32.39)" fill="#7cc4e8"/>
        <path id="Path_2767" data-name="Path 2767" d="M95.894,47.019a5.562,5.562,0,0,0,10.249,1.69s1.122-1.343,1.427-4.829C102.971,49.543,98.4,48.388,95.894,47.019Z" transform="translate(-95.778 -36.181)" fill="#62bbe8"/>
      </g>
    </g>
    <g id="Group_2181" data-name="Group 2181" transform="translate(15.498 30.398)">
      <path id="Path_2768" data-name="Path 2768" d="M114.716,37.685a12.179,12.179,0,0,0,24.2,0Z" transform="translate(-114.716 -37.685)" fill="#695342"/>
      <path id="Path_2769" data-name="Path 2769" d="M120.3,47.966a12.169,12.169,0,0,0,16.432.263l-.112-.262C128.495,44,120.412,47.913,120.3,47.966Z" transform="translate(-116.559 -40.492)" fill="#f06669"/>
    </g>
  </g>
</svg>
