<svg xmlns="http://www.w3.org/2000/svg" width="68" height="68" viewBox="0 0 68 68">
  <g id="Group_3274" data-name="Group 3274" transform="translate(-17 -761)">
    <path id="Path_3684" data-name="Path 3684" d="M34,0A34,34,0,1,1,0,34,34,34,0,0,1,34,0Z" transform="translate(17 761)" fill="#26386e"/>
    <path id="_74220f5c53b43cb14436c2378708afa3" data-name="74220f5c53b43cb14436c2378708afa3" d="M8.559,17.528V8.379H2.951A2.96,2.96,0,0,0,0,11.33v8.854a2.96,2.96,0,0,0,2.951,2.951H4.427v4.427l4.427-4.427h7.379a2.96,2.96,0,0,0,2.951-2.951V17.5a1.392,1.392,0,0,1-.3.031H8.559ZM26.563,1H13.281A2.96,2.96,0,0,0,10.33,3.951V15.757H20.66l4.427,4.427V15.757h1.476a2.959,2.959,0,0,0,2.951-2.951V3.951A2.96,2.96,0,0,0,26.563,1Z" transform="translate(36 782)" fill="#fff"/>
  </g>
</svg>
