<svg xmlns="http://www.w3.org/2000/svg" width="22.5" height="20" viewBox="0 0 22.5 20">
  <path id="Icon_awesome-hand-holding-heart" data-name="Icon awesome-hand-holding-heart" d="M10.753,9.784a.68.68,0,0,0,1,0L16,5.323a3.238,3.238,0,0,0-.219-4.64,2.969,2.969,0,0,0-4.1.3l-.437.457L10.816.988a2.966,2.966,0,0,0-4.1-.3A3.241,3.241,0,0,0,6.5,5.323Zm11.327,3.031a1.293,1.293,0,0,0-1.664,0L16.808,15.7a2.487,2.487,0,0,1-1.562.547H10.624a.625.625,0,0,1,0-1.25h3.058a1.3,1.3,0,0,0,1.3-1.039A1.251,1.251,0,0,0,13.749,12.5H7.5a4.6,4.6,0,0,0-2.894,1.027L2.789,15H.625A.627.627,0,0,0,0,15.624v3.75A.627.627,0,0,0,.625,20H14.562a2.5,2.5,0,0,0,1.562-.547l5.906-4.726A1.249,1.249,0,0,0,22.081,12.815Z" transform="translate(0 0.002)" fill="#d3215d"/>
</svg>
