<svg id="Layer_1" data-name="Layer 1" xmlns="http://www.w3.org/2000/svg" viewBox="0 0 85 89"><defs><style>.cls-1{fill:#ffd05d;}.cls-2{fill:#303030;}.cls-3{fill:#695342;}.cls-4{fill:#f06669;}</style></defs><title>Artboard 1 copy</title><g id="Group_2151" data-name="Group 2151"><g id="Group_2146" data-name="Group 2146"><g id="Group_2143" data-name="Group 2143"><path id="Path_3308-2" data-name="Path 3308-2" class="cls-1" d="M42.5,22.05A22.45,22.45,0,1,1,20.05,44.5h0A22.45,22.45,0,0,1,42.5,22.05Z"/></g></g><g id="Group_2150" data-name="Group 2150"><g id="Group_2149" data-name="Group 2149"><g id="Group_2147" data-name="Group 2147"><path id="Path_2746" data-name="Path 2746" class="cls-2" d="M35.88,39.05c0,1.54-.74,2.79-1.65,2.79s-1.66-1.25-1.66-2.79.74-2.79,1.66-2.79S35.88,37.51,35.88,39.05Z"/></g><g id="Group_2148" data-name="Group 2148"><ellipse id="Ellipse_94" data-name="Ellipse 94" class="cls-2" cx="50.77" cy="39.05" rx="1.65" ry="2.79"/></g></g></g><path id="Path_2747" data-name="Path 2747" class="cls-3" d="M27.41,46.15a15.19,15.19,0,0,0,30.18,0Z"/><path id="Path_2748" data-name="Path 2748" class="cls-4" d="M32.08,56a15.17,15.17,0,0,0,20.49.32L52.42,56C42.29,51,32.22,55.88,32.08,56Z"/></g></svg>
