<svg xmlns="http://www.w3.org/2000/svg" width="24.446" height="24" viewBox="0 0 24.446 24">
  <path id="Icon_simple-microsoftexcel" data-name="Icon simple-microsoftexcel" d="M23.991,3.265H15.8V4.781h2.414v2.4H15.8v.764h2.414v2.4H15.8v.785h2.414V13.4H15.8v.91h2.414v2.276H15.8v.91h2.414v2.289H15.8v1.669h8.189c.129-.039.237-.191.324-.456a2.233,2.233,0,0,0,.131-.648V3.542c0-.13-.045-.209-.131-.236A1.121,1.121,0,0,0,23.991,3.265ZM22.928,19.781H19V17.494h3.929v2.287Zm0-3.2H19V14.308h3.929Zm0-3.186H19v-2.26h3.929V13.4Zm0-3.056H19v-2.4h3.929v2.4h0Zm0-3.177H19V4.782h3.929V7.165ZM0,2.887V21.834l14.423,2.495v-24L0,2.9ZM8.549,17.22q-.083-.223-.772-1.9c-.457-1.116-.733-1.766-.814-1.952H6.938L5.39,17.053l-2.068-.14L5.775,12.33,3.529,7.746l2.108-.111,1.393,3.586h.028L8.633,7.472l2.179-.138L8.217,12.295l2.674,5.06-2.342-.138Z" transform="translate(0 -0.329)" fill="#d72465"/>
</svg>
