<svg xmlns="http://www.w3.org/2000/svg" width="17.25" height="23" viewBox="0 0 17.25 23">
  <path id="Icon_awesome-file-pdf" data-name="Icon awesome-file-pdf" d="M8.171,11.5A4.334,4.334,0,0,1,8.081,9.4C8.459,9.4,8.423,11.055,8.171,11.5Zm-.076,2.12a20.728,20.728,0,0,1-1.276,2.817,16.541,16.541,0,0,1,2.826-.984A5.819,5.819,0,0,1,8.095,13.625ZM3.868,19.231c0,.036.593-.243,1.568-1.806A6.209,6.209,0,0,0,3.868,19.231ZM11.141,7.188H17.25V21.922A1.076,1.076,0,0,1,16.172,23H1.078A1.076,1.076,0,0,1,0,21.922V1.078A1.076,1.076,0,0,1,1.078,0h8.984V6.109A1.081,1.081,0,0,0,11.141,7.188Zm-.359,7.718a4.509,4.509,0,0,1-1.918-2.417A6.457,6.457,0,0,0,9.142,9.6,1.125,1.125,0,0,0,6.994,9.3a7.469,7.469,0,0,0,.364,3.459,42.183,42.183,0,0,1-1.833,3.854s0,0-.009,0c-1.217.624-3.306,2-2.448,3.055a1.4,1.4,0,0,0,.966.449c.8,0,1.6-.809,2.745-2.776A25.606,25.606,0,0,1,10.328,16.3a6.808,6.808,0,0,0,2.875.876,1.163,1.163,0,0,0,.885-1.95c-.624-.611-2.439-.436-3.306-.323ZM16.936,4.717l-4.4-4.4A1.077,1.077,0,0,0,11.77,0H11.5V5.75h5.75V5.476A1.075,1.075,0,0,0,16.936,4.717ZM13.607,16.185c.184-.121-.112-.535-1.923-.4C13.351,16.491,13.607,16.185,13.607,16.185Z" fill="#fff"/>
</svg>
