<svg id="Group_167" data-name="Group 167" xmlns="http://www.w3.org/2000/svg" width="35.875" height="35.875" viewBox="0 0 35.875 35.875">
  <path id="Path_31" data-name="Path 31" d="M30.906,10H6.99a2.976,2.976,0,0,0-2.975,2.99L4,27.937a2.989,2.989,0,0,0,2.99,2.99H30.906a2.989,2.989,0,0,0,2.99-2.99V12.99A2.989,2.989,0,0,0,30.906,10ZM17.453,14.484h2.99v2.99h-2.99Zm0,4.484h2.99v2.99h-2.99Zm-4.484-4.484h2.99v2.99h-2.99Zm0,4.484h2.99v2.99h-2.99Zm-1.495,2.99H8.484v-2.99h2.99Zm0-4.484H8.484v-2.99h2.99ZM24.927,27.937H12.969v-2.99H24.927Zm0-5.979h-2.99v-2.99h2.99Zm0-4.484h-2.99v-2.99h2.99Zm4.484,4.484h-2.99v-2.99h2.99Zm0-4.484h-2.99v-2.99h2.99Z" transform="translate(-1.01 -2.526)" fill="#7db6bb"/>
  <path id="Path_32" data-name="Path 32" d="M0,0H35.875V35.875H0ZM0,0H35.875V35.875H0Z" fill="none"/>
</svg>
