<svg xmlns="http://www.w3.org/2000/svg" width="243.38" height="948.977" viewBox="0 0 243.38 948.977">
  <g id="Group_4626" data-name="Group 4626" transform="translate(17.606 -49.162)">
    <ellipse id="Ellipse_3974" data-name="Ellipse 3974" cx="6.696" cy="6.696" rx="6.696" ry="6.696" transform="translate(50.587 790.68) rotate(87)" fill="#f5ccb7"/>
    <ellipse id="Ellipse_3985" data-name="Ellipse 3985" cx="6.696" cy="6.696" rx="6.696" ry="6.696" transform="translate(68.054 316.836) rotate(87)" fill="#f5ccb7"/>
    <ellipse id="Ellipse_3978" data-name="Ellipse 3978" cx="6.696" cy="6.696" rx="6.696" ry="6.696" transform="translate(143.376 689.162) rotate(87)" fill="#3e4e7e"/>
    <ellipse id="Ellipse_3984" data-name="Ellipse 3984" cx="6.696" cy="6.696" rx="6.696" ry="6.696" transform="translate(160.842 215.318) rotate(87)" fill="#3e4e7e"/>
    <ellipse id="Ellipse_3980" data-name="Ellipse 3980" cx="6.696" cy="6.696" rx="6.696" ry="6.696" transform="translate(186.055 984.063) rotate(87)" fill="#f8d086"/>
    <ellipse id="Ellipse_3986" data-name="Ellipse 3986" cx="6.696" cy="6.696" rx="6.696" ry="6.696" transform="translate(203.521 510.22) rotate(87)" fill="#f8d086"/>
    <ellipse id="Ellipse_3982" data-name="Ellipse 3982" cx="6.696" cy="6.696" rx="6.696" ry="6.696" transform="translate(207.606 811.619) rotate(87)" fill="#3e4e7e"/>
    <ellipse id="Ellipse_3987" data-name="Ellipse 3987" cx="6.696" cy="6.696" rx="6.696" ry="6.696" transform="translate(225.072 337.775) rotate(87)" fill="#3e4e7e"/>
    <ellipse id="Ellipse_3983" data-name="Ellipse 3983" cx="6.696" cy="6.696" rx="6.696" ry="6.696" transform="translate(79.227 920.985) rotate(87)" fill="#c5e3e8"/>
    <ellipse id="Ellipse_3988" data-name="Ellipse 3988" cx="6.696" cy="6.696" rx="6.696" ry="6.696" transform="translate(83.318 190.554) rotate(-87)" fill="#c5e3e8"/>
    <ellipse id="Ellipse_3975" data-name="Ellipse 3975" cx="6.696" cy="6.696" rx="6.696" ry="6.696" transform="translate(96.071 523.006) rotate(87)" fill="#c5e3e8"/>
    <ellipse id="Ellipse_3989" data-name="Ellipse 3989" cx="6.696" cy="6.696" rx="6.696" ry="6.696" transform="translate(113.537 49.162) rotate(87)" fill="#c5e3e8"/>
    <ellipse id="Ellipse_3977" data-name="Ellipse 3977" cx="6.696" cy="6.696" rx="6.696" ry="6.696" transform="translate(34.898 675.157) rotate(87)" fill="#3e4e7e"/>
    <ellipse id="Ellipse_3990" data-name="Ellipse 3990" cx="6.696" cy="6.696" rx="6.696" ry="6.696" transform="translate(52.365 201.313) rotate(87)" fill="#3e4e7e"/>
    <ellipse id="Ellipse_3979" data-name="Ellipse 3979" cx="6.696" cy="6.696" rx="6.696" ry="6.696" transform="translate(70.519 651.022) rotate(87)" fill="#f8d086"/>
    <ellipse id="Ellipse_3991" data-name="Ellipse 3991" cx="6.696" cy="6.696" rx="6.696" ry="6.696" transform="translate(74.61 460.516) rotate(-87)" fill="#f8d086"/>
    <ellipse id="Ellipse_3981" data-name="Ellipse 3981" cx="6.696" cy="6.696" rx="6.696" ry="6.696" transform="translate(-7.178 586.672) rotate(-87)" fill="#f8d086"/>
    <ellipse id="Ellipse_3993" data-name="Ellipse 3993" cx="6.696" cy="6.696" rx="6.696" ry="6.696" transform="translate(10.289 112.828) rotate(-87)" fill="#f8d086"/>
    <ellipse id="Ellipse_3992" data-name="Ellipse 3992" cx="6.696" cy="6.696" rx="6.696" ry="6.696" transform="translate(-0.141 391.478) rotate(-87)" fill="#3e4e7e"/>
    <ellipse id="Ellipse_3976" data-name="Ellipse 3976" cx="6.696" cy="6.696" rx="6.696" ry="6.696" transform="translate(-17.606 865.321) rotate(-87)" fill="#3e4e7e"/>
  </g>
</svg>
