<svg xmlns="http://www.w3.org/2000/svg" width="32.631" height="21.754" viewBox="0 0 32.631 21.754">
  <g id="Group_3275" data-name="Group 3275" transform="translate(32.631) rotate(90)">
    <path id="Path_13" data-name="Path 13" d="M10.877,0A1.646,1.646,0,0,0,9.608.544L.544,9.608a1.752,1.752,0,0,0,0,2.538,1.752,1.752,0,0,0,2.538,0l9.064-9.064a1.752,1.752,0,0,0,0-2.538A1.646,1.646,0,0,0,10.877,0Z" transform="translate(9.064 19.941)" fill="#fff"/>
    <path id="Path_14" data-name="Path 14" d="M1.813,0A1.646,1.646,0,0,0,.544.544a1.752,1.752,0,0,0,0,2.538l9.064,9.064a1.795,1.795,0,0,0,2.538-2.538L3.082.544A1.646,1.646,0,0,0,1.813,0Z" transform="translate(0 19.941)" fill="#fff"/>
    <path id="Path_15" data-name="Path 15" d="M1.813,0A1.713,1.713,0,0,0,0,1.813V30.818a1.713,1.713,0,0,0,1.813,1.813,1.713,1.713,0,0,0,1.813-1.813V1.813A1.713,1.713,0,0,0,1.813,0Z" transform="translate(9.064 0)" fill="#fff"/>
  </g>
</svg>
