<svg xmlns="http://www.w3.org/2000/svg" width="248.385" height="296.981" viewBox="0 0 248.385 296.981">
  <g id="Group_4182" data-name="Group 4182" transform="translate(-774.367 -416.16)">
    <path id="Path_5134" data-name="Path 5134" d="M1093.357,1243.191v2.693l-1.16-.007-233.2-1.27v-1.863c.1-.048.2-.1.307-.148q53.506-25.836,107.009-51.673a32.553,32.553,0,0,1,29.394.547l96.527,51.126Z" transform="translate(-70.606 -643.652)" fill="#f5ccb7" opacity="0.44"/>
    <g id="Group_4178" data-name="Group 4178" transform="translate(892.228 475.1)">
      <path id="Path_5135" data-name="Path 5135" d="M1500.491,1441.933a4.564,4.564,0,0,0-1.557-.849c-1.338-.5-1.931-.243-3.681-.425-2.408-.251-3.532-.976-3.964-.425-.283.361-.052.991,0,1.133a1.972,1.972,0,0,0,1.274,1.133,9.007,9.007,0,0,0-2.973,0,5.215,5.215,0,0,0-2.973,1.133,3.306,3.306,0,0,0-1.13,2.173,3.44,3.44,0,0,0,.663,1.989c1.752,2.447,14.538-.839,15.332-1.047C1501.569,1446.337,1502.144,1443.437,1500.491,1441.933Z" transform="translate(-1485.486 -1329.275)" fill="#f0ad8c"/>
      <path id="Path_5046" data-name="Path 5046" d="M1733.683,963.3c1.363,2.179,3.368,4.224,3.38,7.606.014,4-2.769,5.52-2.644,8.4.22,5.094,9.358,8.587,11.3,9.331,14.592,5.576,53.75,11.685,61.617-5.642,4.443-9.785-1.721-25.661-10.11-28.673-4.809-1.727-8.49,1.441-13.922-1.492-4.355-2.351-4.2-5.578-8.453-10.773-1.266-1.545-8.472-10.34-19.393-11.574-.664-.075-14.041-1.391-20.811,7.715C1729.2,945.535,1729.641,956.84,1733.683,963.3Z" transform="translate(-1689.979 -904.093)" fill="#3e4e7e"/>
      <path id="Path_5047" data-name="Path 5047" d="M1784.044,971.969c.013.053.025.1.037.157a15.73,15.73,0,1,1-30.672,7h0a15.538,15.538,0,0,1,11.481-18.736l.187-.045h0a15.729,15.729,0,0,1,18.966,11.624h0" transform="translate(-1708.643 -928.726)" fill="#f0ad8c"/>
      <path id="Path_5136" data-name="Path 5136" d="M1817.516,1043.669a.21.21,0,0,0,.017-.386c-2.1-1.009-2.078-1.419-2.069-1.463.017-.083.194-.172.381-.266a2.257,2.257,0,0,0,1.075-.92,2.2,2.2,0,0,0,.244-1.045c.065-1.847-.046-5.6-.051-5.763a.21.21,0,0,0-.419.013c0,.158.115,3.9.051,5.747a1.785,1.785,0,0,1-.2.851,1.846,1.846,0,0,1-.893.742c-.28.141-.544.273-.6.555-.073.348.122.881,2.3,1.927A.21.21,0,0,0,1817.516,1043.669Z" transform="translate(-1760.421 -990.224)" fill="#26386e" stroke="#26386e" stroke-width="0.25"/>
      <path id="Path_5049" data-name="Path 5049" d="M1839.813,1124.086c1.606,4.068,1.134,8.384-1.37,11.067-2.819,3.021-8.121,3.878-9.613,2.155-.629-.726-.247-1.525-.5-3.315a11.816,11.816,0,0,0-3.031-6.165" transform="translate(-1768.98 -1065.694)" fill="#f0ad8c"/>
      <path id="Path_5050" data-name="Path 5050" d="M1818.416,1139.231a10.84,10.84,0,0,0,2.508-.344,8.824,8.824,0,0,0,4.359-2.343,7.924,7.924,0,0,0,1.768-2.885,14.713,14.713,0,0,1-5.216,2.547,9.425,9.425,0,0,1-3.271.4c-2.68-.2-4.358-1.707-4.507-1.508C1813.949,1135.238,1814.732,1136.121,1818.416,1139.231Z" transform="translate(-1759.591 -1073.681)" fill="#3e4e7e" opacity="0.19" style="mix-blend-mode: normal;isolation: isolate"/>
      <path id="Path_5051" data-name="Path 5051" d="M1776.256,950.565c7.238,2.161,13.705,8.282,12.348,11.016-1.912,3.855-19.088.369-29.41-3.509-4.316-1.619-5.1-2.431-5.073-3.17C1754.228,952.1,1766.186,947.556,1776.256,950.565Z" transform="translate(-1709.597 -920.106)" fill="#3e4e7e"/>
      <path id="Path_5052" data-name="Path 5052" d="M1775.512,1052.354a1.423,1.423,0,0,0-1.007,1.741,1.546,1.546,0,0,0,.164.414,1.367,1.367,0,0,1,2.571-.617,1.557,1.557,0,0,0-.041-.443A1.423,1.423,0,0,0,1775.512,1052.354Z" transform="translate(-1726.563 -1005.824)" fill="#26386e"/>
      <path id="Path_5053" data-name="Path 5053" d="M1846.433,1035.328a1.422,1.422,0,0,0-1.007,1.741,1.542,1.542,0,0,0,.164.414,1.367,1.367,0,0,1,2.57-.617,1.544,1.544,0,0,0-.041-.443A1.423,1.423,0,0,0,1846.433,1035.328Z" transform="translate(-1785.729 -991.62)" fill="#26386e"/>
      <circle id="Ellipse_212" data-name="Ellipse 212" cx="2.897" cy="2.897" r="2.897" transform="translate(63.636 45.131)" fill="#f3bba0"/>
      <circle id="Ellipse_213" data-name="Ellipse 213" cx="2.897" cy="2.897" r="2.897" transform="translate(45.759 49.423)" fill="#f3bba0"/>
      <path id="Path_5137" data-name="Path 5137" d="M1753.522,1038.392h0a5.622,5.622,0,1,1,.669-.2A5.8,5.8,0,0,1,1753.522,1038.392Zm-6.365-4.27a5.2,5.2,0,0,0,6.261,3.837h0a5.192,5.192,0,0,0-2.424-10.1,5.189,5.189,0,0,0-3.837,6.261Z" transform="translate(-1703.296 -984.925)" fill="#c5e3e8"/>
      <path id="Path_5138" data-name="Path 5138" d="M1838.515,1021.468a5.617,5.617,0,1,1,.669-.2A5.734,5.734,0,0,1,1838.515,1021.468Zm-5.743-8.194a5.192,5.192,0,0,0,5.639,7.761h0a5.192,5.192,0,0,0-2.424-10.1,5.284,5.284,0,0,0-.616.188A5.154,5.154,0,0,0,1832.772,1013.274Z" transform="translate(-1774.202 -970.807)" fill="#c5e3e8"/>
      <g id="Group_4177" data-name="Group 4177" transform="translate(56.242 52.068)">
        <path id="Path_5054" data-name="Path 5054" d="M1829.255,1092.86a3.952,3.952,0,0,0,3.166-3.722,4.084,4.084,0,0,0-.5-2.2,5.321,5.321,0,0,1-6.082,4.177A3.794,3.794,0,0,0,1829.255,1092.86Z" transform="translate(-1825.671 -1086.773)" fill="#f6fafa" stroke="#26386e" stroke-width="0.5"/>
        <path id="Path_5139" data-name="Path 5139" d="M1828.419,1092.183a3.967,3.967,0,0,1-3.567-1.819.168.168,0,0,1,.167-.256,5.154,5.154,0,0,0,5.893-4.046.168.168,0,0,1,.311-.046,4.242,4.242,0,0,1,.52,2.289,4.326,4.326,0,0,1-2.563,3.7A3.146,3.146,0,0,1,1828.419,1092.183Zm.7-2.74a5.6,5.6,0,0,1-3.769,1.042,3.628,3.628,0,0,0,3.04,1.364,3.773,3.773,0,0,0,3.017-3.565,3.9,3.9,0,0,0-.284-1.7A5.6,5.6,0,0,1,1829.12,1089.443Z" transform="translate(-1824.826 -1085.929)" fill="#26386e"/>
      </g>
      <g id="Group_4138" data-name="Group 4138" transform="translate(40.117 52.885)">
        <path id="Path_5056" data-name="Path 5056" d="M2059.153,1466.419h.226l-.222.063Z" transform="translate(-2004.191 -1404.174)" fill="#c5e3e8"/>
        <path id="Path_5057" data-name="Path 5057" d="M1781.707,1139.582q.395,6.76.791,13.524h-.012c.076,1.289.905,15.3.981,16.593l-48.775.74a43.879,43.879,0,0,0-7.158-50.665,21.085,21.085,0,0,1,14.18-11.653c1.3-.55,2.486-.992,3.524-1.345l1.555-.5a3.539,3.539,0,0,0,1.154,2.455c2.166,1.774,7.118-.124,9.581-3.278a9.244,9.244,0,0,0,1.582-3.121,11.415,11.415,0,0,0,6.885,2.3c1.862-.051,3.909-.648,7.955-3.663a53.839,53.839,0,0,0,10.276-10.11Z" transform="translate(-1727.534 -1090.861)" fill="#c5e3e8"/>
      </g>
      <path id="Path_5058" data-name="Path 5058" d="M1590.437,1223.911s-.663.881-1.289,1.79a66.766,66.766,0,0,0-5.251,9.649c-3.72,7.486-6.412,13.683-6.916,14.851-.047.108-.054.127-.072.168-2.194,4.927-9.035,5.976-15.992,5.713a25.824,25.824,0,0,0,.332,9.945,40.035,40.035,0,0,0,8.287.5c5.037-.223,14.223-.63,19.889-6.8,2.461-2.678,3.86-6.137,6.656-13.055.806-1.995,1.4-3.679,1.8-4.845l-3.967-22.059A51.551,51.551,0,0,0,1590.437,1223.911Z" transform="translate(-1548.138 -1145.519)" fill="#c5e3e8"/>
      <path id="Path_5059" data-name="Path 5059" d="M2137.554,791.705a6,6,0,0,1-7.01-.765,31.335,31.335,0,0,0-.014-5.057c-.277-3.312-.986-5.454-.416-5.73.764-.368,2.656,3.2,3.675,2.816,1.249-.47-.186-6.363,2.22-10.465.175-.3.482-.776.745-.723.658.129-.084,3.382.686,8.194.176,1.107.354,1.92.546,3.137.095.611.151,1.041.231,1.646a22.526,22.526,0,0,1,.383,4.156A6.584,6.584,0,0,1,2137.554,791.705Z" transform="translate(-2023.093 -771.777)" fill="#f0ad8c"/>
      <path id="Path_5060" data-name="Path 5060" d="M2027.689,903.307a70.882,70.882,0,0,0,3.269-13.687c.649-4.389,1.021-8.06,1.24-10.646l10.958-2.657c5.278,15.438,3.743,25.924,1.176,32.786-3.23,8.634-8.446,12.47-16.221,27.308a148.771,148.771,0,0,0-7.679,17.231,60.448,60.448,0,0,0-2.4-22.283,59.387,59.387,0,0,0-4.188-10.216C2022.818,914.216,2026.27,907.077,2027.689,903.307Z" transform="translate(-1926.273 -858.991)" fill="#c5e3e8"/>
    </g>
    <g id="Group_4180" data-name="Group 4180" transform="translate(796.018 498.556)">
      <path id="Path_5140" data-name="Path 5140" d="M1084.125,1250.553c-.079.953-.23,1.859-.23,1.859-.388,2.051-1.228,3.61-3.548,13.4-1.356,5.724-2.312,10.436-2.906,13.512l-38.9.672c-.222-2.714-.5-6.664-.663-11.436-.473-13.81-.563-23.981,3.646-34.971a56.417,56.417,0,0,1,7.293-13.259,35.908,35.908,0,0,0,6.132,1.989,30.73,30.73,0,0,0,14.789.154,28.235,28.235,0,0,0,8.084-3.469C1081.927,1235.734,1084.327,1248.116,1084.125,1250.553Z" transform="translate(-1015.671 -1168.333)" fill="#c5e3e8"/>
      <path id="Path_5059-2" data-name="Path 5059" d="M1382.317,937.175a6,6,0,0,1-7.01-.765,9.509,9.509,0,0,0,.034-2.552,9.64,9.64,0,0,0-1.326-3.812c-.1-.214-1.281-2.738,0-4.641.868-1.289,2.355-1.5,4.143-1.823,1.627-.29,3.485-.622,4.641.5,1.338,1.3.9,3.735.829,4.144-.21,1.171-.549,1.094-.648,2.005-.248,2.27,1.84,3.358,1.477,4.956C1384.332,935.732,1383.885,936.485,1382.317,937.175Z" transform="translate(-1295.786 -921.642)" fill="#f0ad8c"/>
      <path id="Path_5060-2" data-name="Path 5060" d="M1250.455,1012.307c1.625-3.8,2.627-9.349,3.269-13.687.649-4.389,1.021-8.06,1.241-10.646l10.958-2.657c5.278,15.438,3.743,25.924,1.176,32.786-3.23,8.634-8.446,12.469-16.221,27.308a148.811,148.811,0,0,0-7.68,17.231,36.775,36.775,0,0,0-2.4-22.283,36.069,36.069,0,0,0-9.8-12.831C1245.466,1022.659,1249.442,1014.676,1250.455,1012.307Z" transform="translate(-1176.969 -973.382)" fill="#c5e3e8"/>
      <path id="Path_5141" data-name="Path 5141" d="M1159.206,1213.256c-.033.063-.066.124-.1.188a16.248,16.248,0,0,0-1.394,3.6q-.134.532-.228,1.079l-.51-.207.509.217c-.042.251-.078.5-.107.76a13.343,13.343,0,0,0-.083,1.383c-.014,1.719.312,2.508-.255,3.317-1.285,1.828-5.644,1.628-8.419,0-3.185-1.867-4.183-5.552-4.483-8.045a15.516,15.516,0,0,1-.11-2.542Z" transform="translate(-1104.399 -1163.328)" fill="#f0ad8c"/>
      <path id="Path_5142" data-name="Path 5142" d="M1253.891,1043.13c1.386,1.554,2.085,3.479,2.424,6.378a30.735,30.735,0,0,1-1.148,12.246c-5.4-16.191-5.492-20.183-4.465-20.666C1251.512,1040.709,1253.247,1042.408,1253.891,1043.13Z" transform="translate(-1192.98 -1019.863)" fill="#3e4e7e"/>
      <path id="Path_5143" data-name="Path 5143" d="M1127.194,1049.085c0,.093,0,.186,0,.278a16.229,16.229,0,0,1-4.458,10.906,15.751,15.751,0,0,1-10.922,4.937,15.935,15.935,0,1,1-.551-31.861h.2A15.74,15.74,0,0,1,1127.194,1049.085Z" transform="translate(-1063.78 -1013.448)" fill="#f0ad8c"/>
      <path id="Path_5144" data-name="Path 5144" d="M1230.3,1109.412a.255.255,0,0,1-.161-.453c1.834-1.494,1.687-1.865,1.68-1.88-.028-.059-.239-.108-.409-.148a2.319,2.319,0,0,1-1.3-.664,2.247,2.247,0,0,1-.495-.978c-.506-1.818-1.283-5.545-1.316-5.7a.255.255,0,0,1,.5-.1c.032.157.807,3.869,1.308,5.67a1.775,1.775,0,0,0,.38.771,1.839,1.839,0,0,0,1.037.511c.319.075.621.145.754.426.242.512-.3,1.258-1.819,2.494A.256.256,0,0,1,1230.3,1109.412Z" transform="translate(-1174.711 -1068.454)" fill="#26386e"/>
      <path id="Path_5145" data-name="Path 5145" d="M1442.722,1282.84a.027.027,0,0,1,0,.01l-.509-.217Z" transform="translate(-1353.173 -1221.42)" fill="#f0ad8c"/>
      <path id="Path_5146" data-name="Path 5146" d="M1177.792,1215.672a16.244,16.244,0,0,0-1.394,3.6c-.019.057-.038.115-.056.171a11.312,11.312,0,0,1-2.66.255,8.992,8.992,0,0,1-4.848-1.276,8.014,8.014,0,0,1-2.424-2.424,16.592,16.592,0,0,0,5.74,1.276,9.17,9.17,0,0,0,3.317-.383A8.194,8.194,0,0,0,1177.792,1215.672Z" transform="translate(-1123.085 -1165.557)" fill="#3e4e7e" opacity="0.19"/>
      <path id="Path_5147" data-name="Path 5147" d="M1083.955,1006.935c-.256-1.533-.968-6.938,2.416-11.2a14.72,14.72,0,0,1,6.534-4.375c5.013-2.019,6.827-.517,12.6-2.486,3.06-1.044,5.221-1.809,6.63-3.978,1.976-3.042,1.932-7.866-.332-9.613-2-1.545-4.079.645-11.651,1.317-5.46.485-6.428-.4-9.729.671a18.535,18.535,0,0,0-7.747,5.2C1079.28,986.358,1078.445,996.535,1083.955,1006.935Z" transform="translate(-1050.973 -964.555)" fill="#3e4e7e"/>
      <path id="Path_5148" data-name="Path 5148" d="M1160.448,963.629a1.843,1.843,0,0,0,.813-1.3c-.011-.8-.967-1.37-1.159-1.484-1.7-1.014-4.195.091-6.183.925-2.185.916-5.316,2.16-9.361,3.537C1146.456,965.291,1158.522,965.188,1160.448,963.629Z" transform="translate(-1104.854 -952.623)" fill="#3e4e7e"/>
      <circle id="Ellipse_225" data-name="Ellipse 225" cx="2.934" cy="2.934" r="2.934" transform="translate(40.756 35.896)" fill="#f3bba0"/>
      <path id="Path_5149" data-name="Path 5149" d="M1088.178,1005.246a4.41,4.41,0,0,0-2.109-1.042c-.445-.077-.83-.058-1.035-.342a1.015,1.015,0,0,1,.223-1.294c.375-.17,1.175.321,2.92,2.679" transform="translate(-1055.079 -987.746)" fill="#3e4e7e"/>
      <path id="Path_5150" data-name="Path 5150" d="M1086.84,1015a4.409,4.409,0,0,0-2.317.407c-.4.2-.7.444-1.037.337a1.014,1.014,0,0,1-.586-1.175c.2-.359,1.137-.437,3.939.431" transform="translate(-1053.372 -997.574)" fill="#3e4e7e"/>
      <g id="Group_4179" data-name="Group 4179" transform="translate(48.829 40.268)">
        <path id="Path_5054-2" data-name="Path 5054" d="M1206.283,1160.816a4.673,4.673,0,0,1-5.34-3.667,3.584,3.584,0,0,0-.439,1.929,3.47,3.47,0,0,0,2.78,3.268A3.332,3.332,0,0,0,1206.283,1160.816Z" transform="translate(-1200.351 -1157.002)" fill="#f6fafa"/>
        <path id="Path_5151" data-name="Path 5151" d="M1201.866,1161.592a3.8,3.8,0,0,1-2.251-3.246,3.726,3.726,0,0,1,.457-2.01.147.147,0,0,1,.273.04,4.525,4.525,0,0,0,5.174,3.552.148.148,0,0,1,.146.225,3.483,3.483,0,0,1-3.132,1.6A2.759,2.759,0,0,1,1201.866,1161.592Zm-1.707-4.756a3.427,3.427,0,0,0-.25,1.492,3.313,3.313,0,0,0,2.649,3.13,3.184,3.184,0,0,0,2.669-1.2,4.807,4.807,0,0,1-5.068-3.424Z" transform="translate(-1199.609 -1156.259)" fill="#26386e"/>
      </g>
      <path id="Path_5052-2" data-name="Path 5052" d="M1260.1,1113.48a1.351,1.351,0,0,0,.047.388,1.2,1.2,0,0,1,2.32.057,1.357,1.357,0,0,0,.065-.385,1.218,1.218,0,1,0-2.432-.059Z" transform="translate(-1201.241 -1079.259)" fill="#26386e"/>
      <path id="Path_5053-2" data-name="Path 5053" d="M1196.077,1111.919a1.345,1.345,0,0,0,.046.388,1.2,1.2,0,0,1,2.32.056,1.352,1.352,0,0,0,.065-.386,1.218,1.218,0,1,0-2.432-.059Z" transform="translate(-1147.833 -1077.957)" fill="#26386e"/>
      <path id="Path_5152" data-name="Path 5152" d="M1386.469,951.994c-.043.371-.469.577-.6.63a1.634,1.634,0,0,1-1.359-.186c-.31-.144-.578-.267-.777-.154-.056.031-.086.1-.288.587l-.137.328c-.212.505-.388.911-.5,1.162a.168.168,0,0,1-.153.1.188.188,0,0,1-.066-.013.167.167,0,0,1-.086-.219c.109-.249.285-.653.5-1.158l.136-.327c.237-.57.273-.656.432-.747.345-.2.718-.025,1.079.141a1.363,1.363,0,0,0,1.092.182c.139-.058.378-.2.4-.365v0a.4.4,0,0,0-.154-.3,4.272,4.272,0,0,0-.762-.534l-.151-.091-.288-.171a2.745,2.745,0,0,0-1.621-.544c-.058,0-.116.008-.171.015a2.048,2.048,0,0,0-.328.065,2.979,2.979,0,0,0-1.376.86.165.165,0,1,1-.245-.222,3.347,3.347,0,0,1,1.5-.951,2.8,2.8,0,0,1,.328-.071c.089-.013.18-.021.275-.026a3,3,0,0,1,1.748.554c.094.055.192.113.3.174.066.041.134.081.206.124a3.97,3.97,0,0,1,.87.635.822.822,0,0,1,.176.287A.511.511,0,0,1,1386.469,951.994Z" transform="translate(-1302.109 -943.903)" fill="#eb9266"/>
      <path id="Path_5153" data-name="Path 5153" d="M1387.583,941.589a2.059,2.059,0,0,0-.328.065l-.121-.313-.62-1.613a.165.165,0,0,1,.308-.119l.64,1.661Z" transform="translate(-1306.698 -935.16)" fill="#eb9266"/>
      <path id="Path_5154" data-name="Path 5154" d="M1401.341,938.95a2.546,2.546,0,0,0,.118-.318c.012-.035.022-.07.031-.1a3.586,3.586,0,0,0-.691-2.96.166.166,0,0,0-.265.2,3.25,3.25,0,0,1,.635,2.675c0,.005,0,.012-.005.017a2.455,2.455,0,0,1-.111.322Z" transform="translate(-1318.376 -931.821)" fill="#eb9266"/>
      <path id="Path_5155" data-name="Path 5155" d="M1412.471,936.527a3.026,3.026,0,0,1-.53,1.056l-.094.114a2.61,2.61,0,0,1-.232.244c-.025.023-.052.046-.078.068a1.4,1.4,0,0,1-.3.192.405.405,0,0,0-.154-.3,1.1,1.1,0,0,0,.28-.184.642.642,0,0,0,.051-.045v0c.048-.045.093-.093.136-.139s.095-.111.136-.162a2.677,2.677,0,0,0,.466-.933,3.25,3.25,0,0,0-.635-2.675.166.166,0,1,1,.265-.2A3.586,3.586,0,0,1,1412.471,936.527Z" transform="translate(-1327.202 -930.153)" fill="#eb9266"/>
      <path id="Path_5156" data-name="Path 5156" d="M1415.8,937.386a3.069,3.069,0,0,1-.736.925,1.762,1.762,0,0,1-1.082.489,1.229,1.229,0,0,1-.154-.01,1.275,1.275,0,0,1-.553-.222,1.666,1.666,0,0,1-.151-.119.162.162,0,0,1-.051-.144v0c.048-.045.093-.093.136-.139a.168.168,0,0,1,.139.04,1.2,1.2,0,0,0,.159.121.891.891,0,0,0,.365.136,1.332,1.332,0,0,0,.984-.408,2.639,2.639,0,0,0,.648-.815,3.248,3.248,0,0,0-.068-2.748.166.166,0,0,1,.3-.143A3.6,3.6,0,0,1,1415.8,937.386Z" transform="translate(-1328.861 -930.78)" fill="#eb9266"/>
      <path id="Path_5059-3" data-name="Path 5059" d="M933.763,924.383a10.1,10.1,0,0,0,.383-4.156c-.171-1.032-.459-.948-.648-2.005-.073-.408-.509-2.847.829-4.144,1.155-1.119,3.014-.788,4.641-.5a6.572,6.572,0,0,1,4.144,1.823c1.638,1.825,1.893,4.9.663,6.464-.758.961-1.358.934-2.049,2.012a5.794,5.794,0,0,0-.437,4.451q-1.406-.184-2.849-.4-2.8-.422-5.438-.925A23.1,23.1,0,0,0,933.763,924.383Z" transform="translate(-928.359 -913.299)" fill="#f0ad8c"/>
      <path id="Path_5060-3" data-name="Path 5060" d="M943.453,1027.529a36.063,36.063,0,0,0-9.8,12.831,36.773,36.773,0,0,0-2.4,22.283,148.817,148.817,0,0,0-7.68-17.231c-7.775-14.839-12.991-18.674-16.221-27.308-2.567-6.862-4.1-17.348,1.175-32.786l10.958,2.657c.22,2.586.592,6.256,1.241,10.646.641,4.337,1.643,9.885,3.269,13.687C925.011,1014.676,928.987,1022.659,943.453,1027.529Z" transform="translate(-905 -973.382)" fill="#c5e3e8"/>
      <path id="Path_5157" data-name="Path 5157" d="M957,941.994c.043.371.469.577.6.63a1.635,1.635,0,0,0,1.359-.186c.31-.144.578-.267.777-.154.056.031.086.1.288.587l.138.328c.212.505.388.912.5,1.162a.167.167,0,0,0,.153.1.187.187,0,0,0,.066-.013.167.167,0,0,0,.086-.219c-.109-.249-.285-.653-.5-1.159l-.136-.326c-.237-.57-.274-.656-.433-.748-.345-.2-.718-.025-1.079.141a1.362,1.362,0,0,1-1.092.182c-.139-.058-.378-.2-.4-.365v0a.4.4,0,0,1,.154-.3,4.274,4.274,0,0,1,.763-.534l.151-.091.288-.171a2.746,2.746,0,0,1,1.621-.544c.058,0,.116.008.171.015a2.048,2.048,0,0,1,.328.065,2.981,2.981,0,0,1,1.376.86.165.165,0,1,0,.245-.222,3.345,3.345,0,0,0-1.5-.951,2.787,2.787,0,0,0-.328-.071c-.089-.013-.181-.022-.275-.027a3,3,0,0,0-1.749.554c-.095.055-.192.113-.3.174-.066.042-.134.081-.206.124a3.984,3.984,0,0,0-.87.635.829.829,0,0,0-.176.287A.514.514,0,0,0,957,941.994Z" transform="translate(-948.375 -935.56)" fill="#eb9266"/>
      <path id="Path_5158" data-name="Path 5158" d="M977.984,931.589a2.047,2.047,0,0,1,.328.065l.121-.313.62-1.613a.165.165,0,1,0-.308-.119l-.64,1.661Z" transform="translate(-965.888 -926.817)" fill="#eb9266"/>
      <path id="Path_5159" data-name="Path 5159" d="M964.479,928.779a2.441,2.441,0,0,1-.111-.321l-.005-.017a3.25,3.25,0,0,1,.635-2.675.166.166,0,1,0-.265-.2,3.586,3.586,0,0,0-.691,2.96c.01.035.02.07.031.1a2.545,2.545,0,0,0,.118.318Z" transform="translate(-954.174 -923.479)" fill="#eb9266"/>
      <path id="Path_5160" data-name="Path 5160" d="M951.042,926.527a3.036,3.036,0,0,0,.53,1.056l.095.114a2.6,2.6,0,0,0,.232.244c.025.023.052.046.078.068a1.4,1.4,0,0,0,.3.192.405.405,0,0,1,.154-.3,1.11,1.11,0,0,1-.28-.184c-.018-.013-.035-.03-.051-.045v0c-.048-.045-.093-.093-.136-.139s-.094-.111-.136-.162a2.681,2.681,0,0,1-.466-.933,3.249,3.249,0,0,1,.635-2.675.166.166,0,0,0-.265-.2A3.587,3.587,0,0,0,951.042,926.527Z" transform="translate(-943.329 -921.81)" fill="#eb9266"/>
      <path id="Path_5161" data-name="Path 5161" d="M939.869,927.386a3.073,3.073,0,0,0,.736.925,1.762,1.762,0,0,0,1.082.489,1.247,1.247,0,0,0,.154-.01,1.277,1.277,0,0,0,.554-.222,1.656,1.656,0,0,0,.151-.119.162.162,0,0,0,.051-.144v0c-.048-.045-.093-.093-.136-.139a.168.168,0,0,0-.139.04,1.218,1.218,0,0,1-.159.121.893.893,0,0,1-.365.136,1.333,1.333,0,0,1-.985-.408,2.636,2.636,0,0,1-.648-.815,3.247,3.247,0,0,1,.068-2.748.166.166,0,0,0-.3-.143A3.594,3.594,0,0,0,939.869,927.386Z" transform="translate(-933.825 -922.437)" fill="#eb9266"/>
    </g>
    <path id="Path_5162" data-name="Path 5162" d="M1093.357,1520.439v111.318a1.439,1.439,0,0,1-1.439,1.439H860.439a1.439,1.439,0,0,1-1.439-1.439V1520.439a1.439,1.439,0,0,1,1.439-1.439h231.48a1.442,1.442,0,0,1,.607.134h0A1.439,1.439,0,0,1,1093.357,1520.439Z" transform="translate(-70.606 -920.055)" fill="#f8dacb"/>
    <path id="Path_5163" data-name="Path 5163" d="M1093.026,1916.213h-3.52l-106.478-53.9a23.542,23.542,0,0,0-21.462.242l-100,53.656H859v-.5l101.614-54.523a25.583,25.583,0,0,1,23.323-.262Z" transform="translate(-70.606 -1203.073)" fill="#f5ccb7"/>
    <circle id="Ellipse_226" data-name="Ellipse 226" cx="2.652" cy="2.652" r="2.652" transform="translate(909.219 488.894)" fill="#f5ccb7"/>
    <circle id="Ellipse_227" data-name="Ellipse 227" cx="2.652" cy="2.652" r="2.652" transform="translate(804.305 465.358)" fill="#c5e3e8"/>
    <circle id="Ellipse_228" data-name="Ellipse 228" cx="2.652" cy="2.652" r="2.652" transform="translate(902.989 559.479)" fill="#3e4e7e"/>
    <circle id="Ellipse_229" data-name="Ellipse 229" cx="2.652" cy="2.652" r="2.652" transform="translate(783.173 559.492)" fill="#3e4e7e"/>
    <circle id="Ellipse_230" data-name="Ellipse 230" cx="2.652" cy="2.652" r="2.652" transform="translate(870.995 450.094)" fill="#3e4e7e"/>
    <circle id="Ellipse_231" data-name="Ellipse 231" cx="2.652" cy="2.652" r="2.652" transform="translate(774.367 544.906)" fill="#f8d086"/>
    <circle id="Ellipse_232" data-name="Ellipse 232" cx="2.652" cy="2.652" r="2.652" transform="translate(988.504 439.329)" fill="#f8d086"/>
    <circle id="Ellipse_233" data-name="Ellipse 233" cx="2.652" cy="2.652" r="2.652" transform="translate(1013.402 561.129)" fill="#f8d086"/>
    <circle id="Ellipse_234" data-name="Ellipse 234" cx="2.652" cy="2.652" r="2.652" transform="translate(920.754 427.232)" fill="#3e4e7e"/>
    <circle id="Ellipse_235" data-name="Ellipse 235" cx="2.652" cy="2.652" r="2.652" transform="translate(961.344 480.268)" fill="#c5e3e8"/>
    <path id="Path_5164" data-name="Path 5164" d="M1770.088,463.185a7.837,7.837,0,0,1-3.137-.662,11.163,11.163,0,0,1-5.871-7.053,19.74,19.74,0,0,1,.107-11.012,8.455,8.455,0,0,0-2.733.685c-3.948,1.757-6.161,6.837-5.038,11.564a.58.58,0,0,1-1.129.268c-1.247-5.252,1.255-10.915,5.7-12.892a9.72,9.72,0,0,1,3.568-.807,20.278,20.278,0,0,1,4.1-7.308,12.651,12.651,0,0,1,9.541-4.348h.008a14.927,14.927,0,0,1,3.59.454,28.645,28.645,0,0,1,6.4-9.056c5.5-5.1,13.175-7.487,21.618-6.716a.58.58,0,1,1-.105,1.155c-8.112-.739-15.471,1.538-20.724,6.411a27.464,27.464,0,0,0-6.065,8.525,21.386,21.386,0,0,1,9.087,6.015c2.41,2.649,4.561,6.894,3.932,10.407a6.087,6.087,0,0,1-3.429,4.456,8.189,8.189,0,0,1-8.261-.776,11.316,11.316,0,0,1-4.346-7.1,21.81,21.81,0,0,1,1.438-12.236,13.711,13.711,0,0,0-3.13-.375h-.007a11.371,11.371,0,0,0-8.683,3.968,18.909,18.909,0,0,0-3.74,6.548,12.013,12.013,0,0,1,5.2,1.627,17.046,17.046,0,0,1,6.569,7.612c.647,1.374,2.538,6.087-.3,9.032A5.646,5.646,0,0,1,1770.088,463.185Zm-7.687-18.751a18.7,18.7,0,0,0-.213,10.693,10.143,10.143,0,0,0,5.236,6.336c1.784.8,4.416.917,5.978-.7,1.847-1.915,1.256-5.25.087-7.732a16.133,16.133,0,0,0-6.106-7.105A10.826,10.826,0,0,0,1762.4,444.435Zm17.045-10.973a20.714,20.714,0,0,0-1.417,11.707,10.151,10.151,0,0,0,3.876,6.378,7,7,0,0,0,7.059.694,4.981,4.981,0,0,0,2.822-3.63c.556-3.108-1.5-7.063-3.648-9.422A20.171,20.171,0,0,0,1779.446,433.462Z" transform="translate(-815.571)" fill="#c5e3e8"/>
    <path id="Path_5165" data-name="Path 5165" d="M1374.467,545.812a.581.581,0,0,1-.249-.056c-6.476-3.085-10.161-9.816-13.411-15.756-3.647-6.664-9.092-14.672-18.908-17.467a30.269,30.269,0,0,0-7.475-1.193,11.634,11.634,0,0,1,3.1,6.011,9.315,9.315,0,0,1-2.891,7.69,6.515,6.515,0,0,1-5.839,1.89c-3.262-.658-5.21-4.357-5.693-7.731a6.977,6.977,0,0,1,.956-4.892c1.535-2.286,4.115-3.635,7.677-4.017-.787-.723-1.6-1.412-2.4-2.077-.394-.331-.78-.657-1.151-.977a106.036,106.036,0,0,0-11.522-8.639c-1.264-.819-2.589-1.61-3.87-2.375-4.54-2.711-9.234-5.514-12.329-10.2a29.923,29.923,0,0,1-4.39-11.065.58.58,0,0,1,1.141-.213,28.764,28.764,0,0,0,4.217,10.639c2.949,4.465,7.323,7.077,11.955,9.842,1.29.77,2.624,1.567,3.906,2.4a107.174,107.174,0,0,1,11.649,8.734c.368.317.751.639,1.141.968,1.071.9,2.189,1.844,3.227,2.86a30.957,30.957,0,0,1,8.9,1.23c10.229,2.912,15.852,11.163,19.608,18.026,3.166,5.785,6.755,12.342,12.892,15.265a.58.58,0,0,1-.25,1.1Zm-41.615-34.447c-3.313.181-6.231,1.213-7.828,3.59a5.826,5.826,0,0,0-.771,4.081c.412,2.874,2.081,6.215,4.774,6.758a5.388,5.388,0,0,0,4.812-1.594,8.108,8.108,0,0,0,2.542-6.679A11.426,11.426,0,0,0,1332.852,511.365Z" transform="translate(-435.238 -48.482)" fill="#f8d086"/>
    <path id="Path_5166" data-name="Path 5166" d="M1099.779,708.533a5.1,5.1,0,0,1-.589-.034c-3.486-.406-6.345-4.5-6.828-8.074s1.21-7.543,4.789-11.275c-.7-.049-1.377-.064-2-.048-13.625.342-21.746,16.647-22.628,18.506a.5.5,0,1,1-.9-.426c.908-1.915,9.281-18.717,23.5-19.074a23.31,23.31,0,0,1,2.943.127l.1-.1a37.766,37.766,0,0,1,13.676-8.018,31.291,31.291,0,0,1,7.736-1.43.5.5,0,0,1,.057.993,30.291,30.291,0,0,0-7.49,1.384,37.494,37.494,0,0,0-12.81,7.336c4.063.633,8.73,2.388,9.989,6.341,1.107,3.474-.685,7.364-2.73,9.846C1104.539,707.1,1102.03,708.533,1099.779,708.533Zm-1.368-19.262c-3.379,3.293-5.586,7.152-5.063,11.021.486,3.594,3.214,6.9,5.958,7.219,2.028.236,4.53-1.126,6.532-3.556,2.36-2.865,3.362-6.363,2.55-8.912C1107.25,691.473,1102.563,689.784,1098.411,689.272Z" transform="translate(-247.951 -219.017)" fill="#b8becf"/>
  </g>
</svg>
