<svg xmlns="http://www.w3.org/2000/svg" width="335" height="72.307" viewBox="0 0 335 72.307">
  <g id="Group_4688" data-name="Group 4688" transform="translate(387 -284.154)">
    <g id="Group_4688-2" data-name="Group 4688">
      <g id="Artwork_19" data-name="Artwork 19">
        <g id="Group_4226" data-name="Group 4226">
          <g id="Group_4222" data-name="Group 4222">
            <path id="Path_5521" data-name="Path 5521" d="M-252.46,356.21h-42.72v-.23c0-.16,0-.33.01-.49.02-2.95.12-5.54.33-7.83.46-5.1,1.42-8.77,3.1-11.87a21.034,21.034,0,0,1,10.87-9.64c.35-.14.7-.27,1.06-.39.2-.06.41-.13.61-.18a20.8,20.8,0,0,1,10.68-.21,16.976,16.976,0,0,1,1.85.53,1.557,1.557,0,0,1,.23.08,19,19,0,0,1,8.97,6.22,90.266,90.266,0,0,1,3.18,11.12l.27,1.29a88.71,88.71,0,0,1,1.45,10.14c.02.25.04.49.06.74.01.16.02.32.03.49A1.642,1.642,0,0,1-252.46,356.21Z" fill="#b9dde3"/>
            <path id="Path_5403" data-name="Path 5403" d="M-266.883,320.059l-.087.165a14.276,14.276,0,0,0-1.224,3.16q-.117.467-.2.948l-.448-.182.447.19c-.037.221-.068.443-.094.668a11.49,11.49,0,0,0-.073,1.215c-.012,1.511.274,2.2-.224,2.914-1.127,1.606-4.953,1.43-7.39,0-2.8-1.641-3.672-4.878-3.935-7.07a13.673,13.673,0,0,1-.1-2.234Z" fill="#ed9c78"/>
            <path id="Path_5404" data-name="Path 5404" d="M-261.525,296.632a9.523,9.523,0,0,1,2.127,5.6,27.028,27.028,0,0,1-1.008,10.761c-4.741-14.227-4.821-17.735-3.919-18.159C-263.613,294.5-262.091,296-261.525,296.632Z" fill="#273e6d"/>
            <path id="Path_5405" data-name="Path 5405" d="M-259.328,307.5v.244a14.268,14.268,0,0,1-3.913,9.583,13.818,13.818,0,0,1-9.587,4.338,14,14,0,0,1-14.242-13.758,14,14,0,0,1,13.758-14.242h.171A13.824,13.824,0,0,1-259.328,307.5Z" fill="#ed9c78"/>
            <path id="Path_5406" data-name="Path 5406" d="M-271.1,312.3a.224.224,0,0,1-.228-.22.225.225,0,0,1,.086-.18c1.61-1.313,1.481-1.639,1.475-1.652-.024-.052-.21-.1-.359-.13a2.037,2.037,0,0,1-1.14-.584,1.98,1.98,0,0,1-.434-.859c-.444-1.6-1.127-4.872-1.155-5.011a.224.224,0,0,1,.159-.274.225.225,0,0,1,.274.159l.005.024c.029.138.708,3.4,1.148,4.982a1.561,1.561,0,0,0,.334.678,1.613,1.613,0,0,0,.911.449c.28.066.545.128.662.375.213.45-.265,1.105-1.6,2.192A.226.226,0,0,1-271.1,312.3Z" fill="#112b5c"/>
            <path id="Path_5407" data-name="Path 5407" d="M-266.97,320.223a14.276,14.276,0,0,0-1.224,3.16c-.017.05-.034.1-.049.15a9.906,9.906,0,0,1-2.335.224,7.88,7.88,0,0,1-4.255-1.121,7.038,7.038,0,0,1-2.127-2.13,14.542,14.542,0,0,0,5.039,1.121,8.011,8.011,0,0,0,2.911-.336A7.166,7.166,0,0,0-266.97,320.223Z" fill="#273e6d" opacity="0.19" style="mix-blend-mode: normal;isolation: isolate"/>
            <path id="Path_5408" data-name="Path 5408" d="M-286.718,311.652c.636-.025.085-3.652,2.8-8.071,1.09-1.775,2.572-4.188,5.262-5.268,3.777-1.517,5.6,1.332,11.533.448,2.12-.316,4.862-.766,6.382-3.027a6.045,6.045,0,0,0,.56-5.829c-1.833-3.551-8.155-3.285-11.645-3.139-5.582.234-11.592.487-15.34,5.156C-293.217,299.464-287.893,311.7-286.718,311.652Z" fill="#273e6d"/>
            <path id="Path_5409" data-name="Path 5409" d="M-262.868,288a1.558,1.558,0,0,0,.9-1.009c.114-.69-.553-1.26-.784-1.457-1.319-1.128-3.643-.541-5.486-.112-2.026.471-4.919,1.086-8.622,1.681Z" fill="#273e6d"/>
            <circle id="Ellipse_281" data-name="Ellipse 281" cx="2.575" cy="2.575" r="2.575" transform="translate(-281.665 307.732)" fill="#f0ab8e"/>
            <circle id="Ellipse_282" data-name="Ellipse 282" cx="2.575" cy="2.575" r="2.575" transform="translate(-265.38 307.732)" fill="#f0ab8e"/>
            <path id="Path_5410" data-name="Path 5410" d="M-284.478,291.139a3.879,3.879,0,0,1,.448-2.018c.193-.347.417-.6.336-.9a.892.892,0,0,0-1.008-.56c-.323.163-.428.981.224,3.475Z" fill="#273e6d"/>
            <path id="Path_5411" data-name="Path 5411" d="M-284.037,291.035a3.866,3.866,0,0,0-1.676-1.207c-.375-.131-.71-.17-.847-.446a.893.893,0,0,1,.38-1.09c.35-.094.971.448,2.143,2.743Z" fill="#273e6d"/>
            <path id="Path_5412" data-name="Path 5412" d="M-271.3,315.285a.245.245,0,0,1-.167-.065,3.6,3.6,0,0,0-1.833-.919,3.486,3.486,0,0,0-1.144,0,.245.245,0,0,1-.282-.2.245.245,0,0,1,.2-.282,3.97,3.97,0,0,1,1.305,0,4.075,4.075,0,0,1,2.085,1.042.245.245,0,0,1,.014.346.244.244,0,0,1-.18.079Z" fill="#112b5c"/>
            <g id="Group_4221" data-name="Group 4221">
              <rect id="Rectangle_3255" data-name="Rectangle 3255" width="8.353" height="3.649" transform="translate(-275.28 303.961)" fill="#273e6d"/>
              <ellipse id="Ellipse_283" data-name="Ellipse 283" cx="8.049" cy="8.058" rx="8.049" ry="8.058" transform="translate(-290.239 297.88)" fill="#56678d"/>
              <ellipse id="Ellipse_284" data-name="Ellipse 284" cx="7.214" cy="7.222" rx="7.214" ry="7.222" transform="translate(-289.404 298.716)" fill="#273e6d"/>
              <ellipse id="Ellipse_285" data-name="Ellipse 285" cx="6.379" cy="6.385" rx="6.379" ry="6.385" transform="translate(-288.568 299.552)" fill="#56678d"/>
              <path id="Path_5413" data-name="Path 5413" d="M-276.647,305.938a5.543,5.543,0,0,1-5.537,5.549,5.542,5.542,0,0,1-4.988-3.113,5.48,5.48,0,0,1-.487-1.524,5.552,5.552,0,0,1,4.565-6.387,5.681,5.681,0,0,1,.9-.075h.149a5.518,5.518,0,0,1,1.576.273,5.477,5.477,0,0,1,1.071.482,5.557,5.557,0,0,1,2.748,4.793Z" fill="#b9dde3"/>
              <ellipse id="Ellipse_286" data-name="Ellipse 286" cx="8.049" cy="8.058" rx="8.049" ry="8.058" transform="translate(-268.598 297.88)" fill="#56678d"/>
              <ellipse id="Ellipse_287" data-name="Ellipse 287" cx="7.214" cy="7.222" rx="7.214" ry="7.222" transform="translate(-267.762 298.716)" fill="#273e6d"/>
              <ellipse id="Ellipse_288" data-name="Ellipse 288" cx="6.379" cy="6.385" rx="6.379" ry="6.385" transform="translate(-266.927 299.552)" fill="#56678d"/>
              <path id="Path_5414" data-name="Path 5414" d="M-280.466,300.663l-6.706,7.711a5.48,5.48,0,0,1-.487-1.524l5.617-6.46A5.518,5.518,0,0,1-280.466,300.663Z" fill="#fff" opacity="0.51" style="mix-blend-mode: normal;isolation: isolate"/>
              <path id="Path_5415" data-name="Path 5415" d="M-278.306,301.978l-7.265,8.357a5.562,5.562,0,0,1-.974-.965l7.152-8.225A5.534,5.534,0,0,1-278.306,301.978Z" fill="#fff" opacity="0.51" style="mix-blend-mode: normal;isolation: isolate"/>
              <path id="Path_5416" data-name="Path 5416" d="M-255.006,305.938a5.543,5.543,0,0,1-5.539,5.547,5.542,5.542,0,0,1-4.985-3.111,5.48,5.48,0,0,1-.487-1.524,5.552,5.552,0,0,1,4.565-6.387,5.681,5.681,0,0,1,.9-.075h.149a5.518,5.518,0,0,1,1.576.273,5.477,5.477,0,0,1,1.071.482,5.555,5.555,0,0,1,2.748,4.793Z" fill="#b9dde3"/>
              <path id="Path_5417" data-name="Path 5417" d="M-258.827,300.663l-6.7,7.711a5.48,5.48,0,0,1-.487-1.524l5.617-6.46A5.553,5.553,0,0,1-258.827,300.663Z" fill="#fff" opacity="0.51" style="mix-blend-mode: normal;isolation: isolate"/>
              <path id="Path_5418" data-name="Path 5418" d="M-256.665,301.978l-7.265,8.357a5.56,5.56,0,0,1-.974-.965l7.152-8.225A5.534,5.534,0,0,1-256.665,301.978Z" fill="#fff" opacity="0.51" style="mix-blend-mode: normal;isolation: isolate"/>
              <path id="Path_5419" data-name="Path 5419" d="M-252.727,301.681c-.348.157-.315.992-.3,1.292a4.235,4.235,0,0,0,.38,1.6c.794,1.684.951,5.836-.684,6.918-.754.5-1.462.125-2.43.912-.356.29-.831.855-.683,1.216.236.578,1.971.4,2.961.3,2.2-.222,2.581-.751,3.493-.38a8.914,8.914,0,0,1,1.97,1.673c.854.822.97,1.045,1.367,1.14a2.354,2.354,0,0,0,2.43-1.292c.8-1.852-2.01-4.608-2.582-5.169-1.238-1.213-1.361-.79-2.05-1.672-1.459-1.865-.737-3.535-2.43-5.549C-251.437,302.487-252.282,301.481-252.727,301.681Z" fill="#ed9c78"/>
              <path id="Path_5420" data-name="Path 5420" d="M-290.2,301.529c.348.157.316.992.3,1.292a4.236,4.236,0,0,1-.38,1.6c-.794,1.684-.952,5.837.683,6.918.754.5,1.462.124,2.43.912.356.29.831.855.683,1.216-.236.578-1.971.4-2.962.3-2.2-.221-2.581-.75-3.493-.38a8.9,8.9,0,0,0-1.974,1.672c-.854.822-.97,1.045-1.367,1.14a2.356,2.356,0,0,1-2.43-1.292c-.8-1.852,2.01-4.609,2.582-5.169,1.238-1.213,1.36-.79,2.05-1.672,1.458-1.866.737-3.535,2.43-5.549C-291.489,302.335-290.644,301.329-290.2,301.529Z" fill="#ed9c78"/>
              <path id="Path_5421" data-name="Path 5421" d="M-248.779,317.265a22.042,22.042,0,0,0,4.1-7.07c1.387,1.38,3.282,3.314,5.467,5.7,4,4.374,4.451,5.319,4.48,6.309.112,3.868-6.21,6.809-7.29,7.3Z" fill="#b9dde3"/>
              <path id="Path_5422" data-name="Path 5422" d="M-293.578,317.265a22.024,22.024,0,0,1-4.1-7.07c-1.386,1.38-3.282,3.314-5.467,5.7-4,4.374-4.451,5.319-4.48,6.309-.112,3.868,6.21,6.809,7.29,7.3Z" fill="#b9dde3"/>
            </g>
            <path id="Path_5423" data-name="Path 5423" d="M-306.812,320.311a52.875,52.875,0,0,0-6.367,8.825c-2.94,5.11-4.51,7.84-3.8,11.031,1.116,4.986,6.96,7.3,8.326,7.845A17.735,17.735,0,0,0-292,346.051c5.074-3.752,3.073-10.664,8.2-16.057.512-.538,4.037-4.164,4.04-4.168a92.319,92.319,0,0,0-21.916,9.315l3.918-10.3Z" fill="#b9dde3"/>
            <path id="Path_5424" data-name="Path 5424" d="M-235.477,320.311a52.875,52.875,0,0,1,6.367,8.825c2.94,5.11,4.51,7.84,3.8,11.031-1.116,4.986-6.961,7.3-8.326,7.845-5.664,2.258-10.964.166-16.651-1.961-5.734-2.145-10-3.739-11.215-7.477-1.149-3.526,1.243-6.416-.735-9.561a7.78,7.78,0,0,0-4.408-3.064,64.222,64.222,0,0,1,26.03,9.193l-3.918-10.3Z" fill="#b9dde3"/>
          </g>
          <g id="Group_4224" data-name="Group 4224">
            <path id="Path_5425" data-name="Path 5425" d="M-177.02,288.246a18.783,18.783,0,0,1,19.594-2.354c7.214,3.5,11.216,12.032,10.861,18.719-.235,4.431-2.33,7.853-.224,11.433,1.293,2.2,2.776,2,4.479,4.259a12.771,12.771,0,0,1,1.568,11.433c-3.563,8.567-24.59,10.627-37.173,2.466-.976-.633-8.74-5.775-7.838-10.424.49-2.523,3.213-3.261,4.031-6.725.691-2.93-.617-5.117-1.344-7.286C-185.22,303.337-183.255,293.46-177.02,288.246Z" fill="#273e6d"/>
            <path id="Path_5522" data-name="Path 5522" d="M-144.16,355.49c-.01.16-.01.32-.01.49v.23h-38.58a.856.856,0,0,0-.05-.23,2.678,2.678,0,0,0-.11-.49c-.24-1.19-.53-2.38-.85-3.56-.5-1.75-.79-2.47-1.1-3.91a25.144,25.144,0,0,1-.57-5.36c0-.57.02-1.14.06-1.7a31.945,31.945,0,0,1,2.68-10.62c.28-.63.56-1.24.84-1.81a19.024,19.024,0,0,1,8.52-6.06,4.24,4.24,0,0,1,.5-.18l.18-.06a16.962,16.962,0,0,1,1.85-.53,20.761,20.761,0,0,1,10.67.21c.21.05.41.11.62.18.32.11.63.22.95.34.01.01.02.01.04.02a20.956,20.956,0,0,1,10.93,9.66,22.6,22.6,0,0,1,1.82,4.51,38.555,38.555,0,0,1,1.28,7.36C-144.2,347.18-144.11,350.94-144.16,355.49Z" fill="#b9dde3"/>
            <path id="Path_5427" data-name="Path 5427" d="M-172.431,316.381l.087.165a14.277,14.277,0,0,1,1.224,3.16c.079.311.145.627.2.948l.448-.182-.447.191c.037.221.068.443.094.668a12.039,12.039,0,0,1,.073,1.215c.012,1.511-.275,2.2.224,2.914,1.128,1.606,4.953,1.43,7.39,0,2.8-1.641,3.671-4.878,3.935-7.07a13.674,13.674,0,0,0,.1-2.234Z" fill="#ed9c78"/>
            <path id="Path_5428" data-name="Path 5428" d="M-179.989,303.824v.244a14.268,14.268,0,0,0,3.913,9.583,13.816,13.816,0,0,0,9.587,4.338,14,14,0,0,0,14.242-13.758,14,14,0,0,0-13.758-14.242h-.171a13.823,13.823,0,0,0-13.813,13.833Z" fill="#ed9c78"/>
            <path id="Path_5429" data-name="Path 5429" d="M-168.223,308.622a.223.223,0,0,0,.227-.22.221.221,0,0,0-.085-.18c-1.609-1.313-1.481-1.639-1.475-1.652.024-.052.21-.1.359-.13a2.037,2.037,0,0,0,1.14-.584,1.98,1.98,0,0,0,.434-.859c.444-1.6,1.126-4.872,1.155-5.011a.224.224,0,0,0-.174-.265.224.224,0,0,0-.265.174c-.029.138-.708,3.4-1.148,4.982a1.56,1.56,0,0,1-.334.678,1.607,1.607,0,0,1-.911.449c-.28.066-.545.128-.662.375-.212.45.265,1.105,1.6,2.192A.226.226,0,0,0-168.223,308.622Z" fill="#112b5c"/>
            <path id="Path_5430" data-name="Path 5430" d="M-172.347,316.546a14.277,14.277,0,0,1,1.224,3.16c.017.05.034.1.049.15a9.893,9.893,0,0,0,2.334.224,7.88,7.88,0,0,0,4.255-1.121,7.038,7.038,0,0,0,2.127-2.13,14.536,14.536,0,0,1-5.038,1.121,8.055,8.055,0,0,1-2.911-.336A7.192,7.192,0,0,1-172.347,316.546Z" fill="#273e6d" opacity="0.19" style="mix-blend-mode: normal;isolation: isolate"/>
            <circle id="Ellipse_289" data-name="Ellipse 289" cx="2.575" cy="2.575" r="2.575" transform="translate(-162.803 304.055)" fill="#f0ab8e"/>
            <circle id="Ellipse_290" data-name="Ellipse 290" cx="2.575" cy="2.575" r="2.575" transform="translate(-179.087 304.055)" fill="#f0ab8e"/>
            <path id="Path_5431" data-name="Path 5431" d="M-166.628,312.373a.241.241,0,0,1-.144-.047,3.446,3.446,0,0,0-1.022-.514,3.577,3.577,0,0,0-2.05,0,.244.244,0,0,1-.3-.167.245.245,0,0,1,.167-.3,4.071,4.071,0,0,1,2.33.005,3.921,3.921,0,0,1,1.166.586.246.246,0,0,1,.054.342.244.244,0,0,1-.2.1Z" fill="#112b5c"/>
            <path id="Path_5432" data-name="Path 5432" d="M-132.507,316.633a52.874,52.874,0,0,1,6.367,8.825c2.94,5.11,4.51,7.84,3.8,11.031-1.116,4.986-6.96,7.3-8.326,7.845a17.739,17.739,0,0,1-16.651-1.961c-5.074-3.752-3.073-10.664-8.2-16.057-.512-.538-4.037-4.164-4.041-4.167a92.337,92.337,0,0,1,21.916,9.315l-3.918-10.3Z" fill="#b9dde3"/>
            <path id="Path_5433" data-name="Path 5433" d="M-203.84,316.633a52.874,52.874,0,0,0-6.367,8.825c-2.94,5.11-4.51,7.84-3.8,11.031,1.116,4.986,6.96,7.3,8.326,7.845,5.664,2.258,10.964.166,16.651-1.961,5.734-2.145,10-3.74,11.215-7.477,1.148-3.526-1.243-6.416.735-9.561a7.78,7.78,0,0,1,4.408-3.064,64.222,64.222,0,0,0-26.03,9.193l3.918-10.3Z" fill="#b9dde3"/>
            <path id="Path_5434" data-name="Path 5434" d="M-175.454,289.3c-.177.633.333,1.5,3.728,3.8,8.12,5.5,22.246,12.086,24.7,9.146,1.739-2.084-2.58-8.726-8.389-12.1C-163.5,285.45-174.78,286.895-175.454,289.3Z" fill="#273e6d"/>
            <g id="Group_4223" data-name="Group 4223">
              <rect id="Rectangle_3256" data-name="Rectangle 3256" width="8.353" height="3.649" transform="translate(-172.389 300.284)" fill="#273e6d"/>
              <ellipse id="Ellipse_291" data-name="Ellipse 291" cx="8.049" cy="8.058" rx="8.049" ry="8.058" transform="translate(-165.175 294.203)" fill="#56678d"/>
              <ellipse id="Ellipse_292" data-name="Ellipse 292" cx="7.214" cy="7.222" rx="7.214" ry="7.222" transform="translate(-164.34 295.039)" fill="#273e6d"/>
              <ellipse id="Ellipse_293" data-name="Ellipse 293" cx="6.379" cy="6.385" rx="6.379" ry="6.385" transform="translate(-163.505 295.875)" fill="#56678d"/>
              <path id="Path_5435" data-name="Path 5435" d="M-162.67,302.261a5.543,5.543,0,0,0,5.543,5.543,5.542,5.542,0,0,0,4.981-3.111,5.48,5.48,0,0,0,.487-1.524,5.552,5.552,0,0,0-4.565-6.387,5.681,5.681,0,0,0-.9-.075h-.149a5.518,5.518,0,0,0-1.576.273,5.477,5.477,0,0,0-1.071.482,5.555,5.555,0,0,0-2.748,4.793Z" fill="#b9dde3"/>
              <ellipse id="Ellipse_294" data-name="Ellipse 294" cx="8.049" cy="8.058" rx="8.049" ry="8.058" transform="translate(-186.817 294.203)" fill="#56678d"/>
              <ellipse id="Ellipse_295" data-name="Ellipse 295" cx="7.214" cy="7.222" rx="7.214" ry="7.222" transform="translate(-185.982 295.039)" fill="#273e6d"/>
              <ellipse id="Ellipse_296" data-name="Ellipse 296" cx="6.379" cy="6.385" rx="6.379" ry="6.385" transform="translate(-185.146 295.875)" fill="#56678d"/>
              <path id="Path_5436" data-name="Path 5436" d="M-158.851,296.987l6.706,7.711a5.479,5.479,0,0,0,.487-1.524l-5.617-6.46A5.519,5.519,0,0,0-158.851,296.987Z" fill="#fff" opacity="0.51" style="mix-blend-mode: normal;isolation: isolate"/>
              <path id="Path_5437" data-name="Path 5437" d="M-161.01,298.3l7.265,8.357a5.56,5.56,0,0,0,.974-.965l-7.151-8.225A5.5,5.5,0,0,0-161.01,298.3Z" fill="#fff" opacity="0.51" style="mix-blend-mode: normal;isolation: isolate"/>
              <path id="Path_5438" data-name="Path 5438" d="M-184.312,302.261a5.544,5.544,0,0,0,5.544,5.544,5.545,5.545,0,0,0,4.982-3.112,5.48,5.48,0,0,0,.487-1.524,5.552,5.552,0,0,0-4.565-6.387,5.681,5.681,0,0,0-.9-.075h-.149a5.518,5.518,0,0,0-1.576.273,5.45,5.45,0,0,0-1.071.482,5.557,5.557,0,0,0-2.748,4.793Z" fill="#b9dde3"/>
              <path id="Path_5439" data-name="Path 5439" d="M-180.492,296.987l6.706,7.711a5.48,5.48,0,0,0,.487-1.524l-5.617-6.46A5.519,5.519,0,0,0-180.492,296.987Z" fill="#fff" opacity="0.51" style="mix-blend-mode: normal;isolation: isolate"/>
              <path id="Path_5440" data-name="Path 5440" d="M-182.651,298.3l7.265,8.357a5.56,5.56,0,0,0,.974-.965l-7.152-8.225A5.506,5.506,0,0,0-182.651,298.3Z" fill="#fff" opacity="0.51" style="mix-blend-mode: normal;isolation: isolate"/>
              <path id="Path_5441" data-name="Path 5441" d="M-186.589,298c.348.157.316.992.3,1.292a4.235,4.235,0,0,1-.38,1.6c-.794,1.684-.952,5.836.684,6.918.754.5,1.462.125,2.43.912.357.29.831.855.683,1.216-.236.578-1.971.4-2.961.3-2.2-.222-2.581-.751-3.493-.38a8.9,8.9,0,0,0-1.974,1.672c-.854.822-.97,1.045-1.367,1.14a2.353,2.353,0,0,1-2.43-1.292c-.8-1.852,2.01-4.609,2.582-5.169,1.238-1.213,1.36-.79,2.05-1.672,1.459-1.866.737-3.535,2.43-5.549C-187.878,298.81-187.033,297.8-186.589,298Z" fill="#ed9c78"/>
              <path id="Path_5442" data-name="Path 5442" d="M-149.117,297.852c-.348.157-.315.992-.3,1.292a4.235,4.235,0,0,0,.38,1.6c.794,1.684.952,5.836-.684,6.918-.754.5-1.462.125-2.43.912-.356.29-.831.855-.683,1.216.236.578,1.971.4,2.961.3,2.2-.221,2.581-.75,3.493-.38a8.9,8.9,0,0,1,1.974,1.672c.854.822.97,1.045,1.367,1.14a2.353,2.353,0,0,0,2.43-1.292c.8-1.852-2.01-4.609-2.582-5.169-1.238-1.213-1.361-.79-2.05-1.672-1.459-1.865-.737-3.535-2.43-5.549C-147.832,298.658-148.672,297.652-149.117,297.852Z" fill="#ed9c78"/>
              <path id="Path_5443" data-name="Path 5443" d="M-190.537,313.588a22.042,22.042,0,0,1-4.1-7.07c-1.386,1.38-3.282,3.314-5.467,5.7-4,4.374-4.451,5.319-4.48,6.309-.112,3.868,6.21,6.809,7.29,7.3Z" fill="#b9dde3"/>
              <path id="Path_5444" data-name="Path 5444" d="M-145.738,313.588a22.042,22.042,0,0,0,4.1-7.07c1.386,1.38,3.282,3.314,5.467,5.7,4,4.374,4.451,5.319,4.48,6.309.112,3.868-6.21,6.809-7.29,7.3Z" fill="#b9dde3"/>
            </g>
          </g>
        </g>
      </g>
      <line id="Line_157" data-name="Line 157" x2="335" transform="translate(-387 355.961)" fill="none" stroke="#8b97b2" stroke-width="1"/>
    </g>
  </g>
</svg>
