<svg xmlns="http://www.w3.org/2000/svg" xmlns:xlink="http://www.w3.org/1999/xlink" width="58" height="58" viewBox="0 0 58 58">
  <defs>
    <filter id="Union_17" x="0" y="0" width="58" height="58" filterUnits="userSpaceOnUse">
      <feOffset dy="3" input="SourceAlpha"/>
      <feGaussianBlur stdDeviation="3" result="blur"/>
      <feFlood flood-opacity="0.161"/>
      <feComposite operator="in" in2="blur"/>
    </filter>
  </defs>
  <g id="Group_4677" data-name="Group 4677" transform="translate(-103 -64)">
    <g transform="matrix(1, 0, 0, 1, 103, 64)" filter="url(#Union_17)">
      <path id="Union_17-2" data-name="Union 17" d="M-4669.667,5204.676a1.12,1.12,0,0,1-.256-1.187l2.546-6.573,1.814-4.7h0l1.849-4.787,1.953-5.049h0l2.456-6.346s3.656,0,10.961,7.316,7.318,10.962,7.318,10.962l-6.346,2.455v0l-5.049,1.952-4.787,1.849h0l-4.7,1.814-6.573,2.545a1.117,1.117,0,0,1-.4.072A1.117,1.117,0,0,1-4669.667,5204.676Zm36.19-13.507a2.47,2.47,0,0,0-3.1,0,.3.3,0,0,1-.376-.038.3.3,0,0,1-.038-.376,2.472,2.472,0,0,0,0-3.1.3.3,0,0,1,.041-.374.3.3,0,0,1,.374-.038,2.466,2.466,0,0,0,3.1,0,.3.3,0,0,1,.374.039.3.3,0,0,1,.041.372,2.472,2.472,0,0,0,0,3.1.3.3,0,0,1-.038.376.3.3,0,0,1-.21.087A.3.3,0,0,1-4633.477,5191.168Zm-6.543-3.461-.1-.022a.69.69,0,0,1-.507-.834.689.689,0,0,1,.833-.507l.1.025a.688.688,0,0,1,.52.751.689.689,0,0,1-.683.607A.684.684,0,0,1-4640.021,5187.707Zm4.615-2.857a7.2,7.2,0,0,0-6.47-.489.691.691,0,0,1-.89-.37.689.689,0,0,1,.348-.9,8.6,8.6,0,0,1,7.776.608.689.689,0,0,1,.277.773.69.69,0,0,1-.661.49A.678.678,0,0,1-4635.405,5184.85Zm-10.665-4.145a.69.69,0,0,1,.149-.752l6.573-6.575a.692.692,0,0,1,.977,0,.691.691,0,0,1,0,.976l-6.575,6.575a.7.7,0,0,1-.488.2A.689.689,0,0,1-4646.07,5180.705Zm5.978-.738a.691.691,0,0,1,.538-.749l.119-.026a.691.691,0,0,1,.671.2.69.69,0,0,1,.149.683.687.687,0,0,1-.524.462l-.12.026a.627.627,0,0,1-.147.017A.689.689,0,0,1-4640.092,5179.967Zm9.579.522a2.837,2.837,0,0,0-3.542,0,.346.346,0,0,1-.42-.052.346.346,0,0,1-.052-.421,2.833,2.833,0,0,0,0-3.54.339.339,0,0,1,.052-.42.339.339,0,0,1,.42-.044,2.839,2.839,0,0,0,3.542,0,.334.334,0,0,1,.418.045.336.336,0,0,1,.046.419,2.833,2.833,0,0,0,0,3.54.34.34,0,0,1-.043.422.338.338,0,0,1-.242.1A.339.339,0,0,1-4630.513,5180.49Zm-18.478-2.7a.689.689,0,0,1-.362-.905,7.2,7.2,0,0,0-.49-6.47.69.69,0,0,1,.192-.956.692.692,0,0,1,.958.193,8.6,8.6,0,0,1,.607,7.775.687.687,0,0,1-.634.418h-.009A.667.667,0,0,1-4648.991,5177.788Zm-3.687-2.662-.023-.1a.69.69,0,0,1,.507-.833.69.69,0,0,1,.833.508l.025.1a.692.692,0,0,1-.508.833.683.683,0,0,1-.163.02A.691.691,0,0,1-4652.677,5175.126Zm7.255-.28a.691.691,0,0,1-.136-.58l.026-.12a.69.69,0,0,1,.462-.525.7.7,0,0,1,.685.15.69.69,0,0,1,.2.67l-.026.12a.688.688,0,0,1-.673.541A.693.693,0,0,1-4645.422,5174.846Zm-10.7-2.891a.3.3,0,0,1-.038-.376,2.468,2.468,0,0,0,0-3.1.3.3,0,0,1,.038-.376.3.3,0,0,1,.376-.037,2.472,2.472,0,0,0,3.1,0,.3.3,0,0,1,.374.041.3.3,0,0,1,.037.373,2.472,2.472,0,0,0,0,3.1.3.3,0,0,1-.037.374.3.3,0,0,1-.374.041,2.472,2.472,0,0,0-3.1,0,.3.3,0,0,1-.165.05A.3.3,0,0,1-4656.123,5171.956Zm19.455-.28a.336.336,0,0,1-.044-.42,2.835,2.835,0,0,0,0-3.542.34.34,0,0,1,.044-.422.338.338,0,0,1,.421-.051,2.834,2.834,0,0,0,3.541,0,.345.345,0,0,1,.421.052.343.343,0,0,1,.052.42,2.835,2.835,0,0,0,0,3.542.338.338,0,0,1-.051.42.341.341,0,0,1-.422.044,2.834,2.834,0,0,0-3.541,0,.335.335,0,0,1-.183.054A.336.336,0,0,1-4636.668,5171.676Zm-4.8-2.141a2.833,2.833,0,0,0-3.54,0,.346.346,0,0,1-.42-.052.343.343,0,0,1-.052-.42,2.837,2.837,0,0,0,0-3.54.34.34,0,0,1,.051-.422.339.339,0,0,1,.422-.043,2.837,2.837,0,0,0,3.54,0,.336.336,0,0,1,.419.045.336.336,0,0,1,.046.419,2.829,2.829,0,0,0,0,3.54.34.34,0,0,1-.044.422.34.34,0,0,1-.242.1A.344.344,0,0,1-4641.469,5169.535Z" transform="translate(4679 -5159)" fill="#fff"/>
    </g>
    <g id="party-popper" transform="translate(110.995 68.998)">
      <path id="Path_5495" data-name="Path 5495" d="M9.092,52.74,2.519,55.285a1.118,1.118,0,0,1-1.442-1.442L3.623,47.27Z" transform="translate(0 -14.355)" fill="#f06669"/>
      <path id="Path_5496" data-name="Path 5496" d="M49.234,8.239a2.834,2.834,0,0,0,0-3.54.34.34,0,0,1,.465-.473,2.834,2.834,0,0,0,3.54,0,.345.345,0,0,1,.473.473,2.834,2.834,0,0,0,0,3.54.34.34,0,0,1-.473.465,2.834,2.834,0,0,0-3.54,0,.336.336,0,0,1-.465-.465Z" transform="translate(-14.947 -0.984)" fill="#ffd05d"/>
      <path id="Path_5497" data-name="Path 5497" d="M52.762,33.639a2.471,2.471,0,0,0,0,3.1.3.3,0,0,1-.414.414,2.47,2.47,0,0,0-3.1,0,.3.3,0,0,1-.414-.414,2.471,2.471,0,0,0,0-3.1.3.3,0,0,1,.414-.41,2.47,2.47,0,0,0,3.1,0,.3.3,0,0,1,.414.41Z" transform="translate(-14.824 -9.983)" fill="#ffd05d"/>
      <path id="Path_5498" data-name="Path 5498" d="M56.882,20.944a.34.34,0,0,1-.465.473,2.834,2.834,0,0,0-3.54,0,.345.345,0,0,1-.472-.473,2.834,2.834,0,0,0,0-3.54.34.34,0,0,1,.472-.465,2.834,2.834,0,0,0,3.54,0,.337.337,0,0,1,.465.465A2.831,2.831,0,0,0,56.882,20.944Z" transform="translate(-15.931 -4.928)" fill="#f06669"/>
      <path id="Path_5499" data-name="Path 5499" d="M41,5.062a.34.34,0,0,1-.465.472,2.834,2.834,0,0,0-3.54,0,.345.345,0,0,1-.473-.472,2.834,2.834,0,0,0,0-3.54.34.34,0,0,1,.473-.465,2.834,2.834,0,0,0,3.54,0A.337.337,0,0,1,41,1.522,2.831,2.831,0,0,0,41,5.062Z" transform="translate(-11.003)" fill="#7cc4e8"/>
      <path id="Path_5500" data-name="Path 5500" d="M24.963,5.838a2.47,2.47,0,0,0,0,3.1.3.3,0,0,1-.41.414,2.471,2.471,0,0,0-3.1,0,.3.3,0,0,1-.414-.414,2.47,2.47,0,0,0,0-3.1.3.3,0,0,1,.414-.414,2.471,2.471,0,0,0,3.1,0,.3.3,0,0,1,.41.414Z" transform="translate(-6.201 -1.356)" fill="#f06669"/>
      <path id="Path_5501" data-name="Path 5501" d="M14.967,48.813l-4.7,1.814a35.769,35.769,0,0,1-5.47-5.47l1.814-4.7Z" transform="translate(-1.177 -12.242)" fill="#ffd05d"/>
      <path id="Path_5502" data-name="Path 5502" d="M20.57,44.811,15.783,46.66A34.316,34.316,0,0,1,7.43,38.307L9.279,33.52Z" transform="translate(-1.993 -10.089)" fill="#f06669"/>
      <path id="Path_5503" data-name="Path 5503" d="M26.45,40.581v.007L21.4,42.54A36.156,36.156,0,0,1,10.11,31.249L12.062,26.2h.007Z" transform="translate(-2.825 -7.818)" fill="#ffd05d"/>
      <path id="Path_5504" data-name="Path 5504" d="M27.328,37.734v-.007a34.008,34.008,0,0,1-8.277-6.1,34.008,34.008,0,0,1-6.1-8.277H12.94L15.4,17,33.674,35.278Z" transform="translate(-3.703 -4.963)" fill="#f06669"/>
      <path id="Path_5505" data-name="Path 5505" d="M34.778,35.278s-3.656,0-10.967-7.307S16.5,17,16.5,17s3.656,0,10.961,7.316S34.778,35.278,34.778,35.278Z" transform="translate(-4.807 -4.963)" fill="#ce6567"/>
      <path id="Path_5506" data-name="Path 5506" d="M36.3,20.807a.69.69,0,0,1-.488-1.177l6.574-6.575a.69.69,0,1,1,.976.976l-6.575,6.574a.69.69,0,0,1-.488.2Z" transform="translate(-10.738 -3.677)" fill="#7cc4e8"/>
      <path id="Path_5507" data-name="Path 5507" d="M48.2,28.808a.684.684,0,0,1-.38-.115,7.208,7.208,0,0,0-6.47-.49.69.69,0,0,1-.543-1.268,8.6,8.6,0,0,1,7.776.608.69.69,0,0,1-.383,1.264Z" transform="translate(-12.223 -7.843)" fill="#f06669"/>
      <path id="Path_5508" data-name="Path 5508" d="M31.294,15.795a.675.675,0,0,1-.272-.056.69.69,0,0,1-.362-.9,7.2,7.2,0,0,0-.49-6.47A.69.69,0,1,1,31.319,7.6a8.6,8.6,0,0,1,.608,7.776.69.69,0,0,1-.634.418Z" transform="translate(-9.013 -1.951)" fill="#ffd05d"/>
      <path id="Path_5509" data-name="Path 5509" d="M45.042,22.956a.69.69,0,0,1-.147-1.364l.119-.026a.69.69,0,1,1,.3,1.347l-.12.026A.677.677,0,0,1,45.042,22.956Z" transform="translate(-13.449 -6.374)" fill="#f06669"/>
      <path id="Path_5510" data-name="Path 5510" d="M37.1,14.965a.69.69,0,0,1-.674-.837l.026-.12a.69.69,0,1,1,1.347.3l-.026.119a.69.69,0,0,1-.673.542Z" transform="translate(-10.985 -3.862)" fill="#ffd05d"/>
      <path id="Path_5511" data-name="Path 5511" d="M26.763,15.778a.69.69,0,0,1-.67-.526l-.023-.1a.69.69,0,1,1,1.34-.326l.024.1a.69.69,0,0,1-.508.833A.666.666,0,0,1,26.763,15.778Z" transform="translate(-7.77 -4.126)" fill="#7cc4e8"/>
      <path id="Path_5512" data-name="Path 5512" d="M44.346,33.318a.7.7,0,0,1-.164-.019l-.1-.023a.69.69,0,1,1,.326-1.341l.1.024a.69.69,0,0,1-.163,1.359Z" transform="translate(-13.202 -9.591)" fill="#7cc4e8"/>
    </g>
  </g>
</svg>
