<svg xmlns="http://www.w3.org/2000/svg" width="40" height="40" viewBox="0 0 40 40">
  <g id="Group_2542" data-name="Group 2542" transform="translate(-328 -494)">
    <circle id="Ellipse_91" data-name="Ellipse 91" cx="20" cy="20" r="20" transform="translate(328 494)" fill="#7db6bb"/>
    <path id="Path_2882" data-name="Path 2882" d="M-10.857-21.911a.738.738,0,0,0-.545.214.738.738,0,0,0-.214.545v6.864h-6.765a.738.738,0,0,0-.545.215.738.738,0,0,0-.215.544v1.056a.738.738,0,0,0,.215.544.738.738,0,0,0,.545.215h6.765v6.666A.738.738,0,0,0-11.4-4.5a.738.738,0,0,0,.545.215H-9.7A.738.738,0,0,0-9.157-4.5a.738.738,0,0,0,.215-.544v-6.666h6.8a.738.738,0,0,0,.545-.215.738.738,0,0,0,.215-.544v-1.056a.738.738,0,0,0-.215-.544.738.738,0,0,0-.545-.215h-6.8v-6.864a.738.738,0,0,0-.215-.545.738.738,0,0,0-.544-.214Z" transform="translate(338 501) rotate(180)" fill="#fff"/>
  </g>
</svg>
