<svg id="Component_50_1" data-name="Component 50 – 1" xmlns="http://www.w3.org/2000/svg" width="34" height="34" viewBox="0 0 34 34">
  <circle id="Ellipse_3994" data-name="Ellipse 3994" cx="17" cy="17" r="17" fill="#6e7a9e"/>
  <g id="happy_2_" data-name="happy (2)" transform="translate(7 7)">
    <g id="Group_4697" data-name="Group 4697" transform="translate(5.355 11.627)">
      <g id="Group_4696" data-name="Group 4696">
        <path id="Path_5527" data-name="Path 5527" d="M137.091,297.651a4.683,4.683,0,0,0,9.29,0Z" transform="translate(-137.091 -297.651)" fill="#fff"/>
      </g>
    </g>
    <g id="Group_4699" data-name="Group 4699" transform="translate(0 0)">
      <g id="Group_4698" data-name="Group 4698">
        <path id="Path_5528" data-name="Path 5528" d="M17.071,2.929A10,10,0,1,0,2.929,17.071,10,10,0,1,0,17.071,2.929Zm-4.908,4.43a2.5,2.5,0,0,1,3.536,0,.6.6,0,1,1-.842.842A1.311,1.311,0,0,0,13,8.2a.6.6,0,0,1-.842-.842Zm-7.862,0a2.5,2.5,0,0,1,3.536,0A.6.6,0,1,1,7,8.2a1.311,1.311,0,0,0-1.852,0A.6.6,0,0,1,4.3,7.359ZM10,16.9a5.88,5.88,0,0,1-5.873-5.873.6.6,0,0,1,.6-.6H15.278a.6.6,0,0,1,.6.6A5.88,5.88,0,0,1,10,16.9Z" transform="translate(0 0)" fill="#fff"/>
      </g>
    </g>
  </g>
</svg>
