<svg id="Group_56" data-name="Group 56" xmlns="http://www.w3.org/2000/svg" width="14.508" height="22.487" viewBox="0 0 14.508 22.487">
  <path id="Path_19" data-name="Path 19" d="M23.715,18.409A4.715,4.715,0,0,1,19,13.694V5.715a4.715,4.715,0,0,1,9.43,0v7.979A4.715,4.715,0,0,1,23.715,18.409Z" transform="translate(-16.461 -1)" fill="#d72465"/>
  <path id="Path_20" data-name="Path 20" d="M12.725,30a.725.725,0,0,1,.725.725v1.451a5.8,5.8,0,0,0,11.606,0V30.725a.725.725,0,0,1,1.451,0v1.451a7.254,7.254,0,0,1-6.528,7.217v1.124h1.813a.725.725,0,1,1,0,1.451H16.715a.725.725,0,1,1,0-1.451h1.813V39.394A7.254,7.254,0,0,1,12,32.176V30.725A.725.725,0,0,1,12.725,30Z" transform="translate(-12 -19.482)" fill="#d72465"/>
  <path id="Path_21" data-name="Path 21" d="M0,18Z" fill="#d72465" stroke="#707070" stroke-width="1"/>
</svg>
