<svg id="Layer_1" data-name="Layer 1" xmlns="http://www.w3.org/2000/svg" viewBox="0 0 85 89"><defs><style>.cls-1{fill:#ffd05d;}.cls-2{fill:#5e4939;}.cls-3{fill:#303030;}</style></defs><title>Artboard 1 copy 3</title><g id="Group_2161" data-name="Group 2161"><g id="Group_2156" data-name="Group 2156"><g id="Group_2155" data-name="Group 2155"><g id="Group_2152" data-name="Group 2152"><circle id="Ellipse_95-2" data-name="Ellipse 95-2" class="cls-1" cx="42.5" cy="44.5" r="22.45"/></g></g><path id="Path_2751" data-name="Path 2751" class="cls-2" d="M33.3,48.65a.75.75,0,0,0-1,0,.74.74,0,0,0-.16.8,11.26,11.26,0,0,0,20.82.21.74.74,0,0,0-.4-1,.72.72,0,0,0-.8.15C48.42,52,41.45,56.57,33.3,48.65Z"/></g><g id="Group_2160" data-name="Group 2160"><g id="Group_2159" data-name="Group 2159"><g id="Group_2157" data-name="Group 2157"><path id="Path_2752" data-name="Path 2752" class="cls-3" d="M35.88,41.24c0,1.54-.74,2.78-1.65,2.78s-1.66-1.24-1.66-2.78.74-2.79,1.66-2.79S35.88,39.7,35.88,41.24Z"/></g><g id="Group_2158" data-name="Group 2158"><path id="Path_2753" data-name="Path 2753" class="cls-3" d="M52.43,41.24c0,1.54-.74,2.78-1.66,2.78s-1.65-1.24-1.65-2.78.74-2.79,1.65-2.79S52.43,39.7,52.43,41.24Z"/></g></g></g></g></svg>