<svg id="Layer_2_9_" xmlns="http://www.w3.org/2000/svg" width="17.052" height="20.335" viewBox="0 0 17.052 20.335">
  <g id="Group_12" data-name="Group 12">
    <path id="Path_6" data-name="Path 6" d="M86.347,3.518c.2.11,1.518.749,2.156,1.056,0,.248.008.676.016.683.07.614.191,1.3.226,1.488-.058.032-.356.227-.356.834v.01c0,.016,0,.032,0,.048.128,1.686.8.96.937,1.7a3.67,3.67,0,0,0,1.994,2.424,2.818,2.818,0,0,0,2.434,0,3.67,3.67,0,0,0,1.994-2.424c.138-.739.809-.012.937-1.7,0-.017,0-.033,0-.048v-.01c0-.607-.3-.8-.356-.834.035-.192.156-.874.226-1.488.008-.007.014-.436.016-.683.351-.169.907-.437,1.37-.664v1.63a.419.419,0,0,0-.043.71S97.714,7.3,97.654,7.6s1.061.246,1.01,0-.246-1.353-.246-1.353a.42.42,0,0,0-.042-.71V3.7c.173-.086.3-.151.352-.18.139-.078.214-.178.2-.282.019-.108-.059-.225-.27-.328-1.5-.734-5.325-2.606-5.7-2.786a.773.773,0,0,0-.833,0c-.378.18-4.2,2.052-5.7,2.786-.21.1-.289.219-.27.328C86.133,3.34,86.208,3.44,86.347,3.518Z" transform="translate(-84.012)" fill="#d3215d"/>
    <path id="Path_7" data-name="Path 7" d="M51.07,295.768a18.811,18.811,0,0,1-2.145-1.1.369.369,0,0,0-.519.162c-.582.974-1.661,3.807-2.414,3.86l-.014,0-.014,0c-.753-.053-1.832-2.885-2.414-3.86a.369.369,0,0,0-.519-.162,18.808,18.808,0,0,1-2.145,1.1c-2.369.854-3.434,1.725-3.434,2.319v3.95H54.5v-3.95C54.5,297.494,53.439,296.623,51.07,295.768Z" transform="translate(-37.452 -281.702)" fill="#d3215d"/>
  </g>
</svg>
