<svg id="group" xmlns="http://www.w3.org/2000/svg" width="36.007" height="24.621" viewBox="0 0 36.007 24.621">
  <path id="Path_8" data-name="Path 8" d="M20.022,25.262a3.691,3.691,0,1,1-3.7-3.672A3.686,3.686,0,0,1,20.022,25.262Z" transform="translate(-8.578 -16.73)" fill="#9fa7bf"/>
  <ellipse id="Ellipse_5" data-name="Ellipse 5" cx="5.581" cy="5.547" rx="5.581" ry="5.547" transform="translate(12.422)" fill="#9fa7bf"/>
  <path id="Path_9" data-name="Path 9" d="M44.807,21.59a3.671,3.671,0,1,1-3.687,3.672A3.686,3.686,0,0,1,44.807,21.59Z" transform="translate(-16.549 -16.73)" fill="#9fa7bf"/>
  <path id="Path_10" data-name="Path 10" d="M54.308,37.191v2.42a.711.711,0,0,1-.468.671A21.376,21.376,0,0,1,49.123,41.4V37.994a6.662,6.662,0,0,0-1.743-4.51,5.082,5.082,0,0,0,1.866-.694c2.232.529,5.047,1.746,5.062,4.4Z" transform="translate(-18.301 -19.914)" fill="#9fa7bf"/>
  <path id="Path_11" data-name="Path 11" d="M38.957,37.428V40.82a1.429,1.429,0,0,1-.95,1.346,31.045,31.045,0,0,1-20.855,0A1.429,1.429,0,0,1,16.2,40.82V37.428c.007-4.015,4.285-5.847,7.648-6.628a7.045,7.045,0,0,0,7.468,0C34.678,31.594,38.941,33.4,38.957,37.428Z" transform="translate(-9.575 -19.348)" fill="#9fa7bf"/>
  <path id="Path_12" data-name="Path 12" d="M13.928,33.484a6.7,6.7,0,0,0-1.743,4.51V41.4a21.243,21.243,0,0,1-4.71-1.117A.71.71,0,0,1,7,39.611v-2.42c.007-2.655,2.837-3.872,5.063-4.4A5.139,5.139,0,0,0,13.928,33.484Z" transform="translate(-7 -19.914)" fill="#9fa7bf"/>
</svg>
