<svg xmlns="http://www.w3.org/2000/svg" width="26.012" height="26.125" viewBox="0 0 26.012 26.125">
  <g id="whatsapp_1_" data-name="whatsapp (1)" transform="translate(0 0)">
    <path id="Path_5516" data-name="Path 5516" d="M.556,26.125a.556.556,0,0,1-.536-.7l1.7-6.2a12.955,12.955,0,1,1,11.34,6.69h-.006a12.98,12.98,0,0,1-5.994-1.472L.7,26.107a.559.559,0,0,1-.141.018Zm0,0" transform="translate(0 0.001)" fill="#e5e5e5"/>
    <path id="Path_5517" data-name="Path 5517" d="M10.894,35.908l1.759-6.423A12.4,12.4,0,1,1,23.4,35.694h-.005a12.388,12.388,0,0,1-5.924-1.509Zm6.877-3.967.377.223A10.291,10.291,0,0,0,23.393,33.6h0a10.3,10.3,0,1,0-8.729-4.828l.245.39-1.041,3.8Zm0,0" transform="translate(-10.339 -10.339)" fill="#fff"/>
    <path id="Path_5518" data-name="Path 5518" d="M19.344,43.531l1.7-6.2a11.969,11.969,0,1,1,10.371,5.993h-.005a11.967,11.967,0,0,1-5.719-1.456Zm0,0" transform="translate(-18.357 -18.394)" fill="#64b161"/>
    <g id="Group_4680" data-name="Group 4680" transform="translate(0.556 0.556)">
      <path id="Path_5519" data-name="Path 5519" d="M10.894,35.908l1.759-6.423A12.4,12.4,0,1,1,23.4,35.694h-.005a12.388,12.388,0,0,1-5.924-1.509Zm6.877-3.967.377.223A10.291,10.291,0,0,0,23.393,33.6h0a10.3,10.3,0,1,0-8.729-4.828l.245.39-1.041,3.8Zm0,0" transform="translate(-10.894 -10.895)" fill="#fff"/>
      <path id="Path_5520" data-name="Path 5520" d="M135.647,142.156c-.232-.516-.476-.526-.7-.535-.181-.008-.387-.007-.594-.007a1.138,1.138,0,0,0-.826.388,3.473,3.473,0,0,0-1.085,2.584,6.025,6.025,0,0,0,1.265,3.2A12.716,12.716,0,0,0,139,152.465c2.617,1.032,3.149.827,3.717.775a3.129,3.129,0,0,0,2.091-1.473,2.587,2.587,0,0,0,.181-1.473c-.078-.129-.284-.206-.594-.361s-1.833-.9-2.117-1.008-.491-.155-.7.155-.8,1.007-.981,1.214-.362.233-.671.078a8.47,8.47,0,0,1-2.491-1.538,9.334,9.334,0,0,1-1.724-2.145c-.181-.31,0-.463.136-.632a9.344,9.344,0,0,0,.774-1.059.571.571,0,0,0-.026-.543C136.524,144.3,135.922,142.768,135.647,142.156Zm0,0" transform="translate(-126.243 -134.943)" fill="#fff" fill-rule="evenodd"/>
    </g>
  </g>
</svg>
