<?xml version="1.0" encoding="UTF-8"?><svg id="Layer_1" xmlns="http://www.w3.org/2000/svg" xmlns:xlink="http://www.w3.org/1999/xlink" viewBox="0 0 2400 1900"><defs><style>.cls-1,.cls-2,.cls-3,.cls-4,.cls-5,.cls-6,.cls-7,.cls-8{fill:none;}.cls-2{stroke:#377174;stroke-width:2.85px;}.cls-2,.cls-3,.cls-4,.cls-5,.cls-6,.cls-7,.cls-8{stroke-linecap:round;stroke-miterlimit:10;}.cls-9{clip-path:url(#clippath);}.cls-3{stroke-width:2.23px;}.cls-3,.cls-7{stroke:#004a4e;}.cls-10{fill:#faaf38;}.cls-11{fill:#004a4e;}.cls-12{fill:#004941;}.cls-13{fill:#f6d1a2;}.cls-14{fill:#eb0050;}.cls-15{fill:#fff;}.cls-16{fill:#ffc300;}.cls-17{fill:#fbf2e6;}.cls-18{fill:#fae3cf;}.cls-19{fill:#fbc300;}.cls-20{fill:#b0c7c4;}.cls-21{fill:#cc6790;}.cls-22{fill:#e50054;}.cls-23{fill:#d89f99;}.cls-24{fill:#377174;}.cls-25{fill:url(#New_Pattern_Swatch_16);}.cls-26{fill:url(#New_Pattern_Swatch_15);}.cls-27{fill:url(#New_Pattern_Swatch_12);}.cls-28{fill:url(#New_Pattern_Swatch_14);}.cls-29{fill:url(#New_Pattern_Swatch_9);}.cls-30{fill:url(#New_Pattern_Swatch_8);}.cls-4{stroke:#004941;stroke-width:2.74px;}.cls-31{clip-path:url(#clippath-1);}.cls-32{clip-path:url(#clippath-4);}.cls-33{clip-path:url(#clippath-3);}.cls-34{clip-path:url(#clippath-2);}.cls-5{stroke:#e50054;}.cls-5,.cls-7{stroke-dasharray:0 0 5 15;stroke-width:6px;}.cls-6{stroke-width:2px;}.cls-6,.cls-8{stroke:#cc6790;}.cls-8{stroke-width:2.5px;}</style><clipPath id="clippath"><circle class="cls-1" cx="796.83" cy="542.97" r="390.66"/></clipPath><pattern id="New_Pattern_Swatch_12" x="0" y="0" width="7.72" height="13.15" patternTransform="translate(362.45 -1251.68)" patternUnits="userSpaceOnUse" viewBox="0 0 7.72 13.15"><g><rect class="cls-1" x="0" y="0" width="7.72" height="13.15"/><circle class="cls-24" cx="7.72" cy="13.15" r="2.29"/><circle class="cls-24" cx="0" cy="13.15" r="2.29"/><circle class="cls-24" cx="3.86" cy="6.58" r="2.29"/><circle class="cls-24" cx="7.72" cy="0" r="2.29"/><circle class="cls-24" cx="0" cy="0" r="2.29"/></g></pattern><pattern id="New_Pattern_Swatch_16" x="0" y="0" width="348.02" height="203.16" patternTransform="translate(362 -1251)" patternUnits="userSpaceOnUse" viewBox="0 0 348.02 203.16"><g><rect class="cls-1" width="348.02" height="203.16"/><rect class="cls-22" x="0" width="348.02" height="203.16"/><g><polygon class="cls-16" points="174.01 21.72 0 27.33 0 29.97 174.01 24.36 174.01 21.72"/><polygon class="cls-16" points="174.01 6.12 0 7.18 0 9.81 174.01 8.75 174.01 6.12"/><polygon class="cls-16" points="0 155.94 0 158.57 174.01 153.48 174.01 150.85 0 155.94"/><polygon class="cls-16" points="174.01 79.47 0 86.76 0 89.4 174.01 82.1 174.01 79.47"/><polygon class="cls-16" points="174.01 112.09 0 117.22 0 119.86 174.01 114.72 174.01 112.09"/><polygon class="cls-16" points="174.01 61.56 0 68.06 0 70.69 174.01 64.2 174.01 61.56"/><polygon class="cls-16" points="0 139.54 174.01 132.14 174.01 129.51 0 136.91 0 139.54"/><polygon class="cls-16" points="0 48.83 174.01 44.8 174.01 42.16 0 46.2 0 48.83"/><polygon class="cls-16" points="174.01 94.57 0 101.55 0 104.18 174.01 97.2 174.01 94.57"/><path class="cls-16" d="M0,192.63v2.63c40.41-1.38,119.43-2.85,174.01-3.76v-2.63c-54.52,.92-133.47,2.38-174.01,3.76Z"/><polygon class="cls-16" points="0 178.21 174.01 172.96 174.01 170.33 0 175.58 0 178.21"/></g><g><polygon class="cls-16" points="174.01 21.72 174.01 24.36 348.02 29.97 348.02 27.33 174.01 21.72"/><polygon class="cls-16" points="174.01 8.75 348.02 9.81 348.02 7.18 174.01 6.12 174.01 8.75"/><polygon class="cls-16" points="348.02 155.94 174.01 150.85 174.01 153.48 348.02 158.57 348.02 155.94"/><polygon class="cls-16" points="348.02 86.76 174.01 79.47 174.01 82.1 348.02 89.4 348.02 86.76"/><polygon class="cls-16" points="348.02 178.21 348.02 175.58 174.01 170.33 174.01 172.96 348.02 178.21"/><polygon class="cls-16" points="348.02 117.22 174.01 112.09 174.01 114.72 348.02 119.86 348.02 117.22"/><path class="cls-16" d="M174.01,188.87v2.63c54.58,.92,133.6,2.38,174.01,3.76v-2.63c-40.54-1.39-119.49-2.85-174.01-3.76Z"/><polygon class="cls-16" points="174.01 94.57 174.01 97.2 348.02 104.18 348.02 101.55 174.01 94.57"/><polygon class="cls-16" points="174.01 44.8 348.02 48.83 348.02 46.2 174.01 42.16 174.01 44.8"/><polygon class="cls-16" points="174.01 64.2 348.02 70.69 348.02 68.06 174.01 61.56 174.01 64.2"/><polygon class="cls-16" points="348.02 136.91 174.01 129.51 174.01 132.14 348.02 139.54 348.02 136.91"/></g></g></pattern><clipPath id="clippath-1"><circle class="cls-1" cx="2160.85" cy="789.73" r="223.92"/></clipPath><pattern id="New_Pattern_Swatch_9" x="0" y="0" width="4.38" height="7.46" patternTransform="translate(364.54 -1257.34)" patternUnits="userSpaceOnUse" viewBox="0 0 4.38 7.46"><g><rect class="cls-1" width="4.38" height="7.46"/><circle class="cls-20" cx="4.38" cy="7.46" r="1.3"/><circle class="cls-20" cx="0" cy="7.46" r="1.3"/><circle class="cls-20" cx="2.19" cy="3.73" r="1.3"/><circle class="cls-20" cx="4.38" cy="0" r="1.3"/><circle class="cls-20" cx="0" cy="0" r="1.3"/></g></pattern><clipPath id="clippath-2"><circle class="cls-1" cx="2022.61" cy="325.5" r="309.12"/></clipPath><pattern id="New_Pattern_Swatch_8" x="0" y="0" width="6.99" height="11.9" patternTransform="translate(363.47 -1256.37)" patternUnits="userSpaceOnUse" viewBox="0 0 6.99 11.9"><g><rect class="cls-1" width="6.99" height="11.9"/><circle class="cls-20" cx="6.99" cy="11.9" r="2.08"/><circle class="cls-20" cx="0" cy="11.9" r="2.08"/><circle class="cls-20" cx="3.49" cy="5.95" r="2.08"/><circle class="cls-20" cx="6.99" cy="0" r="2.08"/><circle class="cls-20" cx="0" cy="0" r="2.08"/></g></pattern><clipPath id="clippath-3"><circle class="cls-1" cx="1602.12" cy="956.07" r="166.33"/></clipPath><clipPath id="clippath-4"><rect class="cls-1" x="1886.81" y="-1052.53" width="1026.39" height="1002.53"/></clipPath><pattern id="New_Pattern_Swatch_14" x="0" y="0" width="20.69" height="35.23" patternTransform="translate(361.88 -1214.65)" patternUnits="userSpaceOnUse" viewBox="0 0 20.69 35.23"><g><rect class="cls-1" width="20.69" height="35.23"/><circle class="cls-24" cx="20.69" cy="35.23" r="6.15"/><circle class="cls-24" cx="0" cy="35.23" r="6.15"/><circle class="cls-24" cx="10.34" cy="17.61" r="6.15"/><circle class="cls-24" cx="20.69" cy="0" r="6.15"/><circle class="cls-24" cx="0" cy="0" r="6.15"/></g></pattern><pattern id="New_Pattern_Swatch_15" x="0" y="0" width="567.07" height="331.03" patternTransform="translate(362 -1251)" patternUnits="userSpaceOnUse" viewBox="0 0 567.07 331.03"><g><rect class="cls-1" y="0" width="567.07" height="331.03"/><rect class="cls-22" x="0" y="0" width="567.07" height="331.03"/><g><polygon class="cls-16" points="283.54 35.4 0 44.54 0 48.83 283.54 39.69 283.54 35.4"/><polygon class="cls-16" points="283.54 9.97 0 11.7 0 15.98 283.54 14.26 283.54 9.97"/><polygon class="cls-16" points="0 254.09 0 258.38 283.54 250.08 283.54 245.79 0 254.09"/><polygon class="cls-16" points="283.54 129.49 0 141.37 0 145.67 283.54 133.78 283.54 129.49"/><polygon class="cls-16" points="283.54 182.64 0 191.01 0 195.3 283.54 186.93 283.54 182.64"/><polygon class="cls-16" points="283.54 100.31 0 110.9 0 115.19 283.54 104.6 283.54 100.31"/><polygon class="cls-16" points="0 227.37 283.54 215.32 283.54 211.03 0 223.08 0 227.37"/><polygon class="cls-16" points="0 79.57 283.54 72.99 283.54 68.7 0 75.28 0 79.57"/><polygon class="cls-16" points="283.54 154.09 0 165.47 0 169.76 283.54 158.39 283.54 154.09"/><path class="cls-16" d="M0,313.88v4.29c65.84-2.26,194.6-4.64,283.54-6.13v-4.29c-88.83,1.49-217.47,3.87-283.54,6.13Z"/><polygon class="cls-16" points="0 290.38 283.54 281.83 283.54 277.54 0 286.09 0 290.38"/></g><g><polygon class="cls-16" points="283.54 35.4 283.54 39.69 567.07 48.83 567.07 44.54 283.54 35.4"/><polygon class="cls-16" points="283.54 14.26 567.07 15.98 567.07 11.7 283.54 9.97 283.54 14.26"/><polygon class="cls-16" points="567.07 254.09 283.54 245.79 283.54 250.08 567.07 258.38 567.07 254.09"/><polygon class="cls-16" points="567.07 141.37 283.54 129.49 283.54 133.78 567.07 145.67 567.07 141.37"/><polygon class="cls-16" points="567.07 290.38 567.07 286.09 283.54 277.54 283.54 281.83 567.07 290.38"/><polygon class="cls-16" points="567.07 191.01 283.54 182.64 283.54 186.93 567.07 195.3 567.07 191.01"/><path class="cls-16" d="M283.54,307.74v4.29c88.93,1.49,217.7,3.88,283.54,6.13v-4.29c-66.06-2.26-194.7-4.64-283.54-6.13Z"/><polygon class="cls-16" points="283.54 154.09 283.54 158.39 567.07 169.76 567.07 165.47 283.54 154.09"/><polygon class="cls-16" points="283.54 72.99 567.07 79.57 567.07 75.28 283.54 68.7 283.54 72.99"/><polygon class="cls-16" points="283.54 104.6 567.07 115.19 567.07 110.9 283.54 100.31 283.54 104.6"/><polygon class="cls-16" points="567.07 223.08 283.54 211.03 283.54 215.32 567.07 227.37 567.07 223.08"/></g></g></pattern></defs><g><path class="cls-7" d="M736.15,1490.14c-128.48-290.57-114.37-637.82,68.26-926.46,232.85-367.99,719.92-477.55,1087.91-244.7,294.39,186.28,382.04,575.93,195.76,870.33-149.02,235.51-460.75,305.63-696.26,156.61-188.41-119.22-244.5-368.6-125.29-557.01,95.37-150.73,294.88-195.6,445.61-100.23,120.58,76.3,156.48,235.9,80.18,356.49-61.04,96.47-188.72,125.19-285.19,64.15-77.17-48.83-100.15-150.98-51.32-228.15,39.06-61.74,120.78-80.12,182.52-41.05"/><g><circle class="cls-17" cx="795.02" cy="544.18" r="390.66"/><circle class="cls-1" cx="795.02" cy="544.18" r="390.66"/><g class="cls-9"><g><path class="cls-11" d="M984.68,1492.3s26.12,23.59,54.89,37.47-34.29,18.04-57.31,14.02c-32.29-5.64-40.44-14.02-40.44-14.02h0l-2.34,3.2-27.79-4.54-6.98-29.43,79.98-6.69Z"/><path class="cls-11" d="M844.13,1487.19s15.35,25.68,44.27,39.25c33.96,15.94,9.81,34.87-26.22,30.72-32.56-3.76-53.58-25.9-53.58-25.9h0l-1.51,3.66-35.77-12.45v-17.4l72.81-17.88Z"/><g><g><path class="cls-13" d="M781.43,529.96c4.11-4.25-11.69-69.38-11.69-69.38l88.84,12.95s-7.55,61.31,.14,62.57c3.15,.52,29.64,5.48,42.37,12.06-4.97,14.96-36.26,26.87-43.3,40.93-39.76-4.85-82.69-9.32-102.86-48.01,14.33-2.44,24.13-8.67,26.5-11.12Z"/><path class="cls-24" d="M792.75,392.74s70.96,19.48,57.46,69.21c0,0,2.34,6.29,2.02,18.16,1.15,4.38,4.83,2.37,13.73-15.2,5.95-11.74,20.34,10.01,13.55,21.84,0,0,29.58-37.07,16.79-81.14-13.76-47.4-98.93-38.1-103.55-12.87Z"/><path class="cls-13" d="M845.1,378.68c-31.45,11.18-59.26,13.48-59.26,13.48-7.56,24.05-10.91,43.55-11.34,59.49-1.47-2.64-2.55-4.37-2.55-4.37,0,0-2.86-5.99-12.32,1.65-12.01,9.69,16.01,34.89,31.05,30.38,.39-.12,.66-.33,1-.49,10.78,31.15,38.67,37.3,52.95,41.22,11.05,3.03,10.43,4.58,17.77,2.46,20.63-5.97,32.42-33.02,35.66-58.56,4.74-37.31-16.12-98.34-52.96-85.25Z"/><path class="cls-24" d="M845.1,378.68s-70.96,19.48-57.46,69.21c0,0-2.34,6.29-2.02,18.16-1.15,4.38-4.83,2.37-13.73-15.2-5.95-11.74-20.34,10.01-13.55,21.84,0,0-29.58-37.07-16.79-81.14,13.76-47.4,98.93-38.1,103.55-12.87Z"/><path class="cls-21" d="M855.53,524.5c-7.29,0-14.6-2.01-20.09-4.03-9.03-3.31-18.3-8.5-25.46-14.22-.43-.34-.5-.97-.16-1.41,.35-.43,.97-.5,1.41-.16,13.98,11.2,37.03,20.9,52.2,16.84,21.17-5.67,31.34-34.63,33.62-57.7l.16-1.6c1.33-12.95,3.81-37.06-17.25-69.81-.3-.46-.16-1.08,.3-1.38,.47-.3,1.08-.16,1.38,.3,21.44,33.33,18.91,57.9,17.56,71.09l-.16,1.6c-2.34,23.71-12.94,53.5-35.1,59.43-2.73,.73-5.58,1.04-8.42,1.04Z"/></g><path class="cls-11" d="M977.25,863.98l-39.16-57.02c-39.99,12.76-68.39,20.64-108.86,19.74-29.32-.65-57.97-.65-86.97-6.53-6.39-1.29-12.71-2.89-19.01-4.64-.42,1.27-.85,2.59-1.28,3.95-.02,.07-.04,.14-.07,.21-13.29,41.51,22.13,133.98,30.35,219.39,11.85,123.16,18.35,465.46,18.35,465.46,0,0,42.4,6.69,82.36-5.2,2.25-12.21,5.26-176.59,5.26-176.59,0,0,5.57-148.01,24.31-243.15l16.25,423.51s29.18,6.34,44.58,4.74c18.05-1.87,54.12-4.99,54.12-4.99l13.28-305.9-33.51-332.98Z"/><g><g><path class="cls-16" d="M927.08,609.89l-3.18,.83c-.4-8.99-.94-16.36-1.66-21.38-5.55-38.77-7.98-38.28-7.98-38.28l-38.09-11.62-16.86-3.18s5.05,51.81-22.76,50.09c-23.03-1.42-51.03-42.2-51.03-42.2l-40.63,3.7-9.88,61.43s-7.95,56.2,37.75,110.4c0,0-23.81,53.57-16.26,99.74,7.54,46.16,175.58-8.16,175.58-8.16,0,0-7.33-72.88-7.21-133.84,29.75-41.44,2.19-67.55,2.19-67.55Z"/><path class="cls-22" d="M837.89,589.13c-.49,0-.99-.02-1.5-.05-14.19-.87-28.23-12.15-35.34-18.8-10.23-9.56-17.72-20.2-18.23-25.87l5.43-.49c.68,7.59,26.84,38.39,48.48,39.72,4.4,.26,8.03-.96,11.08-3.75,10.08-9.23,10.7-32.87,10.91-40.63,.05-1.77,.07-2.64,.15-3.22l5.4,.74c-.04,.31-.07,1.48-.1,2.62-.24,9.22-.89,33.71-12.68,44.51-3.79,3.47-8.36,5.22-13.6,5.22Z"/></g><path class="cls-20" d="M762.63,545.52s26.72,30.52,52.89,78.74c13.25,24.41,30.42,62.93,39.85,101.39,14.65,59.76,28.32,130.07,11.95,240.09,0,0-85.9-17.69-148.38-44.72l-41.21-180.56s13.44-88.4,10.07-100.11c-10.37-36.11,1.25-81.23,30.19-90.91,28.94-9.68,44.64-3.91,44.64-3.91Z"/><path class="cls-27" d="M762.63,545.52s26.72,30.52,52.89,78.74c13.25,24.41,30.42,62.93,39.85,101.39,14.65,59.76,28.32,130.07,11.95,240.09,0,0-85.9-17.69-148.38-44.72l-41.21-180.56s13.44-88.4,10.07-100.11c-10.37-36.11,1.25-81.23,30.19-90.91,28.94-9.68,44.64-3.91,44.64-3.91Z"/><path class="cls-20" d="M876.69,539.6s-10.89,55.19-15.14,120.3c-4.27,65.33-21.76,126.01,10.84,283.89,0,0,90.86-9.44,108.32-43.79,0,0,49.75-37.63,65.69-56.48,14.88-17.59,1.57-163.91-36.9-240.06-24.29-48.09-102.34-61.6-102.34-61.6l-30.49-2.27Z"/><path class="cls-27" d="M876.69,539.6s-10.89,55.19-15.14,120.3c-4.27,65.33-21.76,126.01,10.84,283.89,0,0,90.86-9.44,108.32-43.79,0,0,49.75-37.63,65.69-56.48,14.88-17.59,1.57-163.91-36.9-240.06-24.29-48.09-102.34-61.6-102.34-61.6l-30.49-2.27Z"/></g><path class="cls-21" d="M855.29,475.97c-2.39,0-4.25-.14-4.77-.19-.55-.05-.96-.53-.91-1.08,.05-.55,.53-.97,1.08-.91,3.92,.34,14.64,.5,17.16-2.77,.57-.74,.65-1.6,.25-2.72-4.76-13.3-11.69-29.06-11.76-29.22-.22-.51,0-1.1,.51-1.32,.51-.22,1.1,0,1.32,.51,.07,.16,7.03,15.98,11.81,29.35,.79,2.21,.14,3.73-.54,4.61-2.43,3.15-9.35,3.73-14.15,3.73Z"/><path class="cls-12" d="M808.36,437.03c-.76,0-1.37-.61-1.37-1.37,0-.75,.61-1.37,1.36-1.38,.1,0,6.32-.18,21.2-6.73,.69-.3,1.5,0,1.81,.7,.3,.69,0,1.5-.7,1.81-15.61,6.87-22.03,6.97-22.29,6.97h0Z"/><path class="cls-11" d="M823.93,454.52c-3.33,1.01-6.1,1.3-6.93-1.43s1.2-5.76,4.54-6.77c3.33-1.01,6.71,.38,7.54,3.1,.83,2.73-1.81,4.08-5.14,5.1Z"/><path class="cls-11" d="M874.85,445.99c-3.12-.05-5.56-.62-5.52-3.47,.04-2.85,2.61-5.12,5.73-5.07,3.12,.05,5.62,2.4,5.58,5.25-.04,2.85-2.67,3.34-5.79,3.29Z"/><path class="cls-24" d="M761.22,383.36s37.52,31.79,54.79,15.97c17.27-15.83,25.35-8.28,46.1-3.24,38.12,9.25,22.98-57.72,5.8-50.14-24.88,10.97-46.51,1.75-68.86,1.91-36.93,.26-37.83,35.51-37.83,35.51Z"/><path class="cls-11" d="M872.39,943.62c-.63,0-1.2-.44-1.33-1.08-.21-1-5.23-26.74-17.57-224.69v-.12s0-.12,0-.12l21.32-178.31c.09-.75,.77-1.28,1.52-1.19,.75,.09,1.28,.77,1.19,1.52l-21.31,178.19c12.29,197.15,17.46,223.94,17.51,224.19,.15,.74-.32,1.46-1.06,1.61-.09,.02-.19,.03-.28,.03Z"/><g><path class="cls-20" d="M777.22,890.1c40.28-27.88,32.32-72.83,32.32-72.83"/><path class="cls-11" d="M778.77,892.34l-3.1-4.48c38.4-26.58,31.26-69.68,31.19-70.12l5.37-.95c.08,.48,2.05,11.93-1.07,26.99-2.88,13.92-10.83,33.64-32.38,48.56Z"/></g></g><path class="cls-20" d="M648.91,785.79c16.97,44.06,79.12,98.78,118.3,127.88,0,0,25.41-79.35,24.51-106.71-1.11-33.75-38.83-129.38-38.83-129.38l-51.09-18.25-20.87-88.99s-52.46,162.41-32.03,215.45Z"/><polygon class="cls-11" points="728.17 696.6 772.77 786.57 714.8 714.23 714.8 652.83 728.17 696.6"/><path class="cls-12" d="M860.3,398.66c-.59,0-1.13-.38-1.31-.98-.22-.73,.19-1.49,.92-1.71,5.8-1.74,9.72-4.96,11.64-9.57,4.8-11.52-3.99-28.22-4.08-28.39-.36-.67-.1-1.5,.56-1.86,.67-.35,1.5-.11,1.85,.56,.39,.73,9.49,18,4.2,30.73-2.25,5.41-6.76,9.16-13.39,11.15-.13,.04-.26,.06-.39,.06Z"/><path class="cls-12" d="M849.2,395.55c-.6,0-1.14-.39-1.32-.99-.21-.73,.21-1.49,.94-1.7,5.25-1.51,8.72-4.25,10.31-8.13,3.53-8.6-2.92-20.22-2.98-20.33-.37-.66-.14-1.5,.52-1.87,.66-.37,1.5-.14,1.87,.52,.29,.52,7.16,12.9,3.13,22.72-1.93,4.7-6,7.98-12.09,9.73-.13,.04-.25,.05-.38,.05Z"/><path class="cls-12" d="M839.26,392.93c-.51,0-1-.29-1.24-.78-.33-.68-.04-1.5,.65-1.83,4.76-2.27,7.53-5.25,8.22-8.85,1.35-7.04-5.44-14.48-5.51-14.55-.51-.56-.48-1.42,.07-1.94,.55-.51,1.42-.48,1.94,.07,.32,.34,7.81,8.51,6.2,16.92-.86,4.51-4.14,8.15-9.73,10.82-.19,.09-.39,.13-.59,.13Z"/><path class="cls-12" d="M829.31,392.93c-.33,0-.65-.12-.91-.35-.56-.5-.61-1.37-.11-1.94,3.78-4.22,5.46-8.47,5-12.62-.73-6.61-6.61-10.88-6.67-10.92-.62-.44-.76-1.3-.32-1.91,.44-.62,1.3-.76,1.91-.32,.28,.2,6.94,5.04,7.8,12.85,.55,4.96-1.36,9.93-5.68,14.75-.27,.3-.65,.46-1.02,.46Z"/><path class="cls-12" d="M779.37,424.47c-.08,0-.17,0-.25-.02-.74-.14-1.24-.85-1.1-1.6,4.18-22.75,15.4-26.71,15.88-26.86,.72-.24,1.5,.15,1.73,.87,.24,.72-.15,1.49-.86,1.73-.07,.02-2.58,.94-5.52,4.37-2.77,3.23-6.51,9.38-8.53,20.39-.12,.66-.7,1.12-1.35,1.12Z"/><path class="cls-12" d="M765.77,435.35c-.71,0-1.31-.55-1.37-1.27-2.18-28.15,13.37-42.92,14.03-43.53,.56-.52,1.42-.48,1.94,.07,.52,.55,.48,1.42-.07,1.94-.04,.04-3.87,3.65-7.38,10.52-3.24,6.33-6.87,16.81-5.79,30.79,.06,.75-.51,1.41-1.26,1.47-.04,0-.07,0-.11,0Z"/><path class="cls-12" d="M753.53,432.69c-.53,0-1.04-.31-1.26-.83-10.61-24.85,5.86-47.86,6.03-48.09,.45-.61,1.3-.74,1.92-.3,.61,.45,.75,1.3,.3,1.92-.16,.22-15.71,22.01-5.72,45.4,.3,.7-.03,1.5-.72,1.8-.18,.08-.36,.11-.54,.11Z"/><path class="cls-12" d="M814.2,401.91c-.35,0-.69-.13-.96-.39-.54-.53-.55-1.4-.02-1.94,5.73-5.85,8.25-11.75,7.5-17.56-1.33-10.29-12.47-17.05-12.58-17.12-.65-.39-.86-1.23-.47-1.88,.39-.65,1.23-.86,1.88-.47,.51,.3,12.4,7.53,13.9,19.12,.86,6.68-1.92,13.35-8.26,19.83-.27,.27-.62,.41-.98,.41Z"/><path class="cls-11" d="M854.85,719.12c-.62,0-1.18-.43-1.33-1.06-16.54-71.44-84.67-165.17-85.36-166.11-.44-.61-.31-1.46,.3-1.91,.61-.44,1.46-.31,1.9,.3,.69,.94,69.14,95.12,85.81,167.11,.17,.73-.29,1.47-1.02,1.64-.1,.02-.21,.04-.31,.04Z"/><path class="cls-21" d="M853.73,491.58c-5.55,0-10.13-1.36-11.04-1.65-3.43-1.09-3.57-1.8-3.64-2.18-.11-.54,.25-1.07,.79-1.17,.42-.08,.83,.11,1.04,.46,1.63,1.18,18.19,6.3,27.47-2.59,.4-.38,1.03-.37,1.41,.03s.37,1.03-.03,1.41c-4.67,4.47-10.77,5.69-16.01,5.69Zm-12.71-4.21s0,0,0,0c0,0,0,0,0,0Z"/></g><path class="cls-4" d="M867.27,423.62s13.52-.61,22.32,1.18"/><g><path class="cls-11" d="M812.06,1564.7s19.67,23.59,41.33,37.47c21.88,14.02-25.83,18.04-43.16,14.02-24.31-5.64-30.45-14.02-30.45-14.02h0l-1.76,3.2-20.93-4.54-5.26-29.43,60.23-6.69Z"/><path class="cls-11" d="M649.15,1564.7s19.67,23.59,41.33,37.47c21.88,14.02-25.83,18.04-43.16,14.02-24.31-5.64-30.45-14.02-30.45-14.02h0l-1.76,3.2-20.93-4.54-5.26-29.43,60.23-6.69Z"/><g><g><path class="cls-18" d="M652.21,599.93c3.68-4.63,1.06-64.27,1.06-64.27l61.06-2.83s-10.85,68.9,4.11,72.53c3.11,.75,34.78,8.2,48.1,13.51-3.49,15.37-40.84,22.47-46.48,37.15-40.04-.95-88.3-11.17-112.14-47.71,14.02-3.83,42.17-5.7,44.3-8.37Z"/><g><circle class="cls-11" cx="776.06" cy="505.35" r="17.25"/><circle class="cls-11" cx="769.27" cy="531.16" r="19.99"/><circle class="cls-11" cx="753.7" cy="549.56" r="17.25"/><circle class="cls-11" cx="770.95" cy="543.66" r="17.25"/><path class="cls-18" d="M668.65,452.17s46.78-13.2,74.74,5.02c33.46,21.8,35.06,33.07,22.81,73.53-10.12,33.41-42.77,57.66-69.51,53.2-23.65-3.95-73.32-20.13-28.04-131.75Z"/><g><path class="cls-21" d="M722.43,561.76c-14.35,0-21.63-15.02-21.71-15.19-.24-.5-.02-1.09,.48-1.33,.5-.24,1.1-.02,1.33,.47,.02,.04,2.05,4.26,6,8.04,5.2,4.97,11.12,6.88,17.59,5.65,.54-.1,1.07,.25,1.17,.8,.1,.54-.25,1.07-.8,1.17-1.41,.27-2.76,.39-4.05,.39Z"/><circle class="cls-11" cx="679.43" cy="459.69" r="17.25"/><circle class="cls-11" cx="763.37" cy="470.85" r="17.25"/><circle class="cls-11" cx="776.06" cy="488.1" r="17.25"/><circle class="cls-11" cx="674.36" cy="442.44" r="17.25"/><circle class="cls-11" cx="691.61" cy="416.81" r="17.25"/><circle class="cls-11" cx="663.99" cy="422.58" r="27.87"/><circle class="cls-11" cx="720.05" cy="415.08" r="22.11"/><circle class="cls-11" cx="744.18" cy="429.53" r="17.25"/><circle class="cls-11" cx="761.43" cy="444.34" r="17.25"/><circle class="cls-11" cx="773.21" cy="462.25" r="17.25"/><circle class="cls-11" cx="701.62" cy="440.18" r="17.25"/><circle class="cls-11" cx="728.62" cy="444.34" r="17.25"/><circle class="cls-11" cx="755.95" cy="451.31" r="17.25"/><circle class="cls-11" cx="649.13" cy="442.44" r="17.25"/><circle class="cls-11" cx="666.38" cy="478.85" r="17.25"/><circle class="cls-11" cx="653.33" cy="498.01" r="17.25"/><circle class="cls-11" cx="651.67" cy="498.19" r="17.25"/><circle class="cls-11" cx="642.06" cy="525.72" r="17.25"/><circle class="cls-11" cx="621.84" cy="521.09" r="17.25"/><circle class="cls-11" cx="604.57" cy="502.06" r="19.88"/><circle class="cls-11" cx="633.96" cy="475.8" r="17.25"/><circle class="cls-11" cx="607.06" cy="464.06" r="19.65"/><circle class="cls-11" cx="653.33" cy="461.6" r="17.25"/><circle class="cls-11" cx="627.4" cy="442.7" r="24.79"/><path class="cls-11" d="M648.87,504.71c0,12.35-7.61,22.36-17,22.36s-12.25-10.96-17-22.36c-9.18-22.02-21.07-52.58,17-22.36,7.35,5.84,17,10.01,17,22.36Z"/></g><path class="cls-21" d="M700.46,585.05c-3.16,0-6.26-.25-9.27-.76-.54-.09-.91-.61-.82-1.15,.09-.54,.61-.92,1.15-.82,26.07,4.35,59.32-10.64,72.43-47.71,2.02-5.72,7.07-25.63,7.74-30.04,.08-.54,.6-.92,1.14-.84,.55,.08,.92,.59,.84,1.14-.68,4.47-5.79,24.63-7.83,30.41-11.97,33.84-40.34,49.77-65.37,49.77Z"/></g></g><path class="cls-11" d="M821.37,941.18l-36.16-61.81c-39.99,12.76-68.39,20.64-108.86,19.74-29.32-.65-57.97-.65-86.97-6.53-6.39-1.29-12.71-2.89-19.01-4.64-.42,1.27-.85,2.59-1.28,3.95-.02,.07-.04,.14-.07,.21-13.29,41.51-33.71,122.3-25.49,207.7,11.85,123.16,45.4,478.92,45.4,478.92,0,0,20.27-2.14,60.23-14.02,2.25-12.21,25.8-238.69,25.8-238.69,0,0,2.42-107.34,21.17-202.47l55.71,453.15s23.25,5.16,38.65,3.57c18.05-1.87,21.58-15.56,21.58-15.56l16.17-237.48-6.85-386.05Z"/><g><path class="cls-25" d="M774.2,682.29l-3.18,.83c-.4-8.99-.94-16.36-1.66-21.38-5.55-38.77-12.13-45.91-12.13-45.91l-38.79-10.48s7.45,19.49-34.8,21.38c-35.53,1.59-39.45-24.52-39.45-24.52l-62.96,20.59-34.29,67.07s1.75,49.56,47.44,103.75c0,0-17.34,49.13-16.29,95.89,1.63,72.58,216.23,42.78,216.23,42.78,0,0-22.44-121.52-22.32-182.48,29.75-41.44,2.19-67.55,2.19-67.55Z"/><path class="cls-24" d="M652.21,599.93s-8.23,8.52-10.53,46.67c-7.67,127.03,16.29,370.4,8.1,504.58,0,0-45.66,41.4-108.15,14.36,0,0-13.53-148.42-12.65-189.84,.64-29.66,12.38-70.59,12.38-70.59,0,0-110.39-15.18-85-132.56,11.06-51.16,67.21-130.03,110.31-151.72,34.35-17.29,85.53-20.9,85.53-20.9Z"/><path class="cls-24" d="M715.07,601.26s46.1,387.7,38.63,542.83c0,0,57.06,22.27,74.52-12.09,0,0,11.01-253.44,12.56-310.65,0,0-3.45-69.42-22.96-131.94-17.93-57.45-29.41-58.66-51.29-70.55-11.04-6-51.46-17.61-51.46-17.61Z"/></g><path class="cls-21" d="M729.56,547.14c-5.06,0-9.96-4.4-10.18-4.6-.41-.37-.44-1-.07-1.41,.37-.41,1-.44,1.41-.07,.05,.05,5.02,4.5,9.47,4.05,1.67-.17,3.04-1,4.17-2.54,4.82-6.55-4.55-13.7-4.65-13.77l-.44-.33,1.58-22.04c.04-.55,.52-.98,1.07-.93,.55,.04,.97,.52,.93,1.07l-1.51,20.97c3.84,3.07,9.23,9.95,4.62,16.21-1.47,2-3.35,3.12-5.59,3.35-.28,.03-.55,.04-.83,.04Z"/><path class="cls-12" d="M713.88,495.18c-8.42,0-16.69-2.3-17.03-2.4-.73-.21-1.15-.96-.95-1.69,.2-.73,.96-1.15,1.69-.95,.08,.02,8.26,2.29,16.29,2.29,.76,0,1.37,.61,1.37,1.37s-.61,1.37-1.37,1.37Z"/><path class="cls-12" d="M753.7,510.05c-.2,0-.4-.04-.59-.13-7.85-3.72-10.69-8.25-10.81-8.45-.4-.65-.19-1.49,.45-1.88,.65-.39,1.49-.19,1.88,.45,.05,.08,2.63,4.08,9.65,7.41,.68,.32,.98,1.14,.65,1.83-.23,.49-.73,.78-1.24,.78Z"/><circle class="cls-11" cx="742.16" cy="520.41" r="4.41"/><circle class="cls-11" cx="701.15" cy="510.15" r="4.41"/></g><path class="cls-18" d="M785.82,758.87s-38.44-22.56-51.34-39.18c-7.1-9.16,.22-38.12-3.9-42.25-7.9-7.91-17.14-2.12-25.03-5.25-4.77-1.89-10.17-8.98-13.81-17.51-4.53-10.59-7.49-18.49-15.35-16.74-8.63,1.93-6.6,25.2-6.6,25.2,0,0,14.92,48.24,25.63,62.82,6.16,8.38,17.83,20.66,24.62,29.16,7.97,9.98,35.06,43.86,35.06,43.86,0,0,14.2-8.28,17.66-12.42,13.05-15.62,13.05-27.69,13.05-27.69Z"/><path class="cls-18" d="M645.12,772.12s5.02-4.27,12.29-10.27c15.91-13.13,42.62-34.53,51.11-37.53,12.38-4.36,20.36-49.75-9.77-43.28-12.23,2.62-19.92,10.39-35.21,27.34-20.13,22.31-68.92,46.76-68.92,46.76,0,0-6.8,6.72,0,23.75,6.7,16.8,20.25,20.11,20.25,20.11l30.24-26.87Z"/><path class="cls-6" d="M679.93,637.85c7.86,0,11.43,18.16,16.86,25.29,7.71,10.13,15.02,17.33,21.17,19.69,6.15,2.36,2.92-16.84,11.95-21.27s-.84,38.22,.73,51.3c1.27,10.62,55.18,46.01,55.18,46.01"/><path class="cls-6" d="M678.02,645.81s5.92,21.81,17.35,34.05c6.74,7.22-9.07,6.49-9.07,6.49,0,0-9.24-16.58-10.74-23.21"/><path class="cls-18" d="M682.27,686.77c6.65-1.3,17.08-8.75,23.3-18.68,2.14-3.42,1.9-17.74,3.35-19.78,2.81-3.96,7.78-9.6,13.12-4.56,2.87,2.71,13.21,13.9,14.72,31,1.72,19.47-18.7,41.61-27.38,47.21-1.77,1.15-4.59,5.09-6.58,4.38l-39.25-17.4s2.11-54.39,9.09-50.28c6.98,4.12,2.25,29.55,9.63,28.1Z"/><path class="cls-6" d="M716.49,645.24c3.56,19.17-7.51,32.82-6.52,29.9"/><path class="cls-6" d="M718.87,677.45c7.42-8.03,6.87-24.38,5.5-28.6"/><path class="cls-6" d="M642.21,774.71s57.5-45.06,71.31-57.48c7.8-7.01,27.46-23.18,23.25-43.06"/><path class="cls-6" d="M726.29,684.15s10.47-16.73,4.18-29.47"/><path class="cls-6" d="M708,650.07c-.45,2.73-.79,6.63-1.12,11.78-.91,14.12-18.12,23.16-24.61,24.34-6.49,1.18-1.58-22.07-9.63-28.1-8.05-6.03-6.26,37.72-10.22,50.28-3.22,10.2-59.67,41.88-59.67,41.88"/></g></g></g><g class="cls-31"><circle class="cls-17" cx="2160.85" cy="789.99" r="223.92"/><g><g><g><path class="cls-24" d="M2248.43,726.65s-22.65-7.96-38.99,5.88c-14.94,12.65-16.97,35.31-3.28,40.64,13.69,5.33,42.27-46.53,42.27-46.53Z"/><path class="cls-24" d="M2216.26,790.94s11.04,19,3.01,38.85c-12.57,31.05,10.37,45.56,13.08,31.12,11.69-62.38-16.09-69.97-16.09-69.97Z"/><g><path class="cls-11" d="M2239.35,822.03s4.22,8.76-8.12,31.59c-3.2,5.92-10.54,13.08-15.04,18.05,0,0,10.11-15.32,14.21-25.22,4.82-11.61-2.28-14.54,.71-24.92,0,0,7.15,.2,8.24,.5Z"/><path class="cls-13" d="M2232.62,907.28c8.05-.86,18.8-.54,30.36-.07,23.46-13.34,43.31-24.62,65.73-39.64-27.8-14-24.86-10.46-37.57-24.37-4.97-5.43-11.22-13.62-13.81-22.27-5.09-17.01-.73-42.61-.73-42.61l-44.33,24.38s10.96,18.08,5.91,33.84c-5.05,15.76-43.49,10.96-50.44,38.87-6.96,27.92,13.02,35.28,44.88,31.88Z"/></g><g><path class="cls-13" d="M2277.75,802.9c16.69-26.84,.74-70.68-40.51-65.08,0,0-35.17-6.13-35.81,38.86-.58,40.55,32.38,58.29,63.09,35.28"/><path class="cls-13" d="M2276.9,767.41s1.65,21.54-2.82,29.73c0,0,14.8-.4,15.33-10.97,.54-10.58-4.67-20.92-12.51-18.76Z"/></g><g><path class="cls-24" d="M2293.99,740.35c-4.69-8.85-15.76-21.37-33.77-21.58-17.34-.2-50.72,26.66-1.55,44.19,2.81,1,4.24,4.69,4.49,7.66,.27,3.24,2.15,6.91,8.26,8.96,0,0-.03-9.61,8.45-10.26,6.91-.53,8.07,7.75,6.48,16.55-1.05,5.81-4.74,7.58-9.73,9.2,0,0-6.03,19.5,6.32,40.24,5.52,9.28,32.91,35.63,34.83,22.74,2.89-19.46-12.62-96.63-23.78-117.7Z"/><path class="cls-11" d="M2275.83,795.09s-5.24,19.48,7.11,40.22c3.44,5.78,8.06,9.74,12.77,14.51,0,0-1.1-5.33-5.64-15.03-5.33-11.38-9.97-22.6-6.95-42.88,0,0-6.22,2.84-7.29,3.18Z"/><path class="cls-20" d="M2300.88,851.96c-.38,0-.68-.3-.68-.68,0-.52-.28-52.1-9.02-81.85-8.67-29.5-37.24-40.16-37.52-40.27-.35-.13-.54-.52-.41-.87s.52-.54,.87-.41c.29,.11,29.5,10.99,38.37,41.17,8.79,29.94,9.08,81.71,9.08,82.23,0,.38-.3,.68-.68,.68h0Z"/><path class="cls-20" d="M2310.43,858.1c-.37,0-.68-.3-.68-.67-.01-1.2-1.78-119.62-39.48-128.58-.37-.09-.59-.45-.51-.82s.46-.59,.82-.51c16.33,3.88,28.11,26.96,35.02,68.61,5.12,30.85,5.51,60.97,5.51,61.28,0,.38-.3,.69-.67,.69h0Z"/></g><path class="cls-21" d="M2237.1,823.2c-5.6,0-11.02-1.27-15.93-3.86-14.62-7.71-22.1-25.62-20.54-49.12,.04-.55,.53-.96,1.06-.93,.55,.04,.97,.51,.93,1.06-1.51,22.68,5.58,39.89,19.47,47.22,12.42,6.56,28.44,4.1,41.8-6.41,.44-.34,1.06-.27,1.4,.17,.34,.43,.27,1.06-.17,1.4-8.76,6.89-18.65,10.46-28.04,10.46Z"/><path class="cls-21" d="M2220.38,788.62c-2.22,0-3.89-.53-5.04-1.6-2.39-2.21-1.57-5.88-1.3-7.09,1.42-6.36,7.06-14.96,7.29-15.32,.3-.46,.92-.59,1.39-.28,.46,.3,.59,.92,.28,1.39-.06,.09-5.68,8.66-7.01,14.65-.36,1.61-.68,3.91,.71,5.18,1.14,1.05,3.96,1.86,10.92-.28,.53-.16,1.09,.13,1.25,.66,.16,.53-.13,1.09-.66,1.25-3.12,.96-5.72,1.44-7.82,1.44Z"/><path class="cls-11" d="M2201.23,770.03c-.25,0-.49-.09-.69-.27-.4-.38-.42-1.01-.04-1.41,3.54-3.76,7.76-4.37,13.41-4.13,.55,.02,.98,.49,.96,1.04-.02,.55-.5,1.01-1.04,.96-6.08-.26-9.19,.66-11.86,3.5-.2,.21-.46,.31-.73,.31Z"/><path class="cls-11" d="M2248.6,767.22c-.21,0-.43-.07-.62-.21-8.55-6.69-16.38-1.43-16.71-1.2-.46,.31-1.08,.2-1.39-.25-.31-.45-.2-1.07,.25-1.39,.09-.06,9.34-6.35,19.08,1.27,.43,.34,.51,.97,.17,1.4-.2,.25-.49,.38-.79,.38Z"/><path class="cls-21" d="M2226.11,800.17c-2.39,0-5.03-.56-7.87-2-.49-.25-.69-.85-.44-1.34,.25-.49,.85-.69,1.34-.44,11.16,5.66,18.74-3.82,19.05-4.23,.34-.43,.97-.51,1.4-.17,.44,.34,.51,.96,.18,1.4-.07,.09-5.38,6.78-13.67,6.78Z"/><ellipse class="cls-11" cx="2206.24" cy="774.49" rx="2.98" ry="2.62" transform="translate(1169.5 2870.32) rotate(-83.02)"/><ellipse class="cls-11" cx="2239.37" cy="771.34" rx="2.98" ry="2.62" transform="translate(1201.74 2900.44) rotate(-83.02)"/><path class="cls-20" d="M2278.84,767.88l-3.12-.89c-22.69-6.48-37.13-24.51-37.28-24.69-.23-.3-.18-.72,.11-.96,.29-.23,.72-.18,.96,.11,.13,.17,12.98,16.19,33.39,23.22-5.92-5.12-20.29-18.03-25.09-26.81-.18-.33-.06-.74,.27-.92,.33-.18,.74-.06,.92,.27,5.86,10.7,27.12,28.43,27.34,28.6l2.49,2.07Z"/><path class="cls-11" d="M2233.3,737.54s-28.05,1.92-31.16,29.77c0,0-3.72-9.3,2.47-20.32,6.19-11.02,18.77-14.83,28.69-9.44Z"/><path class="cls-11" d="M2260.3,763.95c-.04-.46,18.46,5.12,21.03,5.41,0,0-6.98-.44-9.22,6.41-.38,1.17-.61,4.19-.61,4.19,0,0-9.97-2.16-11.21-16Z"/></g><g><path class="cls-24" d="M2130.83,972.82c7.98,4.05,14.81,14.29,26.04,19.98,17.8,9.02,10.58,5.76,13.42,16.28,1.12,4.15,6.76,46.42,6.76,46.42h149.66s33.16-111.21,24.98-159.97c-6.18-36.87-38.99-40.52-55.24-46.23-3.9,8.1-21.49,25.22-45.51,21.79-25.11-3.59-23.12-19.7-23.63-25.82-3.57-.1-6.32,1.39-6.69,1.56-46.16,20.72-69.76,34.15-72.27,45.4"/><path class="cls-29" d="M2130.83,972.82c7.98,4.05,14.81,14.29,26.04,19.98,17.8,9.02,10.58,5.76,13.42,16.28,1.12,4.15,6.76,46.42,6.76,46.42h149.66s33.16-111.21,24.98-159.97c-6.18-36.87-38.99-40.52-55.24-46.23-3.9,8.1-25.37,38.93-49.39,35.49-25.11-3.59-19.24-33.4-19.75-39.52-3.57-.1-6.32,1.39-6.69,1.56-46.16,20.72-69.76,34.15-72.27,45.4"/><g><polygon class="cls-15" points="2302.28 851.14 2272.72 886.06 2253.86 871.09 2288.94 841.28 2302.28 851.14"/><polygon class="cls-15" points="2231.33 843.11 2243.45 868.49 2230.43 882.15 2215.58 849.1 2231.33 843.11"/></g></g><g><path class="cls-23" d="M2310.26,1397.43c11,27.72,23.92,54.84,39.07,80.09,0,0,45.27,48.77,10.4-19.47,0,0-12.1-145.82-41.44-206.4-20.82-42.99-25.55-15.08-22.86,37.53,1.51,29.56-5.54,56.95,14.83,108.26Z"/><g><path class="cls-23" d="M2225.94,1253.05c-37.09-64.73-30.41-167.79-30.41-167.79,0,0-38.49,148.69,3.8,385.04,3.81-.28,16.37-3.64,20.54-3.94,0,0,41.84-150.88,6.07-213.3Z"/><path class="cls-11" d="M2225.11,1474.66l-1.56-7.81-24.22,1.46c-16.09,7.78-33.49,17.44-40.14,22-21.67,14.85-1.49,17,11.02,14.29,8.04-1.74,20.17-5.53,30.94-9.13,1.13,.59,20.99,.11,23.45-7.78,2-6.4,1.02-11.24,.5-13.04Z"/><path class="cls-23" d="M2204.13,1465.69s-44.23,21.72-27.4,21.71c12.13,0,19.53-4.09,28.32-8.02,3.63-1.62,18.26-6.89,17.78-9.08l2.98-30.85-21.67,26.24Z"/></g></g><path class="cls-13" d="M2322.1,970.27s20.15-11.79,34.65-9.07c0,0,13.25,37.76,10.02,40.31-3.23,2.55-44.67,25.33-44.67,25.33v-56.57Z"/><path class="cls-13" d="M2130.83,972.82s30.1,11.05,39.16,16.49c9.07,5.44,4.33,46.2,4.33,46.2l-39.96-15.71-3.53-46.98Z"/></g><path class="cls-11" d="M2363.71,1467.77s8.15,27.17-18.34,1.87c-1.05-1.22-5.74-6.95-8.39-11.98-.12-.23,.85,18.46,.85,18.46,0,0,5.12,7.93,6.57,7.63,6.11,10.54,18.41,20.75,32.04,16.08,11.66-4-12.73-32.07-12.73-32.07Z"/></g></g><g class="cls-34"><circle class="cls-17" cx="2022.61" cy="325.86" r="309.12"/><g><g><g><path class="cls-24" d="M2006.78,200.01s-32.37-7.1-52.44,14.6c-18.34,19.83-17.33,51.23,2.33,56.24,19.66,5.01,50.11-70.84,50.11-70.84Z"/><path class="cls-24" d="M1973.47,293.5s18.32,24.18,10.64,52.73c-12.02,44.66,21.85,60.69,23.14,40.44,5.56-87.43-33.78-93.17-33.78-93.17Z"/><path class="cls-13" d="M2015.41,450.17c10.89-2.52,25.67-3.89,41.58-5.19,29.91-22.22,55.23-40.99,83.43-65.35-40.44-14.53-35.82-10.17-55.57-27.09-7.72-6.61-17.66-16.78-22.66-28.2-9.83-22.46-8.14-58.27-8.14-58.27l-56.66,40.84s18.05,22.93,13.77,45.37c-4.28,22.44-53.51,15.05-58.36,54.47-4.85,39.42,19.51,53.41,62.6,43.42Z"/><g><path class="cls-13" d="M2059.74,299.58c18.37-39.58-10.84-96.98-66.42-82.39,0,0-49.22-2.5-42.56,59.25,6,55.67,54.15,74.45,92.37,37.77"/><path class="cls-13" d="M2052.62,251.09s5.88,29.24,1.12,41.21c0,0,20.21-3.03,19.17-17.61-1.04-14.58-9.91-27.88-20.29-23.6Z"/></g><g><path class="cls-24" d="M2071.51,211.14c-7.91-11.35-25.18-26.64-49.9-23.91-23.79,2.63-65.03,45.04,5.29,60.81,4.02,.9,6.6,5.71,7.44,9.74,.91,4.39,4.1,9.1,12.82,10.9,0,0-1.66-13.16,9.86-15.48,9.39-1.89,12.36,9.27,11.66,21.59-.46,8.14-5.22,11.19-11.79,14.24,0,0-4.99,27.73,15.4,54.08,9.12,11.78,51.07,43.3,51.54,25.31,.7-27.16-33.5-130.3-52.32-157.29Z"/><path class="cls-11" d="M2055.8,289.2s-3.91,27.58,16.48,53.92c5.68,7.34,12.68,12,19.93,17.74,0,0-2.4-7.11-10.25-19.65-9.21-14.71-17.46-29.29-16.72-57.59,0,0-8.04,4.93-9.45,5.58Z"/><path class="cls-11" d="M2010.03,332.43s7.26,11.29-5.83,44.65c-3.39,8.64-12.26,19.69-17.58,27.25,0,0,11.28-22.69,15.25-36.94,4.65-16.71-5.56-19.55-3.21-34.27,0,0,9.83-.92,11.37-.69Z"/><path class="cls-20" d="M2099.55,363.36c-.68,0-1.27-.51-1.36-1.2-.09-.71-9.11-71.28-26.05-110.53-16.73-38.75-57.46-48.54-57.87-48.64-.74-.17-1.2-.91-1.03-1.64,.17-.74,.9-1.2,1.64-1.03,.42,.1,42.48,10.17,59.78,50.22,17.1,39.6,26.17,110.56,26.26,111.27,.09,.75-.44,1.44-1.19,1.53-.06,0-.12,.01-.17,.01Z"/><path class="cls-20" d="M2113.66,370.17c-.68,0-1.26-.5-1.36-1.19-.22-1.63-22.45-163.28-75.29-169.19-.75-.08-1.29-.76-1.21-1.51,.08-.75,.77-1.3,1.51-1.21,23.21,2.6,43.35,32.35,59.85,88.45,12.2,41.45,17.79,82.69,17.84,83.11,.1,.75-.43,1.44-1.18,1.54-.06,0-.12,.01-.18,.01Z"/></g><path class="cls-21" d="M2001.4,334.21c-5.57,0-11.07-.97-16.29-2.96-21.18-8.06-34.35-31.22-36.13-63.53-.03-.55,.39-1.02,.94-1.05,.53-.07,1.02,.39,1.05,.94,1.74,31.48,14.44,54,34.85,61.77,18.26,6.95,39.95,.87,56.6-15.87,.39-.39,1.02-.39,1.41,0s.39,1.02,0,1.41c-12.48,12.55-27.75,19.29-42.44,19.29Z"/></g><g><path class="cls-24" d="M2105,366.09c-5.38,11.19-29.67,34.82-62.83,30.08-34.66-4.95-31.92-27.2-32.62-35.64-4.92-.14-10.2-.42-10.72-.19-63.73,28.61-94.82,49.49-98.28,65.02,0,0-13.86,45.49-13.65,71.32,.05,6.37-22.1,34.06-10.53,39.93,11.02,5.59,20.45,19.72,35.95,27.58,24.57,12.45,14.6,7.95,18.52,22.48,1.55,5.73,9.33,64.08,9.33,64.08h206.6s45.77-153.53,34.49-220.84c-8.53-50.9-53.82-55.93-76.26-63.82Z"/><path class="cls-30" d="M2105,366.09c-5.38,11.19-31.23,54.82-64.39,50.08-34.66-4.95-30.35-47.2-31.05-55.64-4.92-.14-10.2-.42-10.72-.19-63.73,28.61-94.82,49.49-98.28,65.02,0,0-13.86,45.49-13.65,71.32,.05,6.37-22.1,34.06-10.53,39.93,11.02,5.59,20.45,19.72,35.95,27.58,24.57,12.45,14.6,7.95,18.52,22.48,1.55,5.73,9.33,64.08,9.33,64.08h206.6s45.77-153.53,34.49-220.84c-8.53-50.9-53.82-55.93-76.26-63.82Z"/><g><polygon class="cls-15" points="2108.18 366.53 2072.26 416.82 2046.21 396.17 2091.12 357.55 2108.18 366.53"/><polygon class="cls-15" points="2011.07 353.68 2031.84 392.57 2013.88 411.44 1995.02 358.45 2011.07 353.68"/></g></g><g><path class="cls-23" d="M2124.07,1122.77c15.19,38.26,33.02,75.7,53.93,110.56,0,0,62.5,67.33,14.36-26.88,0,0-16.71-201.31-57.21-284.94-28.74-59.35-35.27-20.82-31.56,51.81,2.09,40.8-7.64,78.62,20.47,149.45Z"/><g><path class="cls-23" d="M2007.68,923.46c-51.2-89.36-41.99-231.64-41.99-231.64,0,0-53.13,205.27,5.25,531.55,5.26-.39,22.6-5.03,28.35-5.45,0,0,57.76-208.29,8.38-294.47Z"/><path class="cls-11" d="M2006.52,1229.39l-2.15-10.78-33.43,2.01c-22.22,10.74-46.24,24.08-55.42,30.37-29.91,20.51-2.06,23.47,15.22,19.73,11.11-2.4,27.85-7.63,42.71-12.6,1.56,.81,28.97,.15,32.38-10.74,2.76-8.83,1.41-15.52,.69-18Z"/><path class="cls-23" d="M1977.57,1217s-61.05,29.99-37.83,29.98c16.74,0,26.97-5.64,39.09-11.08,5.01-2.24,25.21-9.52,24.54-12.53l4.11-42.59-29.92,36.22Z"/></g></g></g><circle class="cls-11" cx="2029.61" cy="496.68" r="4.56"/><circle class="cls-11" cx="2027.76" cy="536.61" r="4.56"/><path class="cls-11" d="M2199.2,1219.87s11.25,37.5-25.31,2.58c-1.45-1.68-7.93-9.59-11.58-16.53-.17-.32,1.17,25.49,1.17,25.49,0,0,7.06,10.95,9.07,10.54,8.44,14.55,25.41,28.64,44.23,22.19,16.1-5.52-17.57-44.27-17.57-44.27Z"/><path class="cls-21" d="M1979.03,296.85c-2.04,0-3.7-.47-5-1.41-3.47-2.49-2.98-7.5-2.82-9.15,.87-8.88,7.12-21.55,7.39-22.08,.25-.49,.84-.7,1.34-.45,.49,.25,.7,.85,.45,1.34-.06,.13-6.36,12.88-7.19,21.39-.23,2.37-.27,5.7,1.99,7.33,2.61,1.88,7.9,1.13,15.29-2.18,.51-.22,1.09,0,1.32,.5,.23,.5,0,1.1-.5,1.32-5.05,2.26-9.12,3.38-12.27,3.38Z"/><path class="cls-11" d="M1949.98,268.25c-.21,0-.41-.06-.59-.19-.45-.33-.54-.95-.21-1.4,4.03-5.49,9.74-8.35,17.96-9,.56-.05,1.03,.37,1.08,.92,.04,.55-.37,1.03-.92,1.08-7.6,.6-12.85,3.21-16.51,8.19-.2,.27-.5,.41-.81,.41Z"/><path class="cls-11" d="M1990.25,256.51c-.28,0-.55-.11-.75-.33-.37-.41-.33-1.04,.08-1.41,.11-.1,11.52-10.07,25.91-1.42,.47,.28,.63,.9,.34,1.37-.29,.47-.9,.63-1.37,.34-13.1-7.88-23.12,.82-23.54,1.2-.19,.17-.43,.25-.67,.25Z"/><path class="cls-21" d="M1988.15,311.74c-2.56,0-5.35-.46-8.37-1.55-.52-.19-.79-.76-.6-1.28,.19-.52,.76-.79,1.28-.6,16.58,6.01,25.76-9,25.85-9.15,.28-.47,.89-.63,1.37-.35,.47,.28,.63,.9,.35,1.37-.08,.14-7.07,11.55-19.88,11.55Z"/><g><path class="cls-13" d="M1895.05,549.17h0l-50.14-34.2-28.17,6.8s28.24,47.84,51.19,72c22.94,24.16,64.62,37.98,68.9,30.45,6.46-11.36-6.54-51.79-6.54-51.79-6.79-5.81-13.03-4.92-21.87-10.39-6.41-3.97-13.37-12.86-13.37-12.86Z"/><g><path class="cls-24" d="M1839.93,429.91h-38.77c-5.87,0-11.1,6.8-8.99,12.36l38.99,75.94c1.51,2.94,4.54,4.79,7.85,4.79l47.27-.1c5.42-.73,7.4-6.74,5.15-10.01l-37.62-74.35c-2.59-5.29-7.98-8.64-13.88-8.64Z"/><path class="cls-11" d="M1837.31,434.48h-38.77c-4.86,0-8,5.12-5.79,9.44l38.06,74.29c1.51,2.94,4.54,4.79,7.85,4.79h46.73c2.85,0,4.7-3,3.41-5.53l-37.62-74.35c-2.59-5.29-7.98-8.64-13.88-8.64Z"/></g><path class="cls-13" d="M1829.59,460.82s-18.54,5.28-22.75,10.03c-3.26,3.68-1.47,23.17-1.47,23.17l11.37,28.3,47.55,4.9-18.07-11.32,1.57-10.87s5.83-4.98,7.57-5.44c8.93-2.38,2.91-7.73,1.12-8.02-1.78-.29-13.98,4.25-13.98,4.25,0,0,14.44-11.43,14.04-13.27-.4-1.84-1.95-6.56-4.84-7.05-11.07-1.89-26.18,10.46-26.18,10.46l-3.78,8.63s-5.1-10.74-3.3-13.8c2.76-4.7,16.27-10.57,11.16-19.99Z"/></g><path class="cls-13" d="M2097.45,525.69l-3.17,12.55-93.93-74.2-24.75-35.18c-3.31-4.71-8.32-7.95-13.98-9.05h0c-6-1.17-12.22,.17-17.21,3.71l-21.35,12.84s-20.27,16.92-7.45,16.92c6.12,0,28.77-12.18,28.77-12.18,0,0-.63,23.29,3.11,29.77,2.11,3.66,13.68,9.92,13.68,9.92l10.42,4.15s50.28,73.03,73.78,96.73c10.86,10.95,19.35,22.11,31.82,26.88,21.52,8.24,47.32,1.88,63.06-25.68,8.18-14.32,14.57-36.55,14.57-36.55l-57.38-20.63Z"/><path class="cls-21" d="M2095.68,612.72c-4.1,0-8.37-.43-12.82-1.29-15.72-3.04-39.38-25.2-70.33-65.84-21.52-28.26-39.24-56.09-41.54-59.72-11.26-1.56-19.41-6.11-24.24-13.54-6.98-10.74-4.98-24.26-3.85-29.41-4.94,2.34-18.29,8.55-26.99,11.31-1.16,.37-4.7,1.49-6.16-.5-1.97-2.7,2.18-8.83,3.04-10.04,.32-.45,.94-.56,1.39-.24,.45,.32,.56,.94,.24,1.39-2.06,2.91-3.78,6.7-3.05,7.7,.29,.4,1.48,.56,3.93-.22,10.64-3.38,28.46-12.04,28.64-12.12l2.04-.99-.65,2.18c-.05,.17-5.02,17.38,3.09,29.87,4.56,7.01,12.39,11.28,23.28,12.7l.47,.06,.25,.4c.74,1.18,74.34,118,110.8,125.06,35.49,6.87,59.9-15.04,70.61-63.37,.12-.54,.66-.88,1.19-.76,.54,.12,.88,.65,.76,1.19-9.65,43.57-30.31,66.19-60.12,66.19Z"/><path class="cls-21" d="M2113.44,555.85c-.29,0-.57-.12-.77-.36-13.99-16.76-81.86-66.15-82.54-66.65-.45-.32-.55-.95-.22-1.4,.32-.45,.95-.54,1.4-.22,2.8,2.03,68.75,50.04,82.9,66.99,.35,.42,.3,1.05-.13,1.41-.19,.16-.41,.23-.64,.23Z"/><path class="cls-21" d="M1830.23,508.25c-.3,0-.61-.14-.8-.4-.15-.2-3.61-5-.15-15.33,3.48-10.39,24.78-14.59,25.68-14.76,.54-.1,1.07,.25,1.17,.79,.1,.54-.25,1.07-.79,1.17-.21,.04-21.05,4.14-24.16,13.43-3.13,9.35-.18,13.46-.15,13.5,.33,.44,.24,1.07-.2,1.4-.18,.13-.39,.2-.6,.2Z"/><path class="cls-21" d="M1838.69,508.25c-.45,0-.86-.31-.97-.76-1.93-7.9,3.94-12.28,4.19-12.47,.45-.33,1.07-.23,1.4,.22,.33,.45,.23,1.07-.22,1.4-.22,.16-5.03,3.82-3.42,10.38,.13,.54-.2,1.08-.73,1.21-.08,.02-.16,.03-.24,.03Z"/><path class="cls-21" d="M1914.85,570.72c-.32,0-.64-.16-.83-.45-13.06-19.59-67.77-53.18-68.32-53.51-.47-.29-.62-.9-.33-1.38,.29-.47,.9-.62,1.38-.33,2.27,1.39,55.64,34.16,68.94,54.11,.31,.46,.18,1.08-.28,1.39-.17,.11-.36,.17-.55,.17Z"/><ellipse class="cls-11" cx="1959.23" cy="280.11" rx="3.61" ry="4.12"/><ellipse class="cls-11" cx="2004.1" cy="270.24" rx="3.61" ry="4.12"/><path class="cls-20" d="M2058.46,253.4l-6.06-.96c-32.34-5.1-55.45-28.79-55.68-29.03-.52-.54-.51-1.41,.04-1.94,.55-.52,1.42-.51,1.94,.04,.21,.22,19.73,20.2,47.77,26.96-9.76-6.96-30-22.04-37.68-32.74-.44-.62-.3-1.47,.31-1.91,.61-.44,1.47-.3,1.91,.31,9.79,13.63,42.04,35.61,42.37,35.83l5.07,3.44Z"/><path class="cls-11" d="M1987.88,217.47s-37.93,4.69-37.7,45.92c0,0-5.34-12.03,1.3-28.17,6.64-16.14,23.85-23.13,36.4-17.75Z"/><path class="cls-11" d="M2030.12,249.83c-.13-.62,23.32,3.42,26.89,3.38,0,0-8.73,.69-9.61,10.18l-.25,5.3s-13.01-.1-17.04-18.86Z"/></g></g><g><g><path class="cls-19" d="M1768.27,184.65v-.27c-.04,.07-.08,.14-.12,.21,.03,.05,.05,.09,.08,.13,.02-.02,.03-.05,.04-.07Z"/><path class="cls-19" d="M1903.89,202.42c-6.3-29.65-28.45-53.93-59.42-58.83-13.56-2.15-26.64-.82-39.14,4.96-14.74,6.82-25.56,17.96-34.16,31.48-.92,1.44-1.82,2.9-2.9,4.61-.02,.02-.03,.04-.04,.07-.03-.05-.05-.09-.08-.13-.03,.04-.05,.09-.08,.13-1.1-1.75-2.01-3.22-2.95-4.68-8.6-13.52-19.42-24.65-34.16-31.48-12.5-5.79-25.58-7.11-39.14-4.96-30.97,4.9-53.12,29.18-59.42,58.83-5.5,25.91-.04,49.61,14.53,71.44,7.38,11.05,15.93,21.12,25.33,30.37,1.23,1.16,2.41,2.21,3.61,3.33,17.28,14.49,48,34.87,76.57,50.49,5.54,3.03,10.76,5.87,15.7,8.54,28.13,15.22,45.88,24.38,45.84,24.25l-17.31-34.58s25.99-13.26,67.36-52.03c9.4-9.25,17.95-19.31,25.33-30.37,14.57-21.83,20.04-45.53,14.53-71.44Z"/></g><g><circle class="cls-15" cx="1829.4" cy="249.13" r="13.5"/><path class="cls-14" d="M1733.59,242v2.2c-.02,.07-.06,.15-.06,.22-.24,2.37-1.14,4.48-2.47,6.44-1.38,2.05-3.05,3.86-4.87,5.51-2.58,2.34-5.21,4.61-7.83,6.9-1.11,.97-2.24,1.94-3.37,2.9-.87,.74-2.15,.74-3-.01,0,0-.01,0-.02-.01-3.72-3.25-7.47-6.47-11.16-9.76-1.91-1.71-3.64-3.61-5.05-5.77-2.1-3.2-2.87-6.65-2.04-10.42,.95-4.31,4.2-7.82,8.72-8.5,1.98-.3,3.88-.09,5.69,.77,2.14,1.01,3.7,2.64,4.94,4.62,.13,.21,.27,.43,.42,.69,.22-.36,.39-.67,.59-.96,.19-.29,.4-.58,.61-.86,2.63-3.41,6.02-5.05,10.32-4.15,4.41,.92,7,3.84,8.17,8.11,.19,.69,.27,1.4,.4,2.1Z"/><circle class="cls-15" cx="1773.4" cy="249.13" r="13.5"/></g></g><g><circle class="cls-16" cx="1089.46" cy="289.7" r="55.3"/><path class="cls-22" d="M1124.85,281.98v3.87c-.04,.13-.1,.26-.11,.39-.42,4.17-2.02,7.89-4.34,11.33-2.44,3.61-5.37,6.8-8.58,9.71-4.54,4.11-9.18,8.11-13.79,12.15-1.96,1.72-3.94,3.41-5.93,5.1-1.53,1.3-3.78,1.3-5.29-.02,0,0-.02-.02-.03-.02-6.56-5.72-13.16-11.4-19.65-17.19-3.37-3.01-6.4-6.36-8.9-10.16-3.69-5.63-5.05-11.72-3.59-18.35,1.67-7.59,7.4-13.78,15.35-14.97,3.48-.52,6.83-.16,10.03,1.35,3.77,1.78,6.52,4.66,8.7,8.14,.24,.38,.47,.76,.75,1.21,.39-.64,.69-1.17,1.03-1.69,.34-.52,.7-1.03,1.08-1.52,4.63-6,10.61-8.89,18.17-7.31,7.77,1.62,12.34,6.77,14.39,14.28,.33,1.21,.48,2.47,.71,3.7Z"/></g><g><circle class="cls-16" cx="2150.71" cy="990.94" r="55.3"/><path class="cls-22" d="M2186.1,983.22v3.87c-.04,.13-.1,.26-.11,.39-.42,4.17-2.02,7.89-4.34,11.33-2.44,3.61-5.37,6.8-8.58,9.71-4.54,4.11-9.18,8.11-13.79,12.15-1.96,1.72-3.94,3.41-5.93,5.1-1.53,1.3-3.78,1.3-5.29-.02,0,0-.02-.02-.03-.02-6.56-5.72-13.16-11.4-19.65-17.19-3.37-3.01-6.4-6.36-8.9-10.16-3.69-5.63-5.05-11.72-3.59-18.35,1.67-7.59,7.4-13.78,15.35-14.97,3.48-.52,6.83-.16,10.03,1.35,3.77,1.78,6.52,4.66,8.7,8.14,.24,.38,.47,.76,.75,1.21,.39-.64,.69-1.17,1.03-1.69,.34-.52,.7-1.03,1.08-1.52,4.63-6,10.61-8.89,18.17-7.31,7.77,1.62,12.34,6.77,14.39,14.28,.33,1.21,.48,2.47,.71,3.7Z"/></g><circle class="cls-17" cx="549.67" cy="1349.18" r="534.44"/><path class="cls-5" d="M1637.86,214.81s76.83,21.13,75.63,32.9"/><g><g><g><g><path class="cls-24" d="M222.73,1163.37c0,59.4,71.75,80.17,127.77,80.17,56.02,0,100.11-26.3,75.1-80.17-39.57-85.23-45.41-107.54-101.43-107.54-56.02,0-101.43,48.15-101.43,107.54Z"/><g><path class="cls-13" d="M357.69,1021.22s-31.73,57.6-23.46,60.47c16.85,5.84,45.79,18.86,45.79,18.86,0,0,.61,67.7-55.43,64-56.04-3.7-85.12-16.64-86.28-42.15-1.16-25.51,8.38-58.58,8.38-58.58,0,0,29.2,4.17,31.6,.35,5.37-8.55,19.82-57.49,16.3-42.95h63.11Z"/><path class="cls-13" d="M363.55,1025.65c43.53-12.84,74.75-31.78,74.75-79.92,0-62.67-50.8-113.47-113.47-113.47-62.67,0-84.94,38.76-96.41,104.28-10.43,59.57,30.14,96.56,89.27,98.69"/><path class="cls-11" d="M364.78,950.51s-3.65-12.07-3.65-25.55c0-5.71,0-28.23,0-28.23l-15.94,14.22-40.3-12.32,.93-17.05-16.2,12.38-23.03-7.04,.46-15.95-15.22,11.43-13.64-.82s31.47-93.37,141.81-48.3c138.73,56.66,27.44,175.54,52.75,204.92,5.07,5.89,9.59,7.49,4.73,8.78-2.86,.76-5.48-4.93-10.56-5.29-1.48-.11-4.62,5.55-6.24,5.36-2.26-.25-4.64-.58-7.11-.96-1.79-.28-2.1-7.61-3.98-7.95-2.04-.36-5.66,6.27-7.77,5.86-9.06-1.79-18.65-4.04-27.58-6.3-1.41-.36-.89-9.31-2.26-9.66-1.79-.46-5.46,7.67-7.17,7.22-15.63-4.15-27.39-7.74-27.39-7.74l40.3-50.29-12.97-26.71Z"/><path class="cls-11" d="M247.87,925.73c-1.67,3.72,2.03,.36,5.75,2.03,3.72,1.67,6.04,7.74,7.71,4.02,1.67-3.72,0-8.08-3.71-9.75-3.72-1.67-8.08,0-9.75,3.71Z"/><path class="cls-11" d="M301.21,943.47c-1.67,3.72,2.27,.36,5.99,2.03,3.72,1.67,5.8,7.74,7.47,4.02,1.67-3.72,0-8.08-3.71-9.75-3.72-1.67-8.08,0-9.75,3.71Z"/><path class="cls-21" d="M256.85,967.76c15.3,11.06,29.61,11.25,36.89,11.79,1.54,.11,2.36,1.89,1.41,3.12-2.57,3.35-9.72,7.07-16.92,8.32-23.31,4.06-28.8-28.59-21.38-23.23Z"/><path class="cls-13" d="M356.84,1003.3c9,10.05,39.89,4.38,39.74-29.88-.05-11.56-17.84-10.08-29.39-10.08"/></g><path class="cls-13" d="M226.14,1023.74l-73.07-132.91s5.84-12.27-2.81-21.55l-8.64-9.29s-21.11,3.49-21.22,16.89c-.12,13.4,13.2,24.31,13.2,24.31l30.05,88.36,33.02,70.55,29.47-36.37Z"/><path class="cls-13" d="M427.47,1043.37l117.35-96.08s-.84-13.56,10.64-18.95l11.48-5.39s18.29,11.11,13.4,23.59c-4.89,12.48-21.31,17.63-21.31,17.63l-117.77,123.94-13.79-44.73Z"/><polygon class="cls-13" points="394.09 1396.24 446.08 1363.36 460.85 1396.34 421.24 1456.16 394.09 1396.24"/><path class="cls-11" d="M460,1344.17l-21.05,23.7s9.33,41.87,57.77,53.08c49.03,11.35-23.07-60.76-23.07-60.76l-13.65-16.03Z"/><path class="cls-16" d="M365.64,1405.91l54.27-27.38,25.59,43.63s-96.43,147.45-149.13,128.89c-52.7-18.56-39.69-131.26-39.69-131.26,0,0-43.48,54.19-70.69,65.86-27.21,11.67-67.6-3.22-50.34-58.94,17.26-55.72,92-192.36,87.08-183.17-4.1,7.66,117.86-11.08,157.88-.34,6.91,1.85,20.72,41.73,18.58,67.68-4.63,56.29-33.55,95.02-33.55,95.02Z"/><g><path class="cls-10" d="M437.98,1052.84c.13,.03,0,.15-.35,.33,.02-.26,.13-.38,.35-.33Z"/><path class="cls-22" d="M207.37,1113.86l-51.21-58.04,62.72-50.3s9.38,32.4,57.1,47.9c-3.52,5.4-5.55,11.74-5.55,18.52,0,19.77,17.24,35.79,38.5,35.79,21.26,0,38.5-16.02,38.5-35.79,0-1.47-.11-2.92-.29-4.35,56.1,5.56,81.22-35.31,85.65-37.52-.46,5.75,40.3,78.92,33.28,79.57-31.36,2.93-76.18,39.05-76.18,39.05l-2.63,27.13,7.43,53.6,37.05,37.79s-152.15,43.14-233.45,0c0,0,4.1-33.55,4.62-61.77,.62-34.04-1.87-65.67,4.48-91.59Z"/></g><path class="cls-24" d="M377.67,1067s-24.26,46.67,.85,91.75c15.3,27.47,22.86,66.55,22.86,66.55l-7.93,5.35c6.14,1.62-33.56-23.79-54.01-77.79-8.53-22.53-10.31-45.21-9.4-59.22,.35-5.43,1.74-14.98,3.33-19.21,6.79-18.1,8.4-22.79,44.3-7.42Z"/><path class="cls-24" d="M250.35,1042.01s-7.14,7.42-32.95,50.74c-26.41,44.33-19.54,88.3-19.54,88.3l3.82,25.61s1.39-35.72,35.82-81.47c14.4-19.14,32.17-46.19,40.78-61.02,3.41-5.87,4.93-11.35,4.93-11.35,0,0,5.23-12.06-32.85-10.82Z"/><path class="cls-11" d="M253.54,950.15c-12.67,0-22.98-10.31-22.98-22.98s10.31-22.98,22.98-22.98,22.98,10.31,22.98,22.98-10.31,22.98-22.98,22.98Zm0-43.97c-11.57,0-20.98,9.41-20.98,20.98s9.41,20.98,20.98,20.98,20.98-9.41,20.98-20.98-9.41-20.98-20.98-20.98Z"/><path class="cls-11" d="M310.42,970.05c-12.67,0-22.98-10.31-22.98-22.98s10.31-22.98,22.98-22.98,22.98,10.31,22.98,22.98-10.31,22.98-22.98,22.98Zm0-43.97c-11.57,0-20.98,9.41-20.98,20.98s9.41,20.98,20.98,20.98,20.98-9.41,20.98-20.98-9.41-20.98-20.98-20.98Z"/><polygon class="cls-11" points="376.72 963.29 331.41 944.61 330.04 956.79 376.72 963.29"/><polygon class="cls-11" points="293.33 931.81 275.52 927.17 273.49 938.13 287.75 942.42 293.33 931.81"/><path class="cls-11" d="M234.64,914.92c-.14-.71-4.84-1.54-4.84-1.54l-3.02,8.43,5.04,1.93,2.82-8.82Z"/><g><path class="cls-13" d="M284.97,941.98s-13.81-8.79-18.9,1.55c-6.55,13.27,9.52,17.26,9.52,17.26"/><path class="cls-21" d="M275.59,962.03c-.1,0-.2-.01-.3-.04-.34-.08-8.29-2.12-11.09-8.14-1.49-3.2-1.24-6.86,.75-10.88,1.37-2.78,3.44-4.57,6.14-5.33,6.46-1.81,14.23,3.07,14.55,3.28,.58,.37,.75,1.14,.38,1.72-.37,.58-1.14,.75-1.73,.38-.07-.04-7.17-4.49-12.54-2.98-2.02,.57-3.51,1.88-4.57,4.02-1.63,3.3-1.87,6.23-.72,8.71,2.29,4.94,9.35,6.76,9.43,6.78,.67,.17,1.08,.85,.91,1.51-.14,.57-.65,.95-1.21,.95Z"/></g><path class="cls-21" d="M432.77,1039.43c-.36,0-.72-.16-.97-.46-.44-.54-.35-1.32,.18-1.76l111.69-90.59c.29-1.68,1.33-7.42,3.14-13.15,3-9.49,6.61-13.98,10.71-13.33,4.5,.71,7.77,2.54,9.71,5.45,2.86,4.29,1.69,9.29,1.64,9.5l-.23,.95h-.98c-.12,0-2.97,0-6.01-.85-.67-.18-1.05-.87-.87-1.54,.18-.67,.87-1.06,1.54-.87,1.64,.46,3.26,.64,4.27,.71,.14-1.44,.13-4.18-1.45-6.54-1.54-2.29-4.23-3.75-8-4.34-4.81-.76-9.37,14.09-11.08,24.88l-.07,.47-112.43,91.19c-.23,.19-.51,.28-.79,.28Z"/><path class="cls-21" d="M184.17,1032.75c-.43,0-.85-.22-1.08-.63-.14-.24-14.08-24.56-19.95-40.35-5.56-14.97-28.2-82.65-30.53-89.62-3.46-1.31-20.37-8.6-18.67-25.13,1.89-18.33,21.95-20.18,22.16-20.2,.68-.07,1.29,.46,1.35,1.14,.06,.69-.45,1.29-1.14,1.35-.74,.06-18.2,1.71-19.88,17.96-1.68,16.29,16.77,22.46,17.56,22.71l.6,.19,.2,.6c.25,.74,24.87,74.44,30.69,90.11,5.79,15.59,19.63,39.73,19.77,39.98,.34,.6,.14,1.36-.46,1.71-.2,.11-.41,.17-.62,.17Z"/></g><path class="cls-3" d="M281.64,827.26s-19.66,6.52-30.58,23.61"/><path class="cls-3" d="M441.38,996.7s-6.71,20.98-3.75,26"/><path class="cls-3" d="M453.09,896.64s8.72,18.15,2.64,48.27"/></g><g><circle class="cls-16" cx="279.35" cy="1172.94" r="48.64"/><path class="cls-22" d="M311.18,1174.32c-.29,1.1-.58,2.19-.87,3.29-.06,.1-.14,.2-.18,.31-1.29,3.45-3.49,6.26-6.24,8.66-2.88,2.52-6.09,4.58-9.48,6.33-4.78,2.48-9.63,4.84-14.45,7.23-2.05,1.02-4.12,2.02-6.19,3.01-1.59,.76-3.51,.26-4.49-1.2,0,0-.01-.02-.02-.03-4.29-6.34-8.63-12.65-12.85-19.03-2.19-3.32-4.02-6.85-5.29-10.64-1.88-5.61-1.66-11.1,1.07-16.41,3.13-6.08,9.39-10.05,16.42-9.28,3.08,.34,5.85,1.4,8.22,3.4,2.8,2.36,4.5,5.42,5.57,8.87,.12,.37,.23,.75,.36,1.19,.47-.45,.85-.84,1.26-1.21,.41-.36,.82-.72,1.26-1.05,5.28-4.06,11.01-5.18,17.09-2.14,6.25,3.13,8.97,8.52,9.03,15.37,0,1.1-.15,2.21-.23,3.31Z"/></g></g><g><g><polygon class="cls-18" points="809.68 1406.25 794.45 1372.16 788.5 1371.03 755.76 1431.89 809.68 1406.25"/><path class="cls-18" d="M771.33,1411.55s-25.71-37.89-74.21-52.08l13.98-62.19,21.97-23.05s-21.61-26.66-1.03-42.69c20.58-16.03,42.68-1.74,45.58,22.23l9.41,3.87,25.01-25.7s-.81,30.73,42.32,15.89c0,0,6.08,26.44,35.44,20.29,0,0,6.51,57.5-33.83,87.01-9.43,6.9-21.5,13.13-36.62,16.44-9.27,2.03-18.66,1.46-24.9,.6"/><path class="cls-8" d="M794.45,1372.16c-57.4-8.56-58.62-69.07-58.62-69.07"/><g><path class="cls-22" d="M645.44,1382.63s-103.58-26.41-100.47,209.55c0,0-23.37,2.32-33.27,8.28-9.9,5.96-12.03,194.82,4.76,197.27,16.8,2.46,152-13.68,152-13.68l-23.02-401.42Z"/><path class="cls-24" d="M605.43,1880.73c79.07-8.2,153.03-33.64,218.04-72.5l2.51-10.26h-211.28l-9.26,82.76Z"/><path class="cls-16" d="M805.91,1396.34s40.09,52.44,58.15,188.47c16.5,124.27-38.09,213.16-38.09,213.16h-220.55s44.36-407.01,44.36-407.01c0,0,58.99-14.91,92.6-8.97,22.15,3.91,28.04,21.21,46.94,23.21,5.68,.6,14.35-4.6,16.59-8.87Z"/><g><path class="cls-11" d="M776.96,1258.79l10.6,4.79,21.33-25.37s14.07,27.65,45.47,9.6c0,0,4.02,21.83,21.53,22.96,17.5,1.13,28.17-7.28,28.17-7.28,0,0,29.92,16.75,46.6-16.27,16.68-33.02-18.53-59.75-18.53-59.75,0,0,18.54-36.18-24.07-47.96,0,0-.97-24.83-21.94-32.48-20.97-7.65-35.65,2.17-35.65,2.17,0,0-6.04-23.37-39.58-20.16-30.92,2.96-34.96,30.36-34.96,30.36,0,0-14.7-21.35-42.82-4.4-19.6,11.81-7.26,37.07-7.26,37.07,0,0-31.18,1.12-17.39,35.76,0,0-24.08,16.12,2.66,45.76l-.02,63.69,29.1-17.01s-23.47-23.12,2.85-42.79c26.32-19.66,33.91,21.32,33.91,21.32Z"/><path class="cls-11" d="M818.72,1291.86c-1.92,3.32-1.4,7.22,1.16,8.7,2.57,1.49,6.21,0,8.13-3.32,1.92-3.32,3.12-5.26,.56-6.75-2.57-1.49-7.93-1.95-9.85,1.36Z"/><path class="cls-11" d="M859.55,1317.81c-1.92,3.32-1.4,7.22,1.16,8.7,2.57,1.49,6.21,0,8.13-3.32,1.92-3.32,3.46-6-.2-7.39-2.77-1.06-7.18-1.32-9.1,2Z"/><path class="cls-21" d="M829.85,1350.51c-1.28,0-2.6-.21-3.93-.64-5.05-1.62-9.24-5.99-10.19-10.63-.14-.68,.3-1.34,.97-1.47,.68-.14,1.34,.3,1.48,.97,.76,3.73,4.34,7.41,8.51,8.75,1.96,.63,5.73,1.24,8.93-1.73,4.7-4.36,3.2-9.08,1.75-13.64-.65-2.04-1.26-3.97-1.19-5.71,.34-8.39,17.59-25.24,19.55-27.14,.5-.48,1.29-.47,1.77,.03,.48,.5,.46,1.29-.03,1.77-5.14,4.96-18.53,19.19-18.79,25.44-.05,1.3,.5,3.02,1.08,4.85,1.45,4.55,3.43,10.79-2.44,16.23-2.07,1.92-4.67,2.92-7.46,2.92Z"/><path class="cls-21" d="M815.32,1362.82c-4.49,0-8.01-1.51-10.51-4.53-4.32-5.2-3.86-13.52-3.38-14.26,.3-.46,.86-.67,1.39-.52,.53,.15,.9,.68,.92,1.23,0,.15-.02,.29-.06,.43-.09,1.22-.43,8.97,4.42,12.87,4.02,3.23,10.58,3.01,19.5-.67,.64-.26,1.37,.04,1.63,.68,.26,.64-.04,1.37-.68,1.63-5.07,2.09-9.49,3.14-13.23,3.14Z"/><path class="cls-11" d="M836.79,1282.49c-.68,0-1.24-.55-1.25-1.23,0-.35-.26-8.75-8.7-10.14-8.33-1.37-10.15,5.05-10.23,5.32-.18,.66-.86,1.06-1.53,.89-.67-.18-1.06-.85-.89-1.52,.02-.09,2.42-8.91,13.05-7.16,10.53,1.73,10.79,12.47,10.79,12.57,0,.69-.54,1.26-1.23,1.27h-.02Z"/><path class="cls-11" d="M886.86,1307.24c-.06,0-.12,0-.19-.01-.68-.1-1.15-.74-1.05-1.42,0-.05,.73-5.29-2.18-6.94-5.36-3.05-12.42,.8-12.49,.84-.6,.33-1.36,.12-1.7-.48s-.12-1.36,.48-1.7c.34-.19,8.35-4.59,14.94-.83,4.4,2.5,3.45,9.2,3.41,9.48-.09,.62-.63,1.07-1.23,1.07Z"/></g><path class="cls-22" d="M645.12,1369.11s103.95-68.01,139.69,83.51c0,0,27.31,103.08-92.78,222.27l-5.12-47.73,4.35-58.05s52.77-94.06,24.72-158.88c-28.05-64.82-70.86-41.12-70.86-41.12Z"/><path class="cls-16" d="M617.87,1420.9c-.07-60.17,80.7-95.71,108.15,2.42,18.99,67.88,9.56,136.75,9.56,136.75l-100.9,20.41s-16.65-21.67-16.81-159.57Z"/><polygon class="cls-14" points="659.9 1649.11 616.6 1676.43 614.69 1713.49 672.27 1684.68 659.9 1649.11"/><g><g><path class="cls-18" d="M927.25,1763.03s11.43-24.55,16.24-23.49c4.81,1.06,2.29,11.87,2.29,11.87,0,0,7.58-18.67,12.13-16.39,4.55,2.28,1.67,14.24,1.67,14.24,0,0,4.77-18.69,11.11-18.72,7.81-.04,4.3,10.04,4.3,10.04,0,0-11.08,25.23-19.16,30.05-8.08,4.82-28.58-7.59-28.58-7.59Z"/><path class="cls-21" d="M951.03,1772.99c-3.44,0-7.78-1.07-13-3.19-6.15-2.51-11.22-5.56-11.43-5.69l-.96-.58,.47-1.02c3.56-7.66,12.4-25.34,17.64-24.18,1.14,.25,2.08,.93,2.74,1.97,.7,1.11,1.03,2.56,1.14,4.06,2.23-4.38,5.35-9.47,8.2-10.54,.92-.35,1.83-.32,2.63,.08,1.92,.96,2.8,3.13,3.11,5.55,2.15-5.03,5.28-10.15,9.1-10.17h.05c2.3,0,4.02,.77,5.1,2.28,2.36,3.31,.55,8.8,.34,9.42-.49,1.14-11.37,25.74-19.7,30.71-1.44,.86-3.25,1.29-5.43,1.29Zm-22.17-10.45c6.2,3.58,20.55,10.46,26.32,7.02,7.65-4.57,18.55-29.23,18.66-29.48,.43-1.24,1.33-5.13-.05-7.05-.59-.83-1.6-1.23-3.06-1.23h-.04c-3.71,.02-8.02,10.41-9.91,17.78l-2.43-.6c.86-3.59,1.74-11.45-1.02-12.83-.07-.04-.25-.12-.63,.02-2.92,1.1-7.55,10.23-9.78,15.73l-2.38-.75c.43-1.87,1.25-7.24-.18-9.5-.3-.48-.67-.76-1.16-.86-1.76-.4-8.02,8.41-14.35,21.77Z"/></g><path class="cls-18" d="M640.04,1575.58s39.71-23.55,85.32-15.27c1.45,.26-12.56,109.2,71.93,159.74,32.81,19.62,90.83,32.09,90.83,32.09,17.63-9.45,24.28-29.58,24.28-29.58,0,0,16.02-24.1,18.17-13.79,2.15,10.31-6.48,25.43,3.11,35.52,7.78,8.19,21.15,12.48,39.16-4.22,18.01-16.7,15.61-2.04,14.76,1.57-2.92,12.48-8.77,30.09-35.21,37.26-46.86,12.7-119.37,16.75-185.29-2.71-73.72-21.77-108.34-78.83-127.08-200.6Z"/></g><path class="cls-21" d="M861.67,1791c-10.57,0-21.14-.4-31.48-1.23-20.96-1.67-45.18-4.13-67.3-12.09-8.31-2.99-24.68-9.59-41-20.16-17.25-11.18-29.96-23.81-37.78-37.53-.34-.6-.13-1.36,.47-1.7,.6-.34,1.36-.13,1.71,.47,6.18,10.85,26.1,38.09,77.45,56.58,21.83,7.86,45.85,10.29,66.65,11.95,41.75,3.33,87.25-.25,121.69-9.59,24.3-6.59,30.98-22.07,34.32-36.34,.74-3.15,.91-6.9-.45-7.69-.63-.36-3.37-.92-12.25,7.32-21.72,20.14-35.86,9.61-40.93,4.15-7.31-7.87-5.34-16.08-3.6-23.32,1.17-4.86,2.17-9.06,.31-12.45-1.18-2.15-2.23-2.17-2.58-2.17h-.04c-3.84,0-9.63,9.71-13.1,15.52l-.29,.48c-.66,1.1-1.72,3.7-2.5,5.6-.3,.74-.57,1.4-.78,1.87-2.33,5.37-8.21,15.45-21.49,22.57-.61,.32-1.37,.1-1.69-.51-.33-.61-.1-1.37,.51-1.69,13.08-7.01,18.61-17.27,20.37-21.36,.2-.46,.46-1.1,.76-1.83,.85-2.08,1.91-4.68,2.67-5.94l.29-.48c5.46-9.16,10.39-16.74,15.25-16.74h.08c1.89,.03,3.48,1.2,4.73,3.47,2.33,4.24,1.17,9.09-.07,14.23-1.67,6.95-3.4,14.15,3,21.03,5.66,6.1,18.05,13.65,37.4-4.29,7.45-6.91,12.29-9.34,15.21-7.64,3.23,1.88,2.21,7.91,1.63,10.42-3.5,14.99-10.54,31.25-36.1,38.18-26.17,7.1-58.66,10.9-91.07,10.9Z"/></g><g><circle class="cls-16" cx="959.46" cy="1703.83" r="23.66"/><path class="cls-14" d="M959.77,1716.52c-.38,0-.76-.12-1.1-.39-.14-.11-.28-.22-.41-.34l-1.92-1.59c-1.6-1.33-3.21-2.65-4.79-4-1.3-1.1-2.35-2.25-3.21-3.5-1.46-2.11-1.96-4.4-1.49-6.8,.59-3.05,2.85-5.34,5.75-5.85,1.38-.24,2.69-.1,3.89,.43,1.08,.48,2.01,1.21,2.82,2.23,1.78-2.41,4.17-3.43,6.9-2.92,2.8,.52,4.75,2.34,5.63,5.29,.09,.31,.15,.62,.21,.94l.09,.54v1.59c-.13,1.43-.62,2.79-1.51,4.17-.77,1.2-1.73,2.34-2.93,3.48-1.16,1.1-2.33,2.18-3.51,3.25l-1.01,.92c-.76,.7-1.53,1.39-2.31,2.08-.33,.3-.71,.45-1.09,.46Zm12.33-14.32h0Zm.02-.12h0s0,0,0,0Z"/></g></g><path class="cls-2" d="M799.4,1144.8s-27.46-20.41-42.03,16.07"/><path class="cls-2" d="M800.45,1188.53s26.69-26.14,48.93-1.18"/><path class="cls-2" d="M858.52,1151.47s19.69-14.78,33.53,17.9"/><path class="cls-2" d="M876.66,1227.86s11.31-19.34,32.84-.79"/></g><line class="cls-7" x1="254.72" y1="1602.96" x2="296.53" y2="1705.95"/><line class="cls-7" x1="327.75" y1="1623.01" x2="407.29" y2="1751.14"/></g><g><circle class="cls-17" cx="1602.12" cy="956.07" r="166.33"/><g class="cls-33"><g><g><g><polygon class="cls-18" points="1698.4 960.78 1690.66 954.75 1689.05 954.41 1679.75 970.73 1698.4 960.78"/><path class="cls-18" d="M1686.94,969.84s-13.45-14.78-25.92-20.55l15.03-12.51,6.12-5.41s-4.74-8.04,1.44-11.52c6.18-3.48,10.72-6.68,10.53-.11l3.07,3.68,4.09-6.43s4.14,7.38,16.33,5.12c0,0,2.95,7.23,11.09,6.76,0,0-4.72,22.88-16.75,29.2-2.81,1.48-6.31,2.67-10.51,2.95-2.57,.17-5.08-.36-6.72-.84"/><path class="cls-21" d="M1699.7,961.65c-3.85,0-7.13-1.01-9.81-3.03-7.37-5.53-7.52-16.54-7.53-17,0-.31,.24-.56,.55-.56h0c.3,0,.55,.25,.55,.55,0,.11,.16,10.93,7.09,16.13,4.1,3.08,9.78,3.62,16.87,1.61,.29-.09,.6,.09,.68,.38,.08,.29-.09,.6-.38,.68-2.9,.82-5.58,1.23-8.03,1.23Z"/><g><path class="cls-22" d="M1646.67,952.44s-34.58-9.37-39.48,54.59c0,0-6.39,.06-9.21,1.43-2.82,1.37-.86,45.6,3.04,48.05,15.4,9.69,33.75,2.08,33.75,2.08l11.89-106.16Z"/><path class="cls-24" d="M1636.12,1129.51c-17.66-7.91-9.34-63.3-9.34-63.3l69.24,4.72s5.26,28.13-1.82,34.25c-15.93,13.75-51.32,27.37-58.08,24.34Z"/><path class="cls-19" d="M1694.32,963.06s5.18,30.89,2.82,67.84c-1.12,17.63,1.25,43.91,1.25,43.91l-73.2-1.42s-1.44-61.67,0-76.53c4.65-47.8,31.74-47.29,31.74-47.29,0,0,10.42,5.68,19.51,7.52,5.99,1.21,7.48,5.95,12.6,6.62,1.54,.2,5.28-.65,5.28-.65Z"/><g><path class="cls-11" d="M1694.2,926.76l2.85,1.37,5.96-6.75s3.64,7.61,12.3,2.91c0,0,.95,5.96,5.7,6.38,4.75,.42,7.7-1.79,7.7-1.79,0,0,8.02,4.75,12.77-4.12,4.75-8.87-4.64-16.36-4.64-16.36,0,0,5.28-9.71-6.23-13.19,0,0-.1-6.75-5.75-8.97-5.65-2.22-10.93,.95-10.93,.95,0,0-.97-5.91-9.4-6.33-8.43-.42-9.7,8.02-9.7,8.02,0,0-3.48-5.17-11.61-1.48-8.13,3.69-2.22,10.03-2.22,10.03,0,0-7.39-1.69-4.96,9.6,0,0-6.65,4.22,.42,12.45l-.42,17.31,8.02-4.43s-6.23-6.44,1.06-11.61c7.28-5.17,9.08,6.02,9.08,6.02Z"/><path class="cls-11" d="M1705.33,936.02c-.54,.89-.43,1.95,.26,2.37s2.04,.17,2.58-.72,.09-.96-.59-1.38c-.69-.42-1.7-1.16-2.25-.27Z"/><path class="cls-11" d="M1716.26,943.34c-.54,.89-.43,1.95,.26,2.37,.69,.42,1.69,.04,2.23-.85,.54-.89,.39-.9-.59-1.3-.75-.31-1.35-1.11-1.9-.22Z"/><path class="cls-21" d="M1708.05,952.25c-.4,0-.81-.07-1.21-.21-1.43-.5-2.6-1.78-2.84-3.12-.05-.3,.15-.59,.45-.64,.3-.05,.59,.15,.64,.45,.17,.95,1.06,1.9,2.11,2.27,.48,.17,1.42,.34,2.23-.37,1.2-1.06,.86-2.24,.5-3.47-.17-.58-.33-1.12-.29-1.63,.15-2.36,5.01-6.88,5.56-7.39,.23-.21,.58-.19,.78,.03s.19,.58-.03,.78c-1.96,1.8-5.11,5.2-5.2,6.65-.02,.31,.11,.77,.25,1.25,.38,1.3,.9,3.09-.83,4.62-.6,.53-1.33,.8-2.11,.8Z"/><path class="cls-21" d="M1705.94,955.31c-2.03,0-3.96-1.43-5-2.2-.14-.1-.28-.21-.39-.28-.3-.01-.53-.26-.53-.55,0-.21,.13-.44,.32-.53,.37-.18,.63,0,1.26,.48,.93,.69,2.67,1.98,4.34,1.98,.31,0,.55,.25,.55,.55s-.25,.55-.55,.55Z"/><path class="cls-11" d="M1710.31,933.81c-.2,0-.39-.11-.49-.29,0,0-.57-1.04-1.58-1.34-2.22-.68-3.37,0-3.41,.02-.26,.16-.6,.08-.76-.18-.16-.26-.09-.59,.17-.76,.06-.04,1.58-.98,4.33-.14,1.45,.44,2.21,1.82,2.24,1.88,.14,.27,.04,.61-.23,.75-.08,.04-.17,.07-.26,.07Z"/><path class="cls-11" d="M1723.76,940.86c-.19,0-.37-.09-.47-.27,0,0-.47-.74-1.32-1.26-1.39-.84-2.48-.61-2.52-.6-.3,.06-.59-.12-.66-.42-.07-.3,.11-.59,.41-.66,.06-.02,1.55-.35,3.34,.73,1.1,.66,1.67,1.59,1.7,1.63,.16,.26,.08,.6-.19,.76-.09,.05-.19,.08-.29,.08Z"/></g><path class="cls-22" d="M1649.21,951.2s29.58-16.05,38.3,25.36c0,0,6.75,28.19-26.67,59.8l-1.08-13,1.56-15.75s14.96-25.22,7.76-43.02c-7.2-17.8-19.87-13.39-19.87-13.39Z"/><path class="cls-19" d="M1639.56,964.86c.38-16.35,25.34-23.5,32.16,3.35,4.72,18.57,1.7,37.23,1.7,37.23l-27.56,4.88s-7.17-7.98-6.3-45.46Z"/><polygon class="cls-14" points="1641.89 1027.79 1623.28 1035.42 1624.28 1043.05 1644.6 1037.92 1641.89 1027.79"/></g></g><path class="cls-24" d="M1708.02,906.17c-.16,0-.31-.07-.42-.2-1.54-1.81-3.32-2.79-5.3-2.91-3.9-.22-7.31,2.92-7.34,2.95-.22,.21-.58,.2-.78-.03-.21-.22-.2-.58,.03-.78,.15-.14,3.79-3.51,8.17-3.25,2.29,.13,4.34,1.24,6.08,3.29,.2,.23,.17,.58-.06,.78-.1,.09-.23,.13-.36,.13Z"/><path class="cls-24" d="M1720.86,900.52c-.22,0-.43-.13-.52-.35-1.22-3.09-2.77-4.93-4.61-5.47-1.98-.58-3.62,.57-3.64,.58-.25,.18-.6,.12-.77-.13-.18-.25-.12-.6,.13-.77,.09-.06,2.11-1.48,4.6-.74,2.18,.65,3.98,2.71,5.33,6.13,.11,.28-.03,.61-.31,.72-.07,.03-.14,.04-.2,.04Z"/><path class="cls-18" d="M1643.5,1005.41s17.81,2.19,24.95,.91c.39-.07-2.73,22.13-7.3,48.5-1.77,10.24-2.71,33.92-2.71,33.92-1.34,13.54-5.75,19.45-9.23,21.9-9.72,6.84-19.73-6.85-12.35-5.92,6,.75,7.18-12.88,6.45-24.55-1.31-20.86-1.44-46.12,.19-74.75Z"/><path class="cls-21" d="M1639.04,1106.18c-.76,0-1.6-.34-2.51-1.03-.24-.18-.29-.53-.11-.78,.18-.24,.53-.29,.78-.11,1.02,.77,1.82,.98,2.46,.65,4.16-2.17,3.3-24.89,2.29-51.2l-.18-4.8c-.81-21.42,1.17-43.35,1.19-43.57,.03-.3,.3-.53,.6-.5,.31,.03,.53,.3,.5,.6-.02,.22-1.99,22.08-1.18,43.43l.18,4.8c1.14,29.94,1.9,49.73-2.89,52.22-.36,.19-.73,.28-1.13,.28Z"/></g><g><path class="cls-13" d="M1509.08,1019.94s-3.99,10.42-6.07,22.24c-1.8,10.19,5.91,59.64,4.24,60.78l-7.74-8.3c-4.07,.03-10.27-32.91-8.61-49.1,.9-8.75,1.34-19.52,1.34-19.52l16.85-6.1Z"/><path class="cls-24" d="M1506.04,1034.41c0,20.09,24.26,27.11,43.21,27.11,18.95,0,33.86-8.89,25.4-27.11-13.38-28.82-15.36-36.37-34.3-36.37-18.95,0-34.3,16.28-34.3,36.37Z"/><path class="cls-24" d="M1545.37,993.25s15.88,3.25,19.18,10.33c2.69,5.75,5.34,8.38,14.74,24.07,1.95,3.26,12.13,9.93,14.49,26.93,3.26,23.46-18.35,24.46-23.89,21.48-5.9-3.17-9.5-25.26-10.69-28.21-1.19-2.95-20.23-47.69-13.84-54.6Z"/><path class="cls-13" d="M1579.3,1027.64s6.11,17.93,5.97,26.73c-.27,17-14.33,59.73-7.77,58.76,4.64-.69-.68,17.41-6.08,14.17-5.4-3.23-6.62-3.12-6.58-9.1l.75-26.83c-1.4-1.47-2.72-56.86-2.72-56.86l16.44-6.86Z"/><g><path class="cls-13" d="M1543.49,981.27l2.89,18.34c6.03,.25,12.84,11.21,12.84,11.21,0,0,.21,22.9-18.75,21.65s-28.79-5.63-29.18-14.25c-.39-8.63,.6-15.46,.6-15.46,0,0,14.4-5.71,15.21-7,0,0-1.84-5.04-1.84-8.11l18.24-6.37Z"/><g><path class="cls-13" d="M1542.9,987.46c12.67-8.65,20.75-17.99,15.75-33.49-6.51-20.17-28.14-31.24-48.31-24.73-20.17,6.51-23.31,21.3-20.2,43.58,2.83,20.26,19.73,27.94,38.98,22.49"/><path class="cls-21" d="M1517.5,997.58c-6.05,0-11.55-1.49-16.06-4.43-6.49-4.23-10.58-11.23-11.84-20.24-1.75-12.54-1.32-21.18,1.4-27.99,3.09-7.73,9.36-13.03,19.17-16.2,9.9-3.2,20.44-2.34,29.7,2.39,9.26,4.74,16.11,12.8,19.31,22.69,5.4,16.71-4.49,26.27-15.97,34.12-.25,.17-.6,.11-.77-.15-.17-.25-.11-.6,.15-.77,18.83-12.86,18.59-23.39,15.54-32.86-3.1-9.61-9.76-17.44-18.76-22.05-8.99-4.6-19.24-5.43-28.85-2.33-20.51,6.62-22.75,21.97-19.82,42.98,1.21,8.68,5.14,15.41,11.35,19.46,7.03,4.59,16.6,5.5,26.94,2.57,.29-.09,.6,.09,.68,.38,.08,.29-.09,.6-.38,.68-4.07,1.15-8.04,1.73-11.79,1.73Z"/></g><path class="cls-11" d="M1497.41,975.67c-1.25,0-2.49-.3-3.63-.88-1.9-.97-3.31-2.63-3.96-4.66h0c-.66-2.03-.48-4.2,.49-6.1,.97-1.9,2.63-3.31,4.66-3.96,2.03-.65,4.2-.48,6.09,.49,1.9,.97,3.31,2.63,3.96,4.66,.66,2.03,.48,4.2-.49,6.1-.97,1.9-2.63,3.31-4.66,3.96-.81,.26-1.64,.39-2.46,.39Zm0-14.87c-.7,0-1.41,.11-2.11,.33-1.75,.56-3.17,1.78-4.01,3.41-.84,1.64-.99,3.5-.42,5.25h0c.56,1.75,1.78,3.17,3.41,4.01s3.5,.99,5.25,.42c3.61-1.17,5.6-5.05,4.43-8.66-.94-2.91-3.65-4.77-6.55-4.77Z"/><path class="cls-11" d="M1517.8,976.17c-3.37,0-6.52-2.16-7.61-5.54-1.35-4.19,.96-8.7,5.15-10.06,4.19-1.35,8.7,.96,10.06,5.15,.66,2.03,.48,4.2-.49,6.1-.97,1.9-2.63,3.31-4.66,3.96-.81,.26-1.64,.39-2.45,.39Zm-.01-14.87c-.7,0-1.41,.11-2.11,.33-1.75,.56-3.17,1.78-4.01,3.41-.84,1.64-.99,3.5-.42,5.25,1.17,3.61,5.05,5.6,8.66,4.43,3.61-1.17,5.6-5.05,4.43-8.66-.94-2.91-3.65-4.77-6.55-4.77Z"/><polygon class="cls-11" points="1539.97 963.9 1524.29 965.2 1525.11 969.27 1539.97 963.9"/><polygon class="cls-11" points="1510.71 965.04 1504.49 965.4 1504.98 969.14 1510.01 969.03 1510.71 965.04"/><polygon class="cls-11" points="1490.38 965.29 1487.87 965.43 1488.36 969.17 1490.09 969.13 1490.38 965.29"/><g><path class="cls-13" d="M1509.07,969.18s-5.36-1.39-5.92,2.46c-.73,4.95,4.86,4.56,4.86,4.56"/><path class="cls-21" d="M1507.72,976.77c-.81,0-2.92-.14-4.2-1.52-.84-.91-1.15-2.15-.92-3.69,.16-1.08,.66-1.9,1.48-2.44,1.94-1.28,5-.51,5.13-.47,.3,.08,.47,.38,.4,.68-.08,.3-.38,.47-.68,.4-.03,0-2.72-.68-4.24,.33-.56,.37-.88,.92-.99,1.68-.17,1.19,.04,2.12,.64,2.77,1.21,1.31,3.61,1.17,3.63,1.16,.32-.01,.57,.21,.59,.52,.02,.31-.21,.57-.51,.59-.02,0-.14,0-.32,0Z"/></g><g><path class="cls-13" d="M1512.96,982.96s-6.49,.71-9.92,.95"/><path class="cls-21" d="M1503.04,984.46c-.29,0-.53-.22-.55-.52-.02-.31,.21-.57,.52-.59,3.38-.23,9.83-.94,9.9-.95,.31-.04,.58,.19,.61,.49s-.19,.58-.49,.61c-.06,0-6.54,.72-9.94,.95-.01,0-.03,0-.04,0Z"/></g><path class="cls-11" d="M1514.62,968.33c.35,1.08,2.16,1.84,3.23,1.49s2.52-1.28,2.18-2.36-2.36-1.9-3.44-1.55c-1.08,.35-2.32,1.34-1.97,2.42Z"/><path class="cls-11" d="M1494.43,968.27c.35,1.08,2.16,1.84,3.23,1.49s2.52-1.28,2.18-2.36c-.35-1.08-2.36-1.9-3.44-1.55-1.08,.35-2.32,1.34-1.97,2.42Z"/><path class="cls-11" d="M1535.49,963.15s-2.43-3.51-3.83-7.84c-.59-1.84-2.93-9.08-2.93-9.08l-3.65,6.23-14.25,.22-1.47-5.58-3.93,5.67-8.15,.13-1.51-5.18-3.71,5.26-4.47,1.15s.43-33.32,40.62-30.28c50.54,3.82,28.69,52.57,39.89,59.39,2.24,1.37,2.25,2.49,.82,3.41-.84,.54-2.28-1.02-3.95-.61-.49,.12-.91,2.26-1.45,2.37-.75,.15-1.55,.3-2.39,.43-.61,.1-1.47-2.23-2.11-2.14-.69,.1-1.17,2.61-1.89,2.69-3.1,.36-6.42,.64-9.53,.84-.49,.03-1.25-2.9-1.73-2.87-.62,.04-.96,3.04-1.56,3.07-5.46,.29-9.62,.35-9.62,.35l7.75-20.37-6.95-7.25Z"/><path class="cls-13" d="M1538.27,980.52c3.94,2.3,13.29-2.74,9.69-13.75-1.22-3.71-5.24-3.51-8.96-2.31"/></g><polygon class="cls-19" points="1565.43 1082.87 1566.43 1122.4 1539.33 1117.9 1507.25 1102.96 1505.31 1069.61 1565.43 1082.87"/><g><path class="cls-10" d="M1578.84,997.03s0,.05-.12,.11c0-.09,.04-.13,.12-.11Z"/><path class="cls-22" d="M1500.03,1038.25l-11.57-2.13s3.89-17.98,14.83-29.43c7.01-7.34,20.55-9.09,21.5-8.97,0,0,0,10.55,8.68,11.41,7.6,.76,12.52-5.31,12.52-11.99,0-.5,23.86,8.12,31.09,17.07,6.77,15.35,8.28,16.76,9.51,28.57l-23.73-.14,1.33,13.38,1.24,26.86s-34.76,8.07-62.25-6.52c0,0-1.32-17.18-1.14-26.72,.21-11.51-2-11.38-2-11.38Z"/></g><path class="cls-24" d="M1562.2,1003.85s-11.26,14.73-1.79,29.39c4.09,6.33,3.97,26.95,3.97,26.95,0,0-10.27-10.68-17.19-28.94-4-10.58-1.21-34.11-1.21-34.11,0,0,6.25-.19,16.22,6.71Z"/><path class="cls-24" d="M1509.78,1001.49s-2.61,2.78-5.54,9.03c-7.41,15.8-4.69,29.22-4.69,29.22l2.49,9.13s-.52-12.2,9-27.37c6.01-9.58,14.22-24.55,14.22-24.55,0,0-7.7,1.56-15.47,4.55Z"/></g></g></g></g></g><g class="cls-32"><g><g><path class="cls-11" d="M2753.58-91.09l-61.6-89.69c-62.91,20.07-107.58,32.46-171.25,31.06-46.11-1.02-91.2-1.02-136.81-10.27-10.05-2.04-20-4.55-29.9-7.3-.66,2-1.33,4.07-2.02,6.21-.03,.11-.07,.22-.1,.32-20.91,65.3,34.81,210.76,47.74,345.11,18.64,193.73,28.87,732.18,28.87,732.18,0,0,66.7,10.52,129.55-8.18,3.55-19.21,8.28-277.78,8.28-277.78,0,0,8.76-232.83,38.25-382.48l25.56,666.19s45.9,9.97,70.12,7.46c28.39-2.94,85.13-7.85,85.13-7.85l20.89-481.19-52.71-523.79Z"/><g><path class="cls-20" d="M2415.99-592.03s42.03,48.01,83.2,123.85c20.84,38.39,47.85,98.99,62.68,159.49,23.05,94.01,44.55,204.6,18.8,377.66,0,0-135.12-27.82-233.41-70.35l-64.83-284.03s21.13-139.05,15.84-157.48c-16.31-56.81,1.97-127.77,47.5-143,45.53-15.23,70.22-6.15,70.22-6.15Z"/><path class="cls-28" d="M2415.99-592.03s42.03,48.01,83.2,123.85c20.84,38.39,47.85,98.99,62.68,159.49,23.05,94.01,44.55,204.6,18.8,377.66,0,0-135.12-27.82-233.41-70.35l-64.83-284.03s21.13-139.05,15.84-157.48c-16.31-56.81,1.97-127.77,47.5-143,45.53-15.23,70.22-6.15,70.22-6.15Z"/></g></g><g><path class="cls-11" d="M2493.73,1011.17s30.94,37.11,65.02,58.95c34.42,22.06-40.62,28.38-67.89,22.06-38.25-8.88-47.9-22.06-47.9-22.06h0l-2.77,5.03-32.92-7.15-8.27-46.3,94.74-10.53Z"/><path class="cls-11" d="M2237.47,1011.17s30.94,37.11,65.02,58.95c34.42,22.06-40.62,28.38-67.89,22.06-38.25-8.88-47.9-22.06-47.9-22.06h0l-2.77,5.03-32.92-7.15-8.27-46.3,94.74-10.53Z"/><g><path class="cls-11" d="M2508.38,30.34l-56.89-97.24c-62.91,20.07-107.58,32.46-171.25,31.06-46.11-1.02-91.2-1.02-136.81-10.27-10.05-2.04-20-4.55-29.9-7.3-.66,2-1.33,4.07-2.02,6.21-.03,.11-.07,.22-.1,.32-20.91,65.3-53.03,192.38-40.1,326.73,18.64,193.73,71.41,753.36,71.41,753.36,0,0,31.89-3.36,94.74-22.05,3.55-19.21,40.59-375.46,40.59-375.46,0,0,3.81-168.85,33.3-318.5l87.64,712.82s36.57,8.12,60.79,5.61c28.39-2.94,33.94-24.47,33.94-24.47l25.43-373.56-10.78-607.26Z"/><g><path class="cls-26" d="M2434.19-376.89l-5,1.31c-.63-14.15-1.49-25.73-2.62-33.63-8.74-60.99-19.08-72.22-19.08-72.22l-61.02-16.48s11.72,30.66-54.74,33.64c-55.9,2.5-62.06-38.57-62.06-38.57l-99.04,32.4-53.93,105.5s2.75,77.95,74.63,163.21c0,0-27.27,77.28-25.62,150.84,2.56,114.16,340.14,67.3,340.14,67.3,0,0-35.3-191.15-35.11-287.04,46.8-65.18,3.45-106.25,3.45-106.25Z"/><path class="cls-24" d="M2242.29-506.44s-12.94,13.4-16.56,73.42c-12.06,199.82,25.62,582.66,12.74,793.71,0,0-71.82,65.12-170.12,22.59,0,0-21.29-233.47-19.89-298.63,1-46.66,19.48-111.04,19.48-111.04,0,0-173.64-23.87-133.71-208.52,17.4-80.48,105.72-204.54,173.52-238.66,54.04-27.2,134.54-32.88,134.54-32.88Z"/><path class="cls-24" d="M2341.17-504.36s72.51,609.87,60.76,853.89c0,0,89.76,35.03,117.23-19.01,0,0,17.31-398.67,19.76-488.65,0,0-5.43-109.2-36.12-207.55-28.2-90.37-46.26-92.27-80.68-110.97-17.37-9.44-80.95-27.7-80.95-27.7Z"/></g></g></g></g></g></svg>