<svg xmlns="http://www.w3.org/2000/svg" width="490.404" height="527" viewBox="0 0 490.404 527">
  <g id="Group_4237" data-name="Group 4237" transform="translate(-187 -321)">
    <circle id="Ellipse_224" data-name="Ellipse 224" cx="219" cy="219" r="219" transform="translate(187 321)" fill="#c9e5ea" opacity="0.19"/>
    <g id="Group_4181" data-name="Group 4181" transform="translate(-564.155 -126.759)">
      <path id="Path_5134" data-name="Path 5134" d="M1299.809,1292.087v5.066l-2.182-.012L859,1294.753v-3.5c.193-.09.383-.184.577-.278q100.641-48.595,201.276-97.193a61.23,61.23,0,0,1,55.288,1.029l181.561,96.164Z" transform="translate(-58.249 -531.005)" fill="#f5ccb7" opacity="0.44"/>
      <g id="Group_4178" data-name="Group 4178" transform="translate(996.055 527.022)">
        <path id="Path_5135" data-name="Path 5135" d="M1513.709,1443.607a8.593,8.593,0,0,0-2.929-1.6c-2.518-.944-3.632-.456-6.923-.8-4.53-.471-6.643-1.836-7.456-.8-.532.679-.1,1.865,0,2.13a3.706,3.706,0,0,0,2.4,2.13,16.951,16.951,0,0,0-5.592,0c-2.091.352-3.968.623-5.592,2.13a6.215,6.215,0,0,0-2.126,4.087,6.469,6.469,0,0,0,1.247,3.741c3.3,4.6,27.345-1.579,28.838-1.97C1515.737,1451.89,1516.818,1446.435,1513.709,1443.607Z" transform="translate(-1485.486 -1231.707)" fill="#f0ad8c"/>
        <path id="Path_5046" data-name="Path 5046" d="M1736.394,992.3c2.564,4.1,6.334,7.944,6.358,14.307.027,7.521-5.208,10.382-4.974,15.809.414,9.582,17.6,16.152,21.262,17.551,27.447,10.488,101.1,21.979,115.9-10.612,8.357-18.405-3.237-48.266-19.017-53.932-9.045-3.248-15.969,2.71-26.187-2.806-8.191-4.422-7.893-10.492-15.9-20.264-2.381-2.906-15.935-19.45-36.476-21.771-1.25-.141-26.411-2.616-39.143,14.512C1727.964,958.885,1728.792,980.149,1736.394,992.3Z" transform="translate(-1654.19 -880.936)" fill="#3e4e7e"/>
        <path id="Path_5047" data-name="Path 5047" d="M1811.413,982.595c.024.1.047.2.069.3a29.587,29.587,0,1,1-57.692,13.165h0a29.226,29.226,0,0,1,21.6-35.241l.352-.084h0a29.586,29.586,0,0,1,35.675,21.864h0" transform="translate(-1669.588 -901.258)" fill="#f0ad8c"/>
        <path id="Path_5136" data-name="Path 5136" d="M1819.7,1052.519a.395.395,0,0,0,.033-.725c-3.946-1.9-3.909-2.67-3.891-2.752.033-.156.365-.323.717-.5a4.242,4.242,0,0,0,2.023-1.731,4.138,4.138,0,0,0,.459-1.965c.123-3.475-.086-10.541-.1-10.84a.395.395,0,0,0-.789.024c.009.3.217,7.339.1,10.81a3.363,3.363,0,0,1-.367,1.6,3.474,3.474,0,0,1-1.68,1.4c-.526.265-1.024.515-1.135,1.043-.138.654.229,1.658,4.322,3.625A.4.4,0,0,0,1819.7,1052.519Z" transform="translate(-1712.304 -951.993)" fill="#26386e"/>
        <path id="Path_5049" data-name="Path 5049" d="M1852.6,1124.086c3.021,7.652,2.133,15.769-2.577,20.817-5.3,5.682-15.275,7.294-18.081,4.053-1.183-1.366-.465-2.868-.935-6.235a22.227,22.227,0,0,0-5.7-11.6" transform="translate(-1719.365 -1014.255)" fill="#f0ad8c"/>
        <path id="Path_5050" data-name="Path 5050" d="M1822.265,1144.139a20.382,20.382,0,0,0,4.717-.647,16.594,16.594,0,0,0,8.2-4.407,14.907,14.907,0,0,0,3.326-5.427,27.676,27.676,0,0,1-9.811,4.791,17.726,17.726,0,0,1-6.154.746c-5.04-.384-8.2-3.211-8.477-2.837C1813.864,1136.628,1815.336,1138.289,1822.265,1144.139Z" transform="translate(-1711.619 -1020.844)" fill="#3e4e7e" opacity="0.19" style="mix-blend-mode: normal;isolation: isolate"/>
        <path id="Path_5051" data-name="Path 5051" d="M1795.756,951.438c13.615,4.065,25.779,15.578,23.226,20.72-3.6,7.252-35.9.694-55.318-6.6-8.117-3.045-9.6-4.572-9.542-5.962C1754.322,954.319,1776.815,945.779,1795.756,951.438Z" transform="translate(-1670.375 -894.146)" fill="#3e4e7e"/>
        <path id="Path_5052" data-name="Path 5052" d="M1776.442,1052.381a2.675,2.675,0,0,0-1.893,3.275,2.9,2.9,0,0,0,.309.778,2.572,2.572,0,0,1,4.835-1.161,2.905,2.905,0,0,0-.077-.834A2.675,2.675,0,0,0,1776.442,1052.381Z" transform="translate(-1684.372 -964.863)" fill="#26386e"/>
        <path id="Path_5053" data-name="Path 5053" d="M1847.362,1035.355a2.676,2.676,0,0,0-1.894,3.275,2.9,2.9,0,0,0,.309.779,2.572,2.572,0,0,1,4.835-1.161,2.906,2.906,0,0,0-.077-.834A2.676,2.676,0,0,0,1847.362,1035.355Z" transform="translate(-1733.183 -953.145)" fill="#26386e"/>
        <circle id="Ellipse_212" data-name="Ellipse 212" cx="5.448" cy="5.448" r="5.448" transform="translate(119.695 84.889)" fill="#f3bba0"/>
        <circle id="Ellipse_213" data-name="Ellipse 213" cx="5.448" cy="5.448" r="5.448" transform="translate(86.069 92.961)" fill="#f3bba0"/>
        <path id="Path_5137" data-name="Path 5137" d="M1759.647,1048.188h0a10.569,10.569,0,1,1,1.259-.385A10.935,10.935,0,0,1,1759.647,1048.188Zm-11.971-8.031a9.777,9.777,0,0,0,11.776,7.217h0a9.766,9.766,0,1,0-11.776-7.217Z" transform="translate(-1665.177 -947.622)" fill="#c5e3e8"/>
        <path id="Path_5138" data-name="Path 5138" d="M1844.642,1031.265a10.564,10.564,0,1,1,1.259-.385A10.772,10.772,0,0,1,1844.642,1031.265Zm-10.8-15.412a9.765,9.765,0,0,0,10.607,14.6h0a9.766,9.766,0,0,0-4.56-18.992,9.96,9.96,0,0,0-1.159.354A9.693,9.693,0,0,0,1833.84,1015.852Z" transform="translate(-1723.673 -935.974)" fill="#c5e3e8"/>
        <g id="Group_4177" data-name="Group 4177" transform="translate(105.788 97.936)">
          <path id="Path_5054" data-name="Path 5054" d="M1832.263,1098.074c3.579-.4,5.749-4.023,5.956-7a7.681,7.681,0,0,0-.94-4.132,10.009,10.009,0,0,1-11.44,7.856A7.137,7.137,0,0,0,1832.263,1098.074Z" transform="translate(-1825.523 -1086.625)" fill="#f6fafa"/>
          <path id="Path_5139" data-name="Path 5139" d="M1831.585,1097.693a7.462,7.462,0,0,1-6.709-3.422.316.316,0,0,1,.314-.482,9.694,9.694,0,0,0,11.083-7.61.311.311,0,0,1,.263-.246.315.315,0,0,1,.322.16,7.983,7.983,0,0,1,.979,4.306,8.138,8.138,0,0,1-4.821,6.953A5.933,5.933,0,0,1,1831.585,1097.693Zm1.318-5.155a10.542,10.542,0,0,1-7.089,1.961,6.823,6.823,0,0,0,5.718,2.565c3.287-.363,5.466-3.7,5.674-6.705a7.348,7.348,0,0,0-.535-3.2A10.538,10.538,0,0,1,1832.9,1092.538Z" transform="translate(-1824.826 -1085.929)" fill="#26386e"/>
        </g>
        <g id="Group_4138" data-name="Group 4138" transform="translate(75.457 99.473)">
          <path id="Path_5056" data-name="Path 5056" d="M2059.153,1466.42c.141,0,.283,0,.425,0l-.417.119Z" transform="translate(-1955.772 -1349.34)" fill="#c5e3e8"/>
          <path id="Path_5057" data-name="Path 5057" d="M1829.429,1182.5q.742,12.716,1.487,25.438h-.022c.144,2.424,1.7,28.787,1.846,31.21L1741,1240.542a82.532,82.532,0,0,0-13.464-95.3,39.66,39.66,0,0,1,26.672-21.918c2.44-1.034,4.676-1.866,6.629-2.53l2.924-.946c.362,2.8,1.47,4.044,2.171,4.617,4.075,3.338,13.388-.234,18.021-6.166a17.391,17.391,0,0,0,2.975-5.87,21.473,21.473,0,0,0,12.95,4.335c3.5-.1,7.353-1.219,14.962-6.89a101.273,101.273,0,0,0,19.328-19.016Q1831.8,1136.681,1829.429,1182.5Z" transform="translate(-1727.534 -1090.861)" fill="#c5e3e8"/>
        </g>
        <path id="Path_5058" data-name="Path 5058" d="M1616.734,1227.561s-1.248,1.656-2.424,3.366c-5.018,7.294-7.543,13.45-9.877,18.149-7,14.08-12.06,25.737-13.008,27.934-.088.2-.1.239-.136.315-4.126,9.268-16.995,11.241-30.08,10.746a48.571,48.571,0,0,0,.623,18.7,75.313,75.313,0,0,0,15.587.935c9.475-.42,26.752-1.184,37.409-12.782,4.629-5.037,7.26-11.543,12.52-24.555,1.517-3.752,2.638-6.919,3.379-9.114l-7.462-41.491A96.931,96.931,0,0,0,1616.734,1227.561Z" transform="translate(-1537.173 -1080.109)" fill="#c5e3e8"/>
        <path id="Path_5059" data-name="Path 5059" d="M2144.3,809.261a11.284,11.284,0,0,1-13.186-1.44,59,59,0,0,0-.026-9.511c-.521-6.23-1.854-10.259-.783-10.778,1.437-.693,5,6.018,6.913,5.3,2.349-.884-.349-11.968,4.175-19.684.329-.559.907-1.459,1.4-1.36,1.237.243-.159,6.362,1.29,15.412.331,2.083.665,3.611,1.027,5.9.179,1.15.284,1.959.436,3.1.582,4.363.87,6.57.721,7.816A12.387,12.387,0,0,1,2144.3,809.261Z" transform="translate(-1929.005 -771.777)" fill="#f0ad8c"/>
        <path id="Path_5060" data-name="Path 5060" d="M2039.885,927.082c3.3-8.77,5.194-19.29,6.148-25.743,1.221-8.256,1.92-15.16,2.333-20.024l20.611-5c9.927,29.038,7.04,48.761,2.211,61.668-6.076,16.24-15.887,23.454-30.51,51.365a279.87,279.87,0,0,0-14.445,32.41,113.7,113.7,0,0,0-4.512-41.914,111.72,111.72,0,0,0-7.878-19.216C2030.724,947.6,2037.216,934.173,2039.885,927.082Z" transform="translate(-1849.13 -843.728)" fill="#c5e3e8"/>
      </g>
      <g id="Group_4180" data-name="Group 4180" transform="translate(815.091 571.141)">
        <path id="Path_5140" data-name="Path 5140" d="M1125.059,1278.35c-.148,1.792-.432,3.5-.432,3.5-.731,3.857-2.311,6.791-6.673,25.2-2.551,10.766-4.349,19.629-5.466,25.415l-73.166,1.263c-.418-5.1-.94-12.534-1.247-21.51-.89-25.976-1.059-45.107,6.858-65.778a106.117,106.117,0,0,1,13.717-24.94,67.544,67.544,0,0,0,11.535,3.741c5.182,1.179,15.486,3.4,27.816.291a53.109,53.109,0,0,0,15.2-6.525C1120.925,1250.475,1125.438,1273.764,1125.059,1278.35Z" transform="translate(-996.302 -1123.699)" fill="#c5e3e8"/>
        <path id="Path_5059-2" data-name="Path 5059" d="M1390.152,949.4a11.284,11.284,0,0,1-13.186-1.44,17.886,17.886,0,0,0,.065-4.8,18.129,18.129,0,0,0-2.494-7.17c-.2-.4-2.409-5.15,0-8.729,1.632-2.424,4.43-2.829,7.794-3.429,3.06-.546,6.556-1.17,8.729.935,2.517,2.439,1.7,7.026,1.559,7.794-.394,2.2-1.032,2.058-1.219,3.771-.466,4.269,3.461,6.316,2.778,9.322C1393.943,946.685,1393.1,948.1,1390.152,949.4Z" transform="translate(-1227.393 -920.182)" fill="#f0ad8c"/>
        <path id="Path_5060-2" data-name="Path 5060" d="M1267.593,1036.082c3.057-7.151,4.942-17.585,6.148-25.743,1.221-8.256,1.92-15.16,2.333-20.024l20.611-5c9.927,29.038,7.04,48.761,2.211,61.668-6.076,16.24-15.886,23.454-30.51,51.365a279.91,279.91,0,0,0-14.445,32.41,69.17,69.17,0,0,0-4.512-41.914A67.84,67.84,0,0,0,1231,1064.714C1258.209,1055.553,1265.688,1040.539,1267.593,1036.082Z" transform="translate(-1129.371 -962.867)" fill="#c5e3e8"/>
        <path id="Path_5141" data-name="Path 5141" d="M1172.59,1213.481c-.062.117-.125.233-.187.353a30.555,30.555,0,0,0-2.623,6.764q-.252,1-.429,2.03c-.329-.134-.65-.264-.96-.389l.958.408c-.079.472-.146.948-.2,1.43a25.1,25.1,0,0,0-.156,2.6c-.026,3.234.588,4.717-.48,6.238-2.416,3.439-10.615,3.062-15.836,0-5.991-3.513-7.867-10.442-8.431-15.133a29.139,29.139,0,0,1-.207-4.782Z" transform="translate(-1069.502 -1119.57)" fill="#f0ad8c"/>
        <path id="Path_5142" data-name="Path 5142" d="M1257.149,1044.977c2.606,2.924,3.921,6.543,4.559,12a57.813,57.813,0,0,1-2.159,23.034c-10.159-30.453-10.331-37.964-8.4-38.87C1252.676,1040.422,1255.938,1043.618,1257.149,1044.977Z" transform="translate(-1142.58 -1001.214)" fill="#3e4e7e"/>
        <path id="Path_5143" data-name="Path 5143" d="M1155.268,1062.951c0,.175,0,.35-.007.523a30.524,30.524,0,0,1-8.386,20.513,29.625,29.625,0,0,1-20.544,9.286,29.973,29.973,0,1,1-1.036-59.928h.367A29.605,29.605,0,0,1,1155.268,1062.951Z" transform="translate(-1035.991 -995.921)" fill="#f0ad8c"/>
        <path id="Path_5144" data-name="Path 5144" d="M1232.066,1118.338a.48.48,0,0,1-.3-.852c3.449-2.811,3.174-3.508,3.161-3.537-.052-.11-.45-.2-.77-.278a4.36,4.36,0,0,1-2.443-1.25,4.227,4.227,0,0,1-.93-1.839c-.952-3.418-2.414-10.43-2.476-10.727a.48.48,0,0,1,.94-.2c.061.3,1.517,7.277,2.461,10.665a3.34,3.34,0,0,0,.715,1.451,3.461,3.461,0,0,0,1.951.961c.6.14,1.168.273,1.418.8.455.963-.568,2.365-3.421,4.691A.481.481,0,0,1,1232.066,1118.338Z" transform="translate(-1127.509 -1041.3)" fill="#26386e"/>
        <path id="Path_5145" data-name="Path 5145" d="M1443.171,1283.022a.054.054,0,0,1,0,.019l-.957-.408C1442.521,1282.758,1442.843,1282.888,1443.171,1283.022Z" transform="translate(-1274.738 -1167.495)" fill="#f0ad8c"/>
        <path id="Path_5146" data-name="Path 5146" d="M1187.818,1215.672a30.559,30.559,0,0,0-2.622,6.764c-.036.108-.072.216-.106.321a21.283,21.283,0,0,1-5,.48,16.911,16.911,0,0,1-9.118-2.4,15.075,15.075,0,0,1-4.559-4.559,31.2,31.2,0,0,0,10.8,2.4,17.25,17.25,0,0,0,6.238-.72A15.41,15.41,0,0,0,1187.818,1215.672Z" transform="translate(-1084.917 -1121.409)" fill="#3e4e7e" opacity="0.19"/>
        <path id="Path_5147" data-name="Path 5147" d="M1087.464,1035.3c-.481-2.884-1.821-13.05,4.544-21.074,3.823-4.82,8.807-6.827,12.29-8.23,9.429-3.8,12.842-.973,23.693-4.676,5.756-1.965,9.82-3.4,12.47-7.482,3.716-5.722,3.633-14.8-.624-18.081-3.766-2.907-7.673,1.213-21.916,2.478-10.27.912-12.09-.753-18.3,1.263a34.862,34.862,0,0,0-14.572,9.775C1078.67,996.595,1077.1,1015.736,1087.464,1035.3Z" transform="translate(-1025.426 -955.585)" fill="#3e4e7e"/>
        <path id="Path_5148" data-name="Path 5148" d="M1174.447,966.442a3.467,3.467,0,0,0,1.529-2.452c-.021-1.5-1.818-2.577-2.18-2.792-3.193-1.906-7.89.171-11.63,1.739-4.109,1.723-10,4.063-17.608,6.653C1148.128,969.569,1170.824,969.376,1174.447,966.442Z" transform="translate(-1069.877 -945.741)" fill="#3e4e7e"/>
        <circle id="Ellipse_225" data-name="Ellipse 225" cx="5.519" cy="5.519" r="5.519" transform="translate(76.659 67.517)" fill="#f3bba0"/>
        <path id="Path_5149" data-name="Path 5149" d="M1091.069,1007.633a8.3,8.3,0,0,0-3.966-1.961c-.838-.144-1.561-.109-1.947-.643a1.909,1.909,0,0,1,.42-2.434c.706-.32,2.211.6,5.493,5.039" transform="translate(-1028.814 -974.717)" fill="#3e4e7e"/>
        <path id="Path_5150" data-name="Path 5150" d="M1090.356,1015.606a8.294,8.294,0,0,0-4.357.766c-.761.38-1.323.836-1.95.633a1.908,1.908,0,0,1-1.1-2.211c.38-.676,2.139-.822,7.409.811" transform="translate(-1027.406 -982.825)" fill="#3e4e7e"/>
        <g id="Group_4179" data-name="Group 4179" transform="translate(91.843 75.742)">
          <path id="Path_5054-2" data-name="Path 5054" d="M1211.378,1164.047a8.789,8.789,0,0,1-10.045-6.9,6.741,6.741,0,0,0-.825,3.628c.181,2.615,2.087,5.8,5.229,6.147A6.268,6.268,0,0,0,1211.378,1164.047Z" transform="translate(-1200.221 -1156.872)" fill="#f6fafa"/>
          <path id="Path_5151" data-name="Path 5151" d="M1203.854,1166.289a7.146,7.146,0,0,1-4.233-6.105,7.008,7.008,0,0,1,.859-3.781.277.277,0,0,1,.283-.141.273.273,0,0,1,.23.216,8.511,8.511,0,0,0,9.732,6.681.278.278,0,0,1,.276.424,6.552,6.552,0,0,1-5.89,3A5.205,5.205,0,0,1,1203.854,1166.289Zm-3.21-8.946a6.443,6.443,0,0,0-.47,2.807c.183,2.641,2.1,5.568,4.982,5.887a5.99,5.99,0,0,0,5.02-2.252,9.041,9.041,0,0,1-9.532-6.441Z" transform="translate(-1199.609 -1156.26)" fill="#26386e"/>
        </g>
        <path id="Path_5052-2" data-name="Path 5052" d="M1260.1,1114.581a2.535,2.535,0,0,0,.088.73,2.258,2.258,0,0,1,4.365.107,2.55,2.55,0,0,0,.122-.725,2.291,2.291,0,1,0-4.574-.112Z" transform="translate(-1149.396 -1050.214)" fill="#26386e"/>
        <path id="Path_5053-2" data-name="Path 5053" d="M1196.077,1113.021a2.533,2.533,0,0,0,.087.73,2.258,2.258,0,0,1,4.364.106,2.532,2.532,0,0,0,.122-.725,2.291,2.291,0,1,0-4.574-.111Z" transform="translate(-1105.334 -1049.14)" fill="#26386e"/>
        <path id="Path_5152" data-name="Path 5152" d="M1391.286,953.766c-.081.7-.882,1.085-1.125,1.185a3.074,3.074,0,0,1-2.556-.349c-.583-.271-1.088-.5-1.462-.29-.106.059-.162.181-.542,1.1l-.259.617c-.4.951-.729,1.715-.935,2.185a.315.315,0,0,1-.287.187.357.357,0,0,1-.125-.025.314.314,0,0,1-.162-.412c.206-.468.536-1.228.935-2.179l.256-.614c.446-1.072.514-1.234.814-1.406.648-.371,1.35-.047,2.029.265a2.562,2.562,0,0,0,2.054.343c.262-.109.711-.374.748-.686v-.006a.761.761,0,0,0-.29-.555,8.043,8.043,0,0,0-1.434-1c-.1-.059-.193-.115-.284-.172l-.542-.321a5.164,5.164,0,0,0-3.049-1.023c-.109.006-.218.016-.321.028a3.864,3.864,0,0,0-.617.122,5.6,5.6,0,0,0-2.588,1.618.311.311,0,0,1-.462-.418,6.294,6.294,0,0,1,2.821-1.789,5.277,5.277,0,0,1,.617-.134c.168-.025.34-.041.517-.05a5.636,5.636,0,0,1,3.289,1.041c.178.1.362.212.555.327.125.078.253.153.387.234a7.466,7.466,0,0,1,1.637,1.194,1.549,1.549,0,0,1,.33.539A.962.962,0,0,1,1391.286,953.766Z" transform="translate(-1232.61 -938.547)" fill="#eb9266"/>
        <path id="Path_5153" data-name="Path 5153" d="M1388.535,943.427a3.857,3.857,0,0,0-.617.122l-.227-.589-1.166-3.033a.311.311,0,0,1,.58-.224l1.2,3.124Z" transform="translate(-1236.396 -931.334)" fill="#eb9266"/>
        <path id="Path_5154" data-name="Path 5154" d="M1402.081,941.988a4.751,4.751,0,0,0,.221-.6c.022-.065.041-.131.059-.2a6.745,6.745,0,0,0-1.3-5.568.312.312,0,1,0-.5.374,6.113,6.113,0,0,1,1.194,5.031c0,.009-.006.022-.009.031a4.633,4.633,0,0,1-.209.6Z" transform="translate(-1246.031 -928.58)" fill="#eb9266"/>
        <path id="Path_5155" data-name="Path 5155" d="M1413.7,939.193a5.7,5.7,0,0,1-1,1.986l-.178.215a4.92,4.92,0,0,1-.436.458c-.047.044-.1.087-.146.128a2.633,2.633,0,0,1-.567.362.762.762,0,0,0-.29-.555,2.08,2.08,0,0,0,.527-.346,1.227,1.227,0,0,0,.1-.084v0c.09-.084.175-.175.256-.262.09-.106.178-.209.256-.306a5.034,5.034,0,0,0,.876-1.755A6.113,6.113,0,0,0,1411.9,934a.312.312,0,1,1,.5-.374A6.745,6.745,0,0,1,1413.7,939.193Z" transform="translate(-1253.312 -927.203)" fill="#eb9266"/>
        <path id="Path_5156" data-name="Path 5156" d="M1418.2,940.147a5.777,5.777,0,0,1-1.384,1.74,3.314,3.314,0,0,1-2.036.92,2.321,2.321,0,0,1-.29-.019,2.4,2.4,0,0,1-1.041-.418,3.164,3.164,0,0,1-.284-.224.3.3,0,0,1-.1-.271v0c.09-.084.175-.175.256-.262a.316.316,0,0,1,.262.075,2.248,2.248,0,0,0,.3.228,1.679,1.679,0,0,0,.686.256,2.506,2.506,0,0,0,1.852-.767,4.965,4.965,0,0,0,1.219-1.534,6.109,6.109,0,0,0-.128-5.169.312.312,0,0,1,.564-.268A6.761,6.761,0,0,1,1418.2,940.147Z" transform="translate(-1254.68 -927.72)" fill="#eb9266"/>
        <path id="Path_5059-3" data-name="Path 5059" d="M934.435,934.146c.746-3.287,1.136-5.3.72-7.816-.321-1.942-.863-1.783-1.219-3.771-.137-.768-.958-5.355,1.559-7.794,2.173-2.105,5.669-1.481,8.729-.935,2.8.5,5.615,1,7.794,3.429,3.081,3.432,3.562,9.224,1.247,12.158-1.426,1.808-2.554,1.757-3.855,3.785-1.716,2.675-1.391,5.963-.822,8.373q-2.645-.346-5.358-.755-5.266-.794-10.229-1.739A43.419,43.419,0,0,0,934.435,934.146Z" transform="translate(-924.271 -913.299)" fill="#f0ad8c"/>
        <path id="Path_5060-3" data-name="Path 5060" d="M977.327,1064.714a67.83,67.83,0,0,0-18.429,24.133,69.168,69.168,0,0,0-4.512,41.914,279.884,279.884,0,0,0-14.445-32.41c-14.624-27.911-24.435-35.125-30.51-51.365-4.829-12.907-7.716-32.63,2.211-61.668l20.611,5c.414,4.864,1.113,11.768,2.333,20.024,1.206,8.158,3.091,18.592,6.148,25.743C942.639,1040.539,950.118,1055.553,977.327,1064.714Z" transform="translate(-905 -962.867)" fill="#c5e3e8"/>
        <path id="Path_5157" data-name="Path 5157" d="M957,943.766c.081.7.882,1.085,1.125,1.185a3.075,3.075,0,0,0,2.556-.349c.583-.271,1.088-.5,1.462-.29.106.059.162.181.542,1.1l.259.617c.4.951.729,1.715.935,2.185a.315.315,0,0,0,.287.187.352.352,0,0,0,.124-.025.314.314,0,0,0,.162-.411c-.205-.468-.536-1.228-.935-2.179l-.255-.614c-.446-1.072-.515-1.234-.814-1.406-.648-.371-1.35-.047-2.029.265a2.561,2.561,0,0,1-2.054.343c-.262-.109-.711-.374-.749-.686v-.006a.762.762,0,0,1,.29-.555,8.04,8.04,0,0,1,1.434-1c.1-.059.193-.115.283-.172l.542-.321a5.165,5.165,0,0,1,3.049-1.023c.109.006.218.016.321.028a3.848,3.848,0,0,1,.617.122,5.606,5.606,0,0,1,2.588,1.618.311.311,0,1,0,.461-.418,6.291,6.291,0,0,0-2.821-1.789,5.239,5.239,0,0,0-.617-.134c-.168-.025-.34-.041-.517-.05a5.636,5.636,0,0,0-3.289,1.041c-.178.1-.362.212-.555.327-.125.078-.253.153-.387.234a7.485,7.485,0,0,0-1.637,1.194,1.556,1.556,0,0,0-.33.539A.966.966,0,0,0,957,943.766Z" transform="translate(-940.784 -931.664)" fill="#eb9266"/>
        <path id="Path_5158" data-name="Path 5158" d="M977.984,933.427a3.846,3.846,0,0,1,.617.122l.228-.589,1.166-3.033a.311.311,0,1,0-.58-.224l-1.2,3.124Z" transform="translate(-955.232 -924.451)" fill="#eb9266"/>
        <path id="Path_5159" data-name="Path 5159" d="M964.951,931.667a4.6,4.6,0,0,1-.209-.6c0-.009-.006-.022-.009-.031A6.113,6.113,0,0,1,965.927,926a.312.312,0,1,0-.5-.374,6.746,6.746,0,0,0-1.3,5.568c.019.065.037.131.059.2a4.771,4.771,0,0,0,.221.6Z" transform="translate(-945.568 -921.697)" fill="#eb9266"/>
        <path id="Path_5160" data-name="Path 5160" d="M951.128,929.193a5.71,5.71,0,0,0,1,1.986l.178.215a4.881,4.881,0,0,0,.436.458c.047.044.1.087.147.128a2.627,2.627,0,0,0,.567.362.762.762,0,0,1,.29-.555,2.089,2.089,0,0,1-.527-.346c-.034-.025-.065-.056-.1-.084v0c-.09-.084-.175-.175-.255-.262-.09-.106-.178-.209-.256-.306a5.04,5.04,0,0,1-.876-1.755A6.112,6.112,0,0,1,952.927,924a.312.312,0,0,0-.5-.374A6.746,6.746,0,0,0,951.128,929.193Z" transform="translate(-936.621 -920.321)" fill="#eb9266"/>
        <path id="Path_5161" data-name="Path 5161" d="M940.148,930.147a5.779,5.779,0,0,0,1.384,1.74,3.314,3.314,0,0,0,2.036.92,2.335,2.335,0,0,0,.29-.019,2.4,2.4,0,0,0,1.041-.418,3.117,3.117,0,0,0,.284-.224.3.3,0,0,0,.1-.271v0c-.09-.084-.175-.175-.255-.262a.316.316,0,0,0-.262.075,2.279,2.279,0,0,1-.3.228,1.68,1.68,0,0,1-.686.256,2.508,2.508,0,0,1-1.852-.767,4.962,4.962,0,0,1-1.219-1.534,6.107,6.107,0,0,1,.127-5.169.312.312,0,0,0-.564-.268A6.761,6.761,0,0,0,940.148,930.147Z" transform="translate(-928.781 -920.838)" fill="#eb9266"/>
      </g>
      <path id="Path_5162" data-name="Path 5162" d="M1299.809,1521.706v209.381a2.706,2.706,0,0,1-2.706,2.706h-435.4a2.707,2.707,0,0,1-2.706-2.706V1521.706a2.706,2.706,0,0,1,2.706-2.706h435.4a2.709,2.709,0,0,1,1.142.253h0A2.706,2.706,0,0,1,1299.809,1521.706Z" transform="translate(-58.249 -759.034)" fill="#f8dacb"/>
      <path id="Path_5163" data-name="Path 5163" d="M1299.185,1967.279h-6.621L1092.286,1865.9a44.281,44.281,0,0,0-40.368.455l-188.1,100.922H859v-.942l191.128-102.553a48.12,48.12,0,0,1,43.869-.493Z" transform="translate(-58.249 -992.521)" fill="#f5ccb7"/>
    </g>
  </g>
</svg>
