<svg xmlns="http://www.w3.org/2000/svg" width="814" height="538.54" viewBox="0 0 814 538.54">
  <g id="Group_4607" data-name="Group 4607" transform="translate(407 269.27)">
    <g id="Group_4607-2" data-name="Group 4607" transform="translate(-407 -269.27)">
      <g id="Group_4607-3" data-name="Group 4607">
        <g id="Artwork_16" data-name="Artwork 16" opacity="0.16">
          <g id="Group_4069" data-name="Group 4069">
            <path id="Path_5513" data-name="Path 5513" d="M404,173.11V538.54H1V173.11C1,77.5,91.21,0,202.5,0S404,77.5,404,173.11Z" fill="#b4dbe2"/>
            <g id="Group_4068" data-name="Group 4068">
              <path id="Path_5514" data-name="Path 5514" d="M783.38,394.59a195.4,195.4,0,0,1-5.3,42.26,202.716,202.716,0,0,1-53.74,95.78c-1.66,1.67-3.34,3.31-5.06,4.91-.35.34-.71.67-1.06,1H379V391.33a201.527,201.527,0,0,1,15.41-77.55A199.436,199.436,0,0,1,404,293.86a202.75,202.75,0,0,1,103.8-91,202.422,202.422,0,0,1,55.27-12.93c5.97-.53,12.03-.8,18.14-.8a203.683,203.683,0,0,1,28.76,2.03A202.055,202.055,0,0,1,783.38,394.59Z" fill="#eb9266"/>
              <path id="Path_4733" data-name="Path 4733" d="M526.767,410.683A21.764,21.764,0,1,1,505,388.918a21.764,21.764,0,0,1,21.765,21.765Z" fill="#fff"/>
              <path id="Path_4734" data-name="Path 4734" d="M602,410.683a21.809,21.809,0,0,1-27.682,20.98,21.3,21.3,0,0,1-15.18-15.52c-4.135-17,11.709-31.852,28.868-25.879A21.155,21.155,0,0,1,602,410.32v.363Z" fill="#fff"/>
              <path id="Path_4735" data-name="Path 4735" d="M678.177,410.683a21.764,21.764,0,1,1-21.765-21.765,21.764,21.764,0,0,1,21.765,21.765Z" fill="#fff"/>
            </g>
          </g>
        </g>
        <g id="Group_4133" data-name="Group 4133">
          <path id="Path_4990" data-name="Path 4990" d="M496.292,69.044C523.833,46.035,566.728,40.6,599.8,56.623c38.108,18.457,59.25,63.488,57.374,98.777-1.243,23.38-12.308,41.441-1.183,60.331,6.83,11.6,14.664,10.533,23.659,22.476,13.3,17.656,14.79,44.7,8.281,60.331-18.818,45.205-129.9,56.074-196.371,13.013-5.155-3.34-46.172-30.474-41.4-55.008,2.588-13.313,16.976-17.21,21.293-35.489,3.652-15.462-3.26-27-7.1-38.446C452.973,148.673,463.358,96.558,496.292,69.044Z" fill="#3e4e7e"/>
          <path id="Path_4991" data-name="Path 4991" d="M178.76,307.723l.005.008a75.366,75.366,0,0,0-6.931,17.535q-.621,2.466-1.059,5-1.215-.5-2.366-.958c.787.337,1.573.668,2.36,1-.2,1.165-.361,2.336-.5,3.525a61.889,61.889,0,0,0-.384,6.412c-.065,7.973,1.449,11.628-1.183,15.379-5.956,8.476-26.167,7.547-39.038,0-14.769-8.659-19.4-25.741-20.785-37.3a71.791,71.791,0,0,1-.51-11.789Z" fill="#f0ad8c"/>
          <path id="Path_4992" data-name="Path 4992" d="M207.058,183.791c6.425,7.207,9.666,16.129,11.238,29.574,1.343,11.481,2.071,31.414-5.323,56.782-25.043-75.071-25.466-93.585-20.7-95.82C196.03,172.564,204.071,180.442,207.058,183.791Z" fill="#3e4e7e"/>
          <path id="Path_4993" data-name="Path 4993" d="M527.64,245.9q-18.783,43.323-37.559,86.652a248.882,248.882,0,0,1-23.517,24.44,227.517,227.517,0,0,1-56.334,37.665c-55.694,26.09-109.388,23.021-139.589,21.293a351.616,351.616,0,0,1-40.812-4.732,27.352,27.352,0,0,0,5.323-32.531c76.39-17.91,120.254-39.416,146.687-56.782,2.117-1.39,29.97-19.732,66.246-40.812,11.327-6.583,25.055-15.946,45.544-24.251q5.022-2.032,9.683-3.685c6.234-2.218,11.93-3.963,16.9-5.329C522.914,247.074,525.405,246.441,527.64,245.9Z" fill="#c5e3e8"/>
          <path id="Path_4994" data-name="Path 4994" d="M626.631,144.426h0A73.886,73.886,0,0,0,552.746,70.54h-.9a72.984,72.984,0,0,0-72.983,72.983h0c0,39.966,31.387,73.4,71.33,74.744a73.886,73.886,0,0,0,76.4-71.287q.043-1.276.044-2.554Z" fill="#f0ad8c"/>
          <path id="Path_4995" data-name="Path 4995" d="M549.661,193.64a28.866,28.866,0,0,1-4.285-.324,29.339,29.339,0,0,1-8.229-2.474l1.306-2.654a26.229,26.229,0,0,0,7.363,2.2A23.154,23.154,0,0,0,560.1,188.2a24.21,24.21,0,0,0,12.979-21.656l2.957.012a28.007,28.007,0,0,1-3.957,14.28,26.5,26.5,0,0,1-10.628,10,25.4,25.4,0,0,1-8.571,2.618A26.771,26.771,0,0,1,549.661,193.64Z" fill="#26386e"/>
          <path id="Path_4996" data-name="Path 4996" d="M530.776,171.143a42.282,42.282,0,0,1-7.4-7.207,7.648,7.648,0,0,1-1.261-2.46,3.233,3.233,0,0,1,.15-2.252c.678-1.433,2.212-1.792,3.7-2.139a8.288,8.288,0,0,0,4.659-2.28,7.864,7.864,0,0,0,1.7-3.458c2.32-8.332,5.91-25.542,6.062-26.271l2.9.6c-.152.732-3.761,18.036-6.108,26.461a10.667,10.667,0,0,1-2.358,4.655,11.016,11.016,0,0,1-6.174,3.17,12.87,12.87,0,0,0-1.292.343,1.543,1.543,0,0,0-.4.189c0,.118.05.7,1.076,2.036a43.5,43.5,0,0,0,6.63,6.317Z" fill="#26386e"/>
          <path id="Path_4997" data-name="Path 4997" d="M518.768,209.816c5.165,9.578,8.776,20.483,8.872,32.531.063,7.973-1.451,11.629,1.183,15.379,5.954,8.476,26.167,7.544,39.038,0,23.006-13.485,21.4-47.414,21.293-49.093Z" fill="#f0ad8c"/>
          <path id="Path_4998" data-name="Path 4998" d="M511.079,204.493c.9-.745,6.915,7.959,18.927,11.83,5.858,1.887,10.731,1.85,15.379,1.774A69.13,69.13,0,0,0,572,212.182a37.237,37.237,0,0,1-11.238,11.242c-8.747,5.562-17.58,5.828-22.476,5.915a50.912,50.912,0,0,1-11.829-1.183C513.041,209.924,510.441,205.024,511.079,204.493Z" fill="#3e4e7e" opacity="0.19" style="isolation: isolate"/>
          <path id="Path_4999" data-name="Path 4999" d="M494.862,72.024c-.937,3.342,1.759,7.915,19.7,20.048,42.895,29.016,117.517,63.773,130.478,48.262,9.189-11-13.63-46.045-44.313-63.854C558.025,51.7,498.424,59.325,494.862,72.024Z" fill="#3e4e7e"/>
          <path id="Path_5000" data-name="Path 5000" d="M778.08,436.85c-7.57-19.19-18.85-45.17-35.44-80.64-24.16-51.67-37.54-77.44-51.84-90.19a42.711,42.711,0,0,0-17.95-9.77c-10.78-2.9-26.69-3.36-54.71-12.72a282.659,282.659,0,0,1-31.51-12.66c-.05-.02-.09-.04-.14-.06a43.333,43.333,0,0,1-8.28,14.2c-12.42,14.11-36.17,21.64-45.84,12.72-1.66-1.53-4.24-4.78-4.73-11.83-.02.01-.05.01-.07.02-2.46.64-4.9,1.28-7.36,1.91-1.24.34-2.53.7-3.86,1.09s-2.7.81-4.11,1.25-2.87.91-4.36,1.41-3.01,1.02-4.57,1.58q-9.45,26.715-18.91,53.43-8.925,25.2-17.84,50.4c-.04.14-.09.27-.14.4A204.179,204.179,0,0,1,481.8,419.5a206.764,206.764,0,0,1-10.95,85.04,222.669,222.669,0,0,1-8.48,21c-2.08,4.5-4.12,8.51-5.99,12-.19.34-.37.68-.54,1H682.02v-3.25a210.986,210.986,0,0,0,42.32-2.66c27.52-4.64,55.02-15.68,66.21-38.01C793.12,489.49,795.81,481.82,778.08,436.85Zm-96.01,38.84q.015-31.965.04-63.93Q692.895,428.11,704.9,445q8.1,11.37,16.16,22.11Z" fill="#c5e3e8"/>
          <ellipse id="Ellipse_201" data-name="Ellipse 201" cx="4.14" cy="6.853" rx="4.14" ry="6.853" transform="translate(504.277 129.966)" fill="#26386e"/>
          <ellipse id="Ellipse_202" data-name="Ellipse 202" cx="4.14" cy="6.853" rx="4.14" ry="6.853" transform="translate(558.989 130.456)" fill="#26386e"/>
          <path id="Path_5001" data-name="Path 5001" d="M602.167,477.757a63.511,63.511,0,0,0-19.519,1.774c-12.359,3.114-20.349,9.16-28.391,15.379-5.2,4.018-19.867,15.362-17.745,19.519,1.723,3.375,13.867.733,20.11-1.183,13.069-4.01,15.838-9.609,23.659-11.238,6.5-1.353,16.548.022,31.349,13.6,7.968-8.893,9.4-20.885,4.14-28.982C611.536,480.1,604.342,478.235,602.167,477.757Z" fill="#f0ad8c"/>
          <path id="Path_5002" data-name="Path 5002" d="M222.436,370.7a63.511,63.511,0,0,0-19.519,1.774c-12.36,3.114-20.349,9.16-28.391,15.379-5.2,4.019-19.867,15.363-17.744,19.519,1.723,3.375,13.867.733,20.11-1.183,13.069-4.01,15.837-9.609,23.659-11.238,6.5-1.353,16.548.022,31.348,13.6,7.968-8.893,9.4-20.885,4.14-28.983C231.8,373.046,224.611,371.177,222.436,370.7Z" fill="#f0ad8c"/>
          <path id="Path_5003" data-name="Path 5003" d="M219,241.523c0,.432-.006.864-.018,1.289a75.246,75.246,0,0,1-20.672,50.566,73.033,73.033,0,0,1-50.643,22.89,73.886,73.886,0,1,1-5.1-147.684q1.272-.044,2.543-.044h.9A72.984,72.984,0,0,1,219,241.523Z" fill="#f0ad8c"/>
          <path id="Path_5004" data-name="Path 5004" d="M170.865,290.7a21.984,21.984,0,0,1-2.628-.156,20.8,20.8,0,0,1-7.019-2.144,21.7,21.7,0,0,1-8.7-8.183,22.91,22.91,0,0,1-3.238-11.68l2.957-.012a19.277,19.277,0,0,0,10.328,17.243,18.42,18.42,0,0,0,11.362,1.742,20.885,20.885,0,0,0,5.864-1.753l1.306,2.654a24.011,24.011,0,0,1-6.73,2.024A23.584,23.584,0,0,1,170.865,290.7Z" fill="#26386e"/>
          <path id="Path_5005" data-name="Path 5005" d="M183.308,265.78l-1.868-2.293a43.459,43.459,0,0,0,6.63-6.317c1.026-1.332,1.078-1.918,1.076-2.036a1.509,1.509,0,0,0-.4-.188,12.8,12.8,0,0,0-1.292-.343,11.019,11.019,0,0,1-6.174-3.17,10.683,10.683,0,0,1-2.358-4.655c-2.346-8.424-5.955-25.728-6.108-26.461l2.9-.6c.152.729,3.741,17.939,6.061,26.271a7.891,7.891,0,0,0,1.7,3.458,8.287,8.287,0,0,0,4.659,2.28c1.484.347,3.019.705,3.7,2.139a3.23,3.23,0,0,1,.15,2.251,7.637,7.637,0,0,1-1.261,2.46A42.281,42.281,0,0,1,183.308,265.78Z" fill="#26386e"/>
          <path id="Path_5006" data-name="Path 5006" d="M170.771,329.958a.124.124,0,0,1-.006.047c-.787-.337-1.573-.668-2.36-1.005C169.168,329.307,169.961,329.627,170.771,329.958Z" fill="#f0ad8c"/>
          <path id="Path_5007" data-name="Path 5007" d="M178.294,308.28a75.376,75.376,0,0,0-6.465,16.674c-.089.266-.177.532-.26.793a52.465,52.465,0,0,1-12.332,1.183c-4.768-.109-13.661-.316-22.476-5.915a37.18,37.18,0,0,1-11.238-11.238,76.92,76.92,0,0,0,26.617,5.915c8.438.3,13.189-1.05,15.378-1.774A37.993,37.993,0,0,0,178.294,308.28Z" fill="#3e4e7e" opacity="0.19" style="isolation: isolate"/>
          <ellipse id="Ellipse_203" data-name="Ellipse 203" cx="4.14" cy="6.211" rx="4.14" ry="6.211" transform="translate(147.318 225.786)" fill="#26386e"/>
          <ellipse id="Ellipse_204" data-name="Ellipse 204" cx="4.14" cy="6.211" rx="4.14" ry="6.211" transform="translate(192.862 223.42)" fill="#26386e"/>
          <path id="Path_5008" data-name="Path 5008" d="M73.975,263.05c3.362-.132.451-19.268,14.787-42.587,5.756-9.363,13.586-22.1,27.8-27.8,19.952-8,29.607,7.027,60.923,2.366,11.2-1.667,25.683-4.042,33.714-15.97,5.657-8.4,7.892-21.212,2.957-30.757-9.684-18.735-43.081-17.334-61.514-16.561-29.484,1.237-61.235,2.568-81.033,27.208C39.641,198.736,67.768,263.293,73.975,263.05Z" fill="#3e4e7e"/>
          <path id="Path_5515" data-name="Path 5515" d="M229.33,444.34c-1.15,14.88-3.48,11.87-15.38,62.1-1.99,8.4-3.77,16.27-5.34,23.48-.56,2.53-1.08,4.98-1.59,7.35,0,.02-.01.05-.01.07-.02.07-.03.14-.05.2-.06.34-.13.67-.21,1H34.25c-.02-.33-.04-.66-.06-1-.54-9.4-1.1-19.94-1.62-31.39-5.15-114.38,1.99-139.57,17.74-152.6,5.1-4.22,19.03-13.72,33.51-22.18,10.22-5.98,18.97-10.42,25.03-13.33.01-.01.02-.02.03-.02,1.39,11.56,6.01,28.64,20.78,37.3,12.87,7.54,33.08,8.47,39.04,0a8.975,8.975,0,0,0,1.56-5.54c0-.39-.01-.8-.03-1.22-.06-1.76-.25-3.81-.32-6.34-.02-.46-.03-.93-.02-1.42-.01-.28-.01-.57-.01-.86a62.465,62.465,0,0,1,.39-6.41q.18-1.635.45-3.24c0-.01.01-.03.01-.04.01-.08.03-.17.04-.25a.142.142,0,0,0,.06.02q9.585,4.1,19.18,8.16l.07.03c1.11.52,4.55,3.75,8.97,9.31l.04.04a142.272,142.272,0,0,1,14.79,23.18,145.6,145.6,0,0,1,12.2,32.89A132.12,132.12,0,0,1,229.33,444.34Z" fill="#c5e3e8"/>
          <path id="Path_5010" data-name="Path 5010" d="M189.9,338.168a270.976,270.976,0,0,1,33.714,39.861C255.732,424.2,290.6,503.107,273.3,529.807c-3.332,5.144-7.983,7.4-86.356,7.666-11.654.04-21.412.024-28.391,0a30.664,30.664,0,0,0,2.957-21.464,22.9,22.9,0,0,0-8.28-13.031l47.318-23.763c-2.828-8.385-5.616-17.332-8.281-26.83-3.852-13.725-6.954-26.827-9.464-39.094Z" fill="#c5e3e8"/>
          <path id="Path_5011" data-name="Path 5011" d="M175.065,515.01a35.957,35.957,0,0,1,11.058,1.005c7,1.764,11.529,5.19,16.085,8.713,4.5,3.48,11.135,8.453,10.053,11.059-.373.9-1.619,1.4-9.345,1.709-7.2.285-12.013.082-15.97,0-13.467-.277-14.8.908-17.244-1.039-4.1-3.269-5.92-11.062-2.346-16.42A12.687,12.687,0,0,1,175.065,515.01Z" fill="#f0ad8c"/>
          <path id="Path_5012" data-name="Path 5012" d="M167.1,520.342a139.906,139.906,0,0,1-80.135-35.776,147.629,147.629,0,0,1-20.033-22.309l.478-.348a143.467,143.467,0,0,0,56.074,46.041,140.128,140.128,0,0,0,43.678,11.8Z" fill="#3e4e7e" opacity="0.51" style="isolation: isolate"/>
          <path id="Path_5013" data-name="Path 5013" d="M199.96,138.247c.686-.325,4.195-2.065,4.732-5.323.6-3.639-2.924-6.649-4.14-7.689-6.97-5.956-19.244-2.853-28.983-.592-10.7,2.485-25.982,5.73-45.544,8.872Z" fill="#3e4e7e"/>
          <circle id="Ellipse_205" data-name="Ellipse 205" cx="13.604" cy="13.604" r="13.604" transform="translate(567.27 142.979)" fill="#f3bba0"/>
          <circle id="Ellipse_206" data-name="Ellipse 206" cx="13.604" cy="13.604" r="13.604" transform="translate(480.913 142.979)" fill="#f3bba0"/>
          <path id="Path_5014" data-name="Path 5014" d="M218.645,242.437a74.838,74.838,0,0,1-5.323,26.575,13.6,13.6,0,0,1,3.787-26.664A12.919,12.919,0,0,1,218.645,242.437Z" fill="#f3bba0"/>
          <circle id="Ellipse_207" data-name="Ellipse 207" cx="13.604" cy="13.604" r="13.604" transform="translate(113.604 242.348)" fill="#f3bba0"/>
          <path id="Ellipse_208" data-name="Ellipse 208" d="M500.432,110.743a26.239,26.239,0,1,1-10.246,2.069A26.313,26.313,0,0,1,500.432,110.743Zm0,50.867a24.546,24.546,0,1,0-24.547-24.546A24.546,24.546,0,0,0,500.432,161.61Z" fill="#c5e3e8"/>
          <path id="Ellipse_209" data-name="Ellipse 209" d="M567.565,111.039a26.239,26.239,0,1,1-10.246,2.069A26.313,26.313,0,0,1,567.565,111.039Zm0,50.867a24.546,24.546,0,1,0-24.547-24.546A24.546,24.546,0,0,0,567.565,161.906Z" fill="#c5e3e8"/>
          <g id="Group_4132" data-name="Group 4132">
            <rect id="Rectangle_3166" data-name="Rectangle 3166" width="303" height="21" transform="translate(222 504.54)" fill="#f6fafa"/>
            <path id="Line_155" data-name="Line 155" d="M375,518.54h-1v-15h1Z" fill="#5e6c94"/>
            <rect id="Rectangle_3282" data-name="Rectangle 3282" width="303" height="13" transform="translate(222 525.54)" fill="#5e6c94"/>
            <rect id="Rectangle_3283" data-name="Rectangle 3283" width="814" height="1" transform="translate(0 537.54)" fill="#3e4e7e"/>
          </g>
          <path id="Path_5015" data-name="Path 5015" d="M85.8,154.807A20.456,20.456,0,0,1,88.17,144.16c1.019-1.831,2.2-3.167,1.774-4.732-.574-2.09-3.789-3.731-5.323-2.957-1.707.861-2.259,5.178,1.183,18.336Z" fill="#3e4e7e"/>
          <path id="Path_5016" data-name="Path 5016" d="M88.132,154.259a20.434,20.434,0,0,0-8.852-6.373c-1.979-.689-3.752-.9-4.473-2.351-.962-1.941.345-5.306,2.006-5.75,1.847-.493,5.132,2.361,11.319,14.474Z" fill="#3e4e7e"/>
        </g>
      </g>
    </g>
  </g>
</svg>
