<svg xmlns="http://www.w3.org/2000/svg" width="1364.505" height="1153" viewBox="0 0 1364.505 1153">
  <g id="Group_4235" data-name="Group 4235" transform="translate(212.22 40)">
    <ellipse id="Ellipse_224" data-name="Ellipse 224" cx="571" cy="576.5" rx="571" ry="576.5" transform="translate(-212.22 -40)" fill="#c9e5ea" opacity="0.19"/>
    <g id="Group_4215" data-name="Group 4215" transform="translate(300.002 282.493)">
      <g id="Group_4210" data-name="Group 4210" transform="translate(0 22.935)">
        <path id="Path_5044" data-name="Path 5044" d="M263.74,1263.931c4.93-6.723,14.979-10.556,18.821-7.441a4.568,4.568,0,0,1,.51.5c1.618,1.516,5.6,4.534,17.078,8.577,15.631,5.5,20.471,4.211,23.386,9.147,2.8,4.749,1.724,10.5,1.607,11.028a16.029,16.029,0,0,1-4.669,8.126c-6.083,5.569-19.975,1.52-47.51-6.806A24.107,24.107,0,0,1,262,1280.494a7.89,7.89,0,0,1-.995-1.23C258.177,1274.6,260.982,1267.692,263.74,1263.931Z" transform="translate(-158.906 -696.936)" fill="#c5e3e8"/>
        <path id="Path_5044-2" data-name="Path 5044" d="M211.589,1270.717c5.581-6.194,15.964-9,19.474-5.512a4.688,4.688,0,0,1,.457.55c1.457,1.671,5.114,5.075,16.129,10.25,15,7.047,19.944,6.247,22.348,11.451,2.313,5.007.661,10.619.492,11.134a16.03,16.03,0,0,1-5.462,7.616c-6.612,4.929-20.027-.5-46.586-11.546a24.1,24.1,0,0,1-10.246-7.637,7.861,7.861,0,0,1-.866-1.324C204.982,1280.778,208.467,1274.182,211.589,1270.717Z" transform="translate(-140.458 -699.81)" fill="#b4dbe2"/>
        <path id="Path_5355" data-name="Path 5355" d="M519.726,522.089a10.11,10.11,0,0,1,1.668-3.551c1.732-2.646,3.128-2.958,6.012-5.571,3.97-3.6,5.027-6.359,6.518-5.941.977.275,1.388,1.7,1.481,2.021a4.361,4.361,0,0,1-.793,3.687,19.929,19.929,0,0,1,5.3-3.887c2.228-1.119,4.2-2.167,6.786-1.866a7.31,7.31,0,0,1,4.858,2.4,7.613,7.613,0,0,1,1.418,4.416c.073,6.658-27.039,17.51-28.728,18.177C523.56,531.356,518.742,526.933,519.726,522.089Z" transform="translate(-248.865 -437.737)" fill="#f0ad8c"/>
        <path id="Path_5046" data-name="Path 5046" d="M274.826,507.343c-14.975-20.144-44.567-17.234-46.036-17.068-24.158,2.73-40.1,22.186-42.9,25.6-9.416,11.493-9.066,18.632-18.7,23.832-12.017,6.487-20.16-.52-30.8,3.3-18.557,6.664-32.194,41.783-22.365,63.429,17.4,38.33,104.026,24.816,136.306,12.481,4.3-1.645,24.518-9.371,25.006-20.641.276-6.381-5.881-9.747-5.85-18.592.027-7.483,4.461-12.006,7.478-16.826C285.91,548.57,286.884,523.563,274.826,507.343Z" transform="translate(-107.277 -431.888)" fill="#3e4e7e"/>
        <path id="Path_5047" data-name="Path 5047" d="M257.253,533.282h0a34.8,34.8,0,0,1,41.957-25.714h0l.413.1a34.372,34.372,0,0,1,25.4,41.446h0a34.8,34.8,0,1,1-67.851-15.483c.027-.116.054-.233.082-.348" transform="translate(-157.681 -437.623)" fill="#f0ad8c"/>
        <path id="Path_5356" data-name="Path 5356" d="M319.554,570.168a.464.464,0,0,1-.039-.853c4.641-2.231,4.6-3.14,4.577-3.237-.039-.184-.43-.38-.843-.588a4.983,4.983,0,0,1-2.378-2.035,4.861,4.861,0,0,1-.54-2.311c-.145-4.087.1-12.4.112-12.749a.464.464,0,0,1,.928.027c-.01.351-.255,8.632-.112,12.714a3.943,3.943,0,0,0,.432,1.883,4.087,4.087,0,0,0,1.975,1.641c.62.312,1.2.605,1.335,1.227.162.769-.269,1.95-5.082,4.264A.465.465,0,0,1,319.554,570.168Z" transform="translate(-179.485 -451.941)" fill="#26386e"/>
        <path id="Path_5049" data-name="Path 5049" d="M304.32,606.962a26.136,26.136,0,0,0-6.7,13.637c-.553,3.959.291,5.726-1.1,7.333-3.385,3.909-14.985,2.085-21.265-4.767a20.145,20.145,0,0,1-4.931-11.332q.95-6.575,1.9-13.15" transform="translate(-162.539 -469.513)" fill="#f0ad8c"/>
        <path id="Path_5050" data-name="Path 5050" d="M313.386,607.229c-.328-.439-4.041,2.885-9.969,3.336a20.844,20.844,0,0,1-7.238-.877,32.553,32.553,0,0,1-11.538-5.635,17.531,17.531,0,0,0,3.911,6.382,19.519,19.519,0,0,0,9.642,5.183,23.971,23.971,0,0,0,5.547.76C311.89,609.5,313.622,607.544,313.386,607.229Z" transform="translate(-167.498 -471.372)" fill="#3e4e7e" opacity="0.19" style="mix-blend-mode: normal;isolation: isolate"/>
        <path id="Path_5051" data-name="Path 5051" d="M321.63,512.591c.064,1.634-1.675,3.431-11.222,7.011-22.835,8.578-60.829,16.291-65.059,7.761-3-6.047,11.3-19.587,27.316-24.368C294.94,496.34,321.394,506.384,321.63,512.591Z" transform="translate(-153.752 -435.616)" fill="#3e4e7e"/>
        <path id="Path_5052" data-name="Path 5052" d="M341.519,560.923a3.392,3.392,0,0,0-.091.981,3.025,3.025,0,0,1,5.686,1.365,3.4,3.4,0,0,0,.363-.915,3.068,3.068,0,1,0-5.959-1.43Z" transform="translate(-187.163 -455.574)" fill="#26386e"/>
        <path id="Path_5053" data-name="Path 5053" d="M301.741,551.374a3.421,3.421,0,0,0-.091.981,3.025,3.025,0,0,1,5.686,1.365,3.4,3.4,0,0,0,.363-.915,3.068,3.068,0,1,0-5.959-1.431Z" transform="translate(-173.387 -452.266)" fill="#26386e"/>
        <circle id="Ellipse_212" data-name="Ellipse 212" cx="6.407" cy="6.407" r="6.407" transform="translate(112.785 99.836)" fill="#f3bba0"/>
        <circle id="Ellipse_213" data-name="Ellipse 213" cx="6.407" cy="6.407" r="6.407" transform="translate(152.331 109.33)" fill="#f3bba0"/>
        <path id="Path_5357" data-name="Path 5357" d="M336.415,568.53a12.483,12.483,0,1,1,1.48.452h0A12.594,12.594,0,0,1,336.415,568.53Zm8.421-22.429a11.583,11.583,0,0,0-1.349-.412,11.486,11.486,0,0,0-5.363,22.337h0a11.486,11.486,0,0,0,6.711-21.925Z" transform="translate(-182.629 -450.708)" fill="#c5e3e8"/>
        <path id="Path_5358" data-name="Path 5358" d="M288.739,559.038a12.5,12.5,0,1,1,1.481.452A12.784,12.784,0,0,1,288.739,559.038Zm8.437-22.425a11.692,11.692,0,0,0-1.363-.416,11.485,11.485,0,1,0-5.364,22.336h0a11.486,11.486,0,0,0,6.727-21.919Z" transform="translate(-166.118 -447.42)" fill="#c5e3e8"/>
        <g id="Group_4209" data-name="Group 4209" transform="translate(126.639 115.181)">
          <path id="Path_5054" data-name="Path 5054" d="M314.31,587.089a11.771,11.771,0,0,1-13.454-9.239,9.026,9.026,0,0,0-1.105,4.859c.243,3.5,2.8,7.768,7,8.235A8.394,8.394,0,0,0,314.31,587.089Z" transform="translate(-299.366 -577.479)" fill="#f6fafa"/>
          <path id="Path_5359" data-name="Path 5359" d="M304.854,590.716c-3.317-1.24-5.441-4.863-5.67-8.178a9.388,9.388,0,0,1,1.15-5.064.371.371,0,0,1,.688.1,11.4,11.4,0,0,0,13.035,8.95.372.372,0,0,1,.369.567,8.777,8.777,0,0,1-7.89,4.025A6.986,6.986,0,0,1,304.854,590.716Zm-4.3-11.984a8.643,8.643,0,0,0-.63,3.76c.245,3.537,2.808,7.458,6.673,7.885a8.025,8.025,0,0,0,6.725-3.017,12.109,12.109,0,0,1-12.769-8.629Z" transform="translate(-299.169 -577.282)" fill="#26386e"/>
        </g>
        <g id="Group_4138" data-name="Group 4138" transform="translate(52.216 116.989)">
          <path id="Path_5056" data-name="Path 5056" d="M190.9,790.832l-.491-.14c.165,0,.333,0,.5,0Z" transform="translate(-187.08 -652.995)" fill="#c5e3e8"/>
          <path id="Path_5057" data-name="Path 5057" d="M185.318,580.048a119.089,119.089,0,0,0,22.731,22.365c8.949,6.67,13.478,7.99,17.6,8.1,6.98.191,12.452-3.095,15.23-5.1a20.46,20.46,0,0,0,3.5,6.9c5.449,6.976,16.4,11.177,21.2,7.251.824-.674,2.128-2.132,2.553-5.43l3.438,1.113c2.3.781,4.927,1.759,7.8,2.975a46.643,46.643,0,0,1,31.369,25.778,97.068,97.068,0,0,0-15.835,112.078L187,754.451c.169-2.851,2-33.856,2.17-36.706l-.026,0q.876-14.963,1.749-29.918Q188.1,633.937,185.318,580.048Z" transform="translate(-185.318 -580.048)" fill="#c5e3e8"/>
        </g>
        <path id="Path_5058" data-name="Path 5058" d="M349.934,601.439h0a129.058,129.058,0,0,1-16.35,0q1.684,25.726,3.367,51.453a140.812,140.812,0,0,0,69.917-27.36c40.79-30.833,50.87-74.421,53.186-86.126a33.76,33.76,0,0,0-4.809-9.618,567.232,567.232,0,0,1-53.377,48.568C387.466,589.852,371.867,601.1,349.934,601.439Z" transform="translate(-184.448 -445.654)" fill="#c5e3e8"/>
        <path id="Path_5059" data-name="Path 5059" d="M122.02,438.989c-.176-1.466.163-4.062.847-9.193.178-1.337.3-2.289.512-3.64.426-2.694.818-4.49,1.208-6.94,1.7-10.644.062-17.84,1.517-18.126.581-.117,1.26.941,1.648,1.6,5.32,9.075,2.147,22.11,4.91,23.15,2.254.849,6.44-7.044,8.13-6.229,1.26.61-.308,5.349-.921,12.676a69.547,69.547,0,0,0-.031,11.187,13.271,13.271,0,0,1-15.507,1.693A14.568,14.568,0,0,1,122.02,438.989Z" transform="translate(-111.165 -401.081)" fill="#f0ad8c"/>
        <path id="Path_5060" data-name="Path 5060" d="M178.094,558.876a131.377,131.377,0,0,0-9.265,22.6,133.716,133.716,0,0,0-5.307,49.294,329.215,329.215,0,0,0-16.988-38.117c-17.2-32.825-28.738-41.309-35.883-60.41-5.679-15.179-9.075-38.376,2.6-72.527l24.24,5.877c.487,5.72,1.309,13.84,2.745,23.55,1.122,7.59,3.348,19.962,7.23,30.276C150.6,527.758,158.24,543.55,178.094,558.876Z" transform="translate(-105.439 -421.387)" fill="#c5e3e8"/>
        <path id="Path_5360" data-name="Path 5360" d="M228.874,1100.994a177.918,177.918,0,0,0,69.388,13.465,175.64,175.64,0,0,0,42.774-5.771c3.246-28.294,6.8-51.3,9.5-67.322,6.545-38.821,11.573-57.493,7.129-85.6-1.706-10.791-3.988-17.773-8.555-31.738-17.1-52.323-36.89-72.391-47.017-112.125-.157-.606-.309-1.216-.456-1.837a208.789,208.789,0,0,1-66.352,6.247c14.725,60.831,20.871,82.658,22.889,86.4.342.633.592,1.118,1.113,2.077,2.571,4.737,5.223,9.069,7.6,16.35,8.479,25.957.546,49.9-3.8,63.475C253.084,1015.88,242.205,1054.239,228.874,1100.994Z" transform="translate(-148.186 -542.718)" fill="#6e7a9e"/>
        <path id="Path_5361" data-name="Path 5361" d="M176.753,1102.275a177.918,177.918,0,0,0,69.388,13.465,175.648,175.648,0,0,0,42.774-5.771c3.246-28.294,6.8-51.3,9.5-67.322,6.545-38.821,11.573-57.494,7.129-85.6-.427-2.7-.89-5.166-1.417-7.56a193.074,193.074,0,0,0-7.138-24.178c-4.189-11.259-24.743-52.368-56.241-106.3l-55.693-5.242a428.312,428.312,0,0,0,8.518,98.282c7.55,36.858,15.187,49.277,17.395,73.854C213.38,1012.714,209.134,1051.841,176.753,1102.275Z" transform="translate(-130.136 -543.998)" fill="#6e7a9e"/>
        <path id="Path_5362" data-name="Path 5362" d="M304.895,798.294" transform="translate(-174.513 -538.64)" fill="#c5e3e8"/>
        <path id="Path_5363" data-name="Path 5363" d="M305.73,933.045A304.493,304.493,0,0,1,326.7,1027.4a303.253,303.253,0,0,1-3.931,69.453" transform="translate(-174.802 -585.305)" fill="#3e4e7e" opacity="0.19" style="mix-blend-mode: normal;isolation: isolate"/>
      </g>
      <g id="Group_4213" data-name="Group 4213" transform="translate(484.95 117.857)">
        <g id="Group_4212" data-name="Group 4212">
          <path id="Path_5364" data-name="Path 5364" d="M1011.741,800.98c1.225,7.5.907,3.485,1.478,5.61,1.441,5.362,3.134,7.413,4.622,10.844,3.248,7.492,5.8,12.559,8.442,20.09.666,1.9.876,4.242,2.619,7.092,1.123.875-3.674-2.762,0,0s15.078,10.183,21.852,12.286c22.822,7.085,45.638,3.607,66.987-6.553.689-9.278,1.267-8.517,1.623-20.54.244-8.26-1.222-28.566-3.379-40.28-1.907-10.362-4.589-28.881-9.842-37.416-7.64-12.414-15.1-16.259-25.449-24.194-6.4,2.75-6.784,3.926-14.8,6.223-8.455,2.421-20.947,4.831-32.222,3.071a116.017,116.017,0,0,1-17.682-5.135C1012.1,752.967,1008.6,781.8,1011.741,800.98Z" transform="translate(-903.83 -609.19)" fill="#c5e3e8"/>
          <path id="Path_5059-2" data-name="Path 5059" d="M869.681,617.3c-4.3-2.405-5.233-6.232-9.3-8.893-1.632-1.068-2.93-.168-5.527-2-.9-.638-5.8-3.824-5.193-7.163.528-2.882,3.183-7.048,5.283-9.3,2.308-2.476,5.551-4.773,8.254-5.2,3.99-.629,7.267,5.308,8.11,6.5,3.178,4.482,4.308,6.285,7.7,9.434,1.967,1.826,4.349,3.014,6.5,4.647-.613,6.328-3.4,9.56-9.426,11.617C874.4,617.722,871.157,618.125,869.681,617.3Z" transform="translate(-848.102 -559.59)" fill="#f0ad8c"/>
          <path id="Path_5060-2" data-name="Path 5060" d="M972.516,693.855c-1.232,10.455-2.113,21.807-2.4,33.953a365.234,365.234,0,0,0,2.34,50.964c-5.146-8.6-12.951-21.352-22.92-36.546-16.007-24.4-25.048-35.962-36.64-52.957a693.21,693.21,0,0,1-38.6-63.835c6.906-5.418,14.479-9.219,22.012-13.48,4.493,4.38,8.191,7.338,11.818,10.56a110.69,110.69,0,0,1,11.4,12.139C931.454,648.5,937.4,658.269,945,667.646A151.731,151.731,0,0,0,972.516,693.855Z" transform="translate(-856.651 -569.029)" fill="#c5e3e8"/>
          <path id="Path_5365" data-name="Path 5365" d="M1040.588,724.136a18.892,18.892,0,0,1,1.774,1.819,27.786,27.786,0,0,1,4.236,7.7c.327.755.576,1.561.849,2.339.353-.19.707-.382,1.062-.574-.352.2-.707.394-1.058.606.181.49.309,1.164.472,1.641.288.842.362,2.249.582,2.954.809,2.59-.6,5.508,1.925,7.289,5.711,4.027,12.98,1.945,18.147-1.917,5.929-4.431,7.145-11.9,7.54-18.093a18.11,18.11,0,0,0-.039-2.47,30.191,30.191,0,0,0-.763-5.226,104.637,104.637,0,0,1-34.727,3.931Z" transform="translate(-914.24 -606.518)" fill="#f0ad8c"/>
          <path id="Path_5366" data-name="Path 5366" d="M1009.48,638.888c-2.921,5.305-3.735,7.889-3.65,15.369.073,6.387,2.428,18.343,5.577,24.921,2.123-6.264,8.832-41.493,4.561-44.826C1012.6,631.722,1010.838,636.422,1009.48,638.888Z" transform="translate(-902.2 -576.518)" fill="#3e4e7e"/>
          <path id="Path_5367" data-name="Path 5367" d="M1007.781,663.215a3.038,3.038,0,0,0,.071.617c.957,4.195,1.85,8.5,4.119,12.175,2.461,3.991,4.85,7.841,8.787,10.546,7.732,5.312,15.823,9.379,25.582,8.232,20.508-2.412,33.2-18.148,30.7-38.729-2.449-20.164-19.076-31.095-38.366-31.035a4.075,4.075,0,0,0-.519.068C1017.87,629.353,1007.346,642.464,1007.781,663.215Z" transform="translate(-902.874 -573.555)" fill="#f0ad8c"/>
          <path id="Path_5368" data-name="Path 5368" d="M1033.673,686.421a1.534,1.534,0,0,0,.413-.264c.153-.114-.082-.709-.158-.735-1.279-.431-4-2.43-4.14-3.464s.4-.425.8-.652a9.978,9.978,0,0,0,2.583-1.754,5.657,5.657,0,0,0,.833-2.257c.52-3.337,1.069-9.5,1.268-11.934s.262-1.194-.447-1.272-.418-1.225-.663,1.16-.74,8.562-1.271,11.825a4.255,4.255,0,0,1-.652,1.825,8.828,8.828,0,0,1-2.062,1.334c-.657.386-1.477.057-1.489,1.25-.021,2.172,2.75,3.856,4.61,4.852A.546.546,0,0,0,1033.673,686.421Z" transform="translate(-910.119 -586.965)" fill="#26386e"/>
          <path id="Path_5369" data-name="Path 5369" d="M847.308,788.326c-.007,0-.005.023,0,.02.366-.167.73-.339,1.1-.508C848.041,788,847.673,788.161,847.308,788.326Z" transform="translate(-847.303 -629.94)" fill="#f0ad8c"/>
          <path id="Path_5370" data-name="Path 5370" d="M1043.167,727.068a42.664,42.664,0,0,1,4.327,7.7c.056.125.175.222.1.387,2.659-.1,3.439.389,6.493-.171s7.052-1.519,10.137-4.106c.963-.807,3.958-3.807,4.067-5.551-2.339,1.817-9.116,3.419-11.257,3.892a21.1,21.1,0,0,1-7.571.09C1046.092,728.813,1045.8,727.987,1043.167,727.068Z" transform="translate(-915.133 -608.293)" fill="#3e4e7e" opacity="0.19"/>
          <path id="Path_5371" data-name="Path 5371" d="M1073.791,660.252c.728-8.378-2.405-16.546-7.927-23.213-3.316-4-10.729-6.825-14.62-7.768-10.531-2.552-19.125-.959-29.035-2.842-5.256-1-11.973-2.68-15.055-6.974-4.324-6.024-8.473-14.5-1.316-20.331,6.332-5.161,16.951-.631,26.121-.438,6.612.14,12.7-3.549,21.894-.128,6.175,2.3,10.991,1.426,18.814,10.938S1083.016,647.829,1073.791,660.252Z" transform="translate(-900.863 -563.735)" fill="#3e4e7e"/>
          <path id="Path_5372" data-name="Path 5372" d="M1023.353,594.641c-1.375-.324-1.749-1.551-2.107-2.527-.448-1.223,1.243-3.09,1.881-3.337,5.636-2.186,8.545-1.147,14.357.426,6.386,1.728,14.207,3.818,20.952,5.288C1046.634,595.782,1035.034,597.388,1023.353,594.641Z" transform="translate(-907.516 -560.571)" fill="#3e4e7e"/>
          <path id="Path_5373" data-name="Path 5373" d="M1065.774,684.326a5.958,5.958,0,0,1,5.447-6.911,6.175,6.175,0,0,1,7,5.541,5.953,5.953,0,0,1-5.388,6.952A6.252,6.252,0,0,1,1065.774,684.326Z" transform="translate(-922.942 -591.685)" fill="#f3bba0"/>
          <path id="Path_5374" data-name="Path 5374" d="M1102.39,608.385a10.9,10.9,0,0,1,4.072-2.655c.982-.35,1.933-.278,2.231-1.054.4-1.037.9-2.572-1.023-2.576s-4.76,4.3-5.28,6.285" transform="translate(-935.642 -565.617)" fill="#3e4e7e"/>
          <path id="Path_5375" data-name="Path 5375" d="M1101.137,610.478a11.012,11.012,0,0,1,4.867.248c1,.295,1.73.9,2.427.455.93-.6,2.264-1.545.713-2.681s-6.411.688-8.007,1.977" transform="translate(-935.208 -567.711)" fill="#3e4e7e"/>
          <g id="Group_4211" data-name="Group 4211" transform="translate(125.908 96.497)">
            <path id="Path_5054-2" data-name="Path 5054" d="M1047.438,706.254c3.762-1.033,4.968-4.081,5.165-7.631.1-1.713-.817-2.793-1.445-4.226-.581,2.539-1.218,4.793-3.2,6.6-2.171,1.974-4.672,2.475-7.5,2.761C1042.436,705.439,1044.741,706.995,1047.438,706.254Z" transform="translate(-1040.1 -694.077)" fill="#f6fafa"/>
            <path id="Path_5376" data-name="Path 5376" d="M1047.363,706.537a9.134,9.134,0,0,1-7.366-2.791.294.294,0,0,1-.047-.349.323.323,0,0,1,.3-.171c2.773-.214,5.175-.728,7.286-2.64,1.924-1.742,2.558-3.932,3.086-6.387a.318.318,0,0,1,.226-.282.306.306,0,0,1,.354.122c.748,1.459,1.561,2.639,1.544,4.379a8.685,8.685,0,0,1-3.945,7.614A2.678,2.678,0,0,1,1047.363,706.537Zm.64-5.457c-2.029,1.834-4.355,2.43-6.994,2.845,1.893,1.236,3.834,2.559,6.2,1.854,3.535-1.052,4.7-3.905,4.9-7.336.075-1.25-.552-2.173-.927-3.275C1050.5,697.42,1049.794,699.461,1048,701.08Z" transform="translate(-1039.914 -693.908)" fill="#26386e"/>
          </g>
          <path id="Path_5052-2" data-name="Path 5052" d="M1016.639,673.473c-1.636.221-2.226,1.516-2.257,3.035a2.752,2.752,0,0,0,.227.825c.4-1.148.977-2.041,2.268-2.215a2.859,2.859,0,0,1,2.809,1.532,2.75,2.75,0,0,0-.016-.856C1019.21,674.342,1018.275,673.251,1016.639,673.473Z" transform="translate(-905.164 -590.325)" fill="#26386e"/>
          <path id="Path_5053-2" data-name="Path 5053" d="M1052.124,668.7c-1.643.22-2.221,1.526-2.242,3.046a2.776,2.776,0,0,0,.234.829c.393-1.151.963-2.049,2.257-2.221a2.882,2.882,0,0,1,2.821,1.54,2.724,2.724,0,0,0-.019-.858C1054.708,669.585,1053.767,668.483,1052.124,668.7Z" transform="translate(-917.458 -588.673)" fill="#26386e"/>
          <path id="Path_5377" data-name="Path 5377" d="M869.767,606.184c.493.432,1.717.137,2.033-.039,1.222-.681,1.215-1.562,1.537-2.621.248-.815-.012-1.182.868-1.615a3.839,3.839,0,0,1,1.647.4c.071.03.673.186.843.233,1.049.288,2.2.595,3.208.86.255.067.318.022.437-.1s.1.01.075-.186a.431.431,0,0,0-.392-.443c-1-.248-2.152-.571-3.2-.853-.169-.046-.75-.2-.841-.234a4.289,4.289,0,0,0-2.206-.39c-1.094.412-1.047,1.121-1.277,2.034s-.272,1.6-1.081,2.183a1.633,1.633,0,0,1-1.237.166c-.289-.114.122.126-.1-.055a1.115,1.115,0,0,1-.423-.712,10.554,10.554,0,0,1-.176-2.094c0-.137,0-.256,0-.422s-.006-.554,0-.709a7.692,7.692,0,0,1,.966-3.754,2.2,2.2,0,0,1,.265-.328,3.5,3.5,0,0,1,.54-.5,7.851,7.851,0,0,1,3.65-1.266c.394-.042.41-.153.349-.428s-.09-.432-.48-.4a9.031,9.031,0,0,0-3.954,1.354,4.262,4.262,0,0,0-.623.5,2.9,2.9,0,0,0-.479.492,8.17,8.17,0,0,0-1.087,4.027c-.01.213,0,.541,0,.749s0,.375.005.56a10.552,10.552,0,0,0,.26,2.453,2.778,2.778,0,0,0,.386.732C869.393,605.991,869.66,606.089,869.767,606.184Z" transform="translate(-854.686 -563.129)" fill="#eb9266"/>
          <path id="Path_5378" data-name="Path 5378" d="M870.55,596.18a1.351,1.351,0,0,1,.564-.534,7.92,7.92,0,0,1-.545-1c-.358-.77-1.175-2.553-1.669-3.516a.364.364,0,0,0-.52-.173.441.441,0,0,0-.163.571c.472,1.019,1.34,2.824,1.709,3.63S870.235,595.606,870.55,596.18Z" transform="translate(-854.53 -561.739)" fill="#eb9266"/>
          <path id="Path_5379" data-name="Path 5379" d="M867.1,602.037c-.29-.082-.573-.18-.854-.284a.353.353,0,0,1-.042-.025,6.461,6.461,0,0,1-3.772-5.024c-.1-.544-.061-.463-.367-.359s-.358.008-.258.569A7.073,7.073,0,0,0,866,602.426a2.282,2.282,0,0,0,.3.121c.155.052.583.2.793.246C867.114,602.544,867.1,602.288,867.1,602.037Z" transform="translate(-852.311 -563.598)" fill="#eb9266"/>
          <path id="Path_5380" data-name="Path 5380" d="M860.62,607.811a7.789,7.789,0,0,0,2.812.467,2.521,2.521,0,0,0,.587.027,4.582,4.582,0,0,0,.811-.035,1.952,1.952,0,0,0,.335-.045,3.694,3.694,0,0,0,.777-.231,1.552,1.552,0,0,1-.453-.711,2.984,2.984,0,0,1-.711.207.749.749,0,0,1-.2.031c-.088,0,.022.005-.017,0-.236-.038-.234.04-.53.021a3.012,3.012,0,0,1-.687-.022,7.011,7.011,0,0,1-2.5-.419,7.354,7.354,0,0,1-3.588-4.79c-.11-.469-.109-.434-.391-.337s-.333.06-.225.546A8.069,8.069,0,0,0,860.62,607.811Z" transform="translate(-850.52 -565.553)" fill="#eb9266"/>
          <path id="Path_5381" data-name="Path 5381" d="M857.593,613.646a5.877,5.877,0,0,0,2.668-.076,5.566,5.566,0,0,0,2.787-1.349c.1-.078.114-.171.169-.284a2.774,2.774,0,0,0,.238-1.294,3.442,3.442,0,0,0-.063-.435.518.518,0,0,0-.226-.292c-.071-.048,0-.021-.033-.021a.946.946,0,0,0-.466.044c-.133.08-.1.146-.106.307s.088.256.046.48.046.57-.184.8a3.86,3.86,0,0,1-2.423,1.31,5.1,5.1,0,0,1-2.316.054,8.975,8.975,0,0,1-4.473-3.809c-.22-.407-.252-.355-.5-.2s-.294.145-.078.553A9.765,9.765,0,0,0,857.593,613.646Z" transform="translate(-849.102 -567.927)" fill="#eb9266"/>
          <path id="Path_5059-3" data-name="Path 5059" d="M1183.951,574.894c-3.848,1.261-7.747,2.311-11.662,3.378-2.016.55-4.09,1.055-6.118,1.561.175-3.479-.092-6.547-2.061-9.457-1.492-2.206-3.371-1.879-5.063-4.314a12.21,12.21,0,0,1,.111-13.709c2.03-2.991,5.466-3.793,8.454-5.056a14.01,14.01,0,0,1,10-.162c3.163,1.262,3.026,6.742,3.083,7.986.146,3.223-.883,3.04-.829,5.509a28.29,28.29,0,0,0,1.889,9.044A54.553,54.553,0,0,0,1183.951,574.894Z" transform="translate(-954.553 -546.29)" fill="#f0ad8c"/>
          <path id="Path_5060-3" data-name="Path 5060" d="M1138.086,650.26a57.247,57.247,0,0,0,3.283-13.093c1.108-7.262.627-12.529,1.51-19.943,1.328-11.165-.193-14.964.434-24.959,7.728-2.07,15.351-5.883,23.2-7.589,10.653,19.436,15.936,47.927,10.843,68.553-6.408,25.954-19.96,42.259-28.116,66.861a362.762,362.762,0,0,0-10.818,39.529c-.174-17.648-3.569-33.671-12.739-49.26-6.061-10.3-16.075-18.183-24.721-26.94a64.272,64.272,0,0,0,10.983-4.907C1116.441,675.976,1131.459,667.228,1138.086,650.26Z" transform="translate(-935.149 -559.583)" fill="#c5e3e8"/>
          <path id="Path_5382" data-name="Path 5382" d="M1175.794,565.57c.1.593-.74,1.3-1.043,1.447-1.17.583-2,.241-3.056.025-.809-.167-1.049-.5-1.846-.083-.225.116-.391.943-.46,1.318-.012.063-.164.543-.205.683-.259.861-.539,1.785-.8,2.614a.318.318,0,0,1-.3.264c-.143.029-.052.06-.195-.024a.34.34,0,0,1-.2-.456c.265-.82.543-1.748.8-2.609.042-.139.184-.6.2-.683.131-.564.333-1.439.748-1.7.9-.567,1.539-.244,2.421-.022a3.73,3.73,0,0,0,2.445.112,1.389,1.389,0,0,0,.757-.82c.053-.279.056.149,0-.1a.869.869,0,0,0-.426-.586,11.123,11.123,0,0,0-1.759-.949c-.119-.052-.226-.105-.371-.17s-.488-.222-.628-.28a8.017,8.017,0,0,0-3.7-.792,2.648,2.648,0,0,0-.393.077,4.087,4.087,0,0,0-.665.213,8.142,8.142,0,0,0-2.779,2.147c-.232.271-.31.252-.519.1s-.285-.237-.061-.515a8.731,8.731,0,0,1,3.028-2.386,4.074,4.074,0,0,1,.68-.229,3.534,3.534,0,0,1,.6-.124,8.682,8.682,0,0,1,3.96.776c.19.077.481.213.662.294s.332.153.492.225a10.832,10.832,0,0,1,2.037,1.152,2.164,2.164,0,0,1,.46.568A1.016,1.016,0,0,1,1175.794,565.57Z" transform="translate(-956.848 -551.739)" fill="#eb9266"/>
          <path id="Path_5383" data-name="Path 5383" d="M1168.558,561.007a1.31,1.31,0,0,0-.7.218c-.253-.49-.115-.214-.461-.886s-1.182-2.251-1.615-3.124a.356.356,0,1,1,.632-.326c.482.881,1.319,2.521,1.68,3.21S1168.3,560.5,1168.558,561.007Z" transform="translate(-957.579 -549.888)" fill="#eb9266"/>
          <path id="Path_5384" data-name="Path 5384" d="M1175.842,560.891a6.387,6.387,0,0,0,.172-.665,1.759,1.759,0,0,0,.044-.266,8.894,8.894,0,0,0-2.139-6.165c-.317-.384-.321-.258-.54-.06s-.284.17.016.544a8.187,8.187,0,0,1,1.943,5.556c0,.008,0,.029,0,.041-.045.243-.1.485-.167.723C1175.394,560.7,1175.614,560.807,1175.842,560.891Z" transform="translate(-960.161 -548.803)" fill="#eb9266"/>
          <path id="Path_5385" data-name="Path 5385" d="M1183.146,557.955a6.131,6.131,0,0,1-.8,2.329c-.236.5-.133.189-.27.439a3.682,3.682,0,0,1-.429.569,1.6,1.6,0,0,1-.206.224,3.439,3.439,0,0,1-.584.464,1.189,1.189,0,0,0-.406-.605,2.793,2.793,0,0,0,.53-.426c.1-.1.08-.067.126-.132s-.007.02.008-.013c.086-.195.148-.145.28-.373s.106-.052.322-.508a5.465,5.465,0,0,0,.709-2.067,8.1,8.1,0,0,0-1.939-5.474c-.3-.348-.233-.351-.014-.546s.224-.292.54.064A8.81,8.81,0,0,1,1183.146,557.955Z" transform="translate(-962.617 -548.15)" fill="#eb9266"/>
          <path id="Path_5386" data-name="Path 5386" d="M1187.345,557.862a5.918,5.918,0,0,1-1.253,2.1,4.724,4.724,0,0,1-2.44,1.554.749.749,0,0,1-.333.007,3.282,3.282,0,0,1-1.26-.34,3.767,3.767,0,0,1-.353-.216.386.386,0,0,1-.149-.277c-.01-.076-.022-.005,0-.034.069-.1.137-.257.267-.317s.179-.016.322.046.189.167.4.223.5.263.8.185a3.456,3.456,0,0,0,2.213-1.316,5.265,5.265,0,0,0,1.1-1.855,8.349,8.349,0,0,0-.79-5.711c-.236-.392-.151-.393.1-.542s.272-.218.512.169A9.064,9.064,0,0,1,1187.345,557.862Z" transform="translate(-963.054 -548.008)" fill="#eb9266"/>
        </g>
        <path id="Path_5044-3" data-name="Path 5044" d="M1373.246,1093.733c.4.14.924.807,1.192.887,2.189.648,5.483,7.473,5.777,8.307,4.559,12.917,13.961,28.845,7.757,41.659-1.6,3.3-3.666,3.325-7.856,4.622-.574.177-6.455,1.878-9.3-1.692s-6.793-13.059-8.153-19.291c-1-4.577-4.706-10.277-7.806-14.189-.117-.147-.4-.005-.532-.521-1.762-6.881.661-11.849,6.2-16.748C1363.622,1094.026,1368.934,1092.21,1373.246,1093.733Z" transform="translate(-1022.693 -735.682)" fill="#c5e3e8"/>
        <path id="Path_5044-4" data-name="Path 5044" d="M955.573,1304.925c-.182.4-.973.992-1.077,1.279-.852,2.33-8.615,5.781-9.486,6.067-13.5,4.443-30.638,13.719-43.625,6.792-3.349-1.787-3.438-3.938-4.8-8.283-.187-.6-2.333-6.516,1.462-9.567s14.035-6.518,20.949-7.465c5.077-.7,11.776-4.377,16.215-7.74.167-.126.072-.429.605-.563,7.118-1.793,12.3.41,17.424,6.233C956.1,1294.935,957.55,1300.544,955.573,1304.925Z" transform="translate(-864.101 -802.055)" fill="#c5e3e8"/>
        <path id="Path_5387" data-name="Path 5387" d="M989.011,1162.963c-21.113-2.4-42.517-6.366-60.707-18.033-6.426-4.122-12.935-7.427-17.86-14.3,2.863-11.077,13.278-40.773,15.61-49.011,8.351-29.5,10.523-54.654,18.184-79.348,5.8-18.71,7.841-23.285,15.761-38.851,13.447-26.43,32.83-50.13,44.816-77.651a11.1,11.1,0,0,0,.731-1.521,236.7,236.7,0,0,0,27.413,11.523c9.418,3.159,19.129,5.065,28.73,7.214-9.79,23.158-18.676,50.4-32.822,70.3-1.82,2.56-1.427,1.953-1.466,1.927s-.226.236-.248.265a55.937,55.937,0,0,0-10.014,23c-2.32,15.861-8.152,31.2-9.216,47.2C1006.592,1065.673,1001.95,1099.879,989.011,1162.963Z" transform="translate(-869.169 -663.327)" fill="#eb9266"/>
        <path id="Path_5388" data-name="Path 5388" d="M1089.824,892.243c1-5.109,1.939-10.234,5.428-13.176,17.158-14.467,39.641-4.1,56.254,5.957a266.9,266.9,0,0,1,2.2,29.029c.029,1.277.046,2.369.051,2.932.234,23.545-11.458,38.7-5.9,47.458,10.155,15.993,38.226,13.034,57.046,16.75,17.267,3.41,42.652,9.516,59.929,17.873,5.535,11.756,7.761,23.526,6.353,36.15-1.705,15.287-8.569,27.4-18.147,39-7.959-2.491-16.62-4.741-24.163-6.605-29.311-7.246-53.208-5.787-84.029-14.38-18.869-5.261-50.182-12.736-60.066-36.771a118.809,118.809,0,0,1-9.038-42.534c-.1-4.31-1.676-12.39-.948-24.282C1075.658,935.628,1080.306,906.642,1089.824,892.243Z" transform="translate(-926.021 -659.06)" fill="#eb9266"/>
        <path id="Path_5389" data-name="Path 5389" d="M1111.528,808.766c7.008,19.933,14.3,39.786,20.9,59.851-1.99,1.6-6.538,3.1-8.74,4.322-19.626,10.886-49.792,14.673-69.654,12.853-20.5-1.879-27.991-6.043-45.545-11.391a28.917,28.917,0,0,0,4.885-14.692c.473-14.115-3.5-24.941-10.349-36.947" transform="translate(-901.231 -637.188)" fill="#c5e3e8"/>
      </g>
      <g id="Group_4214" data-name="Group 4214" transform="translate(280.085 0)">
        <path id="Path_5390" data-name="Path 5390" d="M632.412,501.074c-10.418-30.8,2.577-63.705,29.317-78.353l-3.955-11.693c-11.6-34.3-47.932-53-81.149-41.769s-50.739,48.148-39.138,82.45l45.8,135.42,120.288-40.681h0l-50.087,16.939Z" transform="translate(-533.907 -365.996)" fill="#bcdfe5"/>
        <path id="Path_5391" data-name="Path 5391" d="M738.175,449.275h0a62.122,62.122,0,0,0-9.95,4.368c-26.74,14.647-39.735,47.548-29.317,78.353l21.074,62.314,50.087-16.94,10.255-3.468c33.325-11.27,50.905-48.305,39.267-82.721S771.5,438,738.175,449.275Zm2.747,82.566a7.084,7.084,0,1,1,4.227-8.9A6.97,6.97,0,0,1,740.923,531.842Zm22.592-7.64a7.084,7.084,0,1,1,4.227-8.9A6.97,6.97,0,0,1,763.514,524.2Zm22.592-7.64a7.084,7.084,0,1,1,4.227-8.9A6.97,6.97,0,0,1,786.107,516.561Z" transform="translate(-589.804 -393.702)" fill="#eb9266"/>
      </g>
      <path id="Path_5392" data-name="Path 5392" d="M1050.788,803.3" transform="translate(-432.822 -517.44)" fill="#c5e3e8"/>
      <path id="Path_5393" data-name="Path 5393" d="M793.357,818.276" transform="translate(-343.671 -522.624)" fill="#eb9266"/>
    </g>
  </g>
</svg>
