<svg xmlns="http://www.w3.org/2000/svg" width="598.569" height="401.884" viewBox="0 0 598.569 401.884">
  <g id="Group_4133" data-name="Group 4133" transform="translate(-64 -475.472)">
    <path id="Path_4990" data-name="Path 4990" d="M859.538,491.35c20.24-16.909,51.765-20.9,76.071-9.128,28.006,13.564,43.544,46.659,42.165,72.593-.914,17.182-9.045,30.456-.869,44.338,5.02,8.523,10.777,7.741,17.388,16.518,9.773,12.976,10.87,32.847,6.086,44.338-13.83,33.222-95.465,41.21-144.317,9.563-3.788-2.454-33.933-22.4-30.428-40.426,1.9-9.784,12.476-12.648,15.649-26.081,2.684-11.363-2.4-19.843-5.216-28.255C827.7,549.872,835.334,511.571,859.538,491.35Z" transform="translate(-430.398)" fill="#3e4e7e"/>
    <path id="Path_4991" data-name="Path 4991" d="M299.821,913.869c-.113.213-.226.422-.339.639a55.367,55.367,0,0,0-4.751,12.254q-.456,1.813-.778,3.677c-.6-.243-1.178-.478-1.739-.7.578.248,1.156.491,1.734.739-.143.856-.265,1.717-.365,2.591a45.421,45.421,0,0,0-.283,4.712c-.048,5.86,1.065,8.546-.869,11.3-4.377,6.229-19.231,5.547-28.69,0-10.854-6.364-14.253-18.918-15.275-27.416a52.742,52.742,0,0,1-.374-8.663Z" transform="translate(-104.045 -247.339)" fill="#f0ad8c"/>
    <path id="Path_4992" data-name="Path 4992" d="M398.609,696.712c4.722,5.3,7.1,11.854,8.259,21.734.987,8.438,1.522,23.086-3.912,41.73-18.4-55.171-18.716-68.777-15.214-70.42C390.5,688.461,396.414,694.25,398.609,696.712Z" transform="translate(-182.032 -121.032)" fill="#3e4e7e"/>
    <path id="Path_4993" data-name="Path 4993" d="M672.367,811q-13.8,31.839-27.6,63.682a182.849,182.849,0,0,1-17.283,17.961,167.2,167.2,0,0,1-41.4,27.681c-40.93,19.174-80.392,16.918-102.587,15.649A258.27,258.27,0,0,1,453.5,932.5a20.1,20.1,0,0,0,3.912-23.908c56.14-13.162,88.377-28.968,107.8-41.73,1.556-1.022,22.026-14.5,48.685-29.994,8.324-4.838,18.413-11.719,33.471-17.822,2.46-1,4.838-1.9,7.116-2.708,4.582-1.63,8.768-2.912,12.419-3.917C668.893,811.865,670.724,811.4,672.367,811Z" transform="translate(-220.188 -189.677)" fill="#c5e3e8"/>
    <path id="Path_4994" data-name="Path 4994" d="M983.13,568.878h0a54.3,54.3,0,0,0-54.3-54.3h-.663a53.637,53.637,0,0,0-53.636,53.636h0c0,29.372,23.067,53.941,52.421,54.931a54.3,54.3,0,0,0,56.178-54.267" transform="translate(-458.201 -22.107)" fill="#f0ad8c"/>
    <path id="Path_4995" data-name="Path 4995" d="M982.269,696.215a21.21,21.21,0,0,1-3.149-.238,21.57,21.57,0,0,1-6.048-1.818l.96-1.95a19.266,19.266,0,0,0,5.411,1.619,17.014,17.014,0,0,0,10.495-1.611,17.793,17.793,0,0,0,9.538-15.918l2.173.009a20.584,20.584,0,0,1-2.909,10.5,19.478,19.478,0,0,1-7.811,7.348,18.666,18.666,0,0,1-6.3,1.924A19.741,19.741,0,0,1,982.269,696.215Z" transform="translate(-513.907 -113.529)" fill="#26386e"/>
    <path id="Path_4996" data-name="Path 4996" d="M953.894,640.59a31.059,31.059,0,0,1-5.441-5.3,5.613,5.613,0,0,1-.927-1.808,2.374,2.374,0,0,1,.11-1.655c.5-1.053,1.626-1.317,2.717-1.572a6.09,6.09,0,0,0,3.424-1.676,5.785,5.785,0,0,0,1.247-2.541c1.705-6.123,4.343-18.772,4.455-19.307l2.128.443c-.112.538-2.764,13.255-4.489,19.447a7.844,7.844,0,0,1-1.733,3.421,8.093,8.093,0,0,1-4.537,2.33,9.626,9.626,0,0,0-.95.252,1.124,1.124,0,0,0-.294.139c0,.087.037.517.791,1.5a31.917,31.917,0,0,0,4.872,4.643Z" transform="translate(-499.411 -74.204)" fill="#26386e"/>
    <path id="Path_4997" data-name="Path 4997" d="M942,748.869a51.012,51.012,0,0,1,6.52,23.908c.047,5.86-1.066,8.546.869,11.3,4.376,6.229,19.23,5.544,28.69,0,16.908-9.91,15.725-34.846,15.649-36.079" transform="translate(-496.342 -154.063)" fill="#f0ad8c"/>
    <path id="Path_4998" data-name="Path 4998" d="M928.915,740.957c.658-.547,5.082,5.849,13.91,8.694a32.515,32.515,0,0,0,11.3,1.3,50.79,50.79,0,0,0,19.561-4.347,27.358,27.358,0,0,1-8.259,8.259c-6.429,4.087-12.92,4.283-16.518,4.347a37.41,37.41,0,0,1-8.694-.869C930.358,744.946,928.442,741.35,928.915,740.957Z" transform="translate(-488.907 -150.062)" fill="#3e4e7e" opacity="0.19"/>
    <path id="Path_4999" data-name="Path 4999" d="M901.427,505.711c-.688,2.456,1.293,5.817,14.474,14.733,31.524,21.325,86.366,46.868,95.891,35.469,6.753-8.082-10.017-33.839-32.567-46.928C947.847,490.772,904.045,496.378,901.427,505.711Z" transform="translate(-473.338 -12.17)" fill="#3e4e7e"/>
    <path id="Path_5000" data-name="Path 5000" d="M1043.781,877.654c-24.721-52.854-34.08-68.833-51.294-73.463-7.92-2.13-19.613-2.465-40.209-9.346a210.058,210.058,0,0,1-23.256-9.346,31.926,31.926,0,0,1-6.086,10.432c-9.133,10.367-26.581,15.9-33.689,9.346-1.221-1.126-3.121-3.517-3.477-8.694q-2.732.711-5.46,1.417c-3.651,1-7.837,2.286-12.419,3.917q-13.5,38.151-27.007,76.31c-.035.1-.07.2-.1.3a149.97,149.97,0,0,1,11.3,45.643c3.647,43.265-12.789,76.658-21.083,91.068q84.113,3.7,168.225,7.39.006-6.683.009-13.362c25.808,1.022,67.055-4.556,79.757-29.889C1081.686,974,1084.555,964.827,1043.781,877.654Zm-44.517,87.812q.013-23.493.031-46.986,7.925,12.019,16.748,24.432,5.947,8.35,11.872,16.246Z" transform="translate(-433.592 -175.262)" fill="#c5e3e8"/>
    <ellipse id="Ellipse_201" data-name="Ellipse 201" cx="3.043" cy="5.036" rx="3.043" ry="5.036" transform="translate(435.008 536.124)" fill="#26386e"/>
    <ellipse id="Ellipse_202" data-name="Ellipse 202" cx="3.043" cy="5.036" rx="3.043" ry="5.036" transform="translate(475.217 536.483)" fill="#26386e"/>
    <path id="Path_5001" data-name="Path 5001" d="M1020.052,1202.876a46.682,46.682,0,0,0-14.345,1.3c-9.083,2.288-14.955,6.732-20.865,11.3-3.819,2.953-14.6,11.29-13.041,14.345,1.266,2.48,10.191.539,14.78-.869,9.6-2.947,11.639-7.062,17.388-8.259,4.776-.995,12.161.016,23.039,10,5.856-6.536,6.905-15.349,3.043-21.3C1026.937,1204.6,1021.65,1203.227,1020.052,1202.876Z" transform="translate(-513.102 -411.154)" fill="#f0ad8c"/>
    <path id="Path_5002" data-name="Path 5002" d="M378.052,1021.876a46.681,46.681,0,0,0-14.345,1.3c-9.083,2.288-14.955,6.732-20.865,11.3-3.819,2.953-14.6,11.29-13.041,14.345,1.266,2.48,10.191.539,14.779-.869,9.6-2.947,11.639-7.062,17.388-8.259,4.776-.995,12.161.016,23.039,10,5.856-6.536,6.905-15.349,3.043-21.3C384.937,1023.6,379.65,1022.227,378.052,1021.876Z" transform="translate(-150.173 -308.834)" fill="#f0ad8c"/>
    <path id="Path_5003" data-name="Path 5003" d="M293.389,733.216c0,.317,0,.635-.013.948a55.3,55.3,0,0,1-15.192,37.162,53.672,53.672,0,0,1-37.218,16.823,54.3,54.3,0,1,1-1.878-108.568h.665A53.635,53.635,0,0,1,293.389,733.216Z" transform="translate(-68.284 -115.384)" fill="#f0ad8c"/>
    <path id="Path_5004" data-name="Path 5004" d="M333.174,865.759a16.152,16.152,0,0,1-1.932-.115,15.285,15.285,0,0,1-5.158-1.575,15.941,15.941,0,0,1-6.393-6.014,16.834,16.834,0,0,1-2.38-8.584l2.173-.009a14.165,14.165,0,0,0,7.59,12.673,13.539,13.539,0,0,0,8.35,1.28,15.342,15.342,0,0,0,4.309-1.288l.959,1.95a17.643,17.643,0,0,1-4.946,1.487A17.338,17.338,0,0,1,333.174,865.759Z" transform="translate(-143.2 -211.42)" fill="#26386e"/>
    <path id="Path_5005" data-name="Path 5005" d="M364.819,800.59l-1.373-1.685a31.917,31.917,0,0,0,4.872-4.643c.754-.979.793-1.41.791-1.5a1.125,1.125,0,0,0-.294-.139,9.642,9.642,0,0,0-.95-.252,8.092,8.092,0,0,1-4.537-2.33,7.844,7.844,0,0,1-1.733-3.421c-1.724-6.191-4.377-18.908-4.489-19.447l2.128-.443c.111.535,2.75,13.184,4.455,19.307a5.786,5.786,0,0,0,1.247,2.541,6.09,6.09,0,0,0,3.424,1.676c1.091.255,2.218.518,2.717,1.572a2.374,2.374,0,0,1,.11,1.654,5.613,5.613,0,0,1-.927,1.808A31.061,31.061,0,0,1,364.819,800.59Z" transform="translate(-165.696 -164.653)" fill="#26386e"/>
    <path id="Path_5006" data-name="Path 5006" d="M351.389,952.2a.1.1,0,0,1,0,.035c-.578-.248-1.156-.491-1.734-.739C350.211,951.726,350.793,951.961,351.389,952.2Z" transform="translate(-161.481 -269.103)" fill="#f0ad8c"/>
    <path id="Path_5007" data-name="Path 5007" d="M315.933,916.47a55.371,55.371,0,0,0-4.751,12.254c-.065.2-.13.391-.191.583a38.533,38.533,0,0,1-9.063.869c-3.5-.08-10.04-.232-16.518-4.347a27.311,27.311,0,0,1-8.259-8.259,56.52,56.52,0,0,0,19.561,4.347,31.238,31.238,0,0,0,11.3-1.3A27.905,27.905,0,0,0,315.933,916.47Z" transform="translate(-120.496 -249.3)" fill="#3e4e7e" opacity="0.19"/>
    <ellipse id="Ellipse_203" data-name="Ellipse 203" cx="3.043" cy="4.564" rx="3.043" ry="4.564" transform="translate(172.673 606.543)" fill="#26386e"/>
    <ellipse id="Ellipse_204" data-name="Ellipse 204" cx="3.043" cy="4.564" rx="3.043" ry="4.564" transform="translate(206.144 604.805)" fill="#26386e"/>
    <path id="Path_5008" data-name="Path 5008" d="M173.4,714.137c2.471-.1.331-14.16,10.867-31.3,4.23-6.881,9.984-16.24,20.43-20.43,14.663-5.882,21.759,5.165,44.773,1.739,8.232-1.225,18.875-2.971,24.777-11.737,4.157-6.174,5.8-15.589,2.173-22.6-7.117-13.769-31.661-12.739-45.208-12.171-21.668.909-45,1.887-59.553,20C148.172,666.872,168.841,714.316,173.4,714.137Z" transform="translate(-54.633 -80.209)" fill="#3e4e7e"/>
    <path id="Path_5009" data-name="Path 5009" d="M263.017,1025.767c-.84,10.936-2.554,8.728-11.3,45.642-4.058,17.125-6.918,31.223-8.694,40.426q-61.076,1.089-122.148,2.174c-.717-10.278-1.654-25.038-2.456-42.817-3.789-84.057,1.46-102.573,13.041-112.15,3.746-3.1,13.984-10.08,24.625-16.3,7.524-4.4,13.964-7.663,18.413-9.811,1.022,8.5,4.421,21.052,15.275,27.416,9.459,5.547,24.312,6.229,28.69,0,1.934-2.756.822-5.442.869-11.3a45.412,45.412,0,0,1,.283-4.712c.1-.874.222-1.734.365-2.591q7.068,3.006,14.14,6.007l.057.026C237.362,949.247,266.453,981.025,263.017,1025.767Z" transform="translate(-30.074 -258.605)" fill="#c5e3e8"/>
    <path id="Path_5010" data-name="Path 5010" d="M350.951,967a199.153,199.153,0,0,1,24.777,29.295c23.6,33.931,49.226,91.922,36.514,111.545-2.449,3.781-5.867,5.435-63.465,5.634-8.565.029-15.736.018-20.865,0a22.536,22.536,0,0,0,2.173-15.774,16.834,16.834,0,0,0-6.086-9.577l34.775-17.464c-2.079-6.162-4.127-12.738-6.086-19.718-2.831-10.087-5.111-19.715-6.955-28.731" transform="translate(-146.98 -277.865)" fill="#c5e3e8"/>
    <path id="Path_5011" data-name="Path 5011" d="M351.72,1265.913a26.442,26.442,0,0,1,8.127.739c5.147,1.3,8.473,3.814,11.821,6.4,3.307,2.557,8.183,6.212,7.388,8.127-.274.662-1.19,1.031-6.868,1.256-5.294.209-8.829.06-11.737,0-9.9-.2-10.879.667-12.673-.764a9.615,9.615,0,0,1-1.724-12.068A9.325,9.325,0,0,1,351.72,1265.913Z" transform="translate(-158.655 -446.813)" fill="#f0ad8c"/>
    <path id="Path_5012" data-name="Path 5012" d="M251.712,1219.149a102.818,102.818,0,0,1-58.893-26.292,108.456,108.456,0,0,1-14.723-16.4l.351-.256a105.427,105.427,0,0,0,41.21,33.836,102.977,102.977,0,0,0,32.1,8.676Z" transform="translate(-64.5 -396.131)" fill="#3e4e7e" opacity="0.51"/>
    <rect id="Rectangle_3242" data-name="Rectangle 3242" width="539.886" height="41.296" transform="translate(70.955 836.06)" fill="#fff"/>
    <path id="Path_5013" data-name="Path 5013" d="M332.336,613.27c.5-.239,3.083-1.518,3.478-3.912.441-2.674-2.149-4.887-3.043-5.651-5.122-4.377-14.143-2.1-21.3-.435-7.864,1.827-19.095,4.211-33.471,6.52" transform="translate(-120.976 -71.061)" fill="#3e4e7e"/>
    <circle id="Ellipse_205" data-name="Ellipse 205" cx="9.998" cy="9.998" r="9.998" transform="translate(481.303 545.687)" fill="#f3bba0"/>
    <circle id="Ellipse_206" data-name="Ellipse 206" cx="9.998" cy="9.998" r="9.998" transform="translate(417.838 545.687)" fill="#f3bba0"/>
    <path id="Path_5014" data-name="Path 5014" d="M420.124,805.065a55.01,55.01,0,0,1-3.912,19.531A10,10,0,0,1,419,805,9.6,9.6,0,0,1,420.124,805.065Z" transform="translate(-195.032 -186.285)" fill="#f3bba0"/>
    <circle id="Ellipse_207" data-name="Ellipse 207" cx="9.998" cy="9.998" r="9.998" transform="translate(147.895 618.715)" fill="#f3bba0"/>
    <path id="Ellipse_208" data-name="Ellipse 208" d="M17.844-1.5A19.338,19.338,0,0,1,31.522,31.522,19.344,19.344,0,1,1,10.314.02,19.223,19.223,0,0,1,17.844-1.5Zm0,37.383A18.04,18.04,0,1,0-.2,17.844,18.06,18.06,0,0,0,17.844,35.883Z" transform="translate(414.339 523.496)" fill="#c5e3e8"/>
    <path id="Ellipse_209" data-name="Ellipse 209" d="M17.844-1.5A19.338,19.338,0,0,1,31.522,31.522,19.344,19.344,0,1,1,10.314.02,19.223,19.223,0,0,1,17.844-1.5Zm0,37.383A18.04,18.04,0,1,0-.2,17.844,18.06,18.06,0,0,0,17.844,35.883Z" transform="translate(463.677 523.713)" fill="#c5e3e8"/>
    <g id="Group_4132" data-name="Group 4132" transform="translate(64 810.712)">
      <rect id="Rectangle_3166" data-name="Rectangle 3166" width="222.46" height="15.082" transform="translate(164.017 0.943)" fill="#f6fafa"/>
      <path id="Line_155" data-name="Line 155" d="M-.065,11.312H-.5V0h.435Z" transform="translate(276.001 0)" fill="#5e6c94"/>
      <rect id="Rectangle_3165" data-name="Rectangle 3165" width="222.46" height="9.426" transform="translate(164.017 16.025)" fill="#5e6c94"/>
      <path id="Line_154" data-name="Line 154" d="M598.569-.065H0V-.5H598.569Z" transform="translate(0 25.262)" fill="#3e4e7e"/>
      <rect id="Rectangle_3164" data-name="Rectangle 3164" width="516.56" height="39.59" transform="translate(20.738 25.451)" fill="#fff"/>
    </g>
    <path id="Path_5015" data-name="Path 5015" d="M207.582,639.289a15.029,15.029,0,0,1,1.739-7.824c.749-1.346,1.62-2.327,1.3-3.478-.422-1.536-2.785-2.742-3.912-2.173-1.255.633-1.661,3.806.869,13.475" transform="translate(-80.117 -84.909)" fill="#3e4e7e"/>
    <path id="Path_5016" data-name="Path 5016" d="M200.888,642.188a15.027,15.027,0,0,0-6.505-4.683c-1.454-.506-2.758-.659-3.288-1.728-.707-1.427.254-3.9,1.474-4.226,1.358-.363,3.772,1.735,8.319,10.637" transform="translate(-71.712 -88.211)" fill="#3e4e7e"/>
  </g>
</svg>
