<svg xmlns="http://www.w3.org/2000/svg" width="568.3" height="470.639" viewBox="0 0 568.3 470.639">
  <g id="Group_4147" data-name="Group 4147" transform="translate(-187 -321)">
    <circle id="Ellipse_224" data-name="Ellipse 224" cx="219" cy="219" r="219" transform="translate(187 321)" fill="#c9e5ea" opacity="0.19"/>
    <g id="Artwork_17" data-name="Artwork 17" transform="translate(761.935 758.046) rotate(173)">
      <g id="Group_4139" data-name="Group 4139" transform="translate(0 0)">
        <g id="Group_4137" data-name="Group 4137" transform="translate(0 54.443)">
          <path id="Path_5041" data-name="Path 5041" d="M491.65,0,463.8,28.6,1.217,86.49.2,86.849l-.2.07,5.655-.391L485.628,53.189c.063-.555.125-1.107.188-1.661Z" transform="translate(1.101 73.26)" fill="#eb9266"/>
          <path id="Path_5042" data-name="Path 5042" d="M467.662,106.378c-.108-.823-.218-1.646-.326-2.469Q460.471,51.956,453.612,0,227.964,79.874,2.318,159.75l-1.014.359-.2.07-.825.294-.276.1.968-.113,5.788-.67,3.033-.351Z" transform="translate(0 0)" fill="rgba(235,146,102,0.46)"/>
          <path id="Path_5043" data-name="Path 5043" d="M546.667,43.655l-60.026-40.8L482.439,0Q245.979,18.749,9.514,37.5l-8.485.672-.2.07L0,38.539l.692-.015Q88.266,36.741,175.85,36.63,361.252,36.4,546.667,43.655Z" transform="translate(0.276 121.933)" fill="rgba(235,146,102,0.46)"/>
        </g>
        <path id="Path_5044" data-name="Path 5044" d="M38.1,26.844c-2-.292-2.3-1.742-5.306-3.745-1.016-.677-3.775-2.376-13.109-3.59C8.4,18.041,5.333,19.6,2.671,16.7.543,14.383.16,10.839.018,9.521A57.016,57.016,0,0,1,.486,1.406,74.353,74.353,0,0,1,15.311,0,57.955,57.955,0,0,1,34.819,2.966c7.518,2.661,14,4.956,14.981,10.144C51.018,19.556,43.2,27.59,38.1,26.844Z" transform="translate(200.637 4.014)" fill="#c5e3e8"/>
        <path id="Path_5045" data-name="Path 5045" d="M38.1,26.843A28.1,28.1,0,0,0,32.79,23.1c-2.62-1.425-5.892-2.651-13.109-3.589C8.4,18.041,5.333,19.6,2.671,16.7.543,14.383.16,10.839.017,9.521A57.012,57.012,0,0,1,.486,1.406,74.36,74.36,0,0,1,15.311,0c5.8.034,12.174.071,19.507,2.965C41.5,5.6,48.162,7.557,49.8,13.11a11.774,11.774,0,0,1-.926,8.09" transform="translate(225.476 0)" fill="#b4dbe2"/>
        <path id="Path_5046" data-name="Path 5046" d="M19.733,114.4c11.682,9.76,29.877,12.063,43.906,5.269,16.164-7.829,25.132-26.93,24.336-41.9-.527-9.917-5.221-17.578-.5-25.591,2.9-4.919,6.22-4.468,10.036-9.534,5.641-7.489,6.273-18.959,3.512-25.591-7.983-19.175-55.1-23.785-83.3-5.52C15.539,12.951-1.859,24.461.163,34.868c1.1,5.647,7.2,7.3,9.032,15.053,1.549,6.559-1.383,11.453-3.011,16.308C1.358,80.624,5.763,102.73,19.733,114.4Z" transform="translate(245.209 295.305)" fill="#3e4e7e"/>
        <path id="Path_5047" data-name="Path 5047" d="M62.68,31.34h0A31.34,31.34,0,0,1,31.34,62.681h-.383A30.958,30.958,0,0,1,0,31.723H0a31.341,31.341,0,1,1,62.68-.383" transform="translate(257.548 346.379)" fill="#f0ad8c"/>
        <path id="Path_5048" data-name="Path 5048" d="M6.941,18.926c-.064-.307-1.6-7.649-2.581-11.184A3.938,3.938,0,0,0,3.5,6.022C2.225,4.62.419,5.062.059,4.3-.195,3.765.269,2.633,3.5,0" transform="translate(276.465 366.884)" fill="none" stroke="#26386e" stroke-linecap="round" stroke-width="1.415"/>
        <path id="Path_5049" data-name="Path 5049" d="M0,22.873a29.443,29.443,0,0,0,3.763-13.8c.027-3.382-.615-4.933.5-6.523,2.526-3.6,11.1-3.2,16.559,0,9.759,5.72,9.076,20.112,9.032,20.824" transform="translate(274.475 327.121)" fill="#f0ad8c"/>
        <path id="Path_5050" data-name="Path 5050" d="M.038,10.541c.38.316,2.933-3.376,8.029-5.018a18.773,18.773,0,0,1,6.523-.753A29.316,29.316,0,0,1,25.88,7.279a15.792,15.792,0,0,0-4.767-4.767A17.579,17.579,0,0,0,11.579,0a21.59,21.59,0,0,0-5.018.5C.871,8.239-.235,10.314.038,10.541Z" transform="translate(271.176 341.711)" fill="#3e4e7e" opacity="0.19"/>
        <path id="Path_5051" data-name="Path 5051" d="M.069,30.6c-.4-1.418.746-3.357,8.354-8.5C26.618,9.787,58.271-4.956,63.769,1.624c3.9,4.665-5.782,19.531-18.8,27.085C26.86,39.221,1.58,35.986.069,30.6Z" transform="translate(264.266 377.843)" fill="#3e4e7e"/>
        <path id="Path_5052" data-name="Path 5052" d="M5.52.878A3.067,3.067,0,0,0,5.393,0,2.782,2.782,0,0,1,2.76,2.027,2.782,2.782,0,0,1,.126,0,3.071,3.071,0,0,0,0,.878,2.834,2.834,0,0,0,2.76,3.783,2.834,2.834,0,0,0,5.52.878Z" transform="translate(264.691 379.872)" fill="#26386e"/>
        <path id="Path_5053" data-name="Path 5053" d="M5.52.878A3.067,3.067,0,0,0,5.393,0,2.782,2.782,0,0,1,2.76,2.027,2.782,2.782,0,0,1,.126,0,3.071,3.071,0,0,0,0,.878,2.834,2.834,0,0,0,2.76,3.783,2.834,2.834,0,0,0,5.52.878Z" transform="translate(288.776 379.872)" fill="#26386e"/>
        <ellipse id="Ellipse_212" data-name="Ellipse 212" cx="5.771" cy="5.771" rx="5.771" ry="5.771" transform="translate(295.048 366.803)" fill="#f3bba0"/>
        <ellipse id="Ellipse_213" data-name="Ellipse 213" cx="5.771" cy="5.771" rx="5.771" ry="5.771" transform="translate(258.418 366.803)" fill="#f3bba0"/>
        <ellipse id="Ellipse_214" data-name="Ellipse 214" cx="10.788" cy="10.788" rx="10.788" ry="10.788" transform="translate(255.909 370.065)" fill="none" stroke="#c5e3e8" stroke-miterlimit="10" stroke-width="1.5"/>
        <ellipse id="Ellipse_215" data-name="Ellipse 215" cx="10.788" cy="10.788" rx="10.788" ry="10.788" transform="translate(284.507 368.947)" fill="none" stroke="#c5e3e8" stroke-miterlimit="10" stroke-width="1.5"/>
        <path id="Path_5054" data-name="Path 5054" d="M0,5.011a10.911,10.911,0,0,1,8.254,0,10.825,10.825,0,0,1,5.472,5.263,8.131,8.131,0,0,0-.054-4.488C12.723,2.769,9.591-.429,5.807.047A7.561,7.561,0,0,0,0,5.011Z" transform="translate(277.309 356.027)" fill="#f6fafa" stroke="#26386e" stroke-linejoin="round" stroke-width="1.132"/>
        <g id="Group_4138" data-name="Group 4138" transform="translate(238.347 203.975)">
          <path id="Path_5055" data-name="Path 5055" d="M9.684,12.918q-5.1,7.156-9.667,14.1Q.006,13.524,0,.027C.149.021.3.01.449,0L16.536,3.541Q13.12,8.1,9.684,12.918Z" transform="translate(105.397 33.089)" fill="none"/>
          <path id="Path_5056" data-name="Path 5056" d="M0,0,.449.1C.3.109.149.12,0,.127Z" transform="translate(105.397 32.99)" fill="#c5e3e8"/>
          <path id="Path_5057" data-name="Path 5057" d="M131.091,83.672c-14.268,30.506-19.67,39.729-29.605,42.4-4.571,1.229-11.32,1.423-23.208,5.394a121.233,121.233,0,0,0-13.423,5.394,18.425,18.425,0,0,0-3.513-6.021C56.072,124.856,46,121.662,41.9,125.446c-.705.65-1.8,2.03-2.007,5.018l-3.151-.818c-2.107-.58-4.523-1.32-7.168-2.261A42.01,42.01,0,0,1,0,105.876,88.227,88.227,0,0,0,20.448,56.827,88.277,88.277,0,0,0,8.279,4.265L105.375,0c0,2.572,0,30.546,0,33.118h.023q.008,13.5.018,26.992,4.574-6.937,9.666-14.1,3.432-4.819,6.852-9.377l23.584-15.555a4.476,4.476,0,0,1,2.618.132c1.786.681,2.664,2.533,3.278,3.757C152.969,28.065,154.625,33.359,131.091,83.672Z" fill="#c5e3e8"/>
        </g>
        <path id="Path_5058" data-name="Path 5058" d="M144.459,30q-16.1-11.91-32.206-23.823A105.541,105.541,0,0,0,98.424,2.2,96.5,96.5,0,0,0,69.74.353C43.751,2.615,24.693,15.156,13.975,22.21A149.138,149.138,0,0,0,0,32.622a11.838,11.838,0,0,1,6.56,4.319,11.755,11.755,0,0,1,2.309,6.491c31.847-9.664,52.52-11.094,65.914-10.339,1.073.06,15.2.872,32.992.9,5.557.009,12.587.527,21.873-.78,1.517-.214,2.965-.453,4.337-.706,2.76-.511,5.222-1.081,7.336-1.636C142.473,30.572,143.522,30.275,144.459,30Z" transform="translate(133.096 304.019)" fill="#c5e3e8"/>
        <path id="Path_5059" data-name="Path 5059" d="M31.481,15.907c-1.062.8-3.237,1.711-7.542,3.5-1.122.466-1.919.8-3.067,1.248-2.29.888-3.867,1.395-5.951,2.2C5.861,26.345,1,30.88.119,29.876c-.354-.4.163-1.408.5-2.007,4.659-8.25,16.246-11.678,15.806-14.3-.359-2.139-8.4-1.827-8.53-3.512C7.8,8.8,12.2,7.876,18.183,5.038A62.545,62.545,0,0,0,26.908,0a11.953,11.953,0,0,1,8.336,11.31A13.122,13.122,0,0,1,31.481,15.907Z" transform="translate(106.761 336.174)" fill="#f0ad8c"/>
        <path id="Path_5060" data-name="Path 5060" d="M0,40.644A100.88,100.88,0,0,1,41.648,0l9.785,7.527L25.591,53.691" transform="translate(357.019 204.226)" fill="#c5e3e8"/>
        <path id="Path_5061" data-name="Path 5061" d="M0,6.662C4.863,1.943,9.059.661,12.043.39,16.566-.021,23.7,1.4,28.1.892c1-.115,2.007-.166,3.011-.251C34.222.376,34.95.3,35.125.641c.288.565-1.1,1.95-2.258,2.76-1.11.773-3.85,2.3-8.781,1.505A88.917,88.917,0,0,0,39.139,1.644C42.487.6,44.879-.369,45.161.139c.4.718-3.634,3.988-7.778,6.272-2.834,1.563-4.846,2.182-11.039,4.014-13.467,3.984-14.621,4.21-16.559,3.763C7.82,13.736,3.864,12.316,0,6.662Z" transform="translate(398.667 197.563)" fill="#f0ad8c"/>
        <path id="Path_5062" data-name="Path 5062" d="M40.606,217.58a139,139,0,0,1,86.557-2.76,146.713,146.713,0,0,0,12.545-23.835c5.7-13.762,9.784-24.243,8.029-36.128-2.007-13.588-10.812-22.327-24.587-35.627-18.31-17.678-22.216-13.751-35.125-27.1-20.968-21.676-26.07-48-27.6-56.2a111.68,111.68,0,0,1-1-34.121A91.2,91.2,0,0,0,9.245,5.828c-1.735,24.04-3.627,43.5-5.018,56.7-3.939,37.4-6.653,51.173-1,71.253,1.695,6.024,2.854,8.035,13.046,30.107C26.888,186.884,35.247,205.524,40.606,217.58Z" transform="translate(216.558 17.505)" fill="#6e7a9e"/>
        <path id="Path_5063" data-name="Path 5063" d="M35.141,118.421c-1.441-4.539-3.747-11.4-7.025-19.569A291.271,291.271,0,0,0,12.561,66.235C6.182,54.275-.368,34.388.016,0" transform="translate(250.374 65.984)" fill="#3e4e7e" opacity="0.19"/>
        <path id="Path_5064" data-name="Path 5064" d="M21.059,33.764h0a11.61,11.61,0,0,1-1.023-1.68l-1.747,1.279A11.5,11.5,0,0,1,4.707,14.807L24.936,0,38.518,18.556h0l1.158,1.582A11.535,11.535,0,0,1,21.059,33.764Z" transform="translate(61.952 353.236)" fill="#c5e3e8"/>
      </g>
    </g>
  </g>
</svg>
