<?xml version="1.0" encoding="UTF-8"?><svg id="Layer_1" xmlns="http://www.w3.org/2000/svg" viewBox="0 0 500 500"><defs><style>.cls-1{fill:#fff;}.cls-2{fill:#ffc300;}.cls-3{fill:#e50054;}</style></defs><g><path class="cls-2" d="M250.16,144.76v-.35c-.06,.09-.11,.18-.16,.27,.04,.06,.06,.11,.1,.17,.02-.03,.04-.06,.06-.09Z"/><path class="cls-2" d="M424.04,167.55c-8.08-38.01-36.47-69.15-76.19-75.43-17.38-2.75-34.15-1.05-50.18,6.37-18.9,8.75-32.77,23.03-43.8,40.36-1.18,1.85-2.34,3.72-3.72,5.91-.02,.03-.04,.06-.06,.09-.04-.06-.06-.11-.1-.17-.03,.06-.06,.11-.1,.17-1.41-2.24-2.58-4.13-3.78-6-11.03-17.33-24.9-31.61-43.8-40.36-16.03-7.42-32.79-9.12-50.18-6.37-39.71,6.28-68.11,37.42-76.19,75.43-7.06,33.22-.05,63.61,18.63,91.6,9.46,14.17,20.42,27.08,32.47,38.94,1.58,1.48,3.09,2.84,4.63,4.26,22.15,18.58,61.55,44.7,98.17,64.74,7.11,3.89,13.8,7.52,20.13,10.95,36.06,19.51,58.83,31.25,58.77,31.09l-22.2-44.33s33.32-17,86.36-66.71c12.05-11.86,23.01-24.76,32.47-38.94,18.68-27.99,25.69-58.38,18.63-91.6Z"/></g><g><circle class="cls-1" cx="328.53" cy="227.43" r="17.31"/><path class="cls-3" d="M205.69,218.29v2.82c-.03,.1-.07,.19-.08,.29-.31,3.04-1.47,5.74-3.16,8.25-1.78,2.63-3.91,4.95-6.25,7.07-3.3,2.99-6.68,5.91-10.04,8.84-1.43,1.25-2.87,2.49-4.32,3.72-1.11,.95-2.75,.94-3.85-.01,0,0-.01-.01-.02-.02-4.77-4.17-9.58-8.3-14.31-12.52-2.45-2.19-4.66-4.63-6.48-7.4-2.69-4.1-3.68-8.53-2.61-13.36,1.22-5.53,5.39-10.03,11.18-10.9,2.53-.38,4.97-.12,7.3,.98,2.74,1.3,4.75,3.39,6.33,5.93,.17,.27,.34,.55,.54,.88,.28-.46,.5-.85,.75-1.23,.25-.38,.51-.75,.78-1.11,3.37-4.37,7.72-6.47,13.23-5.32,5.66,1.18,8.98,4.93,10.48,10.4,.24,.88,.35,1.8,.52,2.7Z"/><circle class="cls-1" cx="256.74" cy="227.43" r="17.31"/></g></svg>