<svg xmlns="http://www.w3.org/2000/svg" width="59.653" height="59.777" viewBox="0 0 59.653 59.777">
  <g id="Artwork_16" data-name="Artwork 16" transform="translate(29.827 29.888)">
    <g id="Group_4069" data-name="Group 4069" transform="translate(-29.827 -29.888)">
      <path id="Path_4731" data-name="Path 4731" d="M18.8,0h0A18.8,18.8,0,0,0,0,18.8V59.777H37.592V18.8A18.8,18.8,0,0,0,18.8,0" fill="#b4dbe2"/>
      <g id="Group_4068" data-name="Group 4068" transform="translate(21.939 22.062)">
        <path id="Path_4732" data-name="Path 4732" d="M124.814,106.552h0a18.858,18.858,0,0,0-18.857,18.857v18.857h18.858a18.857,18.857,0,0,0,0-37.715" transform="translate(-105.956 -106.552)" fill="#eb9266"/>
        <path id="Path_4733" data-name="Path 4733" d="M157.19,198.486a2.03,2.03,0,1,1-2.03-2.03,2.03,2.03,0,0,1,2.03,2.03" transform="translate(-143.363 -177.841)" fill="#fff"/>
        <path id="Path_4734" data-name="Path 4734" d="M191.289,198.486a2.03,2.03,0,1,1-2.03-2.03,2.03,2.03,0,0,1,2.03,2.03" transform="translate(-170.402 -177.841)" fill="#fff"/>
        <path id="Path_4735" data-name="Path 4735" d="M225.386,198.486a2.03,2.03,0,1,1-2.03-2.03,2.03,2.03,0,0,1,2.03,2.03" transform="translate(-197.439 -177.841)" fill="#fff"/>
      </g>
    </g>
  </g>
</svg>
