<?xml version="1.0" encoding="UTF-8"?><svg id="Layer_1" xmlns="http://www.w3.org/2000/svg" viewBox="0 0 820 1000"><defs><style>.cls-1{fill:#fff;}.cls-2{fill:#ffc300;}.cls-3{fill:#e50054;}</style></defs><g><path class="cls-3" d="M265.99,632.45c0-3.82-3.13-6.95-6.95-6.95h-56.22c-3.82,0-6.95-3.13-6.95-6.95v-9.53c0-3.82,3.13-6.95,6.95-6.95h82.31c3.82,0,6.95,3.13,6.95,6.95v91.82c0,3.82-3.13,6.95-6.95,6.95h-12.17c-3.82,0-6.95-3.13-6.95-6.95v-68.38Zm-68.9,22.91c0-3.82,3.13-6.95,6.95-6.95h12.17c3.82,0,6.95,3.13,6.95,6.95v45.47c0,3.82-3.13,6.95-6.95,6.95h-12.17c-3.82,0-6.95-3.13-6.95-6.95v-45.47Z"/><path class="cls-3" d="M360.46,632.45c0-3.82-3.13-6.95-6.95-6.95h-37.72c-3.82,0-6.95-3.13-6.95-6.95v-9.53c0-3.82,3.13-6.95,6.95-6.95h81.43c3.82,0,6.95,3.13,6.95,6.95v9.53c0,3.82-3.13,6.95-6.95,6.95h-3.72c-3.82,0-6.95,3.13-6.95,6.95v68.38c0,3.82-3.13,6.95-6.95,6.95h-12.17c-3.82,0-6.95-3.13-6.95-6.95v-68.38Z"/><path class="cls-3" d="M420.23,609.01c0-3.82,3.13-6.95,6.95-6.95h12.17c3.82,0,6.95,3.13,6.95,6.95v91.82c0,3.82-3.13,6.95-6.95,6.95h-12.17c-3.82,0-6.95-3.13-6.95-6.95v-91.82Z"/><g><circle class="cls-1" cx="433.26" cy="654.92" r="12.27"/><path class="cls-3" d="M433.26,643.41c6.34,0,11.5,5.16,11.5,11.5s-5.16,11.5-11.5,11.5-11.5-5.16-11.5-11.5,5.16-11.5,11.5-11.5m0-1.53c-7.2,0-13.04,5.84-13.04,13.04s5.84,13.04,13.04,13.04,13.04-5.84,13.04-13.04-5.84-13.04-13.04-13.04h0Z"/></g><path class="cls-3" d="M563.58,601.88c3.82,0,5.83,2.92,4.45,6.49l-36.58,94.86c-1.38,3.57-5.41,5.32-8.96,3.9l-11.24-4.51c-3.55-1.42-5.31-5.5-3.9-9.06l24.33-61.77c1.4-3.56-.58-6.47-4.41-6.47h-54.11c-3.82,0-6.95-3.13-6.95-6.95v-9.53c0-3.82,3.13-6.95,6.95-6.95h90.41Zm-97.36,48.71c0-3.82,3.13-6.95,6.95-6.95h12.17c3.82,0,6.95,3.13,6.95,6.95v76.48c0,3.82-3.13,6.95-6.95,6.95h-12.17c-3.82,0-6.95-3.13-6.95-6.95v-76.48Z"/><path class="cls-3" d="M522.61,830.5c17.45,0,29.96-13.22,29.96-31.9,0-23.41-15.62-35.46-33.86-30.54-3.62,.98-7.4-.81-8.62-4.36l-2.86-8.33c-1.28-3.72,.79-7.78,4.55-8.96,35.97-11.28,66.88,10.38,66.88,52.18,0,33.17-24.18,56.6-57.2,56.03-30.83-.53-55.22-26.46-55.22-57.29v-44.64c0-3.84,3.11-6.95,6.95-6.95h12.17c3.84,0,6.95,3.11,6.95,6.95v45.9c0,18.68,12.69,31.9,30.31,31.9Z"/><path class="cls-3" d="M591.12,684.35c3.82,0,6.95-3.13,6.95-6.95v-68.38c0-3.82,3.13-6.95,6.95-6.95h12c3.82,0,6.96,3.13,6.97,6.95l.15,91.82c0,3.82-3.12,6.95-6.94,6.95h-41.77c-3.82,0-6.95-3.13-6.95-6.95v-9.53c0-3.82,3.13-6.95,6.95-6.95h15.7Z"/><g><path class="cls-3" d="M265.99,776.13c0-3.82-3.13-6.95-6.95-6.95h-56.22c-3.82,0-6.95-3.13-6.95-6.95v-9.53c0-3.82,3.13-6.95,6.95-6.95h82.31c3.82,0,6.95,3.13,6.95,6.95v91.82c0,3.82-3.13,6.95-6.95,6.95h-12.17c-3.82,0-6.95-3.13-6.95-6.95v-68.38Zm-68.9,22.91c0-3.82,3.13-6.95,6.95-6.95h12.17c3.82,0,6.95,3.13,6.95,6.95v45.47c0,3.82-3.13,6.95-6.95,6.95h-12.17c-3.82,0-6.95-3.13-6.95-6.95v-45.47Z"/><path class="cls-3" d="M405.57,844.51c0,3.82-3.13,6.95-6.95,6.95h-80.01c-3.82,0-6.95-3.13-6.95-6.95v-9.53c0-3.82,3.13-6.95,6.95-6.95h36.66c3.82,0,6.95-3.13,6.95-6.95v-44.95c0-3.82-3.13-6.95-6.95-6.95h-36.66c-3.82,0-6.95-3.13-6.95-6.95v-9.53c0-3.82,3.13-6.95,6.95-6.95h62.75c3.82,0,6.95,3.13,6.95,6.95v68.38c0,3.82,3.13,6.95,6.95,6.95h3.36c3.82,0,6.95,3.13,6.95,6.95v9.53Z"/><path class="cls-3" d="M420.22,844.51v-98.77h26.08v98.77c0,3.82-3.13,6.95-6.95,6.95h-12.17c-3.82,0-6.95-3.13-6.95-6.95Z"/><g><circle class="cls-1" cx="433.26" cy="745.74" r="12.27"/><path class="cls-3" d="M433.26,734.24c6.34,0,11.5,5.16,11.5,11.5s-5.16,11.5-11.5,11.5-11.5-5.16-11.5-11.5,5.16-11.5,11.5-11.5m0-1.53c-7.2,0-13.04,5.84-13.04,13.04s5.84,13.04,13.04,13.04,13.04-5.84,13.04-13.04-5.84-13.04-13.04-13.04h0Z"/></g></g></g><g><g><path class="cls-2" d="M410.19,210.64v-.42c-.07,.11-.13,.22-.19,.32,.04,.07,.08,.13,.12,.21,.02-.04,.04-.07,.07-.11Z"/><path class="cls-2" d="M620.87,238.25c-9.78-46.05-44.19-83.78-92.31-91.39-21.06-3.33-41.38-1.28-60.8,7.71-22.9,10.6-39.71,27.9-53.07,48.9-1.43,2.24-2.83,4.5-4.51,7.17-.02,.04-.04,.07-.07,.11-.04-.07-.08-.13-.12-.21-.04,.07-.08,.13-.12,.21-1.71-2.71-3.13-5-4.58-7.27-13.36-21-30.17-38.3-53.07-48.9-19.42-8.99-39.73-11.04-60.8-7.71-48.12,7.61-82.52,45.33-92.31,91.39-8.55,40.25-.06,77.06,22.58,110.98,11.46,17.17,24.74,32.81,39.34,47.18,1.92,1.8,3.74,3.44,5.61,5.17,26.84,22.51,74.57,54.16,118.94,78.43,8.61,4.71,16.72,9.12,24.4,13.27,43.69,23.64,71.28,37.87,71.21,37.67l-26.9-53.71s40.37-20.6,104.64-80.83c14.6-14.37,27.88-30,39.34-47.18,22.63-33.91,31.13-70.73,22.58-110.98Z"/></g><g><circle class="cls-1" cx="505.15" cy="310.81" r="20.97"/><path class="cls-3" d="M356.31,299.73v3.41c-.03,.12-.09,.23-.1,.35-.37,3.68-1.78,6.96-3.83,10-2.15,3.18-4.74,6-7.57,8.56-4,3.63-8.1,7.16-12.16,10.71-1.73,1.51-3.48,3.01-5.23,4.5-1.35,1.15-3.33,1.14-4.67-.02,0,0-.02-.01-.02-.02-5.78-5.05-11.61-10.06-17.34-15.17-2.97-2.65-5.65-5.61-7.85-8.96-3.26-4.96-4.45-10.33-3.16-16.19,1.48-6.7,6.53-12.15,13.54-13.21,3.07-.46,6.03-.14,8.84,1.19,3.32,1.57,5.75,4.11,7.67,7.18,.21,.33,.41,.67,.66,1.06,.34-.56,.61-1.04,.91-1.49,.3-.46,.62-.91,.95-1.34,4.08-5.29,9.36-7.84,16.03-6.45,6.86,1.43,10.88,5.97,12.69,12.6,.29,1.07,.42,2.18,.62,3.27Z"/><circle class="cls-1" cx="418.17" cy="310.81" r="20.97"/></g></g></svg>